<svg xmlns="http://www.w3.org/2000/svg" xml:space="preserve" fill="var(--color-grey)" style="enable-background:new 0 0 300.2 181.9" viewBox="0 0 300.2 181.9"><path d="M46.1 27.7c-16 10.6-26 25.3-26 41.7 0 9 2.9 17 7.7 24.4l18.3-66.1zM112.7 94h-26l-8.3 30.8c8.3 1.9 17.3 2.9 26.6 2.9 5.8 0 11.2-.3 16.7-1.3zm-42.6 28.2L62.4 94H36.8l-2.2 8c9 9 21.1 16 35.6 20.5v-.3zM162.7 94h-26l-2.2 8.3 6.1 19.9c9.9-2.9 18.9-7.4 26.3-12.8zm-2.2-7.7-10.9-38.8L139 86.3zm21.7 7.7c5.1-7.4 8-15.7 8-24.7 0-17-10.6-32-27.9-42.9zm-122-7.7L49.6 47.6 39 86.3zm69.8 0 18.6-67c-12.2-4.8-26-7.7-40.4-8zM99.6 47.6 89 86.3h21.5zM60.5 20 80 86.3l20.5-75c-14.4.7-28.1 3.6-40 8.7M2.2 69.3C2.2 34.4 48.3 5.9 105 5.9c57 0 103.2 28.5 103.2 63.4 0 35.2-46.1 63.8-103.2 63.8-56.7 0-102.8-28.5-102.8-63.8" class="st0"/><path d="M296.3 8.8C287.7-6 242.2 3.7 185.4 29.6c2.9 2.2 5.8 4.8 8 7.4 43.6-18.6 77.2-24.3 84.3-12.2 8 13.8-23.7 48.1-74.7 82l.6.6c62.3-40.3 102.3-82 92.7-98.6M27.8 169c-4.8-8.7 5.4-25 26-44.5-1.6-.3-3.2-1-4.8-1.6-.3 0-.3-.3-.3-.3-1.6-.6-3.2-1.3-4.8-1.9-24.7 22.7-37.2 42-31.4 52.2 7 11.9 37.5 8 78.2-7l-.3-.6c-32.8 11-56.8 13.3-62.6 3.7" class="st0"/><path d="M-.5 92.5h94v94h-94zM280.9-.2h94v94h-94z" style="fill:none"/></svg>