<svg xmlns="http://www.w3.org/2000/svg" width="1112" height="858" version="1.0" viewBox="0 0 834 643.5"><path fill="var(--color-grey)" d="M274.795 209.445c1.57.399 4.117.887 6.512 1.332 1.922.325 3.883.496 5.648.782 3.532.57 6.676.039 9.672-1.868 6.348-3.89 10.621-9.48 13.055-16.379.918-2.273 1.836-4.543 2.594-6.855 1.8-5.723 3.132-11.566 2.695-17.695-.29-4.086-1.484-7.903-3.426-11.41-.312-.747-.703-1.18-1.207-1.813-.742-1.023-.898-1.066.242-1.61.2-.117.594-.347.946-.425 2.832-.61 4.964-2.406 6.863-4.594 2.058-2.816 3.84-5.867 4.883-9.277.64-1.844 1.12-3.723 1.8-5.723 1.325-4.508 1.547-9.297 1.262-14.05-.453-3.458-1.058-6.958-2.531-10.344-.89-2.399-1.777-4.801-3.77-6.817-1.562-1.734-3.554-3.082-5.789-4.156-1.054-.438-2.113-.875-3.015-1.274-2.934-1.59-6.27-2.277-9.407-3.078-3.293-.843-6.468-1.492-9.804-2.18-.98-.085-1.805-.128-2.59-.327-.98-.086-1.805-.13-2.59-.332-2.312-.758-4.82-1.403-7.133-2.16-.941-.243-1.843-.641-2.785-.883-2.707-.524-5.297-.856-8.05.109-1.258.348-1.97 1.168-2.29 2.422-.004.668-.125 1.14-.445 1.726-1.398 4.153-2.324 8.43-3.059 12.586-.168 1.965-.609 3.688-1.25 5.532-.84 2.625-1.718 5.41-2.285 8.273-1.613 6.941-3.105 14.078-4.719 21.02-2.453 10.234-4.91 20.468-7.523 30.664a341.214 341.214 0 0 1-4.973 17.445c-.879 2.785-1.172 5.883-1.738 8.746-.285 1.766.531 3.145 2.414 3.629 2.195.562 4.352 1.281 6.625 1.531 3.063.45 5.961 1.527 8.86 2.606 5.058 1.796 10.234 3.12 16.308 4.847m-1.012-41.71c.528-2.708 1.25-5.532 1.778-8.239.32-1.254.32-1.254 1.617-1.09 2.664.684 5.527 1.25 8.351 1.973 1.727.445 3.372 1.2 4.977 2.113 1.563 1.07 2.34 2.606 2.762 4.219 1.426 4.875 1.043 9.625-.633 14.21-.84 2.626-2.973 4.419-5.883 5.345-4.21 1.43-8.332 1.207-12.45.32-1.14-.125-2.237-.406-3.491-.727-.742-.359-.903-.398-.66-1.34 1.25-5.53 2.343-11.097 3.593-16.628l.04-.157m9.356-41.727c.61-3.024 1.332-5.844 2.094-8.824.16-.63.242-.942 1.066-.899 2.234.406 4.512.656 6.906 1.102 2.078.367 4.078 1.043 5.836 2.664 1.094.949 1.95 2.172 2.254 3.59.957 4.086.934 8.093-.07 12.015-.2.781-.559 1.528-1.149 1.875-1.656 1.25-3.547 2.102-5.625 1.735-2.394-.446-4.945-.93-7.336-1.375-1.609-.247-3.218-.493-4.867-.582-1.61-.243-1.566-.399-1.324-2.008.727-2.824 1.488-5.805 2.055-8.668.039-.156.082-.313.16-.625m127.657 40.557c.695-5.954.406-11.829-.203-17.735-.328-3.605-.817-7.226-1.309-10.848-.61-5.906-2.902-11.148-6.035-16.144-1.426-2.238-3.012-4.496-5.285-6.324-2.438-1.844-5.223-3.39-7.996-5.102 0 0-.164-.015-.149-.176-2.054-.671-3.945-1.328-6.011-1.84-3.2-.609-6.438-.738-9.664-1.023-2.27-.043-4.703-.098-7.036.508-3.484.828-6.988 1.812-10.093 3.812-2.414 1.57-5.14 2.954-7.278 5.04-2.5 2.539-4.535 5.285-6.582 8.19-1.332 2.157-2.191 4.517-3.199 6.704-2.453 5.633-4.101 11.336-5.281 17.246-.55 2.55-.945 5.117-1.32 7.524-.465 3.37-1.09 6.726-1.555 10.101-.492 3.695-.664 7.418-.188 11.2-.058.644.047 1.304-.011 1.949.105 2.449.066 4.718.011 7.152.18 3.43.875 6.582 1.73 9.746 1.563 6.152 4.298 11.926 8.075 16.977.586.703 1.336 1.418 1.922 2.12.766.56 1.352 1.258 1.953 1.801 2.098 1.977 4.402 3.48 6.926 4.36 4.078 1.664 8.387 2.535 12.726 3.086 3.711.332 7.422.664 10.965-.809 1.332-.367 2.504-.75 3.84-1.121.672-.262 1.363-.691 2.05-1.117.864-.57 1.727-1.145 2.579-1.555 2.914-1.691 5.664-3.398 7.7-6.14 1.652-2.13 3.468-4.243 4.812-6.56 2.457-3.847 4.59-7.718 6.27-11.956 2.265-5.324 4.366-10.664 5.53-16.414.29-1.434.258-2.902.872-4.309.629-1.57.625-3.36.93-4.957.1-1.129.202-2.258.304-3.386m-57.684-.278c.141-5.187.91-10.16 2.485-15.058 2-5.997 4.937-11.586 9.414-16.227 2.488-2.379 5.699-3.715 9.082-3.414 3.402.14 6.367 1.543 8.773 3.71.293.352.602.54.719 1.04 1.543 2.738 2.738 5.77 3.43 8.922.875 4.793 1.41 9.715 1.472 14.433-.21 4.211-.734 8.227-1.254 12.243-.23 2.582-.62 5.148-1.324 7.523-1.293 5.41-2.914 10.793-5.324 15.941-1.008 2.188-2.473 4.008-4.652 4.786-2.711 1.222-5.7 1.93-8.707 1.011-1.746-.48-3.493-.96-5.223-1.605-3.46-1.285-5.516-3.742-7.016-6.965-1.441-3.867-1.918-7.648-2.218-11.578-.36-5.07-.41-9.953.343-14.762m98.433 42.809-.218-2.743c-.32-4.035-.641-8.07-.786-11.957-.09-1.129-.09-1.129.88-1.207 1.437-.277 2.718-.539 4.156-.816 1.128-.09 2.246-.34 3.203-.578.808-.067 1.316.219 1.531.851 1.121 1.86 2.402 3.707 3.539 5.73 2.281 4.204 4.578 8.571 7.195 12.911 2.418 3.867 5.16 7.711 7.739 11.566.175.149.187.309.347.297.387.782 1.059 1.055 1.852.828 1.133-.09 2.101-.168 3.07-.242l14.04-1.113c.956-.238 1.765-.305 2.718-.543 1.75-.461 2.887-2.504 2.262-4.238a43.92 43.92 0 0 0-2.094-3.895c-.399-.941-1.11-1.699-1.496-2.48-1.559-3.285-3.106-6.414-4.668-9.7a99.608 99.608 0 0 1-3.219-5.753c-.758-1.403-1.36-2.817-2.27-4.043-1.867-3.102-3.738-6.2-5.769-9.29-.363-.456-.398-.94.219-1.316 1.043-1.219 2.27-2.129 2.972-3.484 1.735-2.735 3.465-5.473 4.364-8.465 1.972-5.844 3.129-11.781 2.465-18.063a139.595 139.595 0 0 0-1.403-11.582c-1.05-7.062-3.511-13.527-6.914-19.593-.55-.766-1.097-1.536-1.808-2.293-.36-.457-.883-.903-1.418-1.512-2.852-3.184-6.582-5.16-10.707-5.973l-1.973-.328c-2-.652-3.953-.66-5.887-.508-.969.078-1.937.153-2.906.23-5.34.263-10.516.509-15.695.759-3.887.144-7.762.453-11.793.773-3.07.242-6.309.336-9.524.754-2.57.367-3.46 1.41-3.445 3.684.133 3.726.254 7.289.375 10.851-.024 1.79.281 3.55.422 5.328.367 2.57 1.054 5.114 1.258 7.696.656 4.171.976 8.207 1.457 12.226 1 12.59 2 25.18 2.996 37.77 1.11 11.93 1.722 23.738 2.172 35.558.004 2.114.875 2.856 2.972 2.688.969-.074 1.938-.153 2.918-.067 2.422-.195 4.707-.05 7.14-.082l7.102-.562c2.262-.18 3.141-1.387 3.122-3.656-.211-4.696-.27-9.563-.493-14.418m-4.195-57c-.5-6.293-1.148-12.414-1.637-18.547-.086-1.133-.086-1.133 1.043-1.219 3.387-.27 6.766-.7 10.157-.969 2.582-.207 5.226.399 7.562 1.188 1.168.394 2.04 1.136 2.629 2.39 1.309 2.168 2.133 4.375 2.336 6.957.496 4.188.988 8.371.676 12.618-.078 3.093-.993 5.925-1.918 8.597-.43.684-.703 1.356-.801 2.176-.68 1.676-1.719 2.895-3.293 3.508-1.727.789-3.625 1.426-5.535 1.902-2.543.688-5.45.918-8.192 1.137-.968.078-1.132.09-1.207-.879-.238-.957-.14-1.777-.218-2.746-.422-5.324-1.02-10.8-1.442-16.125l-.16.012m84.871 2.99c.157-.04.118-.196.274-.235.039.156.195.117.234.274 2.082 2.988 4.985 5.265 7.457 7.82 3.414 3.656 6.946 7.113 10.516 10.73 2.629 2.516 5.062 4.91 7.652 7.27 2.824 2.633 5.73 4.914 8.082 7.664 1.453 1.809 2.864 3.457 4.278 5.11 2.863 2.788 5.886 5.538 8.789 8.488.629.511 1.414.98 2.043 1.492.547.2 1.214.2 1.53.121 2.04-.512 4.044-1.176 6.087-1.684 1.531-.55 3.183-1.296 4.95-1.57 1.726-.43 2.827-1.371 3.733-3.098.313-.746.512-1.296.274-2.238-.899-2.945-1.684-6.086-2.426-9.074-1.918-6.363-3.8-12.566-5.406-19.008-2.7-10.172-5.125-20.582-7.828-30.754a775.368 775.368 0 0 0-7.125-26.59c-1.805-6.558-4.235-12.96-5.719-19.601-.195-.785-.824-1.297-1.531-1.453-.356-.078-.707-.157-1.18-.04-1.215-.199-2.59.313-3.848.626-2.71.507-5.578 1.054-8.285 1.562-1.414.356-2.633.824-3.773 1.61-.98.746-1.492 1.37-1.18 2.628 1.137 4.555 2.27 9.114 3.524 13.473 1.449 5.145 3.37 10.172 4.66 15.356 2.86 10.804 5.562 21.644 8.222 32.328.078.312 0 .664.078.98-.351-.078-.55-.2-.59-.355-3.175-3.38-6.511-6.72-9.53-10.137-2.005-2.004-3.692-4.086-5.536-6.133-5.726-6.246-11.457-12.496-16.75-19.016-3.336-4.007-6.984-7.937-10.086-12.34-1.566-2.277-3.57-4.28-5.293-6.523-.785-1.137-1.925-1.687-3.218-1.531l-5.774.937-3.144.782c-1.57.39-3.141.785-4.872 1.215-.312.078-.785.195-1.058.43-1.336 1.335-2.125 2.866-1.613 4.905.234.946.43 1.731.78 2.477.235.941.63 1.848 1.06 2.906.98 3.93 2.156 7.973 3.171 12.059 2.899 11.625 5.754 23.094 8.614 34.562 1.644 5.93 3.289 11.864 4.894 17.637 2.82 11.309 5.52 22.817 8.3 33.973.196.785.352 1.414.704 2.16.469 1.219 1.648 1.926 2.906 1.613 3.809-.785 7.696-1.25 11.387-2.504 1.375-.511 2.555-1.136 3.656-2.078 1.098-.945 1.375-2.515 1.024-3.93-1.137-3.886-2.274-7.773-3.25-11.703-1.293-5.183-2.309-10.605-3.602-15.789-1.879-8.207-3.953-16.535-5.988-24.703l-.274-1.101m0 0"/><path fill="none" stroke="var(--color-grey)" stroke-width="6.072" d="M87.84 274.684a19.577 19.577 0 0 1-1.149-2.133c-.988-1.781-1.777-3.403-2.57-4.985-.828-1.617-1.816-3.398-2.61-5.02-.312-.827-.628-1.62-1.144-2.292-1.937-3.871-3.875-7.586-5.496-11.66-.156-.473-.473-.95-.629-1.461-.515-.633-.988-1.11-1.976-1.266-2.098-.156-4.036-.355-6.13-.156-2.449.156-4.702 0-7.113.156-2.136.156-4.23.317-6.328.633-1.46.156-1.777.988-1.3 2.254.988 2.133 1.933 4.07 3.082 6.164 2.253 3.875 4.386 8.105 6.324 12.137 2.094 4.386 4.031 8.578 6.484 12.648 3.043 5.18 6.125 10.516 9.207 15.692 1.621 2.609 1.938 5.34 1.781 8.261-.316 6.64-.16 13.282 0 19.766.157 4.863.317 9.527.473 14.23v21.07c0 1.934 1.305 3.2 3.399 3.2 4.863.2 9.726-.156 14.585-.633 1.622-.156 2.77-1.305 2.77-2.922.156-4.668.156-9.21.156-13.758v-25.734c0-2.25 0-4.387-.156-6.48v-9.211c0-1.778.156-3.754.79-5.536.632-2.093 1.304-4.187 2.253-6.285 2.133-4.86 4.387-9.566 6.64-14.425 1.462-2.77 2.926-5.497 4.387-8.422 2.098-4.032 4.192-8.102 6.325-12.133.632-1.149 1.109-2.254 1.78-3.559.473-1.144.95-2.449 1.622-3.558.316-.828.945-1.461.473-2.293-.473-1.106-1.461-.79-2.41-.79-2.294.157-4.391.317-6.641.317-3.758.156-7.313.316-11.031.473-.633 0-1.145.16-1.461.832-.473.789-1.106 1.777-1.461 2.57-2.098 4.543-4.192 8.934-6.801 13.121-2.094 3.399-4.031 6.8-5.652 10.516-.16.156-.317.355-.473.672Zm47.437 31.898c-.156 3.715-.316 9.883-.511 16.012l-.477 20.238c-.156 4.703-.156 9.566-.316 14.426-.157 1.781.793 3.082 1.62 4.347.157.317.634.672 1.145.833 1.621.316 3.203.949 4.668.949 3.239.156 6.48.156 9.563 0 3.086-.16 6.168-.477 9.21-.633 4.231 0 8.778 0 12.966-.16 2.925-.156 5.695-.473 8.421-.473 5.493-.2 10.872-.2 16.364-.355.793 0 1.62 0 2.093-.633 1.149-1.305 1.938-2.61 1.938-4.387.16-3.719-.473-7.433-.633-11.148 0-1.305 0-2.926-1.46-3.914 0 0 0-.157-.157-.317-.832-1.46-2.453-2.254-4.035-1.937-.672 0-1.305.16-1.977 0-1.933 0-4.031-.157-5.969-.157-3.082.157-6.164.473-9.25.473-5.492.16-10.988.16-16.324.16-1.46.196-1.46 0-1.46-1.265V328.6c-.16-6.007-.16-11.82-.16-17.671 0-2.094.16-2.094 2.253-2.094 3.715-.316 7.434-.473 11.188-.79 3.398-.198 6.64-.671 10.039-.987h4.664c1.304-.16 2.136-.832 2.136-2.254 0-3.754 0-7.313-.16-10.871 0-1.621-.195-3.243-.355-4.864-.156-1.105-.156-1.105-1.266-1.105h-3.238c-4.39 0-8.934-.156-13.442 0-3.558 0-7.156.16-10.87.16-1.106 0-1.305 0-1.305-1.305.199-4.547.355-9.054.355-13.757.16-.989.16-.989 1.11-1.145 3.753-.477 7.628-.633 11.343-.793 4.547 0 8.895 0 13.438-.156 3.242-.2 6.64-.356 9.883-.516 1.304-.156 2.57-.316 3.402-1.46.629-.95 1.144-2.098.945-3.243-.156-5.02-.316-10-.472-15.02-.16-2.77-1.621-4.707-4.508-4.863-.512 0-1.145 0-1.461.156-1.621.317-3.082.16-4.547.16-3.082 0-6.164-.16-9.05-.16-1.977 0-3.755-.156-5.536-.156-6.797 0-13.754.156-20.555.156-.472 0-.949.16-1.62.16h-13.599c-2.254.317-3.399 1.462-3.399 3.715-.16.633 0 1.149 0 1.622 0 2.253.156 4.546.156 6.8-.316 15.215-.472 30.434-.789 48.262Zm115.114 56.488c4.863 0 9.527-.476 14.074-2.73.988-.672 1.937-1.145 2.926-1.617 3.238-2.293 6.64-4.391 9.05-7.63 2.293-3.085 4.547-6.011 6.008-9.566 3.082-6.957 3.875-14.39 2.41-22.02-.316-1.937-1.105-4.03-1.777-5.968-.473-1.144-1.144-2.094-1.621-3.242-1.106-2.25-2.926-4.07-4.86-5.492-.792-.516-1.265-1.305-2.097-1.977-.988-.789-2.094-1.621-3.082-2.57-1.938-1.621-4.031-2.61-6.285-3.715-2.293-1.305-4.703-2.293-6.996-3.398-.633-.356-1.426-.516-2.098-.989-2.41-1.465-5.176-2.926-7.586-4.547-1.621-.949-3.086-2.093-4.23-3.558-1.149-1.266-1.782-2.727-1.938-4.348-.16-1.305 0-2.765.316-4.07.473-1.465 1.622-2.727 2.926-3.715 1.305-1.148 2.766-1.938 4.348-1.938 3.398-.316 6.996-.316 10.394.633 1.938.512 3.559 1.305 4.864 2.766.949.988 2.254 1.777 3.398 2.766.317.16.633.476.95.476 1.62 0 3.081-.16 4.23-1.305 1.105-1.148 2.254-2.253 3.242-3.398 1.578-2.098 3.2-4.035 4.82-6.168 1.149-1.422 1.305-2.887.516-4.508-.988-1.617-2.293-3.082-3.559-4.543-1.777-2.414-4.07-4.031-6.484-5.652-2.922-2.293-6.164-3.559-9.562-4.547a29.838 29.838 0 0 0-8.262-1.148c-4.863.16-9.528.671-13.914 2.925-.989.477-1.938.989-2.926 1.621-3.402 2.094-6.64 4.387-9.211 7.63-2.293 3.042-4.547 5.968-6.008 9.527-3.082 6.957-3.875 14.425-2.41 21.86.473 2.608 1.461 5.335 2.566 7.784.989 2.098 2.137 4.035 3.915 5.653 1.62 1.304 3.042 2.77 4.664 4.074 1.937 1.422 3.914 2.726 5.851 4.187a17.41 17.41 0 0 0 3.082 1.621c1.621.793 3.399 1.938 5.18 2.61 2.883.949 5.336 2.57 7.906 4.031 1.777.988 3.399 2.098 5.02 3.242 1.976 1.305 3.242 2.926 4.07 5.02 1.105 3.402.316 6.484-2.094 8.738-1.82 1.777-4.074 2.61-6.484 3.398-1.938.473-3.754.473-5.692-.16-2.093-.629-4.03-1.46-6.125-2.25-.832-.355-1.464-.832-2.293-1.304-2.414-1.305-4.035-3.559-5.968-5.496-.672-.989-1.305-1.977-2.098-2.926-.512-.473-.988-1.305-1.977-.989-.949.16-1.777.516-2.566 1.305-1.148 1.149-2.254 2.254-3.559 3.242-2.609 1.778-4.863 4.192-7.312 6.168-.793.633-1.11 1.621-.793 2.567.477 1.148.793 2.453 1.465 3.402 2.094 3.555 4.348 6.957 7.43 9.723.988.949 1.937 1.777 3.082 2.57.832.672 1.937 1.305 2.925 1.977 2.887 2.093 6.13 3.554 9.727 4.503 3.398.833 6.797 1.622 10.512 1.465Zm85.324-53.918h.16c0-.472 0-.949.156-1.46.317-7.75.633-15.536.793-23.481.196-4.664 0-9.527 0-14.39v-1.305c0-.633.196-.79.828-.79h2.61c4.347-.16 8.894-.671 13.398-.16h.988c1.305-.195 1.782-.828 1.938-2.132v-3.243c.16-4.503.672-8.894.477-13.28 0-1.778-.477-2.095-2.098-2.095-2.883 0-5.809.157-8.735.157-12.136.16-24.113.16-36.246-.633-3.914-.156-7.945 0-11.82.16-1.305.156-1.976.633-2.137 2.094-.472 4.703-.629 9.41-.629 14.113 0 1.461.157 2.727.317 4.031.156.828.629 1.305 1.3 1.305h1.465c5.493-.477 10.989-.316 16.325-.316.988 0 .988 0 .988.949.16 2.094.16 4.23.16 6.48 0 5.496 0 11.032-.316 16.684-.477 8.101-.832 16.207-.832 24.113-.157 8.89.199 17.668.199 26.402v16.524c0 1.937 1.105 3.043 3.043 3.398.828.16 1.777.16 2.766.317 4.19.633 8.261.316 12.292-.473.989-.355 1.782-.988 1.782-2.137.156-5.175.511-10.355.511-15.53.16-11.821.317-23.481.317-35.302Zm32.71-2.57c-.155 3.715-.316 9.883-.51 16.012l-.477 20.238c-.157 4.703-.157 9.566-.317 14.426-.156 1.781.793 3.082 1.621 4.347.16.317.633.672 1.149.833 1.617.316 3.199.949 4.664.949 3.238.156 6.48.156 9.562 0 3.086-.16 6.168-.477 9.211-.633 4.23 0 8.777 0 12.965-.16 2.926-.156 5.695-.473 8.422-.473 5.492-.2 10.871-.2 16.363-.355.793 0 1.621 0 2.098-.633 1.144-1.305 1.933-2.61 1.933-4.387.16-3.719-.472-7.433-.632-11.148 0-1.305 0-2.926-1.461-3.914 0 0 0-.157-.157-.317-.832-1.46-2.453-2.254-4.035-1.937-.672 0-1.304.16-1.976 0-1.934 0-4.032-.157-5.97-.157-3.081.157-6.163.473-9.25.473-5.491.16-10.987.16-16.323.16-1.461.196-1.461 0-1.461-1.265V328.6c-.16-6.007-.16-11.82-.16-17.671 0-2.094.16-2.094 2.254-2.094 3.714-.316 7.433-.473 11.187-.79 3.398-.198 6.64-.671 10.04-.987h4.663c1.305-.16 2.137-.832 2.137-2.254 0-3.754 0-7.313-.16-10.871 0-1.621-.196-3.243-.356-4.864-.156-1.105-.156-1.105-1.265-1.105h-3.239c-4.39 0-8.933-.156-13.441 0-3.559 0-7.156.16-10.871.16-1.106 0-1.305 0-1.305-1.305.2-4.547.356-9.054.356-13.757.16-.989.16-.989 1.109-1.145 3.754-.477 7.629-.633 11.344-.793 4.547 0 8.894 0 13.437-.156 3.242-.2 6.645-.356 9.883-.516 1.305-.156 2.57-.316 3.402-1.46.63-.95 1.145-2.098.946-3.243-.157-5.02-.317-10-.473-15.02-.156-2.77-1.621-4.707-4.508-4.863-.511 0-1.144 0-1.46.156-1.622.317-3.083.16-4.548.16-3.082 0-6.164-.16-9.05-.16-1.977 0-3.754-.156-5.536-.156-6.796 0-13.753.156-20.554.156-.473 0-.95.16-1.621.16h-13.598c-2.254.317-3.398 1.462-3.398 3.715-.157.633 0 1.149 0 1.622 0 2.253.156 4.546.156 6.8-.313 15.215-.473 30.434-.79 48.262Zm104.403 39.016v-2.766c0-4.035 0-8.105.2-11.98 0-1.145 0-1.145.949-1.145 1.46-.156 2.765-.316 4.226-.473 1.11 0 2.254-.16 3.242-.316.79 0 1.266.316 1.422.95.988 1.972 2.137 3.91 3.086 6.007 1.938 4.387 3.914 8.89 6.164 13.438 2.098 4.03 4.547 8.105 6.801 12.136.156.156.156.317.316.317.317.828.989 1.144 1.778.988h17.156c.988-.16 1.777-.16 2.766-.316 1.78-.317 3.086-2.293 2.57-4.07a38.92 38.92 0 0 0-1.777-4.036c-.317-.988-.95-1.777-1.266-2.61-1.305-3.398-2.61-6.64-3.914-10.038-.95-1.938-1.938-4.032-2.727-5.97-.672-1.46-1.148-2.925-1.937-4.23-1.621-3.199-3.242-6.441-5.02-9.683-.355-.512-.355-.988.317-1.305 1.105-1.144 2.41-1.937 3.242-3.242 1.933-2.606 3.871-5.176 5.02-8.102 2.41-5.652 4.03-11.504 3.87-17.789 0-3.914-.156-7.785-.472-11.66-.516-7.152-2.45-13.754-5.336-20.078-.516-.832-.988-1.621-1.621-2.453-.356-.473-.832-.95-1.305-1.621-2.61-3.399-6.168-5.653-10.2-6.797-.67-.16-1.304-.316-1.937-.477-1.976-.789-3.91-.949-5.847-.949h-2.926a2429.25 2429.25 0 0 0-15.691-.512c-3.875-.16-7.79-.16-11.82-.16-3.083 0-6.325-.156-9.567 0-2.57.16-3.559 1.149-3.715 3.403-.16 3.714-.316 7.273-.477 10.867-.156 1.781 0 3.558 0 5.34.16 2.566.633 5.175.633 7.746.356 4.23.356 8.261.516 12.332v37.867c.156 11.98-.16 23.797-.672 35.617-.16 2.094.672 2.926 2.766 2.926.949 0 1.937 0 2.925.156 2.41 0 4.664.317 7.114.477h7.117c2.254 0 3.242-1.11 3.398-3.403.16-4.664.477-9.523.633-14.386Zm.356-57.16c0-6.325-.157-12.45-.157-18.618 0-1.144 0-1.144 1.106-1.144 3.398 0 6.8-.16 10.199-.16 2.61 0 5.176.832 7.469 1.78 1.11.474 1.937 1.306 2.414 2.61 1.144 2.25 1.777 4.504 1.777 7.114.156 4.19.317 8.418-.316 12.609-.317 3.082-1.461 5.851-2.61 8.422-.472.672-.789 1.3-.949 2.133-.828 1.62-1.937 2.726-3.554 3.242-1.782.633-3.72 1.105-5.696 1.422-2.566.515-5.492.515-8.262.515-.945 0-1.105 0-1.105-.988-.156-.95 0-1.781 0-2.77 0-5.335-.156-10.828-.156-16.167h-.16Zm90.18 73.328c1.109 0 2.253-.16 3.402 0 4.347.156 8.578 0 12.765-.793 2.293-.317 4.39-.828 6.324-1.778.317-.316.833-.316 1.149-.472 4.504-2.137 8.578-5.22 12.293-8.618 1.144-.949 1.937-2.414 2.926-3.558 2.093-2.254 3.558-4.863 4.86-7.59 1.425-3.242 2.57-6.64 3.558-10.039.793-2.77 1.265-5.652 1.937-8.578 1.145-5.02 1.621-10.2 1.621-15.38 0-3.397-.316-6.956-.476-10.355-.196-3.082-.356-6.007-.985-8.933-.316-2.254-.633-4.504-.832-6.797-.156-3.402-1.105-6.484-2.41-9.527-1.781-3.598-4.031-6.801-6.324-9.883-1.781-2.293-3.719-4.23-6.129-5.535-.828-.473-1.621-.95-2.293-1.422-2.41-2.133-5.176-3.598-7.746-5.18-2.61-1.46-5.18-2.133-8.106-1.816-1.933.355-3.87.511-5.847.199-.633-.2-1.11-.2-1.781-.2-4.348.2-8.735.356-13.082.356-4.07 0-7.946-.156-11.82-.156-1.977 0-3.915.312-5.848.629-1.465.16-2.415 1.148-2.57 2.57-.16 1.465-.356 2.926-.356 4.387 0 1.781 0 3.558-.16 5.34-.317.988-.157 2.093-.157 3.082 0 2.449.317 4.86.317 7.43 0 2.925-.317 6.007-.317 9.093-.476 11.5-.632 23.164-.316 34.625.156 5.02.156 10.043.316 15.063.157 6.164.317 12.172.672 18.14.156 4.39.473 8.578.79 12.809.16 1.266.988 2.254 2.253 2.41.828.16 1.621.16 2.45.16h6.324c2.097.156 4.035.317 6.129.317h7.468Zm-.985-56.805v-10.04c-.16-6.796-.316-13.753-.477-20.554 0-.355 0-.672.16-.988 0-.156.317-.473.473-.633.672-.195 1.305-.195 1.938-.195 1.976-.16 3.914-.16 5.847-.16 2.414 0 4.707.515 6.485 2.449.633.476 1.265.95 1.937 1.305 2.727 1.62 4.508 4.19 5.492 7.117 1.305 3.715 2.454 7.43 3.243 11.343a41.687 41.687 0 0 1 1.464 12.61c0 1.305 0 2.765.157 4.031 0 2.293-.157 4.23-.633 6.324-.988 3.086-1.621 6.012-2.926 8.739-1.777 3.242-4.226 5.847-7.469 7.629-2.726 1.304-5.652 1.777-8.578 2.253-1.937.157-3.875.512-5.812.672-1.301 0-1.461-.16-1.461-1.465v-16.363c0-4.703.16-9.41.16-14.074Zm134.86 57.633c1.144.316 2.292 0 3.398-.317 1.465-.355 2.77-2.132 2.61-3.554-.317-1.149-.673-2.293-.99-3.403a98.88 98.88 0 0 0-1.46-5.02c-.477-2.132-.793-4.23-1.266-6.163-.355-1.465-.672-2.77-.988-4.23-.316-2.41-.79-5.02-1.305-7.434-.949-4.188-2.093-8.578-3.242-12.805a1305.145 1305.145 0 0 1-6.125-23.441c-.988-3.438-1.937-6.997-2.926-10.239-1.148-4.191-2.609-8.222-3.875-12.293-.672-2.57-1.46-5.02-1.937-7.59-.672-2.925-1.145-6.007-2.293-8.773-.156-.477-.156-.95-.317-1.426-.472-2.133-.988-4.226-1.617-6.324-.476-1.777-1.304-2.61-3.242-2.45-.95.196-1.937 0-2.926-.16-1.105-.156-2.254 0-3.398.16-2.57.356-5.336.829-8.067 1.145-1.46.16-2.921.317-4.386.477-.79 0-1.461.512-1.778 1.305-.632 1.144-1.304 2.25-1.62 3.398-1.15 3.875-1.938 7.629-2.926 11.504-.317 1.305-.473 2.605-.95 3.715-1.777 6.324-3.558 12.648-5.336 18.933-1.46 4.864-2.925 9.567-4.386 14.43-1.465 5.336-3.082 10.512-4.547 15.691-.95 3.715-1.778 7.47-2.41 11.188-.672 3.555-1.465 6.957-2.454 10.355a404.769 404.769 0 0 0-2.41 7.114c-.988 3.718-1.937 7.629-3.082 11.347-.476 1.778-.16 3.082 1.461 4.032.477.355.989.672 1.621.672 1.149.156 2.254.316 3.559.316 4.23-.16 8.418-.477 12.648-.633 1.266 0 2.41-.2 3.715-.355.95 0 1.781-.633 2.098-1.621.473-1.106.988-2.254 1.46-3.399.95-1.937 1.462-4.035 1.778-6.129.317-2.293.317-1.777 2.254-1.777 2.926 0 5.852 0 8.738-.16 2.29-.157 4.703-.512 7.153-.672 2.254-.156 4.507-.156 6.8-.156.633-.16.95.156 1.106.828 0 .949.355 1.937.516 2.886.628 3.399 2.093 6.641 3.554 9.883.317.473.793.989 1.465 1.305 1.266.988 2.727.988 4.188.789 2.097-.156 4.074-.316 6.007-.473.633 0 1.266-.16 1.938-.16 1.465-.156 2.926-.156 4.191-.316Zm-34.946-71.23c.477 1.109.633 2.413 1.11 3.558a349.38 349.38 0 0 0 2.449 6.957c1.464 4.191 2.414 8.734 3.398 13.125.316 1.46.95 2.726 1.266 4.187.199.317.199.477.355.832.477 1.622.477 1.622-1.305 1.778-3.082.476-6.164.476-9.246.793h-3.718c-.79 0-.95 0-.79-.95.473-3.085.95-6.167 1.622-9.25 1.105-5.968 2.41-11.976 3.714-17.789.16-1.144.473-2.292.79-3.242h.355Zm84.352-16.68a19.481 19.481 0 0 1-1.145-2.133c-.988-1.781-1.781-3.403-2.57-4.985-.832-1.617-1.82-3.398-2.61-5.02-.316-.827-.632-1.62-1.148-2.292-1.934-3.871-3.871-7.586-5.492-11.66-.16-.473-.477-.95-.633-1.461-.516-.633-.988-1.11-1.977-1.266-2.093-.156-4.03-.355-6.125-.156-2.453.156-4.707 0-7.117.156-2.133.156-4.23.317-6.324.633-1.461.156-1.777.988-1.305 2.254.989 2.133 1.938 4.07 3.082 6.164 2.254 3.875 4.39 8.105 6.325 12.137 2.097 4.386 4.035 8.578 6.484 12.648 3.043 5.18 6.125 10.516 9.21 15.692 1.622 2.609 1.938 5.34 1.778 8.261-.316 6.64-.156 13.282 0 19.766.16 4.863.317 9.527.477 14.23v21.07c0 1.934 1.304 3.2 3.398 3.2 4.863.2 9.723-.156 14.586-.633 1.621-.156 2.766-1.305 2.766-2.922.16-4.668.16-9.21.16-13.758v-25.734c0-2.25 0-4.387-.16-6.48v-9.211c0-1.778.16-3.754.793-5.536.633-2.093 1.304-4.187 2.25-6.285 2.136-4.86 4.39-9.566 6.64-14.425 1.465-2.77 2.926-5.497 4.39-8.422 2.095-4.032 4.188-8.102 6.325-12.133.633-1.149 1.106-2.254 1.777-3.559.477-1.144.95-2.449 1.622-3.558.316-.828.949-1.461.472-2.293-.472-1.106-1.46-.79-2.41-.79-2.293.157-4.387.317-6.64.317-3.754.156-7.313.316-11.028.473-.633 0-1.148.16-1.465.832-.472.789-1.105 1.777-1.46 2.57-2.094 4.543-4.192 8.934-6.798 13.121-2.097 3.399-4.035 6.8-5.656 10.516a2.424 2.424 0 0 0-.472.672Zm0 0"/><path fill="var(--color-grey)" d="M231.53 541.038c1.492-.637 3.812-1.797 5.984-2.895 1.723-.91 3.387-1.969 4.96-2.816 3.153-1.688 5.329-4.02 6.552-7.356 2.675-6.945 2.675-13.98.422-20.941-.653-2.36-1.305-4.723-2.106-7.02-2.043-5.64-4.535-11.09-8.605-15.695-2.711-3.07-5.977-5.375-9.653-6.98-.699-.407-1.273-.516-2.058-.707-1.211-.368-1.36-.305-.782-1.43.086-.211.258-.637.493-.91 1.875-2.207 2.48-4.926 2.66-7.817-.078-3.488-.512-6.996-1.758-10.336-.61-1.851-1.371-3.64-2.043-5.64-1.688-4.387-4.418-8.328-7.535-11.93-2.457-2.473-5.067-4.883-8.29-6.68-2.167-1.367-4.331-2.734-7.136-3.125-2.293-.43-4.695-.289-7.121.215a151.79 151.79 0 0 1-3.172.817c-3.297.523-6.363 2.003-9.34 3.27-3.133 1.327-6.047 2.745-9.113 4.222-.832.531-1.512.996-2.258 1.312-.832.528-1.512.996-2.258 1.313-2.297.8-4.683 1.812-6.98 2.613-.895.379-1.852.613-2.746.992-2.469 1.227-4.727 2.535-6.328 4.977-.79 1.039-.86 2.125-.352 3.316.402.531.594.98.7 1.637 1.41 4.152 3.269 8.11 5.214 11.86 1.059 1.66 1.754 3.3 2.363 5.152.93 2.593 1.918 5.34 3.207 7.96 2.938 6.493 6.086 13.07 9.02 19.563 4.266 9.625 8.531 19.246 12.648 28.93a340.8 340.8 0 0 1 6.645 16.879c.992 2.746 2.644 5.386 3.934 8.007.843 1.575 2.332 2.176 4.117 1.415 2.086-.887 4.238-1.625 6.195-2.809 2.707-1.5 5.664-2.406 8.621-3.313 5.11-1.64 10.024-3.73 15.899-6.05m-26.137-32.524c-1.223-2.469-2.363-5.152-3.59-7.62-.508-1.192-.508-1.192.621-1.849 2.535-1.078 5.152-2.367 7.836-3.503 1.637-.7 3.402-1.098 5.234-1.348 1.891-.102 3.442.648 4.754 1.672 4.098 3.012 6.676 7.015 8.13 11.676.929 2.597.323 5.316-1.427 7.82-2.476 3.691-5.886 6.02-9.695 7.816-.98.59-2.023 1.035-3.215 1.543-.808.164-.957.23-1.34-.664-2.363-5.152-4.878-10.242-7.246-15.394l-.062-.149m-17.91-38.832c-1.352-2.765-2.492-5.449-3.696-8.281-.254-.594-.379-.895.301-1.36 2.024-1.035 3.985-2.218 6.156-3.32 1.872-.968 3.872-1.644 6.254-1.426 1.446.09 2.868.54 3.97 1.481 3.245 2.668 5.66 5.863 7.241 9.586.317.746.485 1.555.227 2.191-.559 1.996-1.54 3.825-3.414 4.797-2.172 1.098-4.492 2.258-6.664 3.36-1.426.78-2.856 1.562-4.219 2.496-1.426.78-1.488.632-2.27-.793-1.14-2.684-2.343-5.516-3.632-8.133-.063-.149-.13-.297-.254-.598m146.98 39.883c1.18.043 2.2-.543 3.223-1.13 1.336-.667 2.164-2.706 1.66-4.081a961.516 961.516 0 0 1-1.761-3.067c-.899-1.613-1.762-3.066-2.622-4.523-.976-1.926-1.796-3.89-2.734-5.66-.664-1.336-1.293-2.516-1.957-3.852-.898-2.281-1.992-4.68-3.047-6.918-1.953-3.855-4.105-7.824-6.215-11.64-3.914-7.036-7.863-14.231-11.617-21.31-1.758-3.066-3.558-6.288-5.277-9.198-2.114-3.817-4.5-7.395-6.73-11.012-1.25-2.36-2.622-4.524-3.716-6.922-1.328-2.672-2.539-5.539-4.3-7.941-.274-.43-.391-.903-.664-1.336-.98-1.926-1.957-3.852-3.09-5.739-.899-1.613-1.88-2.203-3.727-1.582-.906.391-1.887.47-2.867.543-1.14.118-2.203.547-3.262.977-2.437.937-4.992 2.07-7.586 3.047-1.379.504-2.754 1.012-4.129 1.52-.785.195-1.296.824-1.418 1.687-.355 1.254-.71 2.512-.753 3.687-.164 4.043-.055 7.856-.067 11.86-.004 1.336.153 2.633-.047 3.847-.21 6.559-.422 13.118-.633 19.672-.25 5.067-.535 9.973-.78 15.04-.134 5.534-.458 10.956-.626 16.335-.05 3.848.059 7.656.324 11.426.23 3.613.262 7.11.133 10.645-.238 2.394-.441 4.945-.644 7.496-.047 3.847-.059 7.855-.262 11.742-.043 1.844.582 3.023 2.387 3.578.55.2 1.097.394 1.726.238 1.14-.113 2.278-.23 3.535-.539 4.047-1.168 8.059-2.496 12.106-3.664 1.258-.312 2.316-.742 3.535-1.21.945-.231 1.574-1.056 1.656-2.079l.598-3.648c.473-2.121.441-4.282.25-6.403-.23-2.277-.117-1.804 1.77-2.273 2.832-.7 5.66-1.399 8.449-2.258 2.16-.7 4.441-1.598 6.758-2.34 2.164-.703 4.363-1.246 6.562-1.793.59-.312.984-.074 1.297.516.23.941.781 1.808 1.172 2.71 1.445 3.145 3.637 5.938 5.832 8.731a3.81 3.81 0 0 0 1.722.91c1.493.63 2.907.282 4.282-.226 2.004-.664 3.851-1.29 5.699-1.914.629-.153 1.219-.465 1.848-.621 1.375-.508 2.789-.86 4.007-1.328m-51.066-60.747c.742.985 1.211 2.204 1.953 3.184 1.371 2.164 2.703 4.172 4.031 6.176 2.426 3.734 4.461 7.902 6.454 11.914.664 1.336 1.605 2.437 2.269 3.773.234.278.273.434.508.707.86 1.457.86 1.457-.828 2.043-2.871 1.211-5.856 1.95-8.766 3.004-1.258.309-2.355.582-3.613.895-.785.195-.945.23-1.02-.75-.27-3.102-.535-6.207-.648-9.348-.336-6.086-.52-12.215-.664-18.183-.113-1.137-.074-2.317.008-3.336l.316-.079m74.072-19.29c-.16.011-.336-.137-.336-.137l-.105-1.453c-.297-4.04-.606-8.234-.899-12.274-.433-3.703-.871-7.402-1.293-10.945-.64-4.336-1.11-8.523-1.582-12.707-.266-1.441-.96-2.043-2.414-1.933-1.277.253-2.734.363-4.023.457-3.23.238-6.633.324-9.864.562-.808.059-1.601.277-2.398.5-1.277.254-1.856 1.273-1.746 2.727.144 4.207.281 8.257.75 12.445.297 4.035.902 7.887 1.187 11.762.57 7.75 1.137 15.504 1.543 23.265.11 1.453.203 2.746.309 4.2.219 5.175.426 10.195.805 15.363l1.03 14.047c.356 4.843.536 9.539.731 14.394.38 5.168.758 10.336 1.29 15.328l.093 1.293c.23.957.762 1.567 1.582 1.668.496.13.992.254 1.317.23 3.574.063 7.164.286 10.703-.136 1.441-.27 3.058-.387 4.672-.504 1.765-.293 2.675-1.172 2.707-2.96.101-.817.043-1.626.144-2.446-.262-3.551-.695-7.254-.793-10.817-.125-3.89.086-7.636-.195-11.515l-.727-16.504c-.047-.645-.094-1.293.203-1.64 1.153-2.032 2.461-4.075 3.922-6.294.742 1.246 1.461 2.168 2.176 3.086 1.273 1.856 2.695 3.54 3.805 5.406.52.446.89 1.07 1.101 1.704 1.727 3.609 4.063 6.683 6.258 10.093.371.621.89 1.07 1.262 1.692 3.55 4.125 6.637 8.605 9.418 13.273a66.298 66.298 0 0 1 3.886 6.531c1.122 2.028 2.407 4.043 4.004 5.875.52.45 1.028.739 1.672.692 3.082-.067 6.336.02 9.414-.043.657.113 1.14.078 1.778-.129 2.73-.363 5.465-.727 8.359-1.102 1.926-.304 2.926-2.164 1.988-3.878-.36-.461-.554-.934-.902-1.235-2.867-3.683-5.262-7.566-7.508-11.625-.543-.77-1.101-1.703-1.644-2.476-1.098-1.704-2.532-3.547-3.633-5.254-1.293-2.176-2.442-4.528-3.738-6.707-.383-.782-1.098-1.703-1.653-2.637-.535-.61-1.238-1.371-1.781-2.14-1.633-2.317-3.273-4.794-4.918-7.27-2.176-3.09-4.348-6.176-6.363-9.274-2.188-3.25-4.383-6.66-6.582-10.07-.891-1.07-1.633-2.316-2.535-3.55-.356-.458-.391-.942.054-1.466.887-1.199 1.613-2.39 2.496-3.59 1.614-2.39 3.371-4.956 4.809-7.496a124.101 124.101 0 0 1 6.484-11.191c1.024-1.535 2.035-3.234 2.899-4.758 2.289-4.226 4.425-8.281 6.562-12.332.988-2.023 1.817-4.031 2.805-6.05.422-.844-.156-2.098-.813-2.215a6.553 6.553 0 0 0-2.457-.305c-1.96-.18-3.925-.363-5.863-.219-3.71.27-7.289.211-10.805.953-1.12.246-1.89.79-2.476 1.645-1.012 1.695-1.863 3.383-2.887 4.918-.414 1.004-.84 1.847-1.266 2.691-2.296 4.067-4.597 8.13-6.894 12.195-1 1.86-2.164 3.73-3.324 5.602-3.082 4.445-6.34 8.742-9.074 13.492-.13.496-.426.84-.727 1.188m72.438 17.672c-.492 3.695-1.199 9.808-1.906 15.922-.766 6.757-1.516 13.359-2.277 20.117-.578 4.66-1.012 9.5-1.602 14.324-.32 1.758.535 3.137 1.227 4.496.129.34.586.703 1.054.906 1.586.47 3.14 1.258 4.59 1.387 3.211.45 6.438.734 9.516.848 3.078.11 6.172.062 9.25.172 4.195.375 8.71.777 12.918.988 2.914.098 5.687.02 8.43.262 5.496.328 10.816.8 16.316 1.129.805.07 1.613.144 2.152-.457 1.246-1.192 2.164-2.41 2.324-4.184.493-3.695.176-7.461.344-11.184.117-1.293.258-2.906-1.105-4 0 0 .015-.164-.133-.34-.676-1.523-2.219-2.472-3.86-2.292-.644-.06-1.304.046-1.933-.172-1.938-.172-4.02-.52-5.953-.692-3.078-.113-6.172-.062-9.238-.336-5.497-.328-10.981-.816-16.301-1.289-1.465.031-1.453-.129-1.336-1.418.3-3.386.601-6.773.89-10 .368-5.98.887-11.789 1.403-17.593.187-2.098.347-2.083 2.445-1.895 3.738.008 7.461.176 11.2.184 3.402.14 6.667-.055 10.085-.079l4.676.418c1.305-.046 2.168-.62 2.297-2.07.332-3.71.648-7.258.8-10.82.145-1.613.126-3.238.11-4.867-.062-1.145-.062-1.145-1.191-1.243l-3.223-.289c-4.355-.386-8.855-.949-13.387-1.191-3.547-.316-7.11-.473-10.82-.8-1.129-.102-1.29-.114-1.176-1.407.563-4.5 1.13-9 1.543-13.68.25-.953.25-.953 1.23-1.027 3.755-.152 7.637.031 11.36.2 4.516.401 8.871.788 13.402 1.03 3.239.125 6.64.266 9.88.391 1.304-.047 2.609-.094 3.515-1.148.73-.91 1.316-1.997 1.254-3.141.285-5.012.57-10.027.851-15.04.086-2.757-1.195-4.82-4.082-5.241-.484-.043-1.129-.102-1.468.03-1.641.18-3.079-.108-4.528-.237-3.066-.274-6.113-.707-9.02-.965-1.933-.176-3.69-.492-5.468-.653-6.774-.601-13.719-1.058-20.492-1.66-.485-.043-.985.075-1.63.016-2.902-.258-5.968-.531-9.03-.805-1.454-.129-3.063-.27-4.516-.402-2.285.125-3.516 1.152-3.715 3.41-.219.629-.101 1.129-.144 1.613-.204 2.258-.243 4.528-.442 6.785-1.672 15.133-3.183 30.278-5.086 47.989m93.549 51.639c.234-.942.434-1.727.672-2.668.988-3.926 1.98-7.852 3.086-11.578.277-1.098.277-1.098 1.219-.864 1.453.204 2.75.36 4.203.559 1.097.277 2.238.398 3.219.48.785.2 1.175.63 1.175 1.297.465 2.121 1.09 4.285 1.516 6.563.816 4.715 1.59 9.586 2.68 14.535 1.05 4.437 2.418 8.957 3.625 13.437.117.196.078.352.234.391.117.867.664 1.34 1.488 1.379l2.985.754 13.656 3.445c.984.078 1.766.278 2.75.36 1.805.12 3.535-1.446 3.5-3.293a44.161 44.161 0 0 0-.734-4.36c-.079-1.023-.508-1.965-.625-2.828-.422-3.613-.887-7.07-1.313-10.683a98.984 98.984 0 0 1-1.203-6.485c-.27-1.57-.387-3.101-.856-4.555-.777-3.535-1.554-7.074-2.488-10.648-.195-.55-.078-1.02.63-1.176 1.374-.824 2.831-1.289 3.933-2.347 2.515-2.04 5.035-4.075 6.843-6.621 3.743-4.903 6.739-10.16 8.125-16.32.95-3.77 1.747-7.575 2.38-11.423 1.273-7.027 1.011-13.937-.27-20.773-.274-.906-.547-1.809-.977-2.75-.195-.55-.547-1.14-.86-1.887-1.679-3.933-4.577-7-8.226-9.09-.59-.316-1.175-.632-1.765-.945-1.684-1.262-3.532-1.895-5.414-2.367l-2.825-.715a15470.54 15470.54 0 0 1-15.109-4.313c-3.73-1.105-7.496-2.058-11.422-3.046-2.984-.754-6.082-1.7-9.262-2.336-2.55-.477-3.73.226-4.441 2.386-1.07 3.57-2.098 6.985-3.125 10.399-.594 1.687-.871 3.453-1.309 5.18-.476 2.554-.636 5.183-1.273 7.695-.715 4.16-1.703 8.086-2.535 12.05l-9.27 36.735c-2.773 11.656-5.976 23.039-9.34 34.383-.671 2-.082 2.98 1.957 3.496.942.238 1.883.476 2.786.871 2.355.594 4.476 1.46 6.789 2.215l6.91 1.742c2.195.555 3.418-.309 4.129-2.469 1.304-4.511 2.804-9.14 4.152-13.812m14.29-55.34c1.546-6.121 2.894-12.125 4.398-18.094.277-1.097.277-1.097 1.375-.82 3.296.832 6.632 1.508 9.93 2.336 2.515.637 4.827 2.054 6.788 3.55.98.747 1.567 1.731 1.72 3.106.546 2.477.62 4.832-.017 7.344-.87 4.12-1.742 8.242-3.402 12.164-1.066 2.906-2.836 5.297-4.57 7.531-.63.508-1.102 1.059-1.457 1.805-1.18 1.37-2.555 2.191-4.246 2.265-1.883.196-3.887.192-5.852.028-2.629-.16-5.453-.875-8.125-1.547-.941-.238-1.098-.277-.86-1.219.079-.98.434-1.726.673-2.668 1.308-5.183 2.496-10.558 3.804-15.738l-.16-.043m99.872 18.181a28.427 28.427 0 0 1-.215-2.38c-.191-2.019-.3-3.827-.41-5.632-.11-1.809-.301-3.828-.41-5.637.02-.871.039-1.742-.153-2.527-.261-4.336-.582-8.524-.484-12.883.043-.512-.063-1.086-.024-1.594-.19-.789-.445-1.426-1.277-1.957-1.871-.972-3.594-1.887-5.594-2.562-2.297-.809-4.316-1.848-6.613-2.653-2-.675-4-1.355-6.062-1.882-1.403-.426-2.02.19-2.082 1.574.066 2.316.199 4.484.414 6.867.558 4.465.84 9.16 1.035 13.648.219 4.844.351 9.48.996 14.157.793 5.972 1.523 12.093 2.316 18.066.473 3.02-.312 5.68-1.605 8.297-2.906 5.976-5.363 12.144-7.758 18.164-1.762 4.531-3.457 8.91-5.152 13.293l-8.266 19.355c-.766 1.786-.082 3.489 1.852 4.313 4.406 2.058 9 3.668 13.656 5.129 1.55.488 3.039-.11 3.676-1.598 1.992-4.254 3.773-8.422 5.554-12.594l10.114-23.671c.89-2.086 1.718-4.02 2.394-6.02l1.91-4.469c.57-1.34 1.145-2.68 1.715-4.02.7-1.636 1.613-3.359 2.906-4.741 1.422-1.684 2.848-3.364 4.567-4.918 3.844-3.641 7.773-7.067 11.765-10.645 2.422-1.957 4.844-3.918 7.329-6.023 3.523-2.899 7.05-5.793 10.574-8.688 1.043-.789 1.933-1.64 3.039-2.578.89-.852 1.847-1.852 2.887-2.637.617-.617 1.464-.96 1.34-1.894-.005-1.235-1.024-1.317-1.919-1.7-2.148-.742-4.148-1.417-6.23-2.308-3.488-1.317-6.828-2.567-10.316-3.879-.594-.254-1.106-.297-1.657.172-.765.555-1.742 1.191-2.36 1.808-3.714 3.344-7.37 6.536-11.405 9.391-3.27 2.3-6.395 4.664-9.344 7.453a2.15 2.15 0 0 0-.703.403m0 0"/></svg>