<svg xmlns="http://www.w3.org/2000/svg" width="310.667" height="309.333" version="1.0" viewBox="0 0 233 232"><g fill="var(--color-grey)"><path d="M97.8 2.6C52.9 9.5 15.4 43.9 4 88.5c-3.5 13.8-4.4 27.4-2.6 41 4.3 32.8 19.8 59.8 45.4 78.9 20.7 15.6 43.5 23 70.2 22.9 32.5-.2 60.6-12.3 83.1-36 9.3-9.8 14.8-17.8 20.5-29.7 30.5-64.6-3.9-140.1-72.9-160-16-4.6-33-5.7-49.9-3zm37.3 6.9c22.2 3.8 41.9 14.2 58 30.4 22.4 22.5 33.1 50 31.6 81.5-2.4 51.5-40.2 93.8-91.2 102.1-46.9 7.7-93.7-16.4-114.9-59.1-20.8-41.8-12.4-92 20.9-124.9 16.1-16 37-26.7 59.4-30.5 7.9-1.3 27.4-1.1 36.2.5"/><path d="M101.6 11c-25 4-43.3 13.4-61.1 31.4-14.7 14.9-22.2 27.9-27.8 48-1.9 7.1-2.2 10.4-2.1 26.6 0 17.1.2 19.2 2.8 27.5 6.9 23.2 20.2 42.7 38.5 56.6 12.4 9.4 32.4 17.8 48.1 20.3 3 .4 3.8.1 5.4-2.1 1.4-1.8 1.6-2.8.8-3.1-.7-.2-1.2-1.7-1.2-3.3 0-2.4.4-2.9 2.5-2.9s2.5.5 2.5 3.1c0 3.1-1.5 6.9-3.3 8.1-2.2 1.4 10.3 1.9 20.1.8 24.9-2.7 46.9-13 64.1-30 15.2-15.1 24.9-32.8 29.8-54.4 2.2-9.9 2.2-32.5-.1-43.1-10.3-47.7-51.9-82.5-100.6-84-6.9-.2-15.2 0-18.4.5zm27.2 6.6c3 2 3 7.7.1 9.7-2 1.5-2 1.6-.3 4.2 1.6 2.5 1.8 2.5 2.7.8 1.5-2.7 1.5-2.7 3.2-1.3 1.3 1.1 1.3 1.5-.2 4-1.5 2.6-1.5 3 0 5.4.9 1.4 1.7 2.8 1.7 3.1 0 .9-5.6.5-6.6-.5-.6-.6-2.1-.6-4.2.2-4 1.5-7.8.3-10.5-3.4-1.8-2.4-1.9-3.2-.8-6.7.6-2.3 2-4.5 3.1-5.1 1.5-.8 1.8-1.7 1.3-4.4-1-6.1 5.3-9.7 10.5-6zM97.7 30.9c2.4 6.8 4.2 12.5 4 12.7-.2.2-1.4.5-2.6.6-1.9.3-2.6-.5-4.1-4.2-1.9-4.8-3.4-5.3-9.2-3.1l-2.7 1 1.9 5.5c1.9 5.7 1.6 6.6-2.4 6.6-1.8 0-10.2-23.8-8.8-25.2 2-2 4.5-.3 5.9 3.9l1.4 4.1 4.5-1.5c2.4-.8 4.6-1.9 4.9-2.3.3-.5-.1-2.6-1-4.6-.8-2-1.5-4-1.5-4.4 0-.9 2.9-1.9 4.4-1.6.5.1 2.9 5.8 5.3 12.5zm68.1-2.3c7.2 4.2 8.9 7.3 7.3 13.1-1.1 4.1-4.7 9.5-7.8 11.8-3.2 2.5-8.1 1.8-14.5-2.1l-5.9-3.6 2.2-3.6C155 30.7 158.6 25 159.2 25c.3 0 3.3 1.6 6.6 3.6zm-97.3 6.6 2.7 2.1L69 39c-1.9 1.4-2.8 1.5-5.2.6-3.9-1.5-6.2.1-6.6 4.6-.2 2.9.3 4.2 3.1 7.2 5.4 5.6 11.3 4.4 10.6-2.2-.4-3.1 1.5-6.2 3.6-6.2 1.7 0 2.5 2.3 2.5 7 0 2.9-.7 4.6-3 6.9-3.7 3.6-6.1 4.5-10.5 3.7-4.1-.8-11-8.2-12.4-13.4-2.7-9.7 9.5-18.2 17.4-12zm117.7 7.4c1.7 1.6 1.6 1.9-2.9 7.3-2.6 3.1-5.4 6.5-6.2 7.5-1.1 1.3 1 .5 6.4-2.2 4.5-2.3 8.5-4.2 9-4.2.6 0 1.6.9 2.2 1.9 1.1 1.7.5 2.8-4.2 8.6-3 3.7-5.5 6.9-5.5 7.2 0 .2 3.3-1.4 7.4-3.6 8.4-4.7 9.1-4.8 10.6-2.1 1 1.8 0 2.5-11.1 8.1l-12.2 6.1-2-2.1-2-2 4.4-5.6c7.5-9.6 7.5-9.5-1-5.1l-8 4.1-2.1-2.1-2.1-2 8.3-10.7c4.6-5.8 8.5-10.6 8.7-10.7.3 0 1.3.7 2.3 1.6zm-49.6 8.8c21 6.7 36.7 22.1 44.2 43.5 2.4 6.8 2.7 9 2.6 20.6 0 11.5-.3 14-2.7 21.2-5.6 16.8-18.1 30.9-34.2 38.9-11.8 5.8-21.1 7.8-33.5 7-11.3-.6-17.9-2.4-28.1-7.8-31.5-16.2-44.7-55.5-29.4-87.5 9.6-20.4 27.8-34.2 50.3-38.3 7.9-1.5 22-.3 30.8 2.4zm-91 1.2c1.8.9 3.6 2.4 3.9 3.4.3.9 3.5 3.2 7 5 3.6 1.8 6.5 3.6 6.5 4 0 .4-.9 1.5-1.9 2.5-1.9 1.6-2.1 1.6-5-.4-3.7-2.7-4.8-2.6-7.2.1-2.6 3.2-2.4 4.3 1.4 6.9 1.7 1.2 3.3 2.4 3.5 2.5.9.6-2.5 4.4-3.6 3.9-.7-.2-5.8-3.7-11.2-7.6-6.2-4.4-9.7-7.5-9.3-8.2 2.3-3.9 8.6-11.7 10-12.6 2.3-1.3 2-1.4 5.9.5zm162.2 20.9c1.1 2.4.9 2.6-9.3 7.4-14 6.6-14.1 6.7-15.6 3.9-.6-1.2-.8-2.4-.3-2.6.5-.2 5.9-2.7 11.9-5.7 6.1-2.9 11.3-5.4 11.6-5.4.3-.1 1.1 1 1.7 2.4zM34.6 77.2c10.7 3.8 13.8 6.3 13.7 11.3-.1 4.6-3.2 9.8-6.6 10.9-2.1.8-4.9.3-13.2-2.4-5.8-1.9-10.5-3.8-10.5-4.3 0-.4.5-1.7 1-2.7 1-1.8 1.4-1.8 9.8 1.1 9.6 3.3 12.8 3.1 13.8-.6.9-3.7-.8-5.1-9.9-8.1-4.5-1.4-8.5-2.9-8.9-3.3-.9-.8.1-5.1 1.2-5.1.4 0 4.8 1.4 9.6 3.2zM210.7 87c3.6 2.2 6 8.2 4.9 12.5-.7 2.7-4.8 7.5-6.4 7.5-1.8 0-2.4-5.2-.7-6.9 5.7-6.4-4.1-12.1-12.2-7.1-4.1 2.4-4.6 7-1.1 9.4 3.1 2.2 3.8 2 3.8-.8 0-2.3 2.3-4.1 4-3.1 1 .6 2.4 8.4 1.7 9.1-.6.6-11.5 3.3-13.4 3.4-.7 0-1.3-.6-1.3-1.4 0-.8.6-1.7 1.3-2 .9-.5.9-.7-.1-1.2-2-.9-4.2-6-4.2-9.8 0-4.4 3.2-8.2 8.5-10.1 5.7-2 11.4-1.8 15.2.5zM43 106v3H31v9.9l5.8.3c5.4.3 5.7.4 6 3 .3 2.8.3 2.8-6.1 2.8-3.5 0-9.8-.3-13.9-.6-7.2-.6-7.5-.8-7-3 .4-2.1 1-2.4 5.3-2.4H26v-11h-5c-4.7 0-5-.2-5-2.5V103h27zm164.4 8c5.5.6 10.2 1.2 10.4 1.5.2.2.1 1.3-.3 2.4-.5 1.8-1.5 2.1-5.6 2.1s-4.9.3-4.9 1.9c0 1-.3 3.2-.6 4.9-.6 2.9-.5 3 4.5 3.7 4.6.6 5.1.9 5.1 3.2v2.6l-9.7-.7c-15.9-1.1-17.3-1.5-17.3-4.2 0-2.3.4-2.4 6-2.4h6v-3.4c0-1.9.3-4.1.6-5 .5-1.2-.6-1.6-5.5-2.2-5.4-.6-6.1-.9-6.1-2.9 0-3 .7-3.4 4.3-2.9 1.8.2 7.7.9 13.1 1.4M43.1 130.8c2.6 2.3 3.3 3.8 3.7 8 .4 4.8.2 5.4-2.8 8.2-5.6 5.2-16.5 6.7-21.3 2.9-3-2.3-5.1-8.6-4.1-12.4.6-2.4 5.6-7.5 7.4-7.5.4 0 1.1 1.2 1.4 2.6.5 2 .2 3.2-1.3 4.6-2.3 2.1-2.6 4-1.1 6.9 2.1 3.9 13.5 1.7 16-3.2 1.5-2.8-1.1-6.9-4.4-6.9-2.3 0-3.6-1.6-3.6-4.6 0-2.6 6.6-1.7 10.1 1.4zm153.5 13.7c8.2 3.2 9 3.4 10.2 1.8.6-.9 1.2-2.3 1.2-3 0-1.6 1.4-1.7 4-.3 1.8.9 1.7 1.4-1.7 9.7-1.9 4.9-3.6 8.9-3.8 9.1-.8.8-4.6-2.1-4.2-3.1 2.1-5.5 2.3-5.2-8.3-9.3-7.3-2.7-9.9-4.2-9.5-5.2.3-.7.5-1.8.5-2.3 0-1.5 2.3-1 11.6 2.6zM72.4 177c2.3 2.2 3 3.8 2.9 6.6-.1 4.4-1.7 6.3-4 4.8-1-.6-1.7-2.4-1.7-4.4-.1-6.2-7-6.7-10.6-.7-3.8 6.1-1.6 11.1 4 9 2.3-.8 3.3-.8 4.7.3 1.7 1.3 1.7 1.5-.6 3.4-4.8 4.1-13.9.9-15.5-5.5-.7-2.7 1.4-8.8 4.2-11.9 5.5-6.2 11.5-6.8 16.6-1.6zm96 4.1c2.4 1.9 2.6 2.3 1.3 3.6-1.3 1.3-2 1.3-5 .2-2.9-1-3.9-1-5.1 0-2.2 1.8-2 5.7.5 9.7 3.7 6 9.5 5.5 10.1-.8.3-3.1 3.1-5.9 4.5-4.5.4.5.8 2.6.8 4.8 0 5.1-3.6 8.8-9.1 9.6-3.4.4-4.5.1-7.4-2.3-4.2-3.6-7.4-10.5-6.5-14.3 1.5-7 10.4-10.3 15.9-6zM90 186.7c6.7 3.9 6.5 13.9-.4 20.8-4.1 4.1-13.8 2.7-16.6-2.4-2.5-4.7.4-15.2 5.1-18.5 3-2.1 8.3-2.1 11.9.1m94.7 4c-1.5 1.6-1.8 1.6-3.7-.2-1.9-1.7-1.9-1.9-.3-3.7 1.6-1.8 1.7-1.8 3.7.2 1.9 1.9 1.9 2.1.3 3.7m-32.8 7.4c2.6 9 3 11.4 1.9 12-2.6 1.7-4.3.8-10.7-5.4-3.5-3.4-6.2-5.5-5.9-4.7 3.1 9.1 3.9 13.3 2.6 14.1-2.7 1.7-3.4.7-6.2-9.4-1.6-5.6-3.1-10.7-3.4-11.4-.2-.7.8-1.5 2.3-1.9 2.3-.6 3.5.2 9.1 5.7 3.5 3.5 6.4 6.1 6.4 5.9 0-.3-.9-3.6-2-7.4-2.1-7.3-1.9-8.6.9-8.6 1.3 0 2.4 2.5 5 11.1zm-23.6-3.2c.4 1.6.9 7.1 1.3 12.1l.7 9.2-2.4-.4c-2.2-.3-2.5-.9-3.1-7.3-.3-3.9-.9-9.1-1.3-11.8-.5-4.5-.5-4.7 1.8-4.7 1.9 0 2.6.7 3 2.9zm-29.4 14c.9.6 1.1 1.8.8 3.4-.5 1.9-1.2 2.3-3 2-1.9-.4-2.3-1-1.9-3.4.4-3 1.6-3.5 4.1-2z"/><path d="M123.4 21.5c-.9 2.3 1.4 4.5 2.6 2.5.5-.8.8-1.9.7-2.4-.6-1.7-2.7-1.8-3.3-.1m-3.7 10.2c-1.1 1.1-.8 4.8.5 6.1 1.5 1.5 4.5 1.6 5.3.2.7-1.1-3.1-7-4.4-7-.4 0-1.1.3-1.4.7zm37.1 6.8c-2.1 3.5-3.8 6.8-3.8 7.2 0 .5 1.5 1.7 3.4 2.6 3.3 1.5 3.6 1.5 6-.4 3.4-2.7 5.9-7.6 5.2-10.3-.4-1.7-5.2-5.7-6.8-5.6-.1 0-2 2.9-4 6.5zM122 59.1l-3.5 2 4 4.2c4.7 5 8.3 11.8 10.4 19.9.7 2.8.6 3.8-.4 4.2-1.8.6-3.7-1.7-3-3.6.3-.8-.1-2.1-1-2.8-.8-.7-1.5-2-1.5-2.9 0-2.4-3.8-8.1-5.4-8.1-1.6 0-5.8-4.8-5.2-5.9.2-.3-.2-1.1-.9-1.8-2.1-1.9-3.9 1-3.1 5 .3 1.7.7 4 .8 5.1.4 2.5-19.6 13.9-22.9 13.1-3.3-.8-2.8.9 1.2 3.9 4.2 3.2 4.7 7.5 1.5 13.1-1.1 1.9-1.6 3.5-1.2 3.5.4 0-.1.7-1 1.4-2 1.5-1.5 4.1 2.3 12 1.1 2.4 1.5 4.4 1 5-.5.7-.3 1.6.5 2.4.8.7 1.4 1 1.4.6 0-.3.7-.1 1.6.7.8.7 1.3 2.1 1.1 3.1-.3 1-.2 1.8.2 1.8.9 0 6.1 9.3 6.1 10.8 0 .6-.8 1.3-1.7 1.5-1.4.4-1.3.5.4.6 1.4.1 2.8 1.2 3.8 3.1 2.1 4 3.3 3.1 4.1-3.1.6-4.6.9-5 3-4.6 2.7.5 3.9-1.6 1.8-3.3-2.1-1.8-1.7-5.9 1.2-11.5 4.8-9.4 11-12.2 15.7-7.1 3.6 3.9 4.8 5.6 4.1 5.6-.3 0-.2.6.4 1.3 1.1 1.3-1.3 5.7-8.3 14.7-1.9 2.5-3.5 5.3-3.5 6.2 0 2-1.8 4.4-7.7 10.7-2.4 2.4-4.3 4.8-4.3 5.3s-1.1 2-2.5 3.3c-3.5 3.6-8.9 3.4-11.2-.3-.9-1.5-3.7-5.3-6-8.4-2.4-3.1-4.3-6.2-4.3-6.8 0-.7-.9-2.3-1.9-3.6-1.1-1.4-2.2-4.3-2.6-6.5-.4-2.2-1.3-5.3-2.1-6.7-.8-1.5-1.4-3.7-1.4-4.8 0-1.2-.7-4.1-1.5-6.4-.8-2.3-1.5-5.2-1.5-6.5 0-1.2-1.1-3.2-2.5-4.5-3-2.8-3.1-4.1-.7-6.3 2.2-2 2.8-2.1 3-.5.1 2.1.7 4.2 1.3 5.3 1 1.6 3.3 8.9 3.1 9.7-.1.3.5.8 1.2 1.1 1.1.5 1.3-.3 1-3.1-.2-2-.7-4.8-1-6.2-1.4-5.7-1.2-7 1.7-9.7 1.5-1.5 3.4-4 4-5.5 1-2.4.9-3.2-.7-4.9-1-1.1-3.3-2.7-5.1-3.6-3.5-1.6-4.4-3.3-1.8-3.3.9 0 1.8.7 2.1 1.5.4.8 1 1.2 1.6.9 1.3-.8-1.1-3.4-3.1-3.4-1.8.1-6.1 3-4.4 3 2.1 0 7.5 5.2 6.3 6-.7.4-2.2-.2-3.5-1.4-4.3-3.9-5.2-4.4-6.5-3.6-1 .6-.7 1 1.2 1.5 3.3.9 6.2 4 5.2 5.6-.5.9-.2 1 .9.6 1-.4 2.4-1 3.3-1.4 1.2-.4 1.5-.2 1.2.8-.2.7-2.3 1.9-4.6 2.6-3.6 1-4.7.9-7.3-.5-2.4-1.3-3.3-1.4-3.6-.5-.8 2.1-2.6 1.5-2-.7.3-1.1.1-1.8-.4-1.4-.5.3-.9 1.4-.9 2.4s-1 2.6-2.2 3.4l-2.2 1.6h2.1c1.3 0 3.8-.9 5.8-2 4.6-2.6 4.6-.8 0 1.9-1.9 1.1-3.5 2.5-3.5 3.1 0 .6-1.1.3-2.5-.6-2.1-1.3-2.5-1.4-2.5-.2 0 2.9 2.6 5.1 5.3 4.6 5-1 7.4 3.2 12.4 21.3 5.5 20.1 8 25.2 17.6 35.6 5.9 6.4 8.8 6.1 20.8-2.3 10.6-7.5 17.7-13.9 22-20.2 2-2.8 3.7-4.2 5.2-4.2 2.6 0 13.7-5.4 14.8-7.2 1.4-2.2 1-3.6-1.1-4.3-1.7-.6-2-1.2-1.5-4.3l.6-3.7-1.5 4c-.9 2.2-1.6 4.2-1.6 4.4 0 .2-.7-.2-1.5-.9-2-1.7-1.9-4 .3-4 1.5-.1 1.5-.2-.2-1.1-1.4-.9-2-.8-2.6.1-.5.9-1 .6-1.5-1.1-.5-1.5-.3-2.5.4-2.7.6-.2 0-1.3-1.5-2.4-1.8-1.5-2.5-2.8-2.1-4.5.4-1.9.1-2.2-1.4-1.8-1.1.4-3.6-.3-5.8-1.6-2.1-1.2-4.5-1.9-5.2-1.7-.7.2.7 1.4 3.2 2.6 6.9 3.5 10.1 6.8 10.1 10.5-.1 3.8-1.9 14-2.1 11.4-.2-2.7-3-7.8-6.2-11-1.6-1.6-2.9-2.5-2.9-2.2 0 .4-.6.3-1.3-.3-.7-.6-4.1-1.4-7.7-1.7-4.1-.5-7-1.3-7.7-2.3-1.6-1.9-1.8.1-.3 2.8.8 1.5.4 2.5-1.7 5-1.4 1.7-3.4 6.1-4.4 9.7-2.1 7.5-2.7 8.4-3.9 6.2-.5-.8-2.6-3.4-4.7-5.8-5.5-6.3-9-11.9-11.3-17.7-1.9-5.1-1.9-5.2.1-9 1-2.1 1.9-5.3 1.9-7 0-3 .6-3.5 10.2-8.8 5.6-3.1 10.6-5.6 11.1-5.6s2.9 2.1 5.3 4.6l4.3 4.6 6.8-3.7c9.9-5.5 9.8-5.3 7.9-11.7-.8-2.9-1.3-6.4-.9-7.6.7-2.7-2.1-7.2-4.5-7.2-.9 0-3-1.6-4.5-3.5-3.2-4-4.8-4.3-9.7-1.4zm0 16.7c0 .5-1.5 1.6-3.2 2.5-1.8.9-8 4.1-13.7 7.2-5.7 3.1-10.6 5.3-10.9 5-.7-.7-1.2-.4 13.3-8.4 13.2-7.2 14.5-7.7 14.5-6.3zm14.8 69.4c-7.8 9.4-8.8 10.3-8.8 8.3 0-1 1.2-3.4 2.7-5.4 9.4-12.5 9.8-12.8 10.1-10.3.2 1.5-1.1 4-4 7.4z"/><path d="M130 86.9c0 .5.5 1.3 1 1.6.6.3 1 .2 1-.4 0-.5-.4-1.3-1-1.6-.5-.3-1-.2-1 .4m-58.5 5.9c-.3.3.8 1.1 2.5 1.8 1.7.8 3 2.1 3 3.1 0 1.3.3 1.4 1.2.5.9-.9.7-1.6-.6-3.1-1.8-2-5.1-3.3-6.1-2.3zm54.6 14.3c-1 1.7-.8 1.9 1.9 1.9 3.5 0 3.6-.1 1.2-2.1-1.7-1.5-2-1.5-3.1.2zM86 127.9c0 2.3 1.6 3.6 2.5 2.1.3-.5.1-1-.5-1-.7 0-1-.7-.6-1.5.3-.8.1-1.5-.4-1.5-.6 0-1 .9-1 1.9m58.8 22.8c.6.2 1.8.2 2.5 0 .6-.3.1-.5-1.3-.5-1.4 0-1.9.2-1.2.5m5.2.7c0 .9.5 1.6 1 1.6.6 0 1-.4 1-.9 0-.6-.4-1.3-1-1.6-.5-.3-1 .1-1 .9m4.5.6c-.3 1.1-1.1 2-1.6 2s-.9.7-.9 1.5c0 2.5 1.7 1.7 2.6-1.3l.7-2.7.7 3c.8 3 .8 2.9.9-.8.1-4-1.3-5-2.4-1.7zM39.1 60.6c-2.7 3.4-2.6 3.8.3 5.8 2.4 1.5 2.6 1.5 4.7-1.5 1.7-2.4 2-3.6 1.2-4.8-1.6-2.6-3.9-2.4-6.2.5m41 131.9c-3 3.9-3.6 8.2-1.5 10.6 3.6 3.9 8.5 1.5 10.4-5.2 2-6.8-4.6-10.8-8.9-5.4m123.6 7.3c.6.4 1.3 2.3 1.5 4.2l.3 3.5.5-4.1c.5-3.5.2-4-1.5-4.2-1.1 0-1.5.2-.8.6m5.4 3.9c.1 3.7.2 3.7.8.8l.7-3 .8 2.9c.6 2.3.9 2.7 1.7 1.5 1.1-1.8 1.2-3.2 0-2.4-.5.3-1.2-.4-1.6-1.5-1.1-3.3-2.5-2.3-2.4 1.7m5.6-.5c.8 4.6 1.3 4.8 1.3.5 0-2.1-.4-3.7-1-3.7-.5 0-.7 1.4-.3 3.2"/></g></svg>