<svg width="24" height="25" viewBox="0 0 24 25" fill="none" xmlns="http://www.w3.org/2000/svg">
<path d="M16.5 7.9375V7.9475M4 8.4375C4 7.37663 4.42143 6.35922 5.17157 5.60907C5.92172 4.85893 6.93913 4.4375 8 4.4375H16C17.0609 4.4375 18.0783 4.85893 18.8284 5.60907C19.5786 6.35922 20 7.37663 20 8.4375V16.4375C20 17.4984 19.5786 18.5158 18.8284 19.2659C18.0783 20.0161 17.0609 20.4375 16 20.4375H8C6.93913 20.4375 5.92172 20.0161 5.17157 19.2659C4.42143 18.5158 4 17.4984 4 16.4375V8.4375ZM9 12.4375C9 13.2331 9.31607 13.9962 9.87868 14.5588C10.4413 15.1214 11.2044 15.4375 12 15.4375C12.7956 15.4375 13.5587 15.1214 14.1213 14.5588C14.6839 13.9962 15 13.2331 15 12.4375C15 11.6419 14.6839 10.8788 14.1213 10.3162C13.5587 9.75357 12.7956 9.4375 12 9.4375C11.2044 9.4375 10.4413 9.75357 9.87868 10.3162C9.31607 10.8788 9 11.6419 9 12.4375Z" stroke="#D5DEEB" stroke-width="2" stroke-linecap="round" stroke-linejoin="round"/>
</svg>
