<svg xmlns="http://www.w3.org/2000/svg" width="3560" height="914.667" fill="var(--color-grey)" version="1.0" viewBox="0 0 2670 686"><path d="M778 253.6c-21.3 2.5-33.3 5.9-47.4 13.2-24.1 12.4-40.8 30.5-54.5 59.3-10 20.8-13.4 35.8-13.3 58.9 0 38.3 13 71 38.1 96.1 14.4 14.3 28.4 23.1 46.3 29 18.6 6 31.4 7 55.4 4.3 36.2-4.1 62.9-21.1 84.6-53.9 10.7-16.2 16-28.9 19.8-47.9 2-9.8 3-12.8 3-9 0 1 1.4 7.3 3 13.9 5.4 22 16.1 40.6 33 57.6 11.4 11.5 20.5 18.1 34.5 25.1 18.7 9.4 33.1 13.3 55.5 14.9 20.9 1.5 35.4.7 52-2.9 7.4-1.6 16.6-3.5 20.3-4.2 5.4-1 6.7-1.6 6.3-2.9-.3-.9-1.7-7.2-3.2-13.9l-2.8-12.4-3.1.5c-1.6.3-10.6 2-20 3.8-14.4 2.8-19.1 3.3-31 3.3-31.9-.2-58.2-8.9-79-26.3-22.6-18.8-34.7-52.3-31.5-87.1 2.3-25.5 10.8-44 27.1-59.5 17.6-16.7 38.1-25.7 66.3-29.1 18.1-2.2 41.9-.5 63.1 4.5 5.4 1.3 7.8 1.5 8 .7 1.5-4.9 5.8-22.6 5.9-24.6.1-2.3-.6-2.7-7.4-4.6-11.4-3.3-24.9-5.4-42-6.4-39.8-2.6-77.2 7.2-104.2 27.2-26 19.3-44.5 48.6-49.8 78.6-.7 3.9-1.5 7-1.8 6.7-.3-.3-1.5-5.3-2.7-11.2-10.6-51-47.8-89.8-95.2-99.2-9.9-2-26.9-3.2-33.3-2.5zm34 33.9c22.9 7.3 38.5 20.6 49.7 42.1 7.9 15.4 11.4 27.9 13.3 48.2 1.2 12.5.3 20.9-3.6 37.5-4.4 18.5-10.9 31.4-21.8 43.4-9 10-25 20-37.7 23.7-8.4 2.5-21.7 4.6-28.5 4.6-13.8 0-37.3-8.7-51.7-19-6-4.3-14.7-15-20.5-25.2-4.9-8.6-9.2-20.3-11.9-32.7-3.4-15.2-3.8-37.3-.9-49.6 5.3-22.8 15.5-41.5 30.2-55.4 8.8-8.4 15-12.1 27-16.1 13.4-4.5 16.5-4.9 32.9-4.6 13.1.3 16.1.7 23.5 3.1m1135-33.8c-32.1 3.1-55.6 13.8-76.5 34.8-11.3 11.3-18.1 21.1-25.4 36.9l-5.8 12.5-1.1-10.5c-2.2-20-9-34.4-22.7-48-6.6-6.6-9.9-9-17.6-12.8-18.9-9.3-15.9-9-93.6-9.4l-68.3-.3V512h35v-99.8l50.8-.4c48.5-.4 51-.5 58.7-2.6 21.5-6 36.8-17.5 48.1-36.3l4.5-7.4-.7 6c-1.4 13.8 3.6 49 9.2 64.7 15 41.7 50.4 71.4 93.4 78.4 11.3 1.8 30.8 1.8 40.9-.1 9.5-1.8 25.9-7.4 34.5-11.7 33.7-16.8 56.9-48 65.8-88.6 3.2-14.1 3.2-43.4 0-57.7-6-27.8-17.1-48.4-36.7-68.1-20.6-20.8-43.5-31.6-73-34.4-10.8-1-12.6-1-19.5-.3zm33 33.2c4.1 1.2 11.5 4.3 16.5 6.9 7.3 3.8 10.7 6.3 18.5 14.2 17.4 17.5 26.2 38.2 29.1 68.4 1.9 21-2.1 42.5-11.6 62.2-4.5 9.3-6.8 12.6-13.6 19.8-14.1 14.9-28 22.4-49.5 26.7-13.3 2.6-22.7 2.2-35.9-1.6-17.5-5-28.6-11.6-40.1-23.8-19.8-20.8-30.8-54.6-27.6-85 3.3-31.4 17-58.4 37.5-74.1 9.7-7.3 17.5-11.1 29.3-14.1 8.9-2.2 11.4-2.4 24.9-2.1 11.6.3 16.7.9 22.5 2.5zm-212.2.5c8.6 2.2 13.1 4.6 20 11.1 10.5 9.7 17 25.9 15.9 39.5-1.7 20.1-12 34.8-29.7 42.2-5.4 2.3-6 2.3-54.2 2.6l-48.8.3v-97l8.3-.4c4.5-.2 24.9-.3 45.2-.2 30.2.2 38.2.6 43.3 1.9zm383.7-32.3c-30.9 4.2-52.6 16.6-61.4 35.2-3.7 7.9-5.1 14.8-5.1 25 .1 23.5 8.9 39.2 29.9 53.2 14.5 9.6 27.3 15.4 71.1 32 6.9 2.6 19.3 8 27.5 12 20.9 10.1 27.6 16.8 30.5 30.9 2 10-.6 17.3-9.4 26.1-12.6 12.6-34.8 18.4-65.6 17.1-25.2-1-43.5-4.4-70.9-13-8-2.5-14.5-4.5-14.6-4.3-.7 1.1-5.7 21.9-5.8 24.2-.2 3-.2 3 12.8 7.2 15.8 5.2 49.5 12.8 62.7 14.3 13.8 1.4 39.7 1.2 50.8-.5 36.9-5.6 61.7-22.2 70.7-47.6 3.5-9.7 4.3-26.8 1.9-37.4-5.3-22.5-26.4-37.5-86.6-61.5-30.2-12-53.6-23.3-60.3-29.1-8.7-7.5-12.2-19-9.6-31.8 1.3-7 6.5-13.8 12.9-17.1 8.7-4.4 42-8.7 58.3-7.5 19.7 1.4 65.3 8.5 72.1 11.1.9.3 1.7-1.8 2.6-6.8.7-4 2.1-9.9 3.1-13.2 1.1-3.2 1.9-6.2 1.9-6.6 0-1.5-27.8-7.2-51.5-10.5-13.1-1.9-57.8-2.8-68-1.4zM1305 310.3v54.4l-27.2.6c-14.9.4-44.6.7-66 .7H1173V257h-35v255h35V397h132v115.5l18.5-.3 18.5-.3V256h-37zm68 73.7v128h177v-30h-141v-86h132v-31h-132v-77h141v-32h-177zM1 384.5V512l96.2-.2 96.2-.3 12.7-32 12.7-32h114.5l5.9 15c3.2 8.2 8.1 20.2 10.7 26.5 2.7 6.3 5.7 14.1 6.7 17.2l1.8 5.8h34.5l-1.3-3.8c-2.5-6.6-23.2-57.3-29.6-72.2-3.4-8-10.9-26.7-16.6-41.5-5.7-14.9-20.4-51.9-32.7-82.2L290.5 257h-29.1l-9.4 23.7c-5.1 13.1-13.9 35-19.6 48.8-25.3 61.9-50.6 125-54.4 136-2.3 6.5-5.9 15.1-7.9 19l-3.6 7-.3-4.8-.3-4.7H36V257H1zm283-69c2.2 6 9.1 24.5 15.5 41 12.6 32.4 22.3 58.7 23.2 62.2l.5 2.3h-47.1c-38.4 0-47.1-.2-47.1-1.3 0-2.1 4.2-14 9.5-26.7 5-12.2 19.5-50.5 19.5-51.6 0-.7 16.9-43.3 17.7-44.7.7-1.2 3.7 5.6 8.3 18.8"/><path d="M451 384.4V512h35V408h77.8l7 10.3c8.7 12.7 28.9 40.1 44.7 60.7 6.6 8.5 14.7 19.4 17.9 24.3l6 8.7h40.8l-1.8-2.7c-1-1.6-5.8-8.2-10.8-14.8-19.8-26.3-41.5-55.4-47.2-63.5-3.3-4.7-8.8-12.4-12.2-17.2-3.4-4.7-6.2-9.1-6.2-9.6 0-.6 2.6-2 5.8-3.1 20.4-7.3 35.1-22.7 42.9-44.6 2.6-7.5 2.8-8.9 2.7-23.5-.2-13.7-.5-16.4-2.8-23.5-3.3-10.5-8.6-19.3-16.5-27.7-10.5-11.3-21.9-17.9-37.6-22-7.7-2.1-10.8-2.2-76.7-2.5l-68.8-.4v127.5zM572.3 286c16.9 1.7 24.9 5.1 34 14.5 5.9 6.3 10.3 15.1 12.3 25 1.5 7.4 1.5 8.5-.1 16-3.5 16.7-11.4 27.4-25.4 34.3l-7.5 3.7-49.8.3-49.8.3v-94l8.8-.4c20.4-.7 68.5-.6 77.5.3zm1793.3-26.8c-.8 1.3-2.9 6.3-4.7 11.3-1.8 4.9-9.8 25-17.7 44.5-7.9 19.5-22.4 55.7-32.2 80.5-21.3 53.5-36.3 90.6-41.8 103-2.1 4.9-4.2 10-4.6 11.3l-.7 2.2 17.2-.2 17.2-.3 12.7-32 12.8-32h114.5l7.7 19.5c4.3 10.7 9.3 23.3 11.3 28 1.9 4.7 4.1 10.4 4.8 12.7l1.2 4.3h34.7l-1.7-4.2c-.9-2.4-6.8-16.9-13.1-32.3-13.3-32.6-23.9-59-54.7-136-12.3-30.8-24.8-61.9-27.7-69.2l-5.3-13.2-14.2-.1c-13.7 0-14.3.1-15.7 2.2zm17.7 41.4c.5 1.6 4.1 10.8 7.9 20.4 3.8 9.6 11.4 29.6 16.9 44.5 5.5 14.8 12.2 33.1 14.9 40.5 2.8 7.4 5 13.8 5 14.2 0 .5-21.1.8-47 .8-36.9 0-47-.3-47-1.3 0-.6 2.1-6.6 4.6-13.2 2.5-6.6 12.4-32.7 21.9-58 9.5-25.3 17.8-47.3 18.4-48.8 1.3-3.5 3.2-3.1 4.4.9zm61.4-34.9c3.1 4.9 9.1 14 13.3 20.3 4.2 6.3 13.5 20.7 20.5 32 17.2 27.6 53.2 83.7 56.1 87.7l2.4 3.2V512h35V408.8l18.7-29.2c10.3-16 31.5-49.1 47.1-73.6 15.7-24.5 29.2-45.5 30-46.8l1.4-2.2h-36l-38.8 59.7c-21.3 32.9-39 60.2-39.4 60.6-.7.8-17.5-24-48.3-71.4-8.7-13.4-18.6-28.5-22-33.5-3.4-5-7-10.5-7.9-12.2l-1.7-3.2H2439zM714.8 557.6c-16.7 4-29.6 17.2-34.3 34.9-1.9 7.6-1.9 22.4.1 30 3.5 13.5 13.1 25.8 24.7 31.5 26.4 13 57.5-2 65.2-31.5 1.9-7.6 1.9-21.4 0-28.9-3.8-14.5-13.6-27.4-24.7-32.6-10.7-5-20.3-6.1-31-3.4zm23.9 8.6c24.9 9.1 33.7 44.1 17.3 68.6-10.2 15.3-30.8 21.4-45.9 13.7-15.3-7.7-24.1-25.5-22.8-46.1 1.2-19.5 14.9-36 31.9-38.4 6.7-.9 12.9-.2 19.5 2.2zm308.3-8.7c-9.1 2.5-15.4 6.2-21.2 12.3-19.7 20.6-19.7 54.8 0 75.4 9.8 10.3 24.8 15.3 38.8 13 16.7-2.8 32.1-16.5 37.6-33.5 3-9 3-24.8.1-34.2-3.8-12.2-12.7-23.6-22-28.3-10-5.1-24.3-7.1-33.3-4.7zm18.5 7c21.4 3.5 36.2 30.1 30 53.9-3.7 14.3-10.8 23.6-22.1 29.2-14.7 7.3-27.7 5.5-39.4-5.3-7.3-6.7-11.5-14.7-13.7-26.2-3.1-15.5.8-30.1 10.8-40.6 2.8-3 7.6-6.7 10.5-8.1 5.2-2.6 13.9-4.4 17.9-3.8 1.1.2 3.8.6 6 .9m795.5-6.7c-8.5 2.2-14.3 5.8-20.8 12.6-19.1 20.2-18.5 55.4 1.2 75.2 7.2 7.1 14.5 10.9 24.5 12.5 14.2 2.4 26.4-1.7 38.2-12.8 13.3-12.5 18.5-30.5 14.4-49.7-4.4-20.9-19.1-35.5-38.5-38.6-8.6-1.3-11.3-1.2-19 .8zm25.7 8.4c10.8 4 20.2 15.7 23.8 29.5 4.9 18.7-3.3 40.8-18.5 50.2-23.6 14.5-50.3 1.1-56.5-28.4-1.9-8.9-1.9-13.4 0-21.4 6-25.4 28.2-38.4 51.2-29.9zm137.3-8.6c-3 .8-8.2 2.8-11.5 4.4-19.2 9.3-29.6 35.2-23.9 59.7 5.7 24.5 28 40.2 51.9 36.4 19.7-3.2 34.1-17.7 38.5-38.9 1.5-7.5 1.9-8.3 2.5-5.7 2.7 11.5 8.9 23.7 14.7 29.1 5.6 5.2 14.9 10.8 21.8 13.1 6.8 2.2 25.1 2.5 38.3.4l8.7-1.3V613h-7v17.9c0 16.2-.2 18-1.7 18.5-4.3 1.3-23.3 2.3-29.2 1.5-22.3-3.1-40-25.4-37.5-47.3 2.9-26.3 19.9-40.1 48.6-39.8 5.4.1 12.5.6 15.9 1.2 3.3.6 6.2 1 6.4.8.1-.2.5-1.7.8-3.5l.6-3.1-6.5-1.2c-3.7-.6-11.6-1.1-17.8-1.1-30.8.1-49.1 13.2-55.2 39.6-1.4 6-1.9 7.3-2.2 5-2-17.7-12.6-34.1-26.4-40.5-10.6-5-19.8-6-29.8-3.4zm22.7 8.6c15.1 5.5 25.5 21.9 25.7 40.3.2 26.3-19.1 46.9-42.3 45.3-21.3-1.6-36.5-23.1-34.8-49.3 1.2-19.7 14.8-36 31.9-38.5 6.7-.9 12.9-.2 19.5 2.2zm186.2-8.4c-11.5 3-22.9 12.3-28.4 23.2-3 5.9-6.5 20.3-6.5 27 0 13.2 6 28.2 14.5 36.6 5.8 5.6 19.3 13 25 13.6l3 .3.3 13.2.3 13.3h7.9v-26l2.8-.6c13.2-3 18.4-5.7 26-13.9 12.1-13 16.5-29.6 12.6-48.2-4.5-21.7-18.4-36.3-37.4-39.3-8.7-1.3-12.3-1.2-20.1.8zm25.6 8.3c15 5.7 24.1 19.4 25.2 37.9 1.6 26.6-16.3 48-40.3 48-12.2 0-24.4-8.3-30.8-21.1-4.5-9-5.9-16.1-5.4-27.8.3-8.2.8-10.6 3.5-16.4 9.1-19.4 28.6-27.8 47.8-20.6zM448 607.5V657h69.6l5.5-13.7 5.5-13.8 24.7-.3 24.6-.2 1.6 3c.8 1.6 3.3 7.7 5.4 13.6 2.2 5.8 4.1 10.8 4.4 11 .3.3 2.2.4 4.4.2l3.8-.3-20.5-49.2c-19.6-47-20.6-49.3-23.1-49.3-3.5 0-5 2-9.1 12.5-5.8 14.6-23.2 57-28.9 70-5.3 12.3-6.9 15.1-6.9 12.3 0-2.4-4.2-2.8-29.1-2.8H457v-92h-9v49.5zm114.5-18.2c2.9 8.5 6.9 18.8 12.2 31.4.4 1-4.2 1.3-21.2 1.3h-21.6l.6-2.3c.4-1.2 2.5-6.5 4.7-11.7 2.2-5.2 6.5-15.7 9.4-23.3 3-7.7 5.7-14.4 6-14.9 1-1.6 6.2 8.6 9.9 19.5m39.5 18.2v49.7l25.8-.4c30.3-.5 33.7-1.2 41.4-8.9 11.8-11.8 9.6-31.5-4.4-39.8l-5.7-3.3 4.7-3.2c6.5-4.4 9.7-10.9 9.6-19.6-.1-10.4-4.2-16.7-13.9-21.2-4.7-2.2-6.3-2.3-31.2-2.6l-26.3-.3v49.6zm49.8-41c6.3 1.9 9.1 4.1 11.3 8.8 4.8 10.7-.3 21.9-11.6 25.3-5.6 1.7-39.1 2.2-40.7.6-.5-.5-.7-8.7-.6-18.3l.3-17.4 8.5-.6c11.1-.8 27.4 0 32.8 1.6zm-7 42.5c12.6 1.3 17.6 4 21.3 11.2 3.5 6.9 2.2 17.3-3 23.2-5 5.7-22.2 8.5-42.1 6.9l-10.5-.8v-40l8-.6c13.4-.9 16.6-.9 26.3.1zm137.2-1.6V657h9v-43h36l4.4 6.7c2.5 3.8 7.5 10.4 11.1 14.8 3.6 4.4 8.6 11.1 11.1 14.8l4.5 6.8 8.1-.3 8.1-.3 5.3-13.5 5.3-13.5 24.8-.3 24.8-.2 5.4 14 5.4 14h8.6l-6.9-16.8c-32.2-78.4-33.7-81.7-36.1-82-1.3-.2-3.1.3-4.1 1-.9.7-6.4 13.4-12.4 28.3-5.9 14.8-12.7 31.5-15.2 37-2.4 5.5-6.2 14.4-8.5 19.7-2.3 5.4-4.5 9.8-4.9 9.8-1.2 0-29.8-38.9-29.8-40.5 0-.2 2.7-1.8 6.1-3.6 10.1-5.4 14.9-12.8 14.9-23.1 0-10-6.2-20.4-15.1-25.3l-5.4-3-27.2-.3-27.3-.3v49.5zm54.5-40.5c15.6 7.2 16.9 29.5 2.2 37.4-3.9 2-5.8 2.2-25.9 2.5l-21.8.4V565h20.8c18 0 21.2.3 24.7 1.9zm84.4 28.8c5.6 13.9 10.1 25.5 10.1 25.8 0 .3-9.7.5-21.6.5-16.9 0-21.5-.3-21.1-1.3.7-1.6 19.8-48.8 20.4-50.5.3-.7.9-1 1.4-.5.4.4 5.3 12.1 10.8 26zm18.1-34.2v3.5h35v92h8v-92h35v-7h-78zm177 46V657h8v-99h-8zm26-.1V657h8v-43h37l2.7 4.8c1.6 2.7 8.4 12.4 15.3 21.5l12.4 16.7h4.3c2.4 0 4.3-.3 4.3-.7 0-.4-3.9-5.8-8.7-12-9-11.7-19.8-26.5-21.4-29.4-.7-1.4.3-2.2 5.5-4.8 6.7-3.3 10.5-7.3 13.3-13.8 2.2-5.3 1.4-18.4-1.5-23.9-2.6-5.1-9.3-11-14.1-12.6-2.2-.7-13.7-1.3-30.3-1.5l-26.8-.4v49.5zm52.3-40.8c16.4 5.8 18.5 28.9 3.4 37.5-4.1 2.3-4.8 2.4-25.7 2.4h-21.5l-.3-20.7-.2-20.7 8.7-.4c13.7-.6 31.1.3 35.6 1.9zm38.7 40.9V657h66v-7l-28.7-.2-28.8-.3v-40l26.8-.3 26.7-.2v-7l-26.7-.2-26.8-.3-.3-18.3-.2-18.2h58v-7h-66zm96 .2v49.6l14.8-.6c25.6-1 38.3-5.2 49.6-16.4 14.6-14.5 17.7-35.3 8-54.4-4.2-8.4-12.7-16.5-21.8-20.9-10.9-5.2-20.4-7-37.1-7H1329zm35.4-40.7c15.3 3.9 24.5 10.9 30.7 23.5 5.1 10.4 5.4 24.6.8 33.7-1.2 2.3-4.1 6.3-6.6 8.9-10 10.6-22.2 15.8-40 16.6l-11.3.6V565h9.3c6.1 0 12.1.7 17.1 2m50.6 40.5V657h66v-7h-57v-41h53v-7h-53v-37h57v-7h-66zm78-.1V657h9v-43h36l4.4 6.7c2.5 3.8 7.5 10.4 11.1 14.8 3.6 4.4 8.6 11 11.1 14.7 4.4 6.7 4.6 6.8 8.9 6.8 2.5 0 4.5-.2 4.5-.5s-7-9.9-15.5-21.4c-8.5-11.5-15.5-21.1-15.5-21.4 0-.3 2.7-2 6.1-3.8 10.1-5.4 14.9-12.8 14.9-23.1 0-10-6.2-20.4-15.1-25.3l-5.4-3-27.2-.3-27.3-.3v49.5zm52.5-41.1c2.3.7 5.8 2.9 8 5.2 8.5 8.5 8.6 20.7.1 29.1-5.6 5.6-10.4 6.5-33.1 6.2l-18-.3-.3-20.7-.2-20.7 7.7-.4c11.6-.6 31.2.3 35.8 1.6zm38.5 41.2V657h9l.1-41.3.1-41.2 17.1 34.7c9.4 19.2 17.5 34.8 17.9 34.8 4.3 0 5.8-2.4 22.4-35.7l16.9-33.8.3 41.2.2 41.3h8v-99h-3.4c-1.9 0-4.1.6-4.9 1.4-.7.8-9.4 17.4-19.2 37-9.8 19.6-18.2 35.3-18.6 34.9-.5-.5-8.9-17.1-18.9-37.1l-18.1-36.2h-8.9v49.5zm138.4-48.8c-1.6 1.1-4.7 7.6-7.7 15.8-1.4 3.9-6.2 15.6-10.7 26-4.5 10.5-10.4 24.6-13.2 31.5-4.3 10.9-7.8 19.6-9.5 23.8-.4.8.7 1.2 3.6 1.2 3.4 0 4.3-.4 5-2.3.5-1.2 3-7.5 5.6-14l4.7-11.7h49.5l5.4 14 5.4 14h8.4l-1.3-3.8c-.8-2-4.3-10.2-7.8-18.2-5.3-11.9-22.2-52.8-29.7-72-1.3-3.4-2.3-4.6-4.2-4.8-1.3-.1-2.9.1-3.5.5m13.6 37.2c5.6 13.9 9.9 25.5 9.7 25.7-.2.3-9.8.3-21.4.2l-20.9-.3 5.1-14c6.6-18 15.7-38.7 16.6-37.7.4.4 5.3 12.1 10.9 26.1zm19-34.4v3.5h34v92h8v-92h35v-7h-77zm175 46V657h61v-7l-26.2-.2-26.3-.3-.3-45.8-.2-45.7h-8zm250 0V657h8v-99h-8zm120-17.8c0 33.8.6 39.7 5.1 48.6 6.5 13 23.3 21.9 38.7 20.3 18.8-1.9 30.5-13.2 34.3-33 .5-2.7.9-19 .9-36.2V558h-8.8l.5 26.2c.9 48.1-1.4 56.6-17.6 64.5-10.9 5.4-28 2.4-36.7-6.3-7.5-7.4-7.9-10.2-7.9-50.2V558h-8.5zm94 17.8V657h66v-7h-57v-41h53v-7h-53v-37h57v-7h-66z"/></svg>