<svg xmlns="http://www.w3.org/2000/svg" width="8533.333" height="1536" fill="var(--color-grey)" version="1.0" viewBox="0 0 6400 1152"><path d="M1535 .7c-122 5.3-239.2 41.8-334.4 104-89.7 58.6-161.1 140.9-205.3 236.8-28.2 61-44.7 125.4-50.4 196-1.6 19.6-1.6 70.2 0 88 13 150.5 78.6 278.5 192.1 375.2 87.8 74.8 200.4 124.6 324 143.2 59.7 9 124.8 10.4 186.5 4 176.7-18.3 331-98.5 431.2-224.1 68.4-85.7 107.5-186.8 116.3-300.7 1.4-19.3 1.2-66.5-.5-87.6-9.6-119.6-53.5-226.8-131.1-320-14.6-17.5-50.4-53.2-69.1-68.7C1888.7 58.8 1757.6 9.1 1610 1c-16.6-.9-57.9-1.1-75-.3m79 115.8c90 7.4 167.9 36 240.5 88.3 62.6 45.1 117.2 112.2 149.1 183.3 24.6 54.8 39.1 114.3 41 168.9.3 8 .7 16.3.9 18.5.5 6.8-1.3 41.5-3 55.6-11.8 97-57 188.1-129.5 260.9-40.2 40.5-81.1 69.8-132.5 95-51.2 25.2-100 40-155.4 47-71.5 9-145.3 1.4-213.5-22-118.6-40.7-215.7-125.6-270.3-236.1-45.5-91.9-57.2-193.7-34.3-296.9 2.8-12.9 5.4-21.9 10.7-38.5 43.4-134.3 145.4-241.5 278.5-292.9 34.3-13.2 76.2-23.7 114.3-28.6 30.7-4 73.3-5 103.5-2.5zm2238.4-47.8c-30.2 33.9-55 62-55.2 62.4-.2.5 1.4.2 3.5-.5 2.1-.8 80.1-28.7 173.3-62.1 93.2-33.3 169.7-60.8 169.9-61.1.2-.2-52.9-.4-118.1-.4h-118.5l-54.9 61.7zM16 613.9c0 251.9.3 458.6.6 459.5.6 1.5 38.1 1.6 415.5 1.6H847V974H145V156H16zm659.8-297.1c-35.1 88.4-64 161.5-64.4 162.5-.6 1.6 1.9 1.7 47.1 1.5l47.7-.3 7.5-14c4.1-7.7 13.5-25.3 20.8-39 7.3-13.8 18.8-35.4 25.5-48 6.7-12.7 21.9-41.2 33.7-63.5 19.1-35.9 45.1-84.8 71-133.5 4.7-8.8 9.8-18.4 11.4-21.3l2.9-5.2H739.5zm1687.4 298.4.3 459.3 65.8.3c36.1.1 65.8-.1 65.9-.5 0-.5.2-87.2.3-192.8l.2-192 188.4-.2 188.4-.2 138.6 192.7 138.6 192.7 83.2.3c45.7.1 83.1 0 83.1-.3s-8.9-12.1-19.7-26.3c-10.8-14.1-23.8-31.1-28.8-37.7-51.6-67.6-138.1-184.6-179.6-243-15.7-22-50.1-72-51.7-75.1-1-1.9-.4-2.2 13-6.3 40.7-12.1 82.3-32.4 111.4-54.5 62.1-46.9 98.2-113.9 103.4-191.9.9-13.1.7-17.5-1-32.2-7.8-68.6-32.8-124.3-74.5-166.1-23.2-23.3-47.6-40.1-77.8-53.7-33.9-15.2-65.2-23.3-116.2-29.9-6.6-.9-90.7-1.3-320.3-1.5L2363 156zM2952.8 265c60.2 3.2 103.2 20.6 135.2 54.7 17.1 18.4 29.6 41.5 35.2 65.3 2.8 12.4 3.6 40.8 1.4 55.6-8.2 55.6-36.2 96.1-82.1 118.5-17.3 8.4-38.2 14.2-66.6 18.6-10.5 1.6-29.2 1.7-245.9 2l-234.5.3.2-157.7c0-86.8.2-157.9.2-158.1.3-.8 440.6 0 456.9.8zm527.4 350.2.3 459.3 410.8.3 410.7.2V974h-681V653h512l-.2-50.8-.3-50.7-255.7-.3-255.8-.2V256h681V156h-822zm1331.2-414.5c-12.4 24.7-26.4 52-30.9 60.8-4.5 8.8-16.9 33.1-27.5 54-10.6 20.9-25.2 49.7-32.5 64-7.3 14.3-54.1 106.3-104 204.5-126.4 248.7-177.6 349.4-192.5 378.5-35.5 69.5-56 110.3-56 111.4 0 .8 19.4 1 78.6.9l78.6-.3 59.6-118.7 59.7-118.8 280.3.3 280.3.2 9.8 19c9.7 19 40.9 80.5 84.9 167.5 12.9 25.6 24.1 47.5 24.9 48.7l1.3 2.3h77.4c42.5 0 77.5-.2 77.8-.5.3-.3-6.8-14.8-15.7-32.3-8.9-17.4-26.6-52.4-39.4-77.7-12.9-25.3-25-49.2-27.1-53-2.1-3.9-15.3-30-29.5-58-14.2-28.1-26.5-52.4-27.5-54-.9-1.7-14-27.3-29-57s-27.6-54.5-28-55c-.4-.6-14.3-28-31-61s-30.6-60.5-31-61c-.4-.6-13.2-25.8-28.5-56-15.3-30.3-28.1-55.5-28.5-56-.4-.6-13.2-25.8-28.5-56-15.3-30.3-28.1-55.5-28.5-56-.4-.6-12.8-24.9-27.5-54-14.7-29.2-27.1-53.5-27.5-54-.4-.6-9.4-18.2-20.1-39.3l-19.3-38.2h-180.5l-22.7 44.7zm121.8 100.6c4.8 9.4 17.7 34.7 28.6 56.2 10.9 21.4 31.4 61.9 45.6 90 14.2 28 29.8 58.6 34.6 68 4.8 9.3 19.9 39 33.5 66 13.6 26.9 27.6 54.4 31 61 5.6 10.8 38.5 75.9 39.3 77.7.2.5-99.1.8-220.7.8H4704l22.8-45.3c12.6-24.8 62-123.2 109.7-218.5 47.8-95.2 87.1-173.2 87.4-173.2.3 0 4.5 7.8 9.3 17.3zM5553 615.5V1075l415.3-.2 415.2-.3.3-50.2.2-50.3h-703V156h-128z"/></svg>