<svg xmlns="http://www.w3.org/2000/svg" width="191.523" height="43.862" fill="var(--color-grey)"><defs><clipPath id="a"><path d="M0 0h.551v33.025H0z"/></clipPath><clipPath id="b"><path d="M2.891 5.504h1.5a2.574 2.574 0 0 0 1.9-.49 3.7 3.7 0 0 0 .428-2.2A3.173 3.173 0 0 0 6.272.78a2.239 2.239 0 0 0-1.66-.479H2.894Zm0 5.524h1.548v.3H0v-.3h1.553V.301H.005v-.3h4.707A3.64 3.64 0 0 1 7.22.863a2.824 2.824 0 0 1 .976 2.223 2.387 2.387 0 0 1-.913 2.03 4.4 4.4 0 0 1-2.685.692h-1.7Z" clip-rule="evenodd"/></clipPath><clipPath id="c"><path d="M7.16 4.812V.302H5.612v-.3h4.438v.3H8.485v10.727h1.565v.3H5.612v-.3H7.16V5.116H2.891v5.913H4.44v.3H.001v-.3h1.55V.302H.001v-.3h4.44v.3h-1.55v4.51Z" clip-rule="evenodd"/></clipPath><clipPath id="d"><path d="M2.888 11.027h1.548v.3H-.001v-.3h1.547V.301H-.001v-.3h4.437v.3H2.888Z" clip-rule="evenodd"/></clipPath><clipPath id="e"><path d="M4.438 0v.3H2.89v10.729h1.4a2.889 2.889 0 0 0 2.445-1.143A7.751 7.751 0 0 0 7.922 6.25h.177v5.079h-8.1v-.3h1.548V.303H-.001v-.3Z" clip-rule="evenodd"/></clipPath><clipPath id="f"><path d="M2.892 11.027h1.546v.3H.001v-.3h1.548V.301H.001v-.3h4.437v.3H2.892Z" clip-rule="evenodd"/></clipPath><clipPath id="g"><path d="M2.89 5.504h1.5a2.574 2.574 0 0 0 1.9-.49 3.706 3.706 0 0 0 .428-2.2A3.168 3.168 0 0 0 6.27.78 2.236 2.236 0 0 0 4.611.301H2.892Zm0 5.524h1.549v.3H0v-.3h1.549V.301H0v-.3h4.706a3.639 3.639 0 0 1 2.508.862 2.826 2.826 0 0 1 .976 2.223 2.385 2.385 0 0 1-.914 2.03 4.392 4.392 0 0 1-2.684.692h-1.7Z" clip-rule="evenodd"/></clipPath><clipPath id="h"><path d="M4.847 11.329 1.952.187v9.17a2.288 2.288 0 0 0 .276 1.283 1.016 1.016 0 0 0 .891.389h.505v.3H-.004v-.3h.271a1.323 1.323 0 0 0 1.042-.389 1.742 1.742 0 0 0 .341-1.175V1.353a1.04 1.04 0 0 0-.288-.81A1.5 1.5 0 0 0 .399.302h-.4v-.3h3.166l2.309 8.861L7.894.002h2.991v.3H9.352v10.727h1.538v.3H6.533v-.3H8.09L8.151.188 5.104 11.329Z" clip-rule="evenodd"/></clipPath><clipPath id="i"><path d="M3.97 11.402a1.9 1.9 0 0 0 1.121-.362 2.932 2.932 0 0 0 .867-1.063 3.9 3.9 0 0 0 .338-1.247 25.344 25.344 0 0 0 .109-2.879 21.293 21.293 0 0 0-.155-3.228 3.344 3.344 0 0 0-.529-1.351 2.355 2.355 0 0 0-.8-.726 1.933 1.933 0 0 0-.95-.262 1.966 1.966 0 0 0-.968.262 2.356 2.356 0 0 0-.8.726 3.68 3.68 0 0 0-.537 1.379 11.543 11.543 0 0 0-.108 1.218 42.042 42.042 0 0 0-.037 1.981v.365a22.587 22.587 0 0 0 .1 2.585 3.353 3.353 0 0 0 .346 1.176 2.885 2.885 0 0 0 .875 1.059 1.918 1.918 0 0 0 1.131.366m0-11.4a2.819 2.819 0 0 1 1.288.314 3.558 3.558 0 0 1 1.117.915A6.424 6.424 0 0 1 7.53 3.363a8.573 8.573 0 0 1 .4 2.661 7.955 7.955 0 0 1-.309 2.3 6.084 6.084 0 0 1-.939 1.883 3.89 3.89 0 0 1-1.241 1.1 2.967 2.967 0 0 1-1.466.4 3 3 0 0 1-1.462-.4 3.959 3.959 0 0 1-1.261-1.1 6.047 6.047 0 0 1-.937-1.876 7.515 7.515 0 0 1-.233-1.093 8.692 8.692 0 0 1-.077-1.211A9.1 9.1 0 0 1 .19 4.179a7.557 7.557 0 0 1 .546-1.67A5.052 5.052 0 0 1 2.152.654a2.925 2.925 0 0 1 1.823-.65" clip-rule="evenodd"/></clipPath><clipPath id="j"><path d="M4.578.303H2.89v5.141h1.468A2.3 2.3 0 0 0 6.165 4.9a3.6 3.6 0 0 0 .452-2.162 3.061 3.061 0 0 0-.44-1.911A2.013 2.013 0 0 0 4.578.303M-.001 11.329v-.3h1.547V.303H-.001v-.3h5.1a3.152 3.152 0 0 1 2.2.707 2.562 2.562 0 0 1 .78 2 2.631 2.631 0 0 1-.78 2 3.592 3.592 0 0 1-2.215.887 3.236 3.236 0 0 1 .95.131 2.786 2.786 0 0 1 .761.367 2.165 2.165 0 0 1 .833 1.255 2.266 2.266 0 0 1 .055.235c.009.067.029.186.055.358a7.708 7.708 0 0 1 .039.795v.793a1.915 1.915 0 0 0 .013.276c.011.078.021.139.029.182a1.383 1.383 0 0 0 .035.152 1.713 1.713 0 0 0 .391.811.961.961 0 0 0 .69.234h.146a1.444 1.444 0 0 1 .174-.037.761.761 0 0 0 .131-.031 2.189 2.189 0 0 0 .217-.085v.3a1.817 1.817 0 0 1-.435.144c-.085.017-.164.03-.239.041a2.033 2.033 0 0 1-.257.016 2.072 2.072 0 0 1-1.8-.706 4.842 4.842 0 0 1-.515-2.669 3.314 3.314 0 0 0-.391-1.945 1.732 1.732 0 0 0-1.4-.479H2.878v5.3h1.547v.3Z" clip-rule="evenodd"/></clipPath><clipPath id="k"><path d="M4.578.303H2.891v5.141H4.36A2.305 2.305 0 0 0 6.165 4.9a3.613 3.613 0 0 0 .453-2.162A3.065 3.065 0 0 0 6.176.827 2.008 2.008 0 0 0 4.578.303m-4.58 11.026v-.3h1.547V.303H-.002v-.3h5.1a3.165 3.165 0 0 1 2.2.707 2.577 2.577 0 0 1 .777 2 2.647 2.647 0 0 1-.777 2 3.6 3.6 0 0 1-2.217.887 3.214 3.214 0 0 1 .947.131 2.705 2.705 0 0 1 .763.367 2.172 2.172 0 0 1 .835 1.255c.025.09.043.167.055.235s.029.186.053.358c.023.234.038.5.038.795v.793a2.2 2.2 0 0 0 .016.276c.009.078.018.139.026.182s.023.1.035.152a1.735 1.735 0 0 0 .391.811.967.967 0 0 0 .691.234h.151a1.209 1.209 0 0 1 .171-.037.7.7 0 0 0 .128-.031 2.255 2.255 0 0 0 .22-.085v.3a1.87 1.87 0 0 1-.436.144c-.084.017-.163.03-.24.041a2.568 2.568 0 0 1-2.053-.69 4.866 4.866 0 0 1-.513-2.669 3.307 3.307 0 0 0-.393-1.945 1.732 1.732 0 0 0-1.4-.479H2.879v5.3h1.548v.3Z" clip-rule="evenodd"/></clipPath><clipPath id="l"><path d="M2.89 11.027h1.548v.3h-4.44v-.3h1.547V.301H-.002v-.3h4.438v.3H2.888Z" clip-rule="evenodd"/></clipPath><clipPath id="m"><path d="M0 0h6.839v11.705H0z"/></clipPath><clipPath id="n"><path d="M0 0h7.269v11.769H0z"/></clipPath><clipPath id="o"><path d="M0 11.587V6.762h.238a7.054 7.054 0 0 0 1.255 3.425 2.875 2.875 0 0 0 2.351 1.215 2.122 2.122 0 0 0 1.565-.631 2.161 2.161 0 0 0 .63-1.587 2.23 2.23 0 0 0-.456-1.39A5.844 5.844 0 0 0 3.888 6.46q-.371-.235-1.11-.616A8.567 8.567 0 0 1 1.02 4.723a2.52 2.52 0 0 1-.547-.828 2.625 2.625 0 0 1-.2-.992A2.975 2.975 0 0 1 1.019.816 2.473 2.473 0 0 1 2.933 0a2.678 2.678 0 0 1 1.365.349 4.386 4.386 0 0 1 1.217 1.152l.878-1.5h.094V4.35h-.239a6.788 6.788 0 0 0-1.22-3A2.548 2.548 0 0 0 2.981.302a2.262 2.262 0 0 0-1.527.522A1.663 1.663 0 0 0 .849 2.14q0 1 2.434 2.326l.734.4A7.372 7.372 0 0 1 6.21 6.537a2.943 2.943 0 0 1 .629 1.872 3.347 3.347 0 0 1-.868 2.364 2.942 2.942 0 0 1-3.672.514 4.3 4.3 0 0 1-1.283-1.25l-.84 1.555Z" clip-rule="evenodd"/></clipPath><clipPath id="p"><path d="M2.891 11.029h1.548v.3h-4.44v-.3h1.554V.302H.004v-.3h4.44v.3H2.896Z" clip-rule="evenodd"/></clipPath><clipPath id="q"><path d="M1.956 1.263v7.621a3 3 0 0 0 .351 1.607 1.179 1.179 0 0 0 1.066.541h.255v.3H0v-.3h.272a1.151 1.151 0 0 0 1.047-.518 3 3 0 0 0 .334-1.6V.984a1.031 1.031 0 0 0-.419-.526A1.715 1.715 0 0 0 .394.3h-.395V0h2.763l4.475 8.6V2.467A2.97 2.97 0 0 0 6.879.848 1.2 1.2 0 0 0 5.805.303h-.257v-.3h3.646v.3h-.281a1.167 1.167 0 0 0-1.044.524 2.961 2.961 0 0 0-.341 1.592v9.108h-.225Z" clip-rule="evenodd"/></clipPath><clipPath id="r"><path d="M1.744 11.331v-.3h1.538V.293L3.167.285h-.124a2.284 2.284 0 0 0-2.025 1.052 4.685 4.685 0 0 0-.592 1.348 7.461 7.461 0 0 0-.248 1.986H0V0h8.006v4.671h-.187a7.263 7.263 0 0 0-.9-3.448A2.6 2.6 0 0 0 4.66.285h-.031v10.743h1.549v.3Z" clip-rule="evenodd"/></clipPath><clipPath id="s"><path d="M0 11.331v-.3h1.548V.304H0v-.3h7.891v3.851h-.17a5.867 5.867 0 0 0-.919-2.758 2.335 2.335 0 0 0-1.936-.79H2.891V5.1h.607a1.644 1.644 0 0 0 1.368-.66 2.621 2.621 0 0 0 .4-.808 3.623 3.623 0 0 0 .145-1.056h.161v5.167h-.161a3.752 3.752 0 0 0-.133-1.056 2.183 2.183 0 0 0-.372-.756 1.569 1.569 0 0 0-1.312-.546h-.7v5.648H4.84a2.4 2.4 0 0 0 2.053-1.015 6.775 6.775 0 0 0 .986-3.156h.179v4.474Z" clip-rule="evenodd"/></clipPath><clipPath id="t"><path d="M4.58.304H2.892v5.14h1.471a2.3 2.3 0 0 0 1.8-.544 3.6 3.6 0 0 0 .451-2.162A3.078 3.078 0 0 0 6.175.827 2.015 2.015 0 0 0 4.58.304M0 11.332v-.3h1.549V.304H0v-.3h5.106a3.168 3.168 0 0 1 2.2.707 2.572 2.572 0 0 1 .777 2 2.648 2.648 0 0 1-.775 2 3.616 3.616 0 0 1-2.219.887 3.213 3.213 0 0 1 .949.132 2.661 2.661 0 0 1 .761.367 2.154 2.154 0 0 1 .836 1.255 1.837 1.837 0 0 1 .054.234c.01.068.027.187.054.359a7.352 7.352 0 0 1 .038.8v.793a2.134 2.134 0 0 0 .016.276l.026.182a1.4 1.4 0 0 0 .036.152 1.721 1.721 0 0 0 .39.811.967.967 0 0 0 .693.233h.147a1.668 1.668 0 0 1 .17-.035.86.86 0 0 0 .133-.033 2.209 2.209 0 0 0 .22-.084v.3a1.864 1.864 0 0 1-.437.144 3.79 3.79 0 0 1-.24.042 2.009 2.009 0 0 1-.258.015 2.076 2.076 0 0 1-1.8-.706 4.872 4.872 0 0 1-.511-2.668 3.316 3.316 0 0 0-.393-1.946 1.729 1.729 0 0 0-1.4-.478H2.885v5.3h1.548v.3Z" clip-rule="evenodd"/></clipPath><clipPath id="u"><path d="M1.957 1.263v7.621a2.965 2.965 0 0 0 .35 1.607 1.177 1.177 0 0 0 1.064.541h.258v.3H0v-.3h.271a1.155 1.155 0 0 0 1.05-.518 3.009 3.009 0 0 0 .333-1.6V.984a1.017 1.017 0 0 0-.421-.526A1.7 1.7 0 0 0 .395.3h-.4V0h2.762l4.477 8.6V2.467A2.978 2.978 0 0 0 6.877.848 1.2 1.2 0 0 0 5.799.303h-.251v-.3h3.648v.3h-.289a1.158 1.158 0 0 0-1.041.524 2.948 2.948 0 0 0-.341 1.592v9.108h-.226Z" clip-rule="evenodd"/></clipPath><clipPath id="v"><path d="M2.583 7.606h3.256l-1.611-5.5ZM2.1 9.183c-.029.1-.051.165-.057.2s-.021.107-.036.21l-.032.412a1.218 1.218 0 0 0 .307.885 1.125 1.125 0 0 0 .838.315h.323v.3H.001v-.3a1.62 1.62 0 0 0 1.073-.544 5.175 5.175 0 0 0 .795-1.72L4.545-.001h.348l3.378 11.208h1.02v.3H5.569v-.3h1.338l-.973-3.316H2.482Z" clip-rule="evenodd"/></clipPath><clipPath id="w"><path d="M1.744 11.331v-.3h1.538V.293L3.165.285h-.124a2.279 2.279 0 0 0-2.023 1.052 4.712 4.712 0 0 0-.593 1.348 7.5 7.5 0 0 0-.247 1.986H0V0h8.006v4.671h-.187a7.288 7.288 0 0 0-.9-3.448 2.609 2.609 0 0 0-2.26-.938h-.03v10.743h1.547v.3Z" clip-rule="evenodd"/></clipPath><clipPath id="x"><path d="M2.89 11.029h1.545v.3H-.001v-.3h1.547V.302H-.001v-.3h4.436v.3H2.89Z" clip-rule="evenodd"/></clipPath><clipPath id="y"><path d="M3.973 11.402a1.866 1.866 0 0 0 1.115-.362 2.909 2.909 0 0 0 .874-1.063 3.94 3.94 0 0 0 .334-1.245 25.394 25.394 0 0 0 .109-2.881 21.56 21.56 0 0 0-.155-3.228 3.445 3.445 0 0 0-.528-1.351 2.38 2.38 0 0 0-.8-.727 1.937 1.937 0 0 0-.95-.261 1.99 1.99 0 0 0-.971.261 2.368 2.368 0 0 0-.795.727 3.609 3.609 0 0 0-.537 1.378 11.063 11.063 0 0 0-.108 1.219q-.039.8-.041 1.981v.365a22.538 22.538 0 0 0 .1 2.585 3.342 3.342 0 0 0 .348 1.176 2.867 2.867 0 0 0 .874 1.06 1.916 1.916 0 0 0 1.132.365m0-11.4a2.809 2.809 0 0 1 1.285.315 3.62 3.62 0 0 1 1.119.915A6.505 6.505 0 0 1 7.53 3.363a8.576 8.576 0 0 1 .4 2.662 8.031 8.031 0 0 1-.306 2.3 6.1 6.1 0 0 1-.94 1.883 3.914 3.914 0 0 1-1.239 1.1 2.978 2.978 0 0 1-1.467.4 3.018 3.018 0 0 1-1.464-.4 4 4 0 0 1-1.265-1.105 6.142 6.142 0 0 1-.932-1.875 7.845 7.845 0 0 1-.233-1.094 8.667 8.667 0 0 1-.079-1.21 9.277 9.277 0 0 1 .187-1.849 7.633 7.633 0 0 1 .544-1.669A5.03 5.03 0 0 1 2.155.651a2.927 2.927 0 0 1 1.823-.65" clip-rule="evenodd"/></clipPath><clipPath id="z"><path d="M1.955 1.263v7.621a3.008 3.008 0 0 0 .351 1.607 1.183 1.183 0 0 0 1.067.541h.255v.3H.001v-.3h.272a1.15 1.15 0 0 0 1.047-.518 3.01 3.01 0 0 0 .332-1.6V.984a1.016 1.016 0 0 0-.415-.526A1.725 1.725 0 0 0 .395.3H.001V0h2.764l4.473 8.6V2.467A2.949 2.949 0 0 0 6.881.848 1.2 1.2 0 0 0 5.808.303h-.257v-.3h3.646v.3h-.288a1.162 1.162 0 0 0-1.042.524 2.987 2.987 0 0 0-.342 1.592v9.108h-.224Z" clip-rule="evenodd"/></clipPath><clipPath id="A"><path d="M2.583 7.606H5.84l-1.611-5.5Zm-.482 1.577c-.03.1-.05.165-.058.2s-.02.107-.036.21l-.03.412a1.205 1.205 0 0 0 .31.885 1.117 1.117 0 0 0 .838.315h.318v.3H.001v-.3a1.628 1.628 0 0 0 1.074-.544 5.146 5.146 0 0 0 .792-1.72L4.546-.001H4.9l3.375 11.208h1.019v.3H5.568v-.3h1.343l-.974-3.316H2.484Z" clip-rule="evenodd"/></clipPath><clipPath id="B"><path d="M4.44 0v.3H2.892v10.725h1.4a2.9 2.9 0 0 0 2.45-1.143 7.781 7.781 0 0 0 1.186-3.636h.175v5.081h-8.1v-.3h1.548V.304H.003v-.3Z" clip-rule="evenodd"/></clipPath><clipPath id="C"><path d="M.155 6.424c.135.086.343-.009.562-.124.459-.239.551-.648.708-3.116C1.553 1.171 1.075.433.864.209a.571.571 0 0 0-.4-.21C.122.023.092.405.092.762c0 .432-.043 4.1-.085 4.949-.023.413.023.635.149.713" clip-rule="evenodd"/></clipPath><clipPath id="D"><path d="m0 .119.395-.12.569 1.888-.396.12z"/></clipPath><clipPath id="E"><path d="M0 .388.418.281 1.499 1.42 1.164.094l.371-.092.484 1.909-.4.1L.51.859l.344 1.346-.37.1Z" clip-rule="evenodd"/></clipPath><clipPath id="F"><path d="m1.561 0 .067.338-.578.115.318 1.595-.4.083-.319-1.6-.58.116L.002.314Z" clip-rule="evenodd"/></clipPath><clipPath id="G"><path d="M1.465.35.454.504l.059.408.929-.138.05.337-.926.14.075.5 1.061-.159.052.349-1.46.22L-.001.212l1.412-.213Z" clip-rule="evenodd"/></clipPath><clipPath id="H"><path d="M1.251.025a.465.465 0 0 1 .2.119.727.727 0 0 1 .112.154.6.6 0 0 1 .058.205.588.588 0 0 1-.046.281.392.392 0 0 1-.212.215.355.355 0 0 1 .2.136.651.651 0 0 1 .088.3l.012.129a.984.984 0 0 0 .029.182.167.167 0 0 0 .086.1v.049l-.45.044a.907.907 0 0 1-.037-.1 1.018 1.018 0 0 1-.032-.164l-.021-.183a.376.376 0 0 0-.088-.241.318.318 0 0 0-.243-.039l-.4.039.074.768-.4.04L-.01.095.926.004a.88.88 0 0 1 .325.021M.433.4l.052.526.442-.043a.445.445 0 0 0 .191-.052.221.221 0 0 0 .1-.231.249.249 0 0 0-.137-.229.4.4 0 0 0-.193-.017Z" clip-rule="evenodd"/></clipPath><clipPath id="I"><path d="M0 .073.431.05l.83 1.331L1.198.018 1.582 0l.09 1.969-.412.018L.407.634l.064 1.389-.382.017Z" clip-rule="evenodd"/></clipPath><clipPath id="J"><path d="M.714 0h.47l.685 1.974h-.448l-.125-.405-.728-.005-.134.4H.003Zm-.03 1.223h.5L.942.448Z" clip-rule="evenodd"/></clipPath><clipPath id="K"><path d="m1.609.08-.018.342L1.003.39.92 2.017l-.412-.018L.591.37 0 .342.018 0Z" clip-rule="evenodd"/></clipPath><clipPath id="L"><path d="M0 1.963.177 0l.41.037L.41 2z"/></clipPath><clipPath id="M"><path d="M1.486 1.933a1.023 1.023 0 0 1-1.28-.165A1.067 1.067 0 0 1 .013.925a1.045 1.045 0 0 1 .4-.765 1.008 1.008 0 0 1 1.278.163 1.067 1.067 0 0 1 .191.844 1.081 1.081 0 0 1-.4.766m-.218-.335a.793.793 0 0 0 .206-.487.812.812 0 0 0-.075-.522.508.508 0 0 0-.768-.1.8.8 0 0 0-.206.487.781.781 0 0 0 .077.521.5.5 0 0 0 .766.1" clip-rule="evenodd"/></clipPath><clipPath id="N"><path d="m.357 0 .424.08.508 1.481L1.538.22l.375.068-.357 1.938-.4-.073L.633.643.378 2.007.003 1.94Z" clip-rule="evenodd"/></clipPath><clipPath id="O"><path d="m1.15 0 .457.108.216 2.081-.436-.105-.032-.422-.706-.169-.221.36-.424-.1ZM.842 1.185l.486.119-.057-.809Z" clip-rule="evenodd"/></clipPath><clipPath id="P"><path d="m.555 0 .4.116L.496 1.67l.942.279-.1.336-1.34-.393Z" clip-rule="evenodd"/></clipPath><clipPath id="Q"><path d="M1.573.981a.733.733 0 0 1-.43.274l-.39.115.2.677-.4.117L-.001.272.81.036a.672.672 0 0 1 .489.016.606.606 0 0 1 .3.4.617.617 0 0 1-.026.524M1.067.382a.329.329 0 0 0-.224 0l-.35.1.163.555.349-.1a.323.323 0 0 0 .188-.13.288.288 0 0 0 .009-.234.278.278 0 0 0-.135-.19" clip-rule="evenodd"/></clipPath><clipPath id="R"><path d="M.448 2.277.001.358l.4-.093.17.733.735-.173-.168-.732.4-.094.444 1.918-.4.1-.2-.855-.739.171.2.855Z" clip-rule="evenodd"/></clipPath><clipPath id="S"><path d="M0 .073.405 0l.35 1.939-.406.073z"/></clipPath><clipPath id="T"><path d="M0 .063.41 0l.23 1.6.969-.14.054.35-1.382.2Z" clip-rule="evenodd"/></clipPath><clipPath id="U"><path d="m.612 1.963-.41.041-.2-1.96.411-.042Z" clip-rule="evenodd"/></clipPath><clipPath id="V"><path d="M1.375 1.093a.738.738 0 0 1-.481.172l-.405.024.041.7-.414.026L.001.045l.845-.047a.669.669 0 0 1 .472.124.6.6 0 0 1 .2.463.616.616 0 0 1-.143.5M1.016.394A.306.306 0 0 0 .798.341L.434.36l.034.582.363-.023A.291.291 0 0 0 1.04.834a.283.283 0 0 0 .064-.228.272.272 0 0 0-.088-.212" clip-rule="evenodd"/></clipPath><clipPath id="W"><path d="m1.37.038.591.017-.06 1.972-.382-.011.04-1.334c0-.037 0-.09.007-.161s0-.121 0-.159l-.42 1.643-.4-.012L.427.327c0 .039-.005.092-.005.161v.16L.383 1.98l-.385-.008L.059 0l.6.018.312 1.562Z" clip-rule="evenodd"/></clipPath><clipPath id="X"><path d="M1.514 1.91a1.013 1.013 0 0 1-1.282-.118A1.069 1.069 0 0 1 .007.957 1.055 1.055 0 0 1 .38.175a.867.867 0 0 1 .662-.171.858.858 0 0 1 .62.291 1.039 1.039 0 0 1 .224.832 1.066 1.066 0 0 1-.372.782m-.228-.325A.986.986 0 0 0 1.378.571a.472.472 0 0 0-.366-.214.478.478 0 0 0-.4.144.8.8 0 0 0-.191.5.792.792 0 0 0 .1.519.5.5 0 0 0 .769.069" clip-rule="evenodd"/></clipPath><clipPath id="Y"><path d="M1.526.239a.459.459 0 0 1 .162.163.551.551 0 0 1 .075.18.571.571 0 0 1 .007.21.629.629 0 0 1-.112.263.4.4 0 0 1-.261.155.359.359 0 0 1 .166.183.628.628 0 0 1 .01.313l-.019.131a1.007 1.007 0 0 0-.017.182.162.162 0 0 0 .058.121l-.007.049-.447-.067a.944.944 0 0 1-.011-.109.881.881 0 0 1 .009-.169l.024-.182a.38.38 0 0 0-.027-.258.337.337 0 0 0-.223-.1l-.4-.059-.114.764-.4-.062.3-1.948.929.142a.848.848 0 0 1 .298.098M.642.4.563.926 1 .99a.485.485 0 0 0 .2 0 .217.217 0 0 0 .15-.2.261.261 0 0 0-.074-.255.438.438 0 0 0-.186-.062Z" clip-rule="evenodd"/></clipPath><clipPath id="Z"><path d="M1.622.307a.5.5 0 0 1 .152.174.546.546 0 0 1 .063.184.574.574 0 0 1-.134.463.386.386 0 0 1-.269.14.373.373 0 0 1 .157.194.627.627 0 0 1-.009.314l-.027.128a1.123 1.123 0 0 0-.028.182.174.174 0 0 0 .049.124l-.008.048-.443-.094c0-.046-.006-.079-.006-.108a.741.741 0 0 1 .021-.169l.033-.181a.364.364 0 0 0-.012-.257.316.316 0 0 0-.217-.111l-.391-.083-.16.754-.395-.083.408-1.927.922.192a.991.991 0 0 1 .294.116M.73.418.622.935l.431.092a.49.49 0 0 0 .2.009.219.219 0 0 0 .159-.193.248.248 0 0 0-.059-.258.377.377 0 0 0-.178-.074Z" clip-rule="evenodd"/></clipPath><clipPath id="aa"><path d="m.402 2.014-.4-.106L.496 0l.4.1Z" clip-rule="evenodd"/></clipPath><clipPath id="ab"><path d="M.412 1.301a.416.416 0 0 0 .013.213.435.435 0 0 0 .293.219.858.858 0 0 0 .236.037.231.231 0 0 0 .23-.171.167.167 0 0 0-.037-.168.923.923 0 0 0-.231-.165l-.187-.107A1.44 1.44 0 0 1 .364.891a.487.487 0 0 1-.07-.467.57.57 0 0 1 .314-.366.851.851 0 0 1 .6 0 .882.882 0 0 1 .467.315.593.593 0 0 1 .081.526L1.375.782a.284.284 0 0 0-.076-.288.6.6 0 0 0-.218-.117.45.45 0 0 0-.263-.01.2.2 0 0 0-.145.141.173.173 0 0 0 .044.179 1.153 1.153 0 0 0 .225.152l.3.179a.872.872 0 0 1 .282.235.482.482 0 0 1 .052.437.563.563 0 0 1-.328.369.867.867 0 0 1-.613 0 .954.954 0 0 1-.531-.344.587.587 0 0 1-.07-.527Z" clip-rule="evenodd"/></clipPath><clipPath id="ac"><path d="M7.947 19.1h.005c4.383 0 7.944-4.288 7.944-9.551S12.334-.002 7.952-.004h-.005C3.565-.004 0 4.282 0 9.549s3.564 9.548 7.947 9.551m0-18.643c4.129 0 7.488 4.079 7.488 9.092s-3.359 9.09-7.488 9.09S.459 14.56.459 9.549 3.818.457 7.947.457" clip-rule="evenodd"/></clipPath><clipPath id="ad"><path d="M2.318 14.214c-.089.057-.153.07-.192.035a.1.1 0 0 1-.029-.079.512.512 0 0 1 .03-.139 34.185 34.185 0 0 0 .532-7.151c0-1.085-.026-1.987-.068-2.439a2.884 2.884 0 0 1-.013-.259c0-.348.108-.407.327-.491l.023-.008a.831.831 0 0 0 .534-.345 1.182 1.182 0 0 1 1.062-.795c.448 0 2.121.6 2.121 3.562a3.611 3.611 0 0 1-2.3 3.748l-.048.018c-.2.076-.222.254-.235.409l-.008.046c-.315 2.787-1.4 3.68-1.733 3.89M7.605 3.43c-.025-.124-.021-.168.01-.18s.073.031.143.153l.031.053a25.641 25.641 0 0 1 1.716 4.475.285.285 0 0 0 .032.087.363.363 0 0 0 .037-.087 26.484 26.484 0 0 1 1.84-4.619c.143-.2.191-.231.228-.215s.03.089.01.195l-.012.063a30.975 30.975 0 0 0 1 10.746c.053.16.046.2.017.223s-.1-.03-.157-.089c0 0-.013-.017-.008-.014-1.464-.974-2.211-4.059-2.233-4.3-.009-.108-.033-.132-.037-.137a.153.153 0 0 0-.012.021c-.119.4-.457 1.952-.683 2.981-.1.481-.18.83-.2.892l-.024.1c-.016.07-.022.1-.056.1s-.043-.026-.1-.2-.349-1.309-.585-2.231c-.167-.646-.31-1.2-.333-1.272a.549.549 0 0 0-.047-.126c-.007.011-.02.038-.02.038l-.183.571a5.8 5.8 0 0 1-1.852 3.263c-.26.193-.3.19-.329.166s0-.1.094-.237a21.059 21.059 0 0 0 1.7-10.421M7.475 18.18c4.129 0 7.488-4.079 7.488-9.09S11.604-.003 7.475-.003-.013 4.076-.013 9.09s3.359 9.09 7.488 9.09" clip-rule="evenodd"/></clipPath><clipPath id="ae"><path d="M.459.84a.38.38 0 1 1 .38.38.381.381 0 0 1-.38-.38m1.218 0a.839.839 0 1 0-.839.837.841.841 0 0 0 .839-.837" clip-rule="evenodd"/></clipPath><clipPath id="af"><path d="M0 0h60.003v43.862H0z"/></clipPath><clipPath id="ag"><path d="M0 0h60.227v43.959H0z"/></clipPath><clipPath id="ah"><path d="M59.424 15.919a.241.241 0 0 1 .063.129.052.052 0 0 1-.005.023c-.015.056-.094.135-.267.2a.821.821 0 0 1-.658-.053l-.03-.014-.067-.024c-.847-.322-.533-.244-.651.554-.02.1-.034.218-.049.339a9.767 9.767 0 0 1-.388 1.7l-.067.258a.359.359 0 0 1-.01.05 2.847 2.847 0 0 1-.33-.307l-.162-.17a4.107 4.107 0 0 1-1.437-2.336 1.22 1.22 0 0 1 .339-.831.545.545 0 0 0 .258-.413.117.117 0 0 0 0-.03c-.019-.263-.287-.394-.481-.489l-.09-.048a2.93 2.93 0 0 0-2.265-.034 2.433 2.433 0 0 0-1.254 1.956v.016a3.446 3.446 0 0 0 1.29 3.418 1.744 1.744 0 0 0-.17.491 2.925 2.925 0 0 1-.1.373c-.047.158-.1.328-.134.491-.46-.7-1.093-1.77-1.287-2.13a4.574 4.574 0 0 1-.169-3.955 2.858 2.858 0 0 1 1.458-1.339 2.651 2.651 0 0 1 1.987-.1 4.554 4.554 0 0 0 1.053.337 3.149 3.149 0 0 0 1.131-.154 2.106 2.106 0 0 1 .6-.106 4.361 4.361 0 0 1 .835.283 3.861 3.861 0 0 0 .525.188 1.232 1.232 0 0 0 .268.009 1.124 1.124 0 0 1 .385.028.711.711 0 0 1-.138.33h-.006v.006a1.522 1.522 0 0 0-.189.71 1 1 0 0 0 .212.644m-.674 2.226a5.22 5.22 0 0 0-.541 1.958.886.886 0 0 0 .444.714c.041.024.038.064-.009.093l-.159.091a1.791 1.791 0 0 1-.66.214.544.544 0 0 1-.445-.155 3.019 3.019 0 0 1-.622-1.845c.318.314.518.414.709.357.22-.067.26-.3.289-.465l.039-.162a10.169 10.169 0 0 0 .42-1.817 2.428 2.428 0 0 1 .1-.516.123.123 0 0 1 .033.009l.028.014c.046.018.1.042.163.064a2.689 2.689 0 0 1 .283 1.076.884.884 0 0 1-.072.37Zm-5.417 2.658c.05-.168.07-.278.112-.43a2.449 2.449 0 0 1 .611-1.011c0-.007.008-.01.01-.016l.033.125.049.164c.076.259.192.614.258.792.241.637.153.715.866.407l.191-.078a.364.364 0 0 1 .043-.024 1.011 1.011 0 0 1 .025.155v.032c.016.163.283 1.207.347 1.457.23.89-.012.819.727.521.513-.209.805-.154.826-.111.182.3-.7 1.729-1.106 2.092a4.3 4.3 0 0 0-.673 1.053l-.024.057a5.093 5.093 0 0 1-.665 1.212 2.734 2.734 0 0 1-3.509.694l-.053-.022a3.173 3.173 0 0 0 .224-.954 2.088 2.088 0 0 0 1.412.477 2.29 2.29 0 0 0 2.109-2.275 1.772 1.772 0 0 0-1.714-1.734 1.9 1.9 0 0 0-1.04.2c0-.039-.01-.119-.01-.22 0-.332.062-.91.468-1.074.061-.023.168-.066.227-.082.689-.18.666-.187.2-.52-.028-.02-.046-.027-.07-.047a.26.26 0 0 0-.019-.019.173.173 0 0 1-.02-.1 3.4 3.4 0 0 1 .165-.721Zm-1.08 8.9.123.091c.262.194.805.6.76.981-.034.288-.034 1.536-.034 1.549a6.827 6.827 0 0 0 .145.9c.058.291.115.594.13.741a5.233 5.233 0 0 1-.249 1.765.405.405 0 0 1-.3.186.425.425 0 0 1-.335-.067l-.06-.062c-.261-.731-.369-.339-.613.068l-.1.067c-.258.164-.5-.082-.565-.162a.269.269 0 0 1-.086-.191.351.351 0 0 0 0-.06c.118-.659.09-.595-.429-.306a.457.457 0 0 0-.083.047c-.058.036-.281.118-.327.085-.121-.1-.164-.158-.164-.391a2.4 2.4 0 0 1 1.1-1.322 1.5 1.5 0 0 0 .71-1.4c0-.075-.005-.152-.012-.234a1.362 1.362 0 0 0-.707-1.1 7.411 7.411 0 0 0-1.3-.217 4.51 4.51 0 0 1-2.194-1.024 5.746 5.746 0 0 1-1.678-2.677 1.01 1.01 0 0 1-.024-.253 6.179 6.179 0 0 1 .419-1.959 2.26 2.26 0 0 0 .237-1.035v-.122a8.087 8.087 0 0 1 .761.654c.832.816.686.441.251-.16a3.986 3.986 0 0 0-.9-.982 5.028 5.028 0 0 0-1.708-.731 3.7 3.7 0 0 1-1.494-.583c.056-.033.109-.061.15-.087s.4-.261.735-.506a.975.975 0 0 0 .514.385 1.142 1.142 0 0 0 1.072-.368 3.157 3.157 0 0 0 .282-.558s.1-.22.1-.23a6.083 6.083 0 0 1 .933-.674c.212-.1.157-.143-.052-.113-.248.038-1.119.277-1.275.553l-.134.288a2.527 2.527 0 0 1-.233.471.71.71 0 0 1-.585.185.534.534 0 0 1-.259-.224 1.089 1.089 0 0 0 .151-.161.226.226 0 0 0-.076-.308.236.236 0 0 0-.317.071l.005-.009a9.392 9.392 0 0 1-1.111.813 6.018 6.018 0 0 1-.924.508l-.258.128-.126.053a.809.809 0 0 0-.6.782c-.048.48-.231.831-.374.845a.621.621 0 0 1-.45-.218.953.953 0 0 1-.1-.131c-.145-.4-.213-.4-.456-.1-.076.093-.366 0-.459-.029s-.223-.121-.187-.275c.159-.8.159-.841-.432-.676-.089.014-.15-.041-.2-.136s.023-.313.135-.661l.011-.034a2.03 2.03 0 0 1 .631-.763c.126-.123.3-.267.418-.388a3.073 3.073 0 0 1 1.1-.477 3.992 3.992 0 0 0 1.325-.708 7.623 7.623 0 0 1 1.5-1c.239-.111.224-.194-.162-.084a6.454 6.454 0 0 0-1.66.765 1.34 1.34 0 0 1-.086.074 2.615 2.615 0 0 1 .194-2.55l.019-.028h.045l.124-.009.423-.025a.491.491 0 0 0 .146.37.988.988 0 0 0 .937.111c.013-.005 1.3-.547 1.545-.715a2.162 2.162 0 0 1 .263-.147c.033.283.1.773.176 1.129a.818.818 0 0 0 .437.636.531.531 0 0 0 .492-.04l.056-.024a1.878 1.878 0 0 0 .918-1.015c.033-.072.064-.132.088-.182.009.019.012.033.024.058l.072.15.078.164a13.832 13.832 0 0 1 1.6 5.081l.087.861a2.6 2.6 0 0 0 .8 1.746.826.826 0 0 1 .146.163 4.121 4.121 0 0 1 .392 1.324v.027a1.27 1.27 0 0 0 .039.3 3.454 3.454 0 0 1-.154 1.4c-.109-.158-.2-.293-.264-.391-.535-.818-1.622-1.516-.388.243a11.2 11.2 0 0 0 1.886 2.266Zm1.431 5.808h5.443c-.3.525-1.43 2.484-1.43 2.484l1.346 2.619H45.691l1.082-3.7-.192-.077a43.176 43.176 0 0 0-1.89-.643l.853-.68h4.227a1 1 0 0 0 .209.207.745.745 0 0 0 .655 0 .817.817 0 0 0 .167.345.885.885 0 0 0 1.163.254l.2-.138a.869.869 0 0 0 .723.193.849.849 0 0 0 .641-.419 1.757 1.757 0 0 0 .155-.443Zm-9.253 7.76a45.127 45.127 0 0 0-14.347-2.441h-.027a45.032 45.032 0 0 0-14.348 2.444l-1.776-6.083a49.075 49.075 0 0 1 16.123-2.813h.028a49.186 49.186 0 0 1 16.139 2.819ZM.881 40.614c.266-.52 1.347-2.619 1.347-2.619S1.1 36.037.795 35.511h4.459c0 .019-.005.039-.005.06a.574.574 0 0 0 .074.289.644.644 0 0 0 .483.3 3.849 3.849 0 0 0 .777.054h.1c.547-.018 1.155-.04 1.341-.7h6.547c.03.022.469.348.909.671q-.977.307-1.919.651l-.191.07 1.09 3.71Zm4.232-6.2-.428-.025a.132.132 0 0 1-.08-.027c-.043-.062.02-.333.054-.477a2.879 2.879 0 0 0 .062-.446 3.851 3.851 0 0 1 .058-.443 6.926 6.926 0 0 0 .173-1.559c0-.193-.005-.405-.021-.636-.013-.2-.02-.361-.02-.494 0-.425.057-.541.084-.574.017-.018.071-.022.157-.028l.154-.013.138-.014a2.717 2.717 0 0 0 2.2-1.164c.45-.719.561-1.432.658-3.2a4.739 4.739 0 0 1 1.883-3.333l.313-.174c.415-.228.917-.553 1.338-.807a.944.944 0 0 0 .484-.479 7.837 7.837 0 0 1 .314-.756 9.06 9.06 0 0 0 .51-1.379 5.033 5.033 0 0 0-.176-2.968 1.04 1.04 0 0 0 .172.033.576.576 0 0 0 .618-.3 1.54 1.54 0 0 0 .537.286c.534.2 1.2.367 1.523.084a.716.716 0 0 1 .048.06 16.114 16.114 0 0 0 2.3 1.652c.9.6 1.834 1.217 2.241 1.56.224.188.312.276.312.52a1.6 1.6 0 0 1-.019.226c-.024.19-.079.462-.138.746a11.03 11.03 0 0 0-.182 1.49 13.975 13.975 0 0 0 .051 1.566l.02.24a2.107 2.107 0 0 1 .02.269.326.326 0 0 1-.155.329 11.335 11.335 0 0 1-1.292.5c-.305.1-.483.164-.568.206a.358.358 0 0 1-.312.008c-.1-.064-.122-.236-.127-.368l-.016-.328c-.03-.453-.032-.479.3-.6a.264.264 0 0 1 .224.008.746.746 0 0 0 .53 0 1.244 1.244 0 0 0 .744-.732c.168-.308.074-.686.115-1.37l.027-.469c.032-.344.218-.833-.689-1.123-1.534-.492-2.431-.755-2.741-.806a2.71 2.71 0 0 1-.983-.345.218.218 0 0 0-.312 0 .231.231 0 0 0 0 .323 2.806 2.806 0 0 0 1.226.476c.195.034.814.212 2.681.795a.508.508 0 0 1 .128.056c-.073.15-.149.3-.231.46a9.07 9.07 0 0 1-1.48 1.94 3.934 3.934 0 0 1-2.154 1.051 4.121 4.121 0 0 0-3.463 2.372 15.134 15.134 0 0 0-.683 1.528 4.606 4.606 0 0 1-.481 1.014c-.3.351-1.093.769-1.488.6a1.153 1.153 0 0 0-1.165-.056c-.185.106-.121.249-.48.22-.129-.011-.582-.038-.591.09s.312.242.435.252c.707.059.625-.025.864-.16.126-.072.23-.132.623.022a.889.889 0 0 1-.571.62 2.928 2.928 0 0 1-1.237.035c-.443-.048-1.09.075-1.15.441l-.041.185a6.763 6.763 0 0 0-.136.719 2.189 2.189 0 0 0 .289 1.39c.1.1.368.325.633.548l.427.361.072.061c.194.164.392.334.374 1.008-.019.592-.243.624-.954.649h-.1a1.181 1.181 0 0 1-.8-.179c-.137-.09.086-.383.117-.477a.583.583 0 0 0 .033-.144c.127-.529.474-.513-.491-.523-.087-.014-.195-.015-.309-.018Zm-.336-8.918c-.474-.961-.06-2.427 1.1-3.923l.313-.421.139-.165a2.717 2.717 0 0 0 .625-1.468.975.975 0 0 0-.034-.262.778.778 0 0 0-.523-.527.8.8 0 0 1-.224-.107 1.537 1.537 0 0 1 .257-.211l.113-.076a1.013 1.013 0 0 1 .728-.155l.118.03a.589.589 0 0 0 .5-.01c.2-.116.329-.375.439-.876a3.184 3.184 0 0 0-.493-2.347 2.6 2.6 0 0 0-2.144-1.2 1.073 1.073 0 0 0-.878.9 1.711 1.711 0 0 0-.086.489 2.065 2.065 0 0 0 .6 1.464.335.335 0 0 0 .034.028.99.99 0 0 1-.09.018.719.719 0 0 1-.12-.009c-.279-.03-1.172-.227-1.277.473v.055a1.963 1.963 0 0 1-.391 1 1.987 1.987 0 0 1-.36.488c-.03-.067-.06-.176-.078-.23l-.031-.11a2.664 2.664 0 0 1-.1-.757v-.065a.992.992 0 0 1 .038-.271.781.781 0 0 0 .077-.284.258.258 0 0 0-.108-.213c-.2-.147-.372.04-.81.326-.363.236-.477.236-.691.205a2.8 2.8 0 0 1-.456-.129c-.087-.026-.153-.029-.2-.045a5.464 5.464 0 0 0 1.147-1.4.476.476 0 0 0-.033-.23 1.771 1.771 0 0 0-.857-.656 10.5 10.5 0 0 1 1.216-.348 4.732 4.732 0 0 0 1.864-.755 5.945 5.945 0 0 1 1.746-.744c.926-.211 1.74.292 2.742 1.706a3.238 3.238 0 0 1 .488 1.907 5.222 5.222 0 0 1-.364 1.96l-.058.111a1.363 1.363 0 0 0-.2.611.706.706 0 0 0 .361.589c.211.143.315.243.315.383a.809.809 0 0 1-.153.384l-.338.534a8.344 8.344 0 0 0-.526.88c-.021.048-.164.284-.182.228l-.043-.175-.078-.335c-.119-.711-.233-.856-.423-.884a.292.292 0 0 0-.306.176l-.2.353-.2.327-.208.271-.223.306c-.6.816-1.512 2.048-.562 3.223a1.913 1.913 0 0 0 2.112.338c-.021.336-.048.621-.079.865-1.451.003-2.551-.43-2.946-1.235Zm-1.024-6.232-.23.355a22.154 22.154 0 0 0-.829 1.547l-.088.181c-.166.357-.2.37-.3.35a1.515 1.515 0 0 1 .047-.241 1.7 1.7 0 0 0 .073-.426.314.314 0 0 0 0-.065 5.211 5.211 0 0 0-.877-1.707l-.063-.1a1.463 1.463 0 0 1-.161-.771c0-.221.02-.443.036-.614v-.006a1.314 1.314 0 0 0 1.038-.263v.049a3.344 3.344 0 0 0 .16.954l.024.084c.059.217.155.579.477.62.277.038.537-.19.869-.756a2.339 2.339 0 0 0 .461-1.284v-.025l.013-.016c.007-.008.032-.01.07-.011a3.485 3.485 0 0 1-.721 2.15Zm8.953-4.477a4.982 4.982 0 0 0-.5-.839v-.007a.962.962 0 0 0-.074-.085c-.894-1.119-.687-.687-.792.156-.01.064-.017.131-.023.2a2.241 2.241 0 0 1-.038.287.344.344 0 0 1-.078.174c-.019.01-.074.018-.262-.041a1.716 1.716 0 0 1-1.2-1.224l-.008-.019a2.205 2.205 0 0 0-.1-.252c-.435-1.122-.309-.67-.669-.267a.675.675 0 0 0-.1.107l-.033.038a.317.317 0 0 1-.086.086.2.2 0 0 1-.038-.035 4.044 4.044 0 0 1-.578-.947.793.793 0 0 1-.04-.282 4.59 4.59 0 0 1 .1-.773l.019-.108.014-.072c.107-.375.158-.577.009-.725s-.333-.091-.671 0l-.067.018a1.629 1.629 0 0 1-.185.046 5.511 5.511 0 0 0 .11-.976 1.27 1.27 0 0 0-.685-1.307 1.317 1.317 0 0 1-.2-.108 5.935 5.935 0 0 0 2.743-1.388l.184-.193a2.05 2.05 0 0 1 .808-.627.838.838 0 0 1 .589.2c.061.042.189.16.272.233.143.128.29.26.449.111a.242.242 0 0 0 0-.339c-.283-.347-.453-.753-.392-.841 0 0 .086-.077.59.019h-.019c.407.1 1.534.62.915.1.133-.03.27-.078.41-.115l.2-.04a1.146 1.146 0 0 1 .313 0c.28.048.479.075.621.111l.041.009h.184l-.033.091a.2.2 0 0 0-.038.087c-.04.277.575.816.579.822.118.1.564.537 1.034 1 .693.682 1.481 1.458 1.776 1.706.418.354.358.68.3.774-.076.128-.218.244-.332.212l-.132-.057c-.184-.085-.434-.2-.617-.035a.363.363 0 0 0-.11.279 1.318 1.318 0 0 0 .1.445 1.341 1.341 0 0 1 .048.17c-.076.135-.366.142-.553.033a5.909 5.909 0 0 1-.593-.48l-.397-.332a3.438 3.438 0 0 0-1.362-.548 1.7 1.7 0 0 1-.275-.092 3.142 3.142 0 0 0-.208-.076 1.446 1.446 0 0 1-.582-.962c-.029-.128-.112-.186-.129-.015a1.969 1.969 0 0 0 .33 1.381 2.857 2.857 0 0 0 .4.532l.2.251a5.781 5.781 0 0 0 1.886 1.708l.643.337c1.2.6 2.934 1.256 3.632 3.15a4.635 4.635 0 0 1 .094 2.549 67.61 67.61 0 0 0-1.7-1.15c-.354-.234-.739-.49-1.09-.728l.232-.118a1.261 1.261 0 0 0 .662-.781c.081-.411-.231-.775-.513-1.231-.664-1.065-2.239-1.3-3.251-1.432l-.683-.107a6.987 6.987 0 0 1-3.125-1.4c-1.089-.971-.94-2.83-.828-3.384.023-.127 0-.4-.1-.11-.151.611-.653 2.7.622 3.838a7.72 7.72 0 0 0 3.409 1.524l.649.1c.928.118 2.394.379 2.944 1.257.237.38.469.647.429.864-.028.144-.182.3-.457.475l-.431.2a4.433 4.433 0 0 1-.66-.518 1.164 1.164 0 0 0-.227-.243c-.742-.592-.407-.229-.467.123-.084.064-.435.074-1.071-.169-.367-.142-.389-.159-.544-.376-.459-.593-.371-.356-.477.146-.038.18-.065.235-.24.216a.987.987 0 0 1-.478-.211ZM11.286 4.52h-.043a.5.5 0 0 0-.428.2.609.609 0 0 0-.032.054 7.5 7.5 0 0 1-.868-.65 1.131 1.131 0 0 1-.257-.288 2.312 2.312 0 0 1 1.092.2l.016.007h.014a2.706 2.706 0 0 0 .373.062Zm1.732-.228-.01.014-.009.02a.628.628 0 0 1-.2.228l-.286-.9a2.677 2.677 0 0 0 .223-.242l.008-.01.007-.008a2.346 2.346 0 0 1 .767-.808c0 .023.005.04.005.067a1.327 1.327 0 0 1-.044.318 5.261 5.261 0 0 1-.462 1.325Zm-3.592.411a1.305 1.305 0 0 1-.57-1.051.6.6 0 0 1 .346-.462 2.26 2.26 0 0 1 1.725.109 1.246 1.246 0 0 0 .345.047h.1l-.223-.7c.1-.03.418-.133.514-.167l.229.709.082-.071a1.385 1.385 0 0 0 .24-.28 2.229 2.229 0 0 1 1.3-1.04.6.6 0 0 1 .549.172 1.009 1.009 0 0 1 .218.687 2.006 2.006 0 0 1-.066.5 7.687 7.687 0 0 1-.447 1.346c-.038 0-.079-.016-.122-.023a1.073 1.073 0 0 0-.23-.015.411.411 0 0 0-.067.007 5.774 5.774 0 0 0 .492-1.409 1.693 1.693 0 0 0 .054-.41.637.637 0 0 0-.124-.415.209.209 0 0 0-.2-.051c-.326.056-.706.388-1.128 1a2.017 2.017 0 0 1-.368.356 210.585 210.585 0 0 0 .391 1.139h-.04a14.558 14.558 0 0 0-.652-.116l-.028-.1-.238-.786h-.055a2.2 2.2 0 0 1-.56-.064h-.008a2.139 2.139 0 0 0-1.539-.142.268.268 0 0 0-.172.213v.044a1.125 1.125 0 0 0 .463.733 8.522 8.522 0 0 0 .941.7.139.139 0 0 1-.047.009.835.835 0 0 0-.341-.005 1.021 1.021 0 0 0-.114.036 6.804 6.804 0 0 1-.651-.495ZM23.434 33.32a6.371 6.371 0 0 0-.619.082c-.475.073-1.123.179-1.346 0a.254.254 0 0 1-.082-.216 3.674 3.674 0 0 1 1.2-2.781 9.963 9.963 0 0 0 5.033 3.577h.2c-.874.045-1.758.114-2.645.209-.053-.052-.108-.11-.118-.118l-.04-.035a2.221 2.221 0 0 0-1.584-.713Zm-3.591.916a.641.641 0 0 0 .349-.094.652.652 0 0 0 .269-.459 2.634 2.634 0 0 0-.77-1.956 5.8 5.8 0 0 1 1.852-2.885l.019-.017a12.193 12.193 0 0 0 .751 1.2 4.138 4.138 0 0 0-1.382 3.179.7.7 0 0 0 .248.545c.38.314 1.087.2 1.71.1.214-.033.416-.065.57-.074a2.064 2.064 0 0 1 1.072.477 53.57 53.57 0 0 0-4.013.638 1.931 1.931 0 0 1-.5-.381 1.427 1.427 0 0 1-.176-.269Zm-3.561-8.862a.73.73 0 0 1 .87.312l.22.383a4.466 4.466 0 0 1 .423.836c.053.337-.9 1.354-1.485 1.666a9.975 9.975 0 0 0-1.1.709.95.95 0 0 0-.186.518.692.692 0 0 0 .023.171.926.926 0 0 0 .561.542 7.139 7.139 0 0 0 1.78.614 2.463 2.463 0 0 1 1.212.578 1.986 1.986 0 0 0 .651.379l.234.059a2.788 2.788 0 0 1 .532 1.357.638.638 0 0 1-.009.1.235.235 0 0 1-.067.153c-.079.051-.283.007-.45-.035l-.169-.04-.143-.032-.2-.029c-.413-.053-.707-.106-.738-.339a3.166 3.166 0 0 0-.051-.313c-.2-.8-.17-.453-.517-.327l-.076.018c-.178.044-.342.017-.895-.276a3.059 3.059 0 0 1-.615-.449 2.544 2.544 0 0 0-.66-.454l-.613-.234a8.1 8.1 0 0 1-1.024-.421l-.05-.026c-.285-.15-.669-.356-.729-.624a.676.676 0 0 1 .191-.528 2.991 2.991 0 0 1 .7-.765c.086-.041.392-.3.318-.515-.06-.182-.246-.384-.877-.278a2.458 2.458 0 0 1-1.557-.29l-.063-.026a14.239 14.239 0 0 1 .605-1.337 4.707 4.707 0 0 1 .511-.781l.13-.144a9.666 9.666 0 0 0 3.312-.128Zm3.127-2.732c-.179.331-.228.421-.505.521a.3.3 0 0 1-.246-.006.718.718 0 0 0-.5 0c-.655.239-.635.587-.6 1.067l.018.313a1.127 1.127 0 0 0 .118.5.983.983 0 0 0 .223.245.771.771 0 0 0 .722.018c.07-.033.294-.111.527-.19.313-.109.677-.231.971-.352a13.666 13.666 0 0 0 1.207 3.644l-.111.108a6.156 6.156 0 0 0-1.978 3.076 1.629 1.629 0 0 1-.354-.234 2.925 2.925 0 0 0-1.44-.68 7.181 7.181 0 0 1-1.66-.579c-.172-.078-.28-.167-.306-.251a.389.389 0 0 1 .1-.3 4.745 4.745 0 0 1 .94-.552c.473-.257 1.841-1.424 1.725-2.152a3.88 3.88 0 0 0-.48-1l-.217-.376a1.17 1.17 0 0 0-1.381-.54 10.811 10.811 0 0 1-2.8.191 3.579 3.579 0 0 1 2.039-.8 4.352 4.352 0 0 0 2.421-1.165 9.378 9.378 0 0 0 1.582-2.07c.019-.033.033-.064.052-.1 0 .054-.008.108-.011.17l-.01.135a4.987 4.987 0 0 1-.046 1.363ZM7.54 33.742l-.069-.055-.434-.367c-.244-.208-.52-.44-.6-.522a1.911 1.911 0 0 1-.169-.836 1.584 1.584 0 0 1 .009-.172 6.037 6.037 0 0 1 .128-.673s.024-.113.035-.171a1.1 1.1 0 0 1 .657-.1 3.135 3.135 0 0 0 1.46-.064 1.348 1.348 0 0 0 .842-.92 2.4 2.4 0 0 0 1.711-.8 3.474 3.474 0 0 0 .444-.857l.046.02a2.882 2.882 0 0 0 1.819.32c.073-.011.126-.018.176-.02a3.834 3.834 0 0 0-.76.845 1.234 1.234 0 0 0-.293.732.748.748 0 0 0 .02.174c.1.479.6.739.959.932l.053.027a7.928 7.928 0 0 0 1.082.447l.587.227a2.023 2.023 0 0 1 .541.378 3.64 3.64 0 0 0 .7.505c.554.294.862.409 1.223.316l.043-.006c.016.081.031.2.037.245.079.6.713.679 1.132.734l.184.024.2.047a2.178 2.178 0 0 0 .355.66s.153.119.268.209a48.102 48.102 0 0 0-3.92 1l-1.289-.968H8.071v-.035a1.393 1.393 0 0 0-.531-1.27Zm38.005-6.649c0 .028.018.06.026.1a2.415 2.415 0 0 0-.225.2c-.372.168-.922-.221-1.2-.414l-.034-.024c-.592-.456-1.128-.554-.266.258l.035.024a3.278 3.278 0 0 0 1.118.617 1.51 1.51 0 0 0 .153 1.471l.048.084a1.032 1.032 0 0 0 .21.263c.158.161.234.237.133.492-.146.366-1.062.359-1.4.357h-.1a6.894 6.894 0 0 0-1.938.519 3.216 3.216 0 0 0-1.121 1.19 4.548 4.548 0 0 1-.413.536.181.181 0 0 1-.14.029.233.233 0 0 1-.162-.143l-.112-.375c-.082-.377-.012-.578-.464-.256a.242.242 0 0 1-.238 0c-.11-.07-.231-.189-.178-.292.009-.015.1-.192.1-.192.282-.516.085-.5-.359-.454a.674.674 0 0 0-.105.014c-.056.011-.239-.1-.311-.308-.09-.248.028-.468.334-.635a2.436 2.436 0 0 1 .615-.228 3.594 3.594 0 0 1 .508-.085 9.509 9.509 0 0 1 1.361-.021l.381.012a1.61 1.61 0 0 0 1.231-.417.653.653 0 0 0 .1-.6 2.561 2.561 0 0 0-.682-.984 5.762 5.762 0 0 1-.573-.674 2.54 2.54 0 0 1-.052-2.425.985.985 0 0 1 .392-.528c.11-.044.235 0 .412.082l.125.053a6.531 6.531 0 0 0 3.325-.05 1.212 1.212 0 0 1-.1.258 5.46 5.46 0 0 0-.434 2.552Zm-8.911 6.684c.158.009.362.041.573.074.626.1 1.33.213 1.711-.1a.7.7 0 0 0 .249-.545 3.331 3.331 0 0 0-.051-.878.667.667 0 0 0 .627.147c.023.065.044.152.062.218l.017.066a.676.676 0 0 0 .514.475.492.492 0 0 0 .194.007 2.685 2.685 0 0 1-.451 1.271 2.872 2.872 0 0 1-.509.369 53.848 53.848 0 0 0-3.979-.629 1.879 1.879 0 0 1 1.042-.465Zm1.137-3.762a12.367 12.367 0 0 0 .75-1.2l.037.037c.206.2.443.42.679.691a2.738 2.738 0 0 0-.523.212 1.059 1.059 0 0 0-.57.673c-.139-.167-.273-.304-.373-.413m.942 3.172a.262.262 0 0 1-.085.216c-.22.183-.87.078-1.344 0a6.354 6.354 0 0 0-.618-.082 2.225 2.225 0 0 0-1.591.711c-.051.045-.107.1-.153.148a46.302 46.302 0 0 0-2.626-.2h.155a9.962 9.962 0 0 0 5.044-3.587 3.7 3.7 0 0 1 1.215 2.794Zm10.911 1.868h-4.227l-1.232.975a49.484 49.484 0 0 0-3.963-1.01 1.924 1.924 0 0 0 .23-.207 3.424 3.424 0 0 0 .59-1.856.137.137 0 0 0 .018-.018l.276-.394a3.307 3.307 0 0 1 .965-1.088 6.642 6.642 0 0 1 1.758-.482h.1c.51 0 1.574.014 1.837-.646a.807.807 0 0 0-.233-.983.757.757 0 0 1-.124-.148l-.06-.109a.973.973 0 0 1 .074-1.334c.011-.008.025-.013.038-.023a.2.2 0 0 0 .072-.078 5.8 5.8 0 0 0 1.653 2.364 4.9 4.9 0 0 0 2.432 1.117 7.308 7.308 0 0 1 1.189.2 1 1 0 0 1 .4.7 1.15 1.15 0 0 1-.475 1.2 2.7 2.7 0 0 0-1.324 1.72c-.007.032.001.065.003.099ZM43.106 22.04l.006.007a3.807 3.807 0 0 0 1.815.8 4.582 4.582 0 0 1 1.177.436 1.7 1.7 0 0 1 .058.516 6.387 6.387 0 0 1-3.247.111l-.1-.042a.962.962 0 0 0-.764-.088 1.316 1.316 0 0 0-.649.777 2.989 2.989 0 0 0 .1 2.865 6.023 6.023 0 0 0 .617.728 2.261 2.261 0 0 1 .573.791.209.209 0 0 1-.023.2 1.216 1.216 0 0 1-.868.236l-.363-.011a8.746 8.746 0 0 0-1.7.059 10 10 0 0 0-.87-.9l-.129-.125a13.921 13.921 0 0 0 1.354-4.688.617.617 0 0 0 .193-.047c.026.039.053.073.053.073a1.074 1.074 0 0 0 .852.384c.413-.044.729-.686.782-1.26.028-.287.115-.322.312-.4l.164-.072.254-.123c.368-.191-.056.01.399-.228Zm-22.286-.235a10.054 10.054 0 0 1 .173-1.422c.062-.3.119-.573.145-.787a1.033 1.033 0 0 0-.316-1.036 13.094 13.094 0 0 1 2.2-4.536 8.5 8.5 0 0 1 14.036 0 13.364 13.364 0 0 1 2.515 6.039l-.237.223a2.37 2.37 0 0 0-.763.967l-.01.035a2.72 2.72 0 0 0-.172.731.552.552 0 0 0 .075.293.687.687 0 0 0 .512.36c.037 0 .065.124.065.216v.038a.3.3 0 0 0-.007.07c0 .181.086.445.524.622.027.01.057.016.084.027-.628 5.754-4.7 10.226-9.6 10.226-4.65 0-8.542-4.008-9.475-9.317a.973.973 0 0 0 .325-1.031l-.019-.182a13.81 13.81 0 0 1-.059-1.537Zm4.375-13.56a2.218 2.218 0 0 0-.147-.2.889.889 0 0 0 .023-.19.836.836 0 0 0-.839-.836.9.9 0 0 0-.166.015.946.946 0 0 0 .1-.44.98.98 0 0 0-.976-.977.653.653 0 0 0-.09.005 1.159 1.159 0 0 0 .207-.662 1.169 1.169 0 0 1-.192-2.161 1.193 1.193 0 0 0-.056-.352 1.226 1.226 0 0 0 .6.149 1.265 1.265 0 0 0 1.249-1.066.974.974 0 0 0 .8.418.984.984 0 0 0 .782-.391.835.835 0 0 0 1.607.151h.005l.327 1.756a4.992 4.992 0 0 0-3.05-.867 1.774 1.774 0 0 0-1.4.867 2.225 2.225 0 0 0 .418 2.349 9.684 9.684 0 0 0 1.817 2.007l.017.017c-.349.123-.697.259-1.04.408Zm-.963 0a.381.381 0 1 1 .381-.382.38.38 0 0 1-.385.379Zm-1.038-1.123a.518.518 0 1 1 .52-.52.519.519 0 0 1-.524.518Zm-1.053-1.443a.712.712 0 1 1 .711-.711.713.713 0 0 1-.715.708Zm-.906-2.872a.712.712 0 1 1 .715.713.715.715 0 0 1-.719-.715ZM23.665.53a.81.81 0 1 1-.811.81.811.811 0 0 1 .807-.813Zm2.049-.068a.518.518 0 1 1-.519.518.516.516 0 0 1 .515-.521Zm1.606.581a.379.379 0 1 1 0 .758.379.379 0 0 1 0-.758m2-.439c0-.114.14-.133.223-.133h1.015c.081 0 .222.019.222.133a.926.926 0 0 0 .816.865l-1.074 5.773v.006c-.157-.006-.313-.01-.471-.01s-.3 0-.457.01v-.006l-1.072-5.776a.924.924 0 0 0 .793-.864Zm1.658 6.668h.006l.6-3.236a5.014 5.014 0 0 1 3.087-1.035 1.319 1.319 0 0 1 1.047.64 1.9 1.9 0 0 1-.389 1.978 8.321 8.321 0 0 1-1.952 2.064l-.01.012a12.1 12.1 0 0 0-2.396-.426Zm-4.228.405a8.168 8.168 0 0 1-1.952-2.061 1.9 1.9 0 0 1-.392-1.978 1.323 1.323 0 0 1 1.05-.64 5.011 5.011 0 0 1 3.086 1.035l.6 3.236a12.2 12.2 0 0 0-2.381.417Zm7.8 3.456a8.634 8.634 0 0 0-8.983-.02 4.306 4.306 0 0 0 .136-1.076 10.132 10.132 0 0 1 8.725.027 3.943 3.943 0 0 0 .116 1.066Zm-.074-1.554a10.558 10.558 0 0 0-8.806-.03 2.744 2.744 0 0 0-.273-.888 11.774 11.774 0 0 1 9.378.023 2.6 2.6 0 0 0-.304.892ZM32.018 1.72l.01-.009a.836.836 0 0 0 1.611-.145.979.979 0 0 0 .781.391.966.966 0 0 0 .8-.418 1.271 1.271 0 0 0 1.251 1.066 1.234 1.234 0 0 0 .6-.149 1.134 1.134 0 0 0-.055.352 1.171 1.171 0 0 1-.193 2.161 1.152 1.152 0 0 0 .207.662.63.63 0 0 0-.089-.005.975.975 0 0 0-.871 1.416.919.919 0 0 0-.168-.015.837.837 0 0 0-.838.836 1 1 0 0 0 .029.221 5.657 5.657 0 0 0-.167.171 11.118 11.118 0 0 0-1.041-.4l.018-.022a9.736 9.736 0 0 0 1.815-2.007 2.209 2.209 0 0 0 .417-2.349 1.772 1.772 0 0 0-1.4-.867 4.986 4.986 0 0 0-3.049.867Zm.8-.677a.379.379 0 1 1-.379.381.38.38 0 0 1 .368-.384Zm1.606-.581a.518.518 0 1 1-.517.518.521.521 0 0 1 .507-.521Zm2.049.068a.81.81 0 1 1-.808.81.813.813 0 0 1 .797-.813Zm1.72 1.564a.713.713 0 1 1-.713.714.715.715 0 0 1 .702-.721Zm.518 2.875A.713.713 0 1 1 38 4.256a.712.712 0 0 1 .7.71Zm-1.765 2.154a.518.518 0 1 1 .517-.52.52.52 0 0 1-.528.517Zm-1.039 1.123a.381.381 0 1 1 .381-.382.381.381 0 0 1-.392.378Zm5.772 10.811a4.17 4.17 0 0 1-.646.272 4.505 4.505 0 0 0-1.046.4 14.515 14.515 0 0 0-.59-2.273l2.015.129a5.38 5.38 0 0 0 .259 1.469Zm-3.108-4.46a1.607 1.607 0 0 0 1.386 1.356 1.436 1.436 0 0 0 1.041-.531.854.854 0 0 0 .757.8 2.351 2.351 0 0 0-.312.9l-2.217-.139a13.451 13.451 0 0 0-1.21-2.393 2.994 2.994 0 0 0 .544.003Zm3.181-2.139.968-.06a3.564 3.564 0 0 0 3.372-2.447l.017-.051a2.943 2.943 0 0 0 .044-1.059l-.035-.3-.277.11a8.874 8.874 0 0 1-1.519.379 2.9 2.9 0 0 0-1.553.534l-.032.024-.023.032a.106.106 0 0 1-.07.048c-.033 0-.1-.038-.18-.15a7.753 7.753 0 0 0-.5-.625s-.024-.028-.042-.053c.007-.053.075-.164.372-.242l.33-.073c.383-.075.781-.153.8-.772v-.022a.6.6 0 0 0-.243-.478 2.193 2.193 0 0 0-1.577-.219h-.01l-.01.006a.3.3 0 0 1-.06.014.5.5 0 0 1-.092-.2.883.883 0 0 1-.042-.248c0-.1.031-.124.051-.139a.527.527 0 0 0 .189-.412 1.283 1.283 0 0 0-.158-.532l-.046-.1a.835.835 0 0 1-.073-.265.145.145 0 0 1 .013-.067.3.3 0 0 1 .206-.1 3.289 3.289 0 0 1 .852-.033 2.571 2.571 0 0 0 .569 0 2.23 2.23 0 0 0 .6-.238 1.607 1.607 0 0 1 .555-.211c.23-.013.739 0 1.146.009l.588.01a4.575 4.575 0 0 0 2.163-.873.406.406 0 0 1 .16-.112.1.1 0 0 0 .012.014 2.205 2.205 0 0 1 .161.6 3 3 0 0 0 .288.945 3.841 3.841 0 0 0 .649.755 4.743 4.743 0 0 1 .408.429 4.267 4.267 0 0 1 .366.752 3.838 3.838 0 0 0 .654 1.193c.3.286 1.046.992 1.816.836a.388.388 0 0 1-.023.041l-.222.2c-.278.235-.564.477-.564.759v.03a1.312 1.312 0 0 0 .189.612l.017.029a.24.24 0 0 1 .052.135.486.486 0 0 1-.173.305c-.293.306-.389.5-.389.693a1 1 0 0 0 .06.306l.012.033a1.151 1.151 0 0 1 .07.269v.025l-.011.007-.076.041a1.115 1.115 0 0 1-.3.133l-.04.008c-.521.114-.783.4-.783.853a.694.694 0 0 0 0 .084l.01.164c.007.1.014.2.014.272a.23.23 0 0 1 0 .057.65.65 0 0 1-.1.039l-.129.029c-.306.074-.773.182-.814 1.038l-.013.339c-.02.658-.053.969-.257.994a.78.78 0 0 1-.7-.374c-.036-.087-.11-.376-.123-.417-.287-.88-.192-.671-.606.106-.061.107-.124.251-.217.424a1.729 1.729 0 0 1-.679.8l-.1.053a.113.113 0 0 1-.1.005c-.05-.019-.119-.115-.167-.318a9.019 9.019 0 0 1-.184-1.222c-.024-.618.631-1.263-.7-.207 0 0-.167.111-.26.17-.175.107-1.184.553-1.47.672-.1.041-.436.066-.44-.02a.412.412 0 0 1 .016-.109.308.308 0 0 1 .008-.038c.157-.556.416-.438-.5-.349l-.437.024-.137.009a1.029 1.029 0 0 1-.721-.1.515.515 0 0 1-.135-.392 1.328 1.328 0 0 1 1.032-1.357c.559-.112 2.723-.345 3.681-.429a3.727 3.727 0 0 0 2.963-1.642 6.9 6.9 0 0 0 .362-3.444c-.077-.351-.44-.895-.22.1a6.112 6.112 0 0 1-.538 3.107 3.3 3.3 0 0 1-2.608 1.417c-.945.085-3.137.315-3.732.433a1.778 1.778 0 0 0-1.265 1.069c-.209.3-.687.971-1.155.958-.546-.014-.972-.669-.972-1.22-.048-1.664.771-1.708 2.755-1.817Zm17.919 2.829a1.09 1.09 0 0 1 .135-.5 1.141 1.141 0 0 0 .2-.56.455.455 0 0 0-.062-.234c-.162-.275-.529-.263-.8-.253h-.163a3.706 3.706 0 0 1-.439-.161 4.479 4.479 0 0 0-.952-.315 2.161 2.161 0 0 0-.775.121 2.859 2.859 0 0 1-.959.14 4.29 4.29 0 0 1-.936-.307 3.066 3.066 0 0 0-2.236.059 3.379 3.379 0 0 0-1.788 1.59 4.988 4.988 0 0 0 .173 4.383c.247.457 1.123 1.936 1.584 2.567a.256.256 0 0 0 .048.046.065.065 0 0 1-.016.007 1.518 1.518 0 0 0-.756 1.491 2.637 2.637 0 0 0 .016.3c.03.246.112.4.242.455a.272.272 0 0 0 .271-.035 1.472 1.472 0 0 1 .939-.24 1.34 1.34 0 0 1 1.3 1.276 1.813 1.813 0 0 1-1.65 1.816 1.331 1.331 0 0 1-1.412-.83 4.937 4.937 0 0 0-.49-1.821 1.618 1.618 0 0 0-.213-.244c-.264-.25-.658-.631-.754-2.3a13.157 13.157 0 0 0-1.4-4.747 1.053 1.053 0 0 0 .366.022c.617-.076.639-.767.66-1.435l.013-.333c.027-.51.189-.547.459-.612l.163-.041c.35-.108.423-.271.423-.547 0-.084-.006-.182-.013-.289l-.013-.162v-.052c0-.26.15-.346.421-.407l.053-.011a1.42 1.42 0 0 0 .411-.175l.075-.042a.45.45 0 0 0 .248-.425 1.371 1.371 0 0 0-.09-.424l-.01-.032a.481.481 0 0 1-.037-.153c0-.089.06-.172.259-.383a.918.918 0 0 0 .3-.625.67.67 0 0 0-.126-.38l-.01-.016a.9.9 0 0 1-.124-.4c.019-.1.277-.312.4-.42l.266-.239a.738.738 0 0 0 .179-.474.5.5 0 0 0-.091-.305.275.275 0 0 0-.357-.066l.018-.007c-.508.245-1.1-.227-1.565-.666a3.7 3.7 0 0 1-.549-1.041 4.125 4.125 0 0 0-.431-.858 4.83 4.83 0 0 0-.446-.474 3.385 3.385 0 0 1-.573-.657 2.735 2.735 0 0 1-.232-.8 2.353 2.353 0 0 0-.223-.758.466.466 0 0 0-.355-.235.735.735 0 0 0-.54.261 4.249 4.249 0 0 1-1.829.728l-.577-.01c-.435-.01-.932-.023-1.184-.009a1.959 1.959 0 0 0-.739.262 1.732 1.732 0 0 1-.461.19 2.116 2.116 0 0 1-.471 0 3.628 3.628 0 0 0-.968.04.712.712 0 0 0-.519.334.857.857 0 0 0 .036.719l.06.134c.1.206.148.337.084.392a.807.807 0 0 0-.15.868.735.735 0 0 0 .327.476.515.515 0 0 0 .424.006l-.02.007a1.744 1.744 0 0 1 1.171.134.147.147 0 0 1 .07.126c-.011.246-.04.259-.432.337l-.358.077a.894.894 0 0 0-.684.5.47.47 0 0 0 .021.414l.1.125a6.577 6.577 0 0 1 .471.587.671.671 0 0 0 .559.345.541.541 0 0 0 .406-.207 2.439 2.439 0 0 1 1.3-.436 8.65 8.65 0 0 0 1.364-.307V9.3a1.41 1.41 0 0 1-.048.431l-.019.056a3.067 3.067 0 0 1-2.967 2.136l-.962.059c-1.911.1-3.189.173-3.189 2.137a2.615 2.615 0 0 1-.849-.073l-.032-.01c-.076-.1-.151-.207-.228-.308a10.809 10.809 0 0 0-2.241-2.2 2.766 2.766 0 0 1 .272-2.981.828.828 0 0 0 .449.131.84.84 0 0 0 .839-.839.867.867 0 0 0-.064-.32 1.01 1.01 0 0 0 .264.039.981.981 0 0 0 .978-.978.968.968 0 0 0-.129-.483 5.931 5.931 0 0 1 1.568-3.312 1.169 1.169 0 0 0-1.7-1.045 1.209 1.209 0 0 0 .074-.422 1.266 1.266 0 0 0-2.375-.614.976.976 0 0 0-1.913.153.824.824 0 0 0-.635-.3.846.846 0 0 0-.773.514h-.221a.531.531 0 0 1-.575-.493c0-.308-.283-.525-.684-.525h-1.009c-.4 0-.684.216-.684.525a.534.534 0 0 1-.575.493h-.191a.843.843 0 0 0-.773-.514.823.823 0 0 0-.633.3.976.976 0 0 0-1.912-.134 1.267 1.267 0 0 0-2.376.614 1.243 1.243 0 0 0 .073.422 1.152 1.152 0 0 0-.52-.125 4.433 4.433 0 0 1-.981 3.332 1.174 1.174 0 0 0 1.173 1.172 1.187 1.187 0 0 0 .205-.02.944.944 0 0 0-.129.483.979.979 0 0 0 .977.978 1.03 1.03 0 0 0 .264-.039.838.838 0 0 0 1.264 1c.593.447.7 1.895.212 2.985a10.668 10.668 0 0 0-2.279 2.221 13.413 13.413 0 0 0-1.983 3.741 4.288 4.288 0 0 0-.243-2.215c-.849-2.019-2.65-2.781-3.847-3.382l-.622-.324a5.37 5.37 0 0 1-1.747-1.588l-.218-.275-.027-.035c.023.007.05.018.072.021a3.012 3.012 0 0 1 1.157.459l.373.312a5.569 5.569 0 0 0 .658.527 1.147 1.147 0 0 0 1.121-.046.4.4 0 0 0 .135-.325 1.127 1.127 0 0 0-.083-.383 2.13 2.13 0 0 1-.043-.139l.043.021.2.083a.789.789 0 0 0 .85-.415 1.078 1.078 0 0 0-.395-1.361c-.285-.241-1.1-1.041-1.75-1.684a42.49 42.49 0 0 0-1.054-1.025 3.136 3.136 0 0 1-.4-.438.55.55 0 0 0 0-.545.44.44 0 0 0-.44-.122h-.065a.116.116 0 0 0-.026 0c-.019-.007-.038-.009-.061-.016l-.02.009a.1.1 0 0 0-.031-.007 8.348 8.348 0 0 0 .428-1.319 1.71 1.71 0 0 0-.257-1.6 1.043 1.043 0 0 0-.948-.311 2.408 2.408 0 0 0-1.368.933l-.122-.369-.236.076-1.125.362.131.4a2.462 2.462 0 0 0-1.713.029 1.046 1.046 0 0 0-.588.806 1.723 1.723 0 0 0 .725 1.444c.191.162.362.292.51.4a.985.985 0 0 1-.082.062c-.157.134-.3.287-.436.423l-.172.184a5.322 5.322 0 0 1-2.772 1.314.285.285 0 0 0-.258.238c-.038.239.214.519.627.7s.5.726.3 1.83l-.009.042a.381.381 0 0 0 .073.383c.14.13.346.1.706.005l.067-.018.143-.04c-.016.058-.033.14-.049.2l-.021.108-.02.11a4.828 4.828 0 0 0-.106.853 1.279 1.279 0 0 0 .072.457 4.446 4.446 0 0 0 .68 1.1.512.512 0 0 0 .382.171.606.606 0 0 0 .42-.253.02.02 0 0 0 .008-.014 2.439 2.439 0 0 1 .1.238l.007.021a2.155 2.155 0 0 0 1.5 1.513.781.781 0 0 0 .622 0 .686.686 0 0 0 .3-.461 2.722 2.722 0 0 0 .051-.357.779.779 0 0 1 .008-.092c.02.022.041.042.065.072a5.513 5.513 0 0 1 .985 3.017 4.021 4.021 0 0 1-.131 1.019 8.388 8.388 0 0 1-.488 1.313c-.116.26-.2.509-.293.752a8.523 8.523 0 0 1-1.644 1.074l-.318.174a5.2 5.2 0 0 0-2.112 3.708.992.992 0 0 0-.006.1c-.886.3-1.472.26-1.788-.132-.675-.834-.163-1.663.572-2.665l.229-.315.23-.308s.2-.25.219-.277c.009.053.019.1.028.165l.094.393.077.314a.377.377 0 0 0 .311.339c.1.013.274.192.732-.66.1-.184.282-.5.493-.819l.345-.542a.88.88 0 0 0-.293-1.385c-.223-.156-.21-.236-.013-.612l.057-.115a5.178 5.178 0 0 0-.151-4.333c-.746-1.149-1.8-2.22-3.222-1.895a6.365 6.365 0 0 0-1.875.794 4.518 4.518 0 0 1-1.7.679 14.039 14.039 0 0 0-1.586.442c-.143.046-.342.112-.353.323a.148.148 0 0 0 0 .019c0 .227.247.338.558.481a1.663 1.663 0 0 1 .6.389 7.831 7.831 0 0 1-1 1.124.413.413 0 0 0-.212.349.388.388 0 0 0 .006.066c.044.232.28.381.707.454h.007l-.007.074a2.753 2.753 0 0 0 .2 1.678l.064.1a6.308 6.308 0 0 1 .8 1.5 1.121 1.121 0 0 1-.056.34.79.79 0 0 0 0 .6.435.435 0 0 0 .286.193c.492.115.679-.282.827-.6l.083-.172c.2-.4.476-.954.809-1.513l.22-.336a3.944 3.944 0 0 0 .8-2.4l.165.008a.761.761 0 0 0 .292 0l.089-.018c.17-.035.4-.081.455-.3s-.133-.393-.32-.54a1.757 1.757 0 0 1-.365-1.445c.1-.358.269-.553.521-.594a2.2 2.2 0 0 1 1.693 1.009 2.775 2.775 0 0 1 .464 1.523 2.13 2.13 0 0 1-.046.459c-.117.525-.218.578-.222.578a.584.584 0 0 1-.136-.031l-.171-.042a1.482 1.482 0 0 0-1.084.238l-.09.065c-.218.148-.517.347-.477.651.037.272.33.4.546.477a.319.319 0 0 1 .23.223 1.962 1.962 0 0 1-.5 1.314l-.135.162-.323.431c-1.3 1.662-1.715 3.269-1.156 4.408.339.689 1.185 1.505 3.29 1.51a2.849 2.849 0 0 1-.4 1.062 2.251 2.251 0 0 1-1.854.95l-.152.016-.12.006a.619.619 0 0 0-.471.183c-.183.206-.235.6-.182 1.4a6.7 6.7 0 0 1-.144 2.073 4.527 4.527 0 0 0-.084.5 2.912 2.912 0 0 1-.069.372 2.247 2.247 0 0 0-.079.508.615.615 0 0 0 .1.366.564.564 0 0 0 .424.237l.482.029c.1 0 .229.006.311.017a.08.08 0 0 0-.007.015 2.189 2.189 0 0 1-.04.107H0l1.7 2.953c-.107.206-1.577 3.07-1.577 3.07h14.47l.817 2.785a44.374 44.374 0 0 1 14.647-2.576h.027a44.484 44.484 0 0 1 14.66 2.566l.813-2.78h14.239l-1.577-3.07c.112-.2 1.7-2.953 1.7-2.953h-6.148a5.818 5.818 0 0 0 .067-1.131c-.016-.166-.076-.467-.137-.781a8.033 8.033 0 0 1-.138-.816c0-.313.007-1.285.033-1.5.074-.642-.612-1.155-.94-1.4l-.109-.082a6.366 6.366 0 0 1-.855-.873 3.093 3.093 0 0 0 3.631-.981 5.452 5.452 0 0 0 .733-1.328l.026-.055a4.18 4.18 0 0 1 .553-.891c.31-.277 1.613-1.985 1.2-2.674-.283-.468-1.032-.2-1.277-.106-.138.048-.208-.043-.3-.4-.08-.3-.251-1.061-.264-1.172v-.027c-.016-.137-.042-.425-.272-.538a.492.492 0 0 0-.5.065.282.282 0 0 1-.228.057.321.321 0 0 1-.163-.177 10.349 10.349 0 0 1-.24-.744l-.054-.17-.028-.116c-.035-.153-.081-.365-.289-.42s-.366.1-.509.258c-.11.122-.208.242-.3.36a2.954 2.954 0 0 1-1.086-2.962 2.015 2.015 0 0 1 1-1.618 2.471 2.471 0 0 1 1.849.02l.113.06a1.221 1.221 0 0 1 .2.111.455.455 0 0 1-.068.059l-.023.013-.017.02a1.635 1.635 0 0 0-.463 1.131 4.143 4.143 0 0 0 1.377 2.471v.014a4.1 4.1 0 0 0 .784 2.665 1.051 1.051 0 0 0 .813.271 4.557 4.557 0 0 0 1.326-.53c.122-.055.478-.41-.095-.559s-.425-.668-.4-.928a4.747 4.747 0 0 1 .452-1.319 1.312 1.312 0 0 0 .109-.559 2.935 2.935 0 0 0-.208-1.009 1.314 1.314 0 0 0 .3-.068.8.8 0 0 0 .555-.508.5.5 0 0 0 .02-.143.664.664 0 0 0-.168-.424.527.527 0 0 1-.11-.329" clip-rule="evenodd"/></clipPath><clipPath id="ai"><path d="M1.214.213A1.34 1.34 0 0 0 .205.03a.24.24 0 0 0-.2.206c0 .12.252.349.4.444a.685.685 0 0 0 .554.049 2.74 2.74 0 0 1 .446-.144c.19-.048.154-.144.107-.179a3.487 3.487 0 0 1-.291-.193" clip-rule="evenodd"/></clipPath><clipPath id="aj"><path d="M.147.326a4.358 4.358 0 0 0 .574.318c.325.132.369-.009.466-.327s-.1-.316-.22-.316-.449.02-.678.044C-.186.099.041.284.146.327" clip-rule="evenodd"/></clipPath></defs><g clip-path="url(#a)" transform="translate(73.195 5.333)"><path d="M-1.731-1.731h4.012v36.486h-4.012z"/></g><g clip-path="url(#b)" transform="translate(85.011 8.2)"><path d="M-1.731-1.731H9.922v14.792H-1.731z"/></g><g clip-path="url(#c)" transform="translate(93.969 8.199)"><path d="M-1.731-1.731h13.512v14.793H-1.731z"/></g><g clip-path="url(#d)" transform="translate(104.967 8.2)"><path d="M-1.731-1.731h7.898v14.792h-7.898z"/></g><g clip-path="url(#e)" transform="translate(110.351 8.199)"><path d="M-1.73-1.731H9.833v14.792H-1.73z"/></g><g clip-path="url(#f)" transform="translate(119.583 8.2)"><path d="M-1.731-1.731h7.898v14.792h-7.898z"/></g><g clip-path="url(#g)" transform="translate(124.968 8.2)"><path d="M-1.731-1.731H9.921v14.792H-1.731z"/></g><g clip-path="url(#h)" transform="translate(137.942 8.199)"><path d="M-1.731-1.731h14.346v14.792H-1.731z"/></g><g clip-path="url(#i)" transform="translate(150.092 8.022)"><path d="M-1.731-1.731H9.656v15.166H-1.731z"/></g><g clip-path="url(#j)" transform="translate(159.159 8.199)"><path d="M-1.73-1.731h13.071v14.989H-1.73z"/></g><g clip-path="url(#k)" transform="translate(169.09 8.199)"><path d="M-1.731-1.731h13.072v14.989H-1.731z"/></g><g clip-path="url(#l)" transform="translate(179.02 8.2)"><path d="M-1.731-1.731h7.899v14.792h-7.899z"/></g><g clip-path="url(#m)" transform="translate(184.682 8.022)"><g clip-path="url(#n)" transform="translate(-.193 -.061)"><g clip-path="url(#o)" transform="translate(.193 .062)"><g clip-path="url(#n)" transform="translate(-.193 -.062)"><path d="M-1.538-1.669H8.763v15.166H-1.538z"/></g></g></g></g><g clip-path="url(#p)" transform="translate(85.011 24.138)"><path d="M-1.731-1.731H6.17v14.792h-7.901z"/></g><g clip-path="url(#q)" transform="translate(89.924 24.138)"><path d="M-1.731-1.731h12.657v14.989H-1.731z"/></g><g clip-path="url(#r)" transform="translate(99.472 24.138)"><path d="M-1.731-1.731H9.736v14.792H-1.731z"/></g><g clip-path="url(#s)" transform="translate(108.014 24.138)"><path d="M-1.731-1.731H9.785v14.792H-1.731z"/></g><g clip-path="url(#t)" transform="translate(117.414 24.138)"><path d="M-1.731-1.731h13.075v14.989H-1.731z"/></g><g clip-path="url(#u)" transform="translate(126.874 24.138)"><path d="M-1.731-1.731h12.658v14.989H-1.731z"/></g><g clip-path="url(#v)" transform="translate(135.311 23.96)"><path d="M-1.731-1.731H11.02V13.24H-1.731z"/></g><g clip-path="url(#w)" transform="translate(143.596 24.138)"><path d="M-1.731-1.731H9.736v14.792H-1.731z"/></g><g clip-path="url(#x)" transform="translate(152.14 24.138)"><path d="M-1.731-1.731h7.897v14.792h-7.897z"/></g><g clip-path="url(#y)" transform="translate(157.352 23.96)"><path d="M-1.731-1.731H9.655v15.166H-1.731z"/></g><g clip-path="url(#z)" transform="translate(165.946 24.138)"><path d="M-1.731-1.731h12.657v14.989H-1.731z"/></g><g clip-path="url(#A)" transform="translate(174.382 23.96)"><path d="M-1.731-1.731h12.754V13.24H-1.731z"/></g><g clip-path="url(#B)" transform="translate(183.281 24.138)"><path d="M-1.731-1.731H9.83v14.792H-1.731z"/></g><g clip-path="url(#C)" transform="translate(26.482 15.994)"><path d="M-1.731-1.731h4.907v9.92h-4.907z"/></g><g clip-path="url(#D)" transform="translate(16.529 39.815)"><path d="M-1.726-1.731h4.417v5.469h-4.417z"/></g><g clip-path="url(#E)" transform="translate(17.77 39.183)"><path d="M-1.731-1.731h5.48v5.763h-5.48z"/></g><g clip-path="url(#F)" transform="translate(20.035 38.703)"><path d="M-1.731-1.731h5.09v5.592h-5.09z"/></g><g clip-path="url(#G)" transform="translate(22.353 38.36)"><path d="M-1.731-1.731h5.216v5.623h-5.216z"/></g><g clip-path="url(#H)" transform="translate(24.64 38.154)"><path d="M-1.731-1.731h5.247V3.79h-5.247z"/></g><g clip-path="url(#I)" transform="translate(27.082 37.962)"><path d="M-1.731-1.731h5.135V3.77h-5.135z"/></g><g clip-path="url(#J)" transform="translate(29.396 37.948)"><path d="M-1.731-1.731h5.33v5.44h-5.33z"/></g><g clip-path="url(#K)" transform="translate(31.629 37.97)"><path d="M-1.731-1.731h5.07v5.479h-5.07z"/></g><g clip-path="url(#L)" transform="translate(33.742 38.105)"><path d="M-1.727-1.73h4.04v5.462h-4.04z"/></g><g clip-path="url(#M)" transform="translate(34.981 38.26)"><path d="M-1.731-1.731h5.358v5.55h-5.358z"/></g><g clip-path="url(#N)" transform="translate(37.442 38.582)"><path d="M-1.731-1.731h5.374v5.687h-5.374z"/></g><g clip-path="url(#O)" transform="translate(39.637 39.19)"><path d="M-1.731-1.731H3.55v5.65h-5.281z"/></g><g clip-path="url(#P)" transform="translate(42.077 39.661)"><path d="M-1.731-1.731h4.897v5.747h-4.897z"/></g><g clip-path="url(#Q)" transform="translate(15.851 37.175)"><path d="M-1.731-1.731h5.104v5.627h-5.104z"/></g><g clip-path="url(#R)" transform="translate(18.337 36.394)"><path d="M-1.731-1.731h5.449v5.739h-5.449z"/></g><g clip-path="url(#S)" transform="translate(20.999 36.099)"><path d="M-1.736-1.731H2.49v5.472h-4.226z"/></g><g clip-path="url(#T)" transform="translate(22.531 35.842)"><path d="M-1.731-1.731h5.125v5.476h-5.125z"/></g><g clip-path="url(#U)" transform="translate(24.923 35.551)"><path d="M-1.731-1.731h4.073v5.463h-4.073z"/></g><g clip-path="url(#V)" transform="translate(26.497 35.397)"><path d="M-1.731-1.731H3.25v5.48h-4.981z"/></g><g clip-path="url(#W)" transform="translate(30.5 35.317)"><path d="M-1.731-1.73h5.422v5.488h-5.422z"/></g><g clip-path="url(#X)" transform="translate(33.455 35.46)"><path d="M-1.731-1.73h5.355v5.548h-5.355z"/></g><g clip-path="url(#Y)" transform="translate(36.232 35.753)"><path d="M-1.73-1.73h5.237v5.649H-1.73z"/></g><g clip-path="url(#Z)" transform="translate(38.846 36.201)"><path d="M-1.731-1.731h5.305v5.72h-5.305z"/></g><g clip-path="url(#aa)" transform="translate(41.388 36.794)"><path d="M-1.731-1.731h4.355v5.476h-4.355z"/></g><g clip-path="url(#ab)" transform="translate(42.867 37.291)"><path d="M-1.731-1.731h5.242V3.84h-5.242z"/></g><g clip-path="url(#ac)" transform="translate(22.108 12.584)"><path d="M-1.731-1.731h19.358v22.566H-1.731z"/></g><g clip-path="url(#ad)" transform="translate(22.569 13.045)"><path d="M-1.731-1.73h18.438v21.644H-1.731z"/></g><g clip-path="url(#ae)" transform="translate(29.16 1.883)"><path d="M-1.73-1.731h5.138v5.138H-1.73z"/></g><g clip-path="url(#af)" transform="translate(0 -.001)"><g clip-path="url(#ag)"><g clip-path="url(#ah)"><g clip-path="url(#ag)"><path d="M-1.731-1.731h63.465v47.324H-1.731z"/></g></g></g></g><g clip-path="url(#ai)" transform="translate(44.237 5.125)"><path d="M-1.73-1.731h5.003v4.226H-1.73z"/></g><g clip-path="url(#aj)" transform="translate(13.478 6.549)"><path d="M-1.731-1.731h4.674v4.154h-4.674z"/></g></svg>