<svg xmlns="http://www.w3.org/2000/svg" width="169" height="98" fill="none"><path fill="var(--color-grey)" d="M15.114 83.5 2.97 49.66h9.024l7.056 21.216 7.632-21.216h6.24l7.296 21.648L47.61 49.66h8.496L43.866 83.5H36.81l-7.248-20.352L22.17 83.5zm43.58 0V49.66H82.6v6.816H67.143v6.432h14.352v6.816H67.143v6.96h15.456V83.5H58.695m28.525 0V49.66h16.32c3.648 0 6.464.8 8.448 2.4 2.016 1.568 3.024 3.68 3.024 6.336 0 1.76-.448 3.296-1.344 4.608-.864 1.312-2.08 2.288-3.648 2.928 1.888.576 3.344 1.552 4.368 2.928 1.024 1.344 1.536 3.024 1.536 5.04 0 2.976-1.072 5.328-3.216 7.056-2.112 1.696-5.008 2.544-8.688 2.544h-16.8m8.448-20.4h6.288c1.6 0 2.768-.288 3.504-.864.768-.576 1.152-1.456 1.152-2.64 0-1.184-.384-2.048-1.152-2.592-.736-.576-1.904-.864-3.504-.864h-6.288v6.96m0 13.92h7.152c1.632 0 2.816-.304 3.552-.912.768-.64 1.152-1.584 1.152-2.832 0-1.248-.384-2.176-1.152-2.784-.736-.608-1.92-.912-3.552-.912h-7.152v7.44m24.295 6.48V49.66h16.32c3.648 0 6.464.8 8.448 2.4 2.016 1.568 3.024 3.68 3.024 6.336 0 1.76-.448 3.296-1.344 4.608-.864 1.312-2.08 2.288-3.648 2.928 1.888.576 3.344 1.552 4.368 2.928 1.024 1.344 1.536 3.024 1.536 5.04 0 2.976-1.072 5.328-3.216 7.056-2.112 1.696-5.008 2.544-8.688 2.544zm8.448-20.4h6.288c1.6 0 2.768-.288 3.504-.864.768-.576 1.152-1.456 1.152-2.64 0-1.184-.384-2.048-1.152-2.592-.736-.576-1.904-.864-3.504-.864h-6.288zm0 13.92h7.152c1.632 0 2.816-.304 3.552-.912.768-.64 1.152-1.584 1.152-2.832 0-1.248-.384-2.176-1.152-2.784-.736-.608-1.92-.912-3.552-.912h-7.152zM3.072 48V14.16h16.272c3.84 0 6.8.944 8.88 2.832 2.112 1.856 3.168 4.448 3.168 7.776 0 2.528-.64 4.656-1.92 6.384-1.248 1.696-3.072 2.88-5.472 3.552 1.792.48 3.232 1.712 4.32 3.696L33.6 48h-9.696l-5.856-10.752c-.384-.672-.88-1.152-1.488-1.44-.576-.288-1.248-.432-2.016-.432h-2.64V48H3.072Zm8.832-18.864h5.856c3.488 0 5.232-1.376 5.232-4.128 0-2.72-1.744-4.08-5.232-4.08h-5.856zm40.184 19.392c-3.424 0-6.432-.72-9.024-2.16-2.56-1.472-4.56-3.52-6-6.144-1.44-2.624-2.16-5.68-2.16-9.168 0-3.52.704-6.576 2.112-9.168 1.44-2.624 3.456-4.656 6.048-6.096 2.592-1.44 5.6-2.16 9.024-2.16 3.424 0 6.416.72 8.976 2.16 2.592 1.44 4.608 3.472 6.048 6.096 1.44 2.592 2.16 5.648 2.16 9.168 0 3.488-.72 6.544-2.16 9.168-1.44 2.624-3.456 4.672-6.048 6.144-2.56 1.44-5.552 2.16-8.976 2.16Zm0-7.392c2.496 0 4.448-.88 5.856-2.64 1.44-1.792 2.16-4.272 2.16-7.44s-.704-5.632-2.112-7.392c-1.408-1.76-3.376-2.64-5.904-2.64s-4.496.88-5.904 2.64c-1.408 1.76-2.112 4.224-2.112 7.392s.704 5.648 2.112 7.44c1.408 1.76 3.376 2.64 5.904 2.64M73.527 48V14.16h16.32c3.648 0 6.464.8 8.448 2.4 2.016 1.568 3.024 3.68 3.024 6.336 0 1.76-.448 3.296-1.344 4.608-.864 1.312-2.08 2.288-3.648 2.928 1.888.576 3.344 1.552 4.368 2.928 1.024 1.344 1.536 3.024 1.536 5.04 0 2.976-1.072 5.328-3.216 7.056C96.903 47.152 94.007 48 90.327 48zm8.448-20.4h6.288c1.6 0 2.768-.288 3.504-.864.768-.576 1.152-1.456 1.152-2.64 0-1.184-.384-2.048-1.152-2.592-.736-.576-1.904-.864-3.504-.864h-6.288zm0 13.92h7.152c1.632 0 2.816-.304 3.552-.912.768-.64 1.152-1.584 1.152-2.832 0-1.248-.384-2.176-1.152-2.784-.736-.608-1.92-.912-3.552-.912h-7.152zM106.27 48V14.16h16.32c3.648 0 6.464.8 8.448 2.4 2.016 1.568 3.024 3.68 3.024 6.336 0 1.76-.448 3.296-1.344 4.608-.864 1.312-2.08 2.288-3.648 2.928 1.888.576 3.344 1.552 4.368 2.928 1.024 1.344 1.536 3.024 1.536 5.04 0 2.976-1.072 5.328-3.216 7.056C129.646 47.152 126.75 48 123.07 48zm8.448-20.4h6.288c1.6 0 2.768-.288 3.504-.864.768-.576 1.152-1.456 1.152-2.64 0-1.184-.384-2.048-1.152-2.592-.736-.576-1.904-.864-3.504-.864h-6.288zm0 13.92h7.152c1.632 0 2.816-.304 3.552-.912.768-.64 1.152-1.584 1.152-2.832 0-1.248-.384-2.176-1.152-2.784-.736-.608-1.92-.912-3.552-.912h-7.152zM146.466 48V33.024L133.458 14.16h10.128l7.44 10.992 7.44-10.992h9.84l-13.008 18.864V48z"/></svg>