<svg xmlns="http://www.w3.org/2000/svg" xml:space="preserve" fill="var(--color-grey)" style="enable-background:new 0 0 385.49 163.57" viewBox="0 0 385.49 163.57"><path d="M63.35 71.99v85.59H49.86v-1.84h11.65V71.99z"/><path d="M106.35 87.77c-.06.76-.63 1.37-1.39 1.48l-62.34.26h-1.86l-22.5.01-4.84 2.07-.94-1.59 5.16-2.26.18-.02 22.93-.07h1.86l61.06-.08-19.8-17.95-.23-.07.53-1.77 3.41 1.02 17.61 17.3c.69.61 1.21.9 1.16 1.67m-1.44-20-.53 1.77.23.07c1.23-.28 2.47-.56 3.71-.82zm-43.4 4.88c.61.21 1.22.41 1.84.6v-1.26h-1.84z"/><path d="M123.96 65.04c-.18.7-.75 1.2-1.46 1.28-4.73.54-9.48 1.46-14.18 2.47l-3.41-1.02-.53 1.77.23.07c-.73.16-1.45.32-2.17.48-11.74 2.64-23.88 5.38-36.02 3.83-1.06-.14-2.08-.38-3.07-.68v-1.26h-1.84v.66c-.22-.08-.43-.16-.66-.24-2.18-.77-4.24-1.5-6.44-1.5h-.04c-3.86.01-7.92 1.48-11.84 2.9-2.77 1-5.64 2.05-8.45 2.57-1.98.37-3.91.56-5.74.56-6.02 0-11.04-1.97-13.98-5.64-3.35-4.18-3.96-10.67-1.53-16.54 2.39-5.8 7.03-11.4 13.81-16.61 3.33-2.57 6.04-5.2 8.27-8.05.38-.49.78-.97 1.19-1.45 1.64-1.96 3.19-3.81 3.11-6.14-.11-2.84-3.14-6.82-6.09-6.99-2.8-.16-5.12 2.18-5.82 3.31-.64 1.06-.71 2.05-1.19 2.96-.55 1.03-1.16 1.83-2.09 2.79-1.1 1.13-2.59 1.58-3.29 2.1-.78.58-1.41 1.05-2.19 2.46-.39.72-.48 4.5-.31 7.45.02.41.03 1.07.04 1.8.01.96.02 2.04.07 2.93.04.61-.31 1.15-.88 1.38-.56.23-1.2.07-1.59-.38-1.48-1.71-6.33-7.68-6.85-12.59-.19-1.79 1.48-5.9 2.31-7.61.57-1.18.6-2.72.63-4.36.04-2.05.08-4.16 1.23-5.82C15.33 8.88 19 7.24 24.41 6.98c5.35-.26 11.35 1.26 15.65 3.96 4.88 3.06 7.86 8.33 7.59 13.41-.29 5.54-4.09 10.73-11.63 15.84-.58.4-1.18.79-1.77 1.19-4.79 3.19-9.74 6.49-12 11.55-.68 1.55-2.03 5.5.29 8.82.68.97 1.62 1.7 2.66 2.07 1.38.49 2.75.38 4.08-.31 1.99-1.04 3.74-3.4 4.47-6.02.28-1.02.53-1.99.78-2.94.71-2.7 1.38-5.25 2.55-8.56 1.23-3.47 8.75-13.3 15.5-15.17 7.46-2.07 15.27-1.59 22.58 1.4 7.21 2.94 13.7 7.39 19.96 11.69l28.14 19.31c.6.41.87 1.12.7 1.82"/><path d="M160.98 89.18h-16.04l-9.69-17.87c-1.22-2.06-3.15-3.1-5.8-3.1H125v20.97h-14.37V33.19h26.68c6.78 0 11.87 1.47 15.29 4.41 3.41 2.94 5.12 7.19 5.12 12.75 0 4.24-1.17 7.82-3.49 10.76-2.33 2.94-5.61 4.91-9.85 5.92 3.23.69 5.8 2.78 7.7 6.27zm-19.02-33.44c1.4-1 2.1-2.65 2.1-4.92 0-2.33-.7-4.01-2.1-5.04-1.4-1.03-3.72-1.55-6.95-1.55h-10.17v13.02h10.17c3.23 0 5.54-.5 6.95-1.51m31.75 30.62c-4.21-2.36-7.45-5.69-9.73-10.01-2.28-4.31-3.41-9.38-3.41-15.21 0-5.82 1.14-10.89 3.41-15.21 2.28-4.31 5.52-7.64 9.73-9.97 4.21-2.33 9.17-3.49 14.89-3.49s10.68 1.17 14.89 3.49c4.21 2.33 7.44 5.65 9.69 9.97 2.25 4.32 3.37 9.38 3.37 15.21 0 5.82-1.14 10.89-3.41 15.21-2.28 4.32-5.52 7.65-9.73 10.01-4.21 2.36-9.15 3.53-14.81 3.53-5.72 0-10.68-1.17-14.89-3.53m24.82-12.15c2.38-2.99 3.57-7.35 3.57-13.06 0-5.72-1.2-10.06-3.61-13.02-2.41-2.96-5.71-4.45-9.89-4.45-4.24 0-7.55 1.47-9.93 4.41-2.38 2.94-3.57 7.29-3.57 13.06 0 5.77 1.19 10.14 3.57 13.1 2.38 2.97 5.69 4.45 9.93 4.45 4.23 0 7.54-1.5 9.93-4.49m69.6-9.06c1.75 2.36 2.62 5.26 2.62 8.7 0 3.07-.81 5.76-2.42 8.06-1.62 2.3-3.92 4.09-6.91 5.36-2.99 1.27-6.5 1.91-10.52 1.91h-27.88V33.19h27.08c5.88 0 10.55 1.31 14.02 3.93 3.47 2.62 5.2 6.16 5.2 10.6 0 2.86-.77 5.39-2.3 7.58-1.54 2.2-3.68 3.8-6.43 4.8 3.27 1.02 5.79 2.7 7.54 5.05m-30.9-9.96h10.4c2.75 0 4.76-.42 6.04-1.27 1.27-.85 1.91-2.2 1.91-4.05 0-1.96-.64-3.39-1.91-4.29-1.27-.9-3.28-1.35-6.04-1.35h-10.4zm18.07 21.56c1.24-.93 1.87-2.45 1.87-4.57s-.62-3.64-1.87-4.57c-1.24-.93-3.32-1.39-6.23-1.39h-11.83v11.91h11.83c2.91.01 4.99-.45 6.23-1.38m69.12-11.6c1.75 2.36 2.62 5.26 2.62 8.7 0 3.07-.81 5.76-2.42 8.06-1.62 2.3-3.92 4.09-6.91 5.36-2.99 1.27-6.5 1.91-10.52 1.91h-27.88V33.19h27.08c5.88 0 10.55 1.31 14.02 3.93 3.47 2.62 5.2 6.16 5.2 10.6 0 2.86-.77 5.39-2.3 7.58-1.54 2.2-3.68 3.8-6.43 4.8 3.28 1.02 5.79 2.7 7.54 5.05m-30.9-9.96h10.4c2.75 0 4.76-.42 6.04-1.27 1.27-.85 1.91-2.2 1.91-4.05 0-1.96-.64-3.39-1.91-4.29-1.27-.9-3.28-1.35-6.04-1.35h-10.4zm18.07 21.56c1.24-.93 1.87-2.45 1.87-4.57s-.62-3.64-1.87-4.57c-1.24-.93-3.32-1.39-6.23-1.39h-11.83v11.91h11.83c2.91.01 4.99-.45 6.23-1.38m50.23-12.51v24.94h-14.61V64.24L323.7 33.19h16.44l14.3 19.46 14.45-19.46h16.6zM166.28 98.05 145 157.58h-12.33l-12.58-35.72-12.75 35.72H94.93L73.74 98.05h15.79l12.33 37.74 13.34-37.74h10.72l12.75 38.42 12.92-38.42h14.69zm4.17 0h42.3v11.99h-27.19v11.32h25.5v11.91h-25.5v12.33h27.19v11.99h-42.3zm100.7 33.99c1.86 2.51 2.79 5.59 2.79 9.25 0 3.27-.86 6.12-2.58 8.57-1.72 2.45-4.17 4.35-7.35 5.7-3.18 1.35-6.91 2.03-11.19 2.03h-29.64V98.05h28.79c6.25 0 11.22 1.39 14.9 4.18 3.69 2.79 5.53 6.54 5.53 11.27 0 3.04-.82 5.73-2.45 8.06-1.63 2.34-3.91 4.04-6.84 5.11 3.51 1.08 6.19 2.86 8.04 5.37m-32.84-10.6h11.06c2.93 0 5.07-.45 6.42-1.35 1.35-.9 2.03-2.34 2.03-4.31 0-2.08-.68-3.6-2.03-4.56-1.35-.96-3.49-1.44-6.42-1.44h-11.06zm19.21 22.93c1.32-.98 1.98-2.6 1.98-4.86 0-2.25-.66-3.87-1.98-4.85-1.32-.98-3.53-1.48-6.63-1.48h-12.58v12.67h12.58c3.09-.01 5.3-.5 6.63-1.48m69.75-12.33c1.86 2.51 2.79 5.59 2.79 9.25 0 3.27-.86 6.12-2.58 8.57-1.72 2.45-4.17 4.35-7.35 5.7-3.18 1.35-6.91 2.03-11.19 2.03H279.3V98.05h28.79c6.25 0 11.22 1.39 14.9 4.18 3.69 2.79 5.53 6.54 5.53 11.27 0 3.04-.82 5.73-2.45 8.06-1.63 2.34-3.91 4.04-6.84 5.11 3.51 1.08 6.18 2.86 8.04 5.37m-32.85-10.6h11.06c2.93 0 5.07-.45 6.42-1.35 1.35-.9 2.03-2.34 2.03-4.31 0-2.08-.68-3.6-2.03-4.56-1.35-.96-3.49-1.44-6.42-1.44h-11.06zm19.21 22.93c1.32-.98 1.98-2.6 1.98-4.86 0-2.25-.66-3.87-1.98-4.85-1.32-.98-3.53-1.48-6.63-1.48h-12.58v12.67H307c3.1-.01 5.31-.5 6.63-1.48"/></svg>