<svg width="24" height="25" viewBox="0 0 24 25" fill="none" xmlns="http://www.w3.org/2000/svg">
<path d="M11.9998 3.4375H10.9998C10.9998 3.98979 11.4475 4.4375 11.9998 4.4375V3.4375ZM12.3928 3.4375L13.0735 4.17007C13.3747 3.8902 13.4739 3.4545 13.3235 3.07183C13.1732 2.68916 12.8039 2.4375 12.3928 2.4375V3.4375ZM20.3128 15.8835L21.2362 16.2673C21.391 15.8949 21.3069 15.4661 21.0231 15.1796C20.7393 14.8932 20.3112 14.8053 19.9375 14.9566L20.3128 15.8835ZM11.9998 3.4295H12.9998C12.9998 3.16425 12.8944 2.90986 12.7068 2.72231C12.5192 2.53477 12.2648 2.42944 11.9995 2.4295L11.9998 3.4295ZM17.9998 4.4375C17.9998 3.88522 17.5521 3.4375 16.9998 3.4375C16.4475 3.4375 15.9998 3.88522 15.9998 4.4375H17.9998ZM18.9998 7.4375C19.5521 7.4375 19.9998 6.98979 19.9998 6.4375C19.9998 5.88522 19.5521 5.4375 18.9998 5.4375V7.4375ZM15.9998 8.4375C15.9998 8.98979 16.4475 9.4375 16.9998 9.4375C17.5521 9.4375 17.9998 8.98979 17.9998 8.4375H15.9998ZM14.9998 5.4375C14.4475 5.4375 13.9998 5.88522 13.9998 6.4375C13.9998 6.98979 14.4475 7.4375 14.9998 7.4375V5.4375ZM18.9998 10.4375C18.4475 10.4375 17.9998 10.8852 17.9998 11.4375C17.9998 11.9898 18.4475 12.4375 18.9998 12.4375V10.4375ZM20.9998 12.4375C21.5521 12.4375 21.9998 11.9898 21.9998 11.4375C21.9998 10.8852 21.5521 10.4375 20.9998 10.4375V12.4375ZM20.9998 10.4375C20.9998 9.88522 20.5521 9.4375 19.9998 9.4375C19.4475 9.4375 18.9998 9.88522 18.9998 10.4375H20.9998ZM18.9998 12.4375C18.9998 12.9898 19.4475 13.4375 19.9998 13.4375C20.5521 13.4375 20.9998 12.9898 20.9998 12.4375H18.9998ZM11.9998 4.4375C12 4.4375 12.0003 4.4375 12.0006 4.4375C12.0008 4.4375 12.0011 4.4375 12.0013 4.4375C12.0016 4.4375 12.0018 4.4375 12.0021 4.4375C12.0024 4.4375 12.0026 4.4375 12.0029 4.4375C12.0031 4.4375 12.0034 4.4375 12.0037 4.4375C12.0039 4.4375 12.0042 4.4375 12.0044 4.4375C12.0047 4.4375 12.0049 4.4375 12.0052 4.4375C12.0055 4.4375 12.0057 4.4375 12.006 4.4375C12.0062 4.4375 12.0065 4.4375 12.0067 4.4375C12.007 4.4375 12.0073 4.4375 12.0075 4.4375C12.0078 4.4375 12.008 4.4375 12.0083 4.4375C12.0085 4.4375 12.0088 4.4375 12.0091 4.4375C12.0093 4.4375 12.0096 4.4375 12.0098 4.4375C12.0101 4.4375 12.0104 4.4375 12.0106 4.4375C12.0109 4.4375 12.0111 4.4375 12.0114 4.4375C12.0116 4.4375 12.0119 4.4375 12.0122 4.4375C12.0124 4.4375 12.0127 4.4375 12.0129 4.4375C12.0132 4.4375 12.0134 4.4375 12.0137 4.4375C12.014 4.4375 12.0142 4.4375 12.0145 4.4375C12.0147 4.4375 12.015 4.4375 12.0152 4.4375C12.0155 4.4375 12.0158 4.4375 12.016 4.4375C12.0163 4.4375 12.0165 4.4375 12.0168 4.4375C12.0171 4.4375 12.0173 4.4375 12.0176 4.4375C12.0178 4.4375 12.0181 4.4375 12.0183 4.4375C12.0186 4.4375 12.0189 4.4375 12.0191 4.4375C12.0194 4.4375 12.0196 4.4375 12.0199 4.4375C12.0201 4.4375 12.0204 4.4375 12.0207 4.4375C12.0209 4.4375 12.0212 4.4375 12.0214 4.4375C12.0217 4.4375 12.0219 4.4375 12.0222 4.4375C12.0225 4.4375 12.0227 4.4375 12.023 4.4375C12.0232 4.4375 12.0235 4.4375 12.0238 4.4375C12.024 4.4375 12.0243 4.4375 12.0245 4.4375C12.0248 4.4375 12.025 4.4375 12.0253 4.4375C12.0256 4.4375 12.0258 4.4375 12.0261 4.4375C12.0263 4.4375 12.0266 4.4375 12.0268 4.4375C12.0271 4.4375 12.0274 4.4375 12.0276 4.4375C12.0279 4.4375 12.0281 4.4375 12.0284 4.4375C12.0286 4.4375 12.0289 4.4375 12.0292 4.4375C12.0294 4.4375 12.0297 4.4375 12.0299 4.4375C12.0302 4.4375 12.0304 4.4375 12.0307 4.4375C12.031 4.4375 12.0312 4.4375 12.0315 4.4375C12.0317 4.4375 12.032 4.4375 12.0322 4.4375C12.0325 4.4375 12.0328 4.4375 12.033 4.4375C12.0333 4.4375 12.0335 4.4375 12.0338 4.4375C12.0341 4.4375 12.0343 4.4375 12.0346 4.4375C12.0348 4.4375 12.0351 4.4375 12.0353 4.4375C12.0356 4.4375 12.0359 4.4375 12.0361 4.4375C12.0364 4.4375 12.0366 4.4375 12.0369 4.4375C12.0371 4.4375 12.0374 4.4375 12.0377 4.4375C12.0379 4.4375 12.0382 4.4375 12.0384 4.4375C12.0387 4.4375 12.0389 4.4375 12.0392 4.4375C12.0395 4.4375 12.0397 4.4375 12.04 4.4375C12.0402 4.4375 12.0405 4.4375 12.0407 4.4375C12.041 4.4375 12.0413 4.4375 12.0415 4.4375C12.0418 4.4375 12.042 4.4375 12.0423 4.4375C12.0425 4.4375 12.0428 4.4375 12.0431 4.4375C12.0433 4.4375 12.0436 4.4375 12.0438 4.4375C12.0441 4.4375 12.0443 4.4375 12.0446 4.4375C12.0449 4.4375 12.0451 4.4375 12.0454 4.4375C12.0456 4.4375 12.0459 4.4375 12.0461 4.4375C12.0464 4.4375 12.0467 4.4375 12.0469 4.4375C12.0472 4.4375 12.0474 4.4375 12.0477 4.4375C12.048 4.4375 12.0482 4.4375 12.0485 4.4375C12.0487 4.4375 12.049 4.4375 12.0492 4.4375C12.0495 4.4375 12.0498 4.4375 12.05 4.4375C12.0503 4.4375 12.0505 4.4375 12.0508 4.4375C12.051 4.4375 12.0513 4.4375 12.0516 4.4375C12.0518 4.4375 12.0521 4.4375 12.0523 4.4375C12.0526 4.4375 12.0528 4.4375 12.0531 4.4375C12.0534 4.4375 12.0536 4.4375 12.0539 4.4375C12.0541 4.4375 12.0544 4.4375 12.0546 4.4375C12.0549 4.4375 12.0552 4.4375 12.0554 4.4375C12.0557 4.4375 12.0559 4.4375 12.0562 4.4375C12.0564 4.4375 12.0567 4.4375 12.057 4.4375C12.0572 4.4375 12.0575 4.4375 12.0577 4.4375C12.058 4.4375 12.0582 4.4375 12.0585 4.4375C12.0588 4.4375 12.059 4.4375 12.0593 4.4375C12.0595 4.4375 12.0598 4.4375 12.06 4.4375C12.0603 4.4375 12.0606 4.4375 12.0608 4.4375C12.0611 4.4375 12.0613 4.4375 12.0616 4.4375C12.0618 4.4375 12.0621 4.4375 12.0624 4.4375C12.0626 4.4375 12.0629 4.4375 12.0631 4.4375C12.0634 4.4375 12.0636 4.4375 12.0639 4.4375C12.0642 4.4375 12.0644 4.4375 12.0647 4.4375C12.0649 4.4375 12.0652 4.4375 12.0654 4.4375C12.0657 4.4375 12.066 4.4375 12.0662 4.4375C12.0665 4.4375 12.0667 4.4375 12.067 4.4375C12.0672 4.4375 12.0675 4.4375 12.0678 4.4375C12.068 4.4375 12.0683 4.4375 12.0685 4.4375C12.0688 4.4375 12.069 4.4375 12.0693 4.4375C12.0696 4.4375 12.0698 4.4375 12.0701 4.4375C12.0703 4.4375 12.0706 4.4375 12.0708 4.4375C12.0711 4.4375 12.0714 4.4375 12.0716 4.4375C12.0719 4.4375 12.0721 4.4375 12.0724 4.4375C12.0726 4.4375 12.0729 4.4375 12.0732 4.4375C12.0734 4.4375 12.0737 4.4375 12.0739 4.4375C12.0742 4.4375 12.0744 4.4375 12.0747 4.4375C12.075 4.4375 12.0752 4.4375 12.0755 4.4375C12.0757 4.4375 12.076 4.4375 12.0762 4.4375C12.0765 4.4375 12.0768 4.4375 12.077 4.4375C12.0773 4.4375 12.0775 4.4375 12.0778 4.4375C12.078 4.4375 12.0783 4.4375 12.0786 4.4375C12.0788 4.4375 12.0791 4.4375 12.0793 4.4375C12.0796 4.4375 12.0798 4.4375 12.0801 4.4375C12.0804 4.4375 12.0806 4.4375 12.0809 4.4375C12.0811 4.4375 12.0814 4.4375 12.0816 4.4375C12.0819 4.4375 12.0822 4.4375 12.0824 4.4375C12.0827 4.4375 12.0829 4.4375 12.0832 4.4375C12.0834 4.4375 12.0837 4.4375 12.084 4.4375C12.0842 4.4375 12.0845 4.4375 12.0847 4.4375C12.085 4.4375 12.0852 4.4375 12.0855 4.4375C12.0858 4.4375 12.086 4.4375 12.0863 4.4375C12.0865 4.4375 12.0868 4.4375 12.087 4.4375C12.0873 4.4375 12.0876 4.4375 12.0878 4.4375C12.0881 4.4375 12.0883 4.4375 12.0886 4.4375C12.0888 4.4375 12.0891 4.4375 12.0893 4.4375C12.0896 4.4375 12.0899 4.4375 12.0901 4.4375C12.0904 4.4375 12.0906 4.4375 12.0909 4.4375C12.0911 4.4375 12.0914 4.4375 12.0917 4.4375C12.0919 4.4375 12.0922 4.4375 12.0924 4.4375C12.0927 4.4375 12.0929 4.4375 12.0932 4.4375C12.0935 4.4375 12.0937 4.4375 12.094 4.4375C12.0942 4.4375 12.0945 4.4375 12.0947 4.4375C12.095 4.4375 12.0953 4.4375 12.0955 4.4375C12.0958 4.4375 12.096 4.4375 12.0963 4.4375C12.0965 4.4375 12.0968 4.4375 12.0971 4.4375C12.0973 4.4375 12.0976 4.4375 12.0978 4.4375C12.0981 4.4375 12.0983 4.4375 12.0986 4.4375C12.0989 4.4375 12.0991 4.4375 12.0994 4.4375C12.0996 4.4375 12.0999 4.4375 12.1001 4.4375C12.1004 4.4375 12.1007 4.4375 12.1009 4.4375C12.1012 4.4375 12.1014 4.4375 12.1017 4.4375C12.1019 4.4375 12.1022 4.4375 12.1024 4.4375C12.1027 4.4375 12.103 4.4375 12.1032 4.4375C12.1035 4.4375 12.1037 4.4375 12.104 4.4375C12.1042 4.4375 12.1045 4.4375 12.1048 4.4375C12.105 4.4375 12.1053 4.4375 12.1055 4.4375C12.1058 4.4375 12.106 4.4375 12.1063 4.4375C12.1066 4.4375 12.1068 4.4375 12.1071 4.4375C12.1073 4.4375 12.1076 4.4375 12.1078 4.4375C12.1081 4.4375 12.1084 4.4375 12.1086 4.4375C12.1089 4.4375 12.1091 4.4375 12.1094 4.4375C12.1096 4.4375 12.1099 4.4375 12.1102 4.4375C12.1104 4.4375 12.1107 4.4375 12.1109 4.4375C12.1112 4.4375 12.1114 4.4375 12.1117 4.4375C12.1119 4.4375 12.1122 4.4375 12.1125 4.4375C12.1127 4.4375 12.113 4.4375 12.1132 4.4375C12.1135 4.4375 12.1137 4.4375 12.114 4.4375C12.1143 4.4375 12.1145 4.4375 12.1148 4.4375C12.115 4.4375 12.1153 4.4375 12.1155 4.4375C12.1158 4.4375 12.1161 4.4375 12.1163 4.4375C12.1166 4.4375 12.1168 4.4375 12.1171 4.4375C12.1173 4.4375 12.1176 4.4375 12.1179 4.4375C12.1181 4.4375 12.1184 4.4375 12.1186 4.4375C12.1189 4.4375 12.1191 4.4375 12.1194 4.4375C12.1196 4.4375 12.1199 4.4375 12.1202 4.4375C12.1204 4.4375 12.1207 4.4375 12.1209 4.4375C12.1212 4.4375 12.1214 4.4375 12.1217 4.4375C12.122 4.4375 12.1222 4.4375 12.1225 4.4375C12.1227 4.4375 12.123 4.4375 12.1232 4.4375C12.1235 4.4375 12.1238 4.4375 12.124 4.4375C12.1243 4.4375 12.1245 4.4375 12.1248 4.4375C12.125 4.4375 12.1253 4.4375 12.1256 4.4375C12.1258 4.4375 12.1261 4.4375 12.1263 4.4375C12.1266 4.4375 12.1268 4.4375 12.1271 4.4375C12.1273 4.4375 12.1276 4.4375 12.1279 4.4375C12.1281 4.4375 12.1284 4.4375 12.1286 4.4375C12.1289 4.4375 12.1291 4.4375 12.1294 4.4375C12.1297 4.4375 12.1299 4.4375 12.1302 4.4375C12.1304 4.4375 12.1307 4.4375 12.1309 4.4375C12.1312 4.4375 12.1315 4.4375 12.1317 4.4375C12.132 4.4375 12.1322 4.4375 12.1325 4.4375C12.1327 4.4375 12.133 4.4375 12.1332 4.4375C12.1335 4.4375 12.1338 4.4375 12.134 4.4375C12.1343 4.4375 12.1345 4.4375 12.1348 4.4375C12.135 4.4375 12.1353 4.4375 12.1356 4.4375C12.1358 4.4375 12.1361 4.4375 12.1363 4.4375C12.1366 4.4375 12.1368 4.4375 12.1371 4.4375C12.1374 4.4375 12.1376 4.4375 12.1379 4.4375C12.1381 4.4375 12.1384 4.4375 12.1386 4.4375C12.1389 4.4375 12.1391 4.4375 12.1394 4.4375C12.1397 4.4375 12.1399 4.4375 12.1402 4.4375C12.1404 4.4375 12.1407 4.4375 12.1409 4.4375C12.1412 4.4375 12.1415 4.4375 12.1417 4.4375C12.142 4.4375 12.1422 4.4375 12.1425 4.4375C12.1427 4.4375 12.143 4.4375 12.1432 4.4375C12.1435 4.4375 12.1438 4.4375 12.144 4.4375C12.1443 4.4375 12.1445 4.4375 12.1448 4.4375C12.145 4.4375 12.1453 4.4375 12.1456 4.4375C12.1458 4.4375 12.1461 4.4375 12.1463 4.4375C12.1466 4.4375 12.1468 4.4375 12.1471 4.4375C12.1473 4.4375 12.1476 4.4375 12.1479 4.4375C12.1481 4.4375 12.1484 4.4375 12.1486 4.4375C12.1489 4.4375 12.1491 4.4375 12.1494 4.4375C12.1497 4.4375 12.1499 4.4375 12.1502 4.4375C12.1504 4.4375 12.1507 4.4375 12.1509 4.4375C12.1512 4.4375 12.1515 4.4375 12.1517 4.4375C12.152 4.4375 12.1522 4.4375 12.1525 4.4375C12.1527 4.4375 12.153 4.4375 12.1532 4.4375C12.1535 4.4375 12.1538 4.4375 12.154 4.4375C12.1543 4.4375 12.1545 4.4375 12.1548 4.4375C12.155 4.4375 12.1553 4.4375 12.1556 4.4375C12.1558 4.4375 12.1561 4.4375 12.1563 4.4375C12.1566 4.4375 12.1568 4.4375 12.1571 4.4375C12.1573 4.4375 12.1576 4.4375 12.1579 4.4375C12.1581 4.4375 12.1584 4.4375 12.1586 4.4375C12.1589 4.4375 12.1591 4.4375 12.1594 4.4375C12.1597 4.4375 12.1599 4.4375 12.1602 4.4375C12.1604 4.4375 12.1607 4.4375 12.1609 4.4375C12.1612 4.4375 12.1614 4.4375 12.1617 4.4375C12.162 4.4375 12.1622 4.4375 12.1625 4.4375C12.1627 4.4375 12.163 4.4375 12.1632 4.4375C12.1635 4.4375 12.1638 4.4375 12.164 4.4375C12.1643 4.4375 12.1645 4.4375 12.1648 4.4375C12.165 4.4375 12.1653 4.4375 12.1655 4.4375C12.1658 4.4375 12.1661 4.4375 12.1663 4.4375C12.1666 4.4375 12.1668 4.4375 12.1671 4.4375C12.1673 4.4375 12.1676 4.4375 12.1678 4.4375C12.1681 4.4375 12.1684 4.4375 12.1686 4.4375C12.1689 4.4375 12.1691 4.4375 12.1694 4.4375C12.1696 4.4375 12.1699 4.4375 12.1702 4.4375C12.1704 4.4375 12.1707 4.4375 12.1709 4.4375C12.1712 4.4375 12.1714 4.4375 12.1717 4.4375C12.1719 4.4375 12.1722 4.4375 12.1725 4.4375C12.1727 4.4375 12.173 4.4375 12.1732 4.4375C12.1735 4.4375 12.1737 4.4375 12.174 4.4375C12.1743 4.4375 12.1745 4.4375 12.1748 4.4375C12.175 4.4375 12.1753 4.4375 12.1755 4.4375C12.1758 4.4375 12.176 4.4375 12.1763 4.4375C12.1766 4.4375 12.1768 4.4375 12.1771 4.4375C12.1773 4.4375 12.1776 4.4375 12.1778 4.4375C12.1781 4.4375 12.1783 4.4375 12.1786 4.4375C12.1789 4.4375 12.1791 4.4375 12.1794 4.4375C12.1796 4.4375 12.1799 4.4375 12.1801 4.4375C12.1804 4.4375 12.1807 4.4375 12.1809 4.4375C12.1812 4.4375 12.1814 4.4375 12.1817 4.4375C12.1819 4.4375 12.1822 4.4375 12.1824 4.4375C12.1827 4.4375 12.183 4.4375 12.1832 4.4375C12.1835 4.4375 12.1837 4.4375 12.184 4.4375C12.1842 4.4375 12.1845 4.4375 12.1848 4.4375C12.185 4.4375 12.1853 4.4375 12.1855 4.4375C12.1858 4.4375 12.186 4.4375 12.1863 4.4375C12.1865 4.4375 12.1868 4.4375 12.1871 4.4375C12.1873 4.4375 12.1876 4.4375 12.1878 4.4375C12.1881 4.4375 12.1883 4.4375 12.1886 4.4375C12.1888 4.4375 12.1891 4.4375 12.1894 4.4375C12.1896 4.4375 12.1899 4.4375 12.1901 4.4375C12.1904 4.4375 12.1906 4.4375 12.1909 4.4375C12.1911 4.4375 12.1914 4.4375 12.1917 4.4375C12.1919 4.4375 12.1922 4.4375 12.1924 4.4375C12.1927 4.4375 12.1929 4.4375 12.1932 4.4375C12.1935 4.4375 12.1937 4.4375 12.194 4.4375C12.1942 4.4375 12.1945 4.4375 12.1947 4.4375C12.195 4.4375 12.1952 4.4375 12.1955 4.4375C12.1958 4.4375 12.196 4.4375 12.1963 4.4375C12.1965 4.4375 12.1968 4.4375 12.197 4.4375C12.1973 4.4375 12.1975 4.4375 12.1978 4.4375C12.1981 4.4375 12.1983 4.4375 12.1986 4.4375C12.1988 4.4375 12.1991 4.4375 12.1993 4.4375C12.1996 4.4375 12.1998 4.4375 12.2001 4.4375C12.2004 4.4375 12.2006 4.4375 12.2009 4.4375C12.2011 4.4375 12.2014 4.4375 12.2016 4.4375C12.2019 4.4375 12.2022 4.4375 12.2024 4.4375C12.2027 4.4375 12.2029 4.4375 12.2032 4.4375C12.2034 4.4375 12.2037 4.4375 12.2039 4.4375C12.2042 4.4375 12.2045 4.4375 12.2047 4.4375C12.205 4.4375 12.2052 4.4375 12.2055 4.4375C12.2057 4.4375 12.206 4.4375 12.2062 4.4375C12.2065 4.4375 12.2068 4.4375 12.207 4.4375C12.2073 4.4375 12.2075 4.4375 12.2078 4.4375C12.208 4.4375 12.2083 4.4375 12.2085 4.4375C12.2088 4.4375 12.2091 4.4375 12.2093 4.4375C12.2096 4.4375 12.2098 4.4375 12.2101 4.4375C12.2103 4.4375 12.2106 4.4375 12.2108 4.4375C12.2111 4.4375 12.2114 4.4375 12.2116 4.4375C12.2119 4.4375 12.2121 4.4375 12.2124 4.4375C12.2126 4.4375 12.2129 4.4375 12.2131 4.4375C12.2134 4.4375 12.2137 4.4375 12.2139 4.4375C12.2142 4.4375 12.2144 4.4375 12.2147 4.4375C12.2149 4.4375 12.2152 4.4375 12.2154 4.4375C12.2157 4.4375 12.216 4.4375 12.2162 4.4375C12.2165 4.4375 12.2167 4.4375 12.217 4.4375C12.2172 4.4375 12.2175 4.4375 12.2178 4.4375C12.218 4.4375 12.2183 4.4375 12.2185 4.4375C12.2188 4.4375 12.219 4.4375 12.2193 4.4375C12.2195 4.4375 12.2198 4.4375 12.2201 4.4375C12.2203 4.4375 12.2206 4.4375 12.2208 4.4375C12.2211 4.4375 12.2213 4.4375 12.2216 4.4375C12.2218 4.4375 12.2221 4.4375 12.2224 4.4375C12.2226 4.4375 12.2229 4.4375 12.2231 4.4375C12.2234 4.4375 12.2236 4.4375 12.2239 4.4375C12.2241 4.4375 12.2244 4.4375 12.2247 4.4375C12.2249 4.4375 12.2252 4.4375 12.2254 4.4375C12.2257 4.4375 12.2259 4.4375 12.2262 4.4375C12.2264 4.4375 12.2267 4.4375 12.227 4.4375C12.2272 4.4375 12.2275 4.4375 12.2277 4.4375C12.228 4.4375 12.2282 4.4375 12.2285 4.4375C12.2287 4.4375 12.229 4.4375 12.2293 4.4375C12.2295 4.4375 12.2298 4.4375 12.23 4.4375C12.2303 4.4375 12.2305 4.4375 12.2308 4.4375C12.231 4.4375 12.2313 4.4375 12.2316 4.4375C12.2318 4.4375 12.2321 4.4375 12.2323 4.4375C12.2326 4.4375 12.2328 4.4375 12.2331 4.4375C12.2333 4.4375 12.2336 4.4375 12.2339 4.4375C12.2341 4.4375 12.2344 4.4375 12.2346 4.4375C12.2349 4.4375 12.2351 4.4375 12.2354 4.4375C12.2356 4.4375 12.2359 4.4375 12.2362 4.4375C12.2364 4.4375 12.2367 4.4375 12.2369 4.4375C12.2372 4.4375 12.2374 4.4375 12.2377 4.4375C12.2379 4.4375 12.2382 4.4375 12.2385 4.4375C12.2387 4.4375 12.239 4.4375 12.2392 4.4375C12.2395 4.4375 12.2397 4.4375 12.24 4.4375C12.2402 4.4375 12.2405 4.4375 12.2407 4.4375C12.241 4.4375 12.2413 4.4375 12.2415 4.4375C12.2418 4.4375 12.242 4.4375 12.2423 4.4375C12.2425 4.4375 12.2428 4.4375 12.243 4.4375C12.2433 4.4375 12.2436 4.4375 12.2438 4.4375C12.2441 4.4375 12.2443 4.4375 12.2446 4.4375C12.2448 4.4375 12.2451 4.4375 12.2453 4.4375C12.2456 4.4375 12.2459 4.4375 12.2461 4.4375C12.2464 4.4375 12.2466 4.4375 12.2469 4.4375C12.2471 4.4375 12.2474 4.4375 12.2476 4.4375C12.2479 4.4375 12.2482 4.4375 12.2484 4.4375C12.2487 4.4375 12.2489 4.4375 12.2492 4.4375C12.2494 4.4375 12.2497 4.4375 12.2499 4.4375C12.2502 4.4375 12.2505 4.4375 12.2507 4.4375C12.251 4.4375 12.2512 4.4375 12.2515 4.4375C12.2517 4.4375 12.252 4.4375 12.2522 4.4375C12.2525 4.4375 12.2528 4.4375 12.253 4.4375C12.2533 4.4375 12.2535 4.4375 12.2538 4.4375C12.254 4.4375 12.2543 4.4375 12.2545 4.4375C12.2548 4.4375 12.255 4.4375 12.2553 4.4375C12.2556 4.4375 12.2558 4.4375 12.2561 4.4375C12.2563 4.4375 12.2566 4.4375 12.2568 4.4375C12.2571 4.4375 12.2573 4.4375 12.2576 4.4375C12.2579 4.4375 12.2581 4.4375 12.2584 4.4375C12.2586 4.4375 12.2589 4.4375 12.2591 4.4375C12.2594 4.4375 12.2596 4.4375 12.2599 4.4375C12.2602 4.4375 12.2604 4.4375 12.2607 4.4375C12.2609 4.4375 12.2612 4.4375 12.2614 4.4375C12.2617 4.4375 12.2619 4.4375 12.2622 4.4375C12.2625 4.4375 12.2627 4.4375 12.263 4.4375C12.2632 4.4375 12.2635 4.4375 12.2637 4.4375C12.264 4.4375 12.2642 4.4375 12.2645 4.4375C12.2647 4.4375 12.265 4.4375 12.2653 4.4375C12.2655 4.4375 12.2658 4.4375 12.266 4.4375C12.2663 4.4375 12.2665 4.4375 12.2668 4.4375C12.267 4.4375 12.2673 4.4375 12.2676 4.4375C12.2678 4.4375 12.2681 4.4375 12.2683 4.4375C12.2686 4.4375 12.2688 4.4375 12.2691 4.4375C12.2693 4.4375 12.2696 4.4375 12.2699 4.4375C12.2701 4.4375 12.2704 4.4375 12.2706 4.4375C12.2709 4.4375 12.2711 4.4375 12.2714 4.4375C12.2716 4.4375 12.2719 4.4375 12.2721 4.4375C12.2724 4.4375 12.2727 4.4375 12.2729 4.4375C12.2732 4.4375 12.2734 4.4375 12.2737 4.4375C12.2739 4.4375 12.2742 4.4375 12.2744 4.4375C12.2747 4.4375 12.275 4.4375 12.2752 4.4375C12.2755 4.4375 12.2757 4.4375 12.276 4.4375C12.2762 4.4375 12.2765 4.4375 12.2767 4.4375C12.277 4.4375 12.2772 4.4375 12.2775 4.4375C12.2778 4.4375 12.278 4.4375 12.2783 4.4375C12.2785 4.4375 12.2788 4.4375 12.279 4.4375C12.2793 4.4375 12.2795 4.4375 12.2798 4.4375C12.2801 4.4375 12.2803 4.4375 12.2806 4.4375C12.2808 4.4375 12.2811 4.4375 12.2813 4.4375C12.2816 4.4375 12.2818 4.4375 12.2821 4.4375C12.2823 4.4375 12.2826 4.4375 12.2829 4.4375C12.2831 4.4375 12.2834 4.4375 12.2836 4.4375C12.2839 4.4375 12.2841 4.4375 12.2844 4.4375C12.2846 4.4375 12.2849 4.4375 12.2852 4.4375C12.2854 4.4375 12.2857 4.4375 12.2859 4.4375C12.2862 4.4375 12.2864 4.4375 12.2867 4.4375C12.2869 4.4375 12.2872 4.4375 12.2874 4.4375C12.2877 4.4375 12.288 4.4375 12.2882 4.4375C12.2885 4.4375 12.2887 4.4375 12.289 4.4375C12.2892 4.4375 12.2895 4.4375 12.2897 4.4375C12.29 4.4375 12.2903 4.4375 12.2905 4.4375C12.2908 4.4375 12.291 4.4375 12.2913 4.4375C12.2915 4.4375 12.2918 4.4375 12.292 4.4375C12.2923 4.4375 12.2925 4.4375 12.2928 4.4375C12.2931 4.4375 12.2933 4.4375 12.2936 4.4375C12.2938 4.4375 12.2941 4.4375 12.2943 4.4375C12.2946 4.4375 12.2948 4.4375 12.2951 4.4375C12.2954 4.4375 12.2956 4.4375 12.2959 4.4375C12.2961 4.4375 12.2964 4.4375 12.2966 4.4375C12.2969 4.4375 12.2971 4.4375 12.2974 4.4375C12.2976 4.4375 12.2979 4.4375 12.2982 4.4375C12.2984 4.4375 12.2987 4.4375 12.2989 4.4375C12.2992 4.4375 12.2994 4.4375 12.2997 4.4375C12.2999 4.4375 12.3002 4.4375 12.3004 4.4375C12.3007 4.4375 12.301 4.4375 12.3012 4.4375C12.3015 4.4375 12.3017 4.4375 12.302 4.4375C12.3022 4.4375 12.3025 4.4375 12.3027 4.4375C12.303 4.4375 12.3033 4.4375 12.3035 4.4375C12.3038 4.4375 12.304 4.4375 12.3043 4.4375C12.3045 4.4375 12.3048 4.4375 12.305 4.4375C12.3053 4.4375 12.3055 4.4375 12.3058 4.4375C12.3061 4.4375 12.3063 4.4375 12.3066 4.4375C12.3068 4.4375 12.3071 4.4375 12.3073 4.4375C12.3076 4.4375 12.3078 4.4375 12.3081 4.4375C12.3083 4.4375 12.3086 4.4375 12.3089 4.4375C12.3091 4.4375 12.3094 4.4375 12.3096 4.4375C12.3099 4.4375 12.3101 4.4375 12.3104 4.4375C12.3106 4.4375 12.3109 4.4375 12.3111 4.4375C12.3114 4.4375 12.3117 4.4375 12.3119 4.4375C12.3122 4.4375 12.3124 4.4375 12.3127 4.4375C12.3129 4.4375 12.3132 4.4375 12.3134 4.4375C12.3137 4.4375 12.314 4.4375 12.3142 4.4375C12.3145 4.4375 12.3147 4.4375 12.315 4.4375C12.3152 4.4375 12.3155 4.4375 12.3157 4.4375C12.316 4.4375 12.3162 4.4375 12.3165 4.4375C12.3168 4.4375 12.317 4.4375 12.3173 4.4375C12.3175 4.4375 12.3178 4.4375 12.318 4.4375C12.3183 4.4375 12.3185 4.4375 12.3188 4.4375C12.319 4.4375 12.3193 4.4375 12.3196 4.4375C12.3198 4.4375 12.3201 4.4375 12.3203 4.4375C12.3206 4.4375 12.3208 4.4375 12.3211 4.4375C12.3213 4.4375 12.3216 4.4375 12.3218 4.4375C12.3221 4.4375 12.3224 4.4375 12.3226 4.4375C12.3229 4.4375 12.3231 4.4375 12.3234 4.4375C12.3236 4.4375 12.3239 4.4375 12.3241 4.4375C12.3244 4.4375 12.3246 4.4375 12.3249 4.4375C12.3252 4.4375 12.3254 4.4375 12.3257 4.4375C12.3259 4.4375 12.3262 4.4375 12.3264 4.4375C12.3267 4.4375 12.3269 4.4375 12.3272 4.4375C12.3274 4.4375 12.3277 4.4375 12.328 4.4375C12.3282 4.4375 12.3285 4.4375 12.3287 4.4375C12.329 4.4375 12.3292 4.4375 12.3295 4.4375C12.3297 4.4375 12.33 4.4375 12.3302 4.4375C12.3305 4.4375 12.3308 4.4375 12.331 4.4375C12.3313 4.4375 12.3315 4.4375 12.3318 4.4375C12.332 4.4375 12.3323 4.4375 12.3325 4.4375C12.3328 4.4375 12.333 4.4375 12.3333 4.4375C12.3336 4.4375 12.3338 4.4375 12.3341 4.4375C12.3343 4.4375 12.3346 4.4375 12.3348 4.4375C12.3351 4.4375 12.3353 4.4375 12.3356 4.4375C12.3358 4.4375 12.3361 4.4375 12.3364 4.4375C12.3366 4.4375 12.3369 4.4375 12.3371 4.4375C12.3374 4.4375 12.3376 4.4375 12.3379 4.4375C12.3381 4.4375 12.3384 4.4375 12.3386 4.4375C12.3389 4.4375 12.3392 4.4375 12.3394 4.4375C12.3397 4.4375 12.3399 4.4375 12.3402 4.4375C12.3404 4.4375 12.3407 4.4375 12.3409 4.4375C12.3412 4.4375 12.3414 4.4375 12.3417 4.4375C12.342 4.4375 12.3422 4.4375 12.3425 4.4375C12.3427 4.4375 12.343 4.4375 12.3432 4.4375C12.3435 4.4375 12.3437 4.4375 12.344 4.4375C12.3442 4.4375 12.3445 4.4375 12.3448 4.4375C12.345 4.4375 12.3453 4.4375 12.3455 4.4375C12.3458 4.4375 12.346 4.4375 12.3463 4.4375C12.3465 4.4375 12.3468 4.4375 12.347 4.4375C12.3473 4.4375 12.3475 4.4375 12.3478 4.4375C12.3481 4.4375 12.3483 4.4375 12.3486 4.4375C12.3488 4.4375 12.3491 4.4375 12.3493 4.4375C12.3496 4.4375 12.3498 4.4375 12.3501 4.4375C12.3503 4.4375 12.3506 4.4375 12.3509 4.4375C12.3511 4.4375 12.3514 4.4375 12.3516 4.4375C12.3519 4.4375 12.3521 4.4375 12.3524 4.4375C12.3526 4.4375 12.3529 4.4375 12.3531 4.4375C12.3534 4.4375 12.3537 4.4375 12.3539 4.4375C12.3542 4.4375 12.3544 4.4375 12.3547 4.4375C12.3549 4.4375 12.3552 4.4375 12.3554 4.4375C12.3557 4.4375 12.3559 4.4375 12.3562 4.4375C12.3564 4.4375 12.3567 4.4375 12.357 4.4375C12.3572 4.4375 12.3575 4.4375 12.3577 4.4375C12.358 4.4375 12.3582 4.4375 12.3585 4.4375C12.3587 4.4375 12.359 4.4375 12.3592 4.4375C12.3595 4.4375 12.3598 4.4375 12.36 4.4375C12.3603 4.4375 12.3605 4.4375 12.3608 4.4375C12.361 4.4375 12.3613 4.4375 12.3615 4.4375C12.3618 4.4375 12.362 4.4375 12.3623 4.4375C12.3626 4.4375 12.3628 4.4375 12.3631 4.4375C12.3633 4.4375 12.3636 4.4375 12.3638 4.4375C12.3641 4.4375 12.3643 4.4375 12.3646 4.4375C12.3648 4.4375 12.3651 4.4375 12.3653 4.4375C12.3656 4.4375 12.3659 4.4375 12.3661 4.4375C12.3664 4.4375 12.3666 4.4375 12.3669 4.4375C12.3671 4.4375 12.3674 4.4375 12.3676 4.4375C12.3679 4.4375 12.3681 4.4375 12.3684 4.4375C12.3687 4.4375 12.3689 4.4375 12.3692 4.4375C12.3694 4.4375 12.3697 4.4375 12.3699 4.4375C12.3702 4.4375 12.3704 4.4375 12.3707 4.4375C12.3709 4.4375 12.3712 4.4375 12.3714 4.4375C12.3717 4.4375 12.372 4.4375 12.3722 4.4375C12.3725 4.4375 12.3727 4.4375 12.373 4.4375C12.3732 4.4375 12.3735 4.4375 12.3737 4.4375C12.374 4.4375 12.3742 4.4375 12.3745 4.4375C12.3748 4.4375 12.375 4.4375 12.3753 4.4375C12.3755 4.4375 12.3758 4.4375 12.376 4.4375C12.3763 4.4375 12.3765 4.4375 12.3768 4.4375C12.377 4.4375 12.3773 4.4375 12.3775 4.4375C12.3778 4.4375 12.3781 4.4375 12.3783 4.4375C12.3786 4.4375 12.3788 4.4375 12.3791 4.4375C12.3793 4.4375 12.3796 4.4375 12.3798 4.4375C12.3801 4.4375 12.3803 4.4375 12.3806 4.4375C12.3808 4.4375 12.3811 4.4375 12.3814 4.4375C12.3816 4.4375 12.3819 4.4375 12.3821 4.4375C12.3824 4.4375 12.3826 4.4375 12.3829 4.4375C12.3831 4.4375 12.3834 4.4375 12.3836 4.4375C12.3839 4.4375 12.3841 4.4375 12.3844 4.4375C12.3847 4.4375 12.3849 4.4375 12.3852 4.4375C12.3854 4.4375 12.3857 4.4375 12.3859 4.4375C12.3862 4.4375 12.3864 4.4375 12.3867 4.4375C12.3869 4.4375 12.3872 4.4375 12.3875 4.4375C12.3877 4.4375 12.388 4.4375 12.3882 4.4375C12.3885 4.4375 12.3887 4.4375 12.389 4.4375C12.3892 4.4375 12.3895 4.4375 12.3897 4.4375C12.39 4.4375 12.3902 4.4375 12.3905 4.4375C12.3908 4.4375 12.391 4.4375 12.3913 4.4375C12.3915 4.4375 12.3918 4.4375 12.392 4.4375C12.3923 4.4375 12.3925 4.4375 12.3928 4.4375V2.4375C12.3925 2.4375 12.3923 2.4375 12.392 2.4375C12.3918 2.4375 12.3915 2.4375 12.3913 2.4375C12.391 2.4375 12.3908 2.4375 12.3905 2.4375C12.3902 2.4375 12.39 2.4375 12.3897 2.4375C12.3895 2.4375 12.3892 2.4375 12.389 2.4375C12.3887 2.4375 12.3885 2.4375 12.3882 2.4375C12.388 2.4375 12.3877 2.4375 12.3875 2.4375C12.3872 2.4375 12.3869 2.4375 12.3867 2.4375C12.3864 2.4375 12.3862 2.4375 12.3859 2.4375C12.3857 2.4375 12.3854 2.4375 12.3852 2.4375C12.3849 2.4375 12.3847 2.4375 12.3844 2.4375C12.3841 2.4375 12.3839 2.4375 12.3836 2.4375C12.3834 2.4375 12.3831 2.4375 12.3829 2.4375C12.3826 2.4375 12.3824 2.4375 12.3821 2.4375C12.3819 2.4375 12.3816 2.4375 12.3814 2.4375C12.3811 2.4375 12.3808 2.4375 12.3806 2.4375C12.3803 2.4375 12.3801 2.4375 12.3798 2.4375C12.3796 2.4375 12.3793 2.4375 12.3791 2.4375C12.3788 2.4375 12.3786 2.4375 12.3783 2.4375C12.3781 2.4375 12.3778 2.4375 12.3775 2.4375C12.3773 2.4375 12.377 2.4375 12.3768 2.4375C12.3765 2.4375 12.3763 2.4375 12.376 2.4375C12.3758 2.4375 12.3755 2.4375 12.3753 2.4375C12.375 2.4375 12.3748 2.4375 12.3745 2.4375C12.3742 2.4375 12.374 2.4375 12.3737 2.4375C12.3735 2.4375 12.3732 2.4375 12.373 2.4375C12.3727 2.4375 12.3725 2.4375 12.3722 2.4375C12.372 2.4375 12.3717 2.4375 12.3714 2.4375C12.3712 2.4375 12.3709 2.4375 12.3707 2.4375C12.3704 2.4375 12.3702 2.4375 12.3699 2.4375C12.3697 2.4375 12.3694 2.4375 12.3692 2.4375C12.3689 2.4375 12.3687 2.4375 12.3684 2.4375C12.3681 2.4375 12.3679 2.4375 12.3676 2.4375C12.3674 2.4375 12.3671 2.4375 12.3669 2.4375C12.3666 2.4375 12.3664 2.4375 12.3661 2.4375C12.3659 2.4375 12.3656 2.4375 12.3653 2.4375C12.3651 2.4375 12.3648 2.4375 12.3646 2.4375C12.3643 2.4375 12.3641 2.4375 12.3638 2.4375C12.3636 2.4375 12.3633 2.4375 12.3631 2.4375C12.3628 2.4375 12.3626 2.4375 12.3623 2.4375C12.362 2.4375 12.3618 2.4375 12.3615 2.4375C12.3613 2.4375 12.361 2.4375 12.3608 2.4375C12.3605 2.4375 12.3603 2.4375 12.36 2.4375C12.3598 2.4375 12.3595 2.4375 12.3592 2.4375C12.359 2.4375 12.3587 2.4375 12.3585 2.4375C12.3582 2.4375 12.358 2.4375 12.3577 2.4375C12.3575 2.4375 12.3572 2.4375 12.357 2.4375C12.3567 2.4375 12.3564 2.4375 12.3562 2.4375C12.3559 2.4375 12.3557 2.4375 12.3554 2.4375C12.3552 2.4375 12.3549 2.4375 12.3547 2.4375C12.3544 2.4375 12.3542 2.4375 12.3539 2.4375C12.3537 2.4375 12.3534 2.4375 12.3531 2.4375C12.3529 2.4375 12.3526 2.4375 12.3524 2.4375C12.3521 2.4375 12.3519 2.4375 12.3516 2.4375C12.3514 2.4375 12.3511 2.4375 12.3509 2.4375C12.3506 2.4375 12.3503 2.4375 12.3501 2.4375C12.3498 2.4375 12.3496 2.4375 12.3493 2.4375C12.3491 2.4375 12.3488 2.4375 12.3486 2.4375C12.3483 2.4375 12.3481 2.4375 12.3478 2.4375C12.3475 2.4375 12.3473 2.4375 12.347 2.4375C12.3468 2.4375 12.3465 2.4375 12.3463 2.4375C12.346 2.4375 12.3458 2.4375 12.3455 2.4375C12.3453 2.4375 12.345 2.4375 12.3448 2.4375C12.3445 2.4375 12.3442 2.4375 12.344 2.4375C12.3437 2.4375 12.3435 2.4375 12.3432 2.4375C12.343 2.4375 12.3427 2.4375 12.3425 2.4375C12.3422 2.4375 12.342 2.4375 12.3417 2.4375C12.3414 2.4375 12.3412 2.4375 12.3409 2.4375C12.3407 2.4375 12.3404 2.4375 12.3402 2.4375C12.3399 2.4375 12.3397 2.4375 12.3394 2.4375C12.3392 2.4375 12.3389 2.4375 12.3386 2.4375C12.3384 2.4375 12.3381 2.4375 12.3379 2.4375C12.3376 2.4375 12.3374 2.4375 12.3371 2.4375C12.3369 2.4375 12.3366 2.4375 12.3364 2.4375C12.3361 2.4375 12.3358 2.4375 12.3356 2.4375C12.3353 2.4375 12.3351 2.4375 12.3348 2.4375C12.3346 2.4375 12.3343 2.4375 12.3341 2.4375C12.3338 2.4375 12.3336 2.4375 12.3333 2.4375C12.333 2.4375 12.3328 2.4375 12.3325 2.4375C12.3323 2.4375 12.332 2.4375 12.3318 2.4375C12.3315 2.4375 12.3313 2.4375 12.331 2.4375C12.3308 2.4375 12.3305 2.4375 12.3302 2.4375C12.33 2.4375 12.3297 2.4375 12.3295 2.4375C12.3292 2.4375 12.329 2.4375 12.3287 2.4375C12.3285 2.4375 12.3282 2.4375 12.328 2.4375C12.3277 2.4375 12.3274 2.4375 12.3272 2.4375C12.3269 2.4375 12.3267 2.4375 12.3264 2.4375C12.3262 2.4375 12.3259 2.4375 12.3257 2.4375C12.3254 2.4375 12.3252 2.4375 12.3249 2.4375C12.3246 2.4375 12.3244 2.4375 12.3241 2.4375C12.3239 2.4375 12.3236 2.4375 12.3234 2.4375C12.3231 2.4375 12.3229 2.4375 12.3226 2.4375C12.3224 2.4375 12.3221 2.4375 12.3218 2.4375C12.3216 2.4375 12.3213 2.4375 12.3211 2.4375C12.3208 2.4375 12.3206 2.4375 12.3203 2.4375C12.3201 2.4375 12.3198 2.4375 12.3196 2.4375C12.3193 2.4375 12.319 2.4375 12.3188 2.4375C12.3185 2.4375 12.3183 2.4375 12.318 2.4375C12.3178 2.4375 12.3175 2.4375 12.3173 2.4375C12.317 2.4375 12.3168 2.4375 12.3165 2.4375C12.3162 2.4375 12.316 2.4375 12.3157 2.4375C12.3155 2.4375 12.3152 2.4375 12.315 2.4375C12.3147 2.4375 12.3145 2.4375 12.3142 2.4375C12.314 2.4375 12.3137 2.4375 12.3134 2.4375C12.3132 2.4375 12.3129 2.4375 12.3127 2.4375C12.3124 2.4375 12.3122 2.4375 12.3119 2.4375C12.3117 2.4375 12.3114 2.4375 12.3111 2.4375C12.3109 2.4375 12.3106 2.4375 12.3104 2.4375C12.3101 2.4375 12.3099 2.4375 12.3096 2.4375C12.3094 2.4375 12.3091 2.4375 12.3089 2.4375C12.3086 2.4375 12.3083 2.4375 12.3081 2.4375C12.3078 2.4375 12.3076 2.4375 12.3073 2.4375C12.3071 2.4375 12.3068 2.4375 12.3066 2.4375C12.3063 2.4375 12.3061 2.4375 12.3058 2.4375C12.3055 2.4375 12.3053 2.4375 12.305 2.4375C12.3048 2.4375 12.3045 2.4375 12.3043 2.4375C12.304 2.4375 12.3038 2.4375 12.3035 2.4375C12.3033 2.4375 12.303 2.4375 12.3027 2.4375C12.3025 2.4375 12.3022 2.4375 12.302 2.4375C12.3017 2.4375 12.3015 2.4375 12.3012 2.4375C12.301 2.4375 12.3007 2.4375 12.3004 2.4375C12.3002 2.4375 12.2999 2.4375 12.2997 2.4375C12.2994 2.4375 12.2992 2.4375 12.2989 2.4375C12.2987 2.4375 12.2984 2.4375 12.2982 2.4375C12.2979 2.4375 12.2976 2.4375 12.2974 2.4375C12.2971 2.4375 12.2969 2.4375 12.2966 2.4375C12.2964 2.4375 12.2961 2.4375 12.2959 2.4375C12.2956 2.4375 12.2954 2.4375 12.2951 2.4375C12.2948 2.4375 12.2946 2.4375 12.2943 2.4375C12.2941 2.4375 12.2938 2.4375 12.2936 2.4375C12.2933 2.4375 12.2931 2.4375 12.2928 2.4375C12.2925 2.4375 12.2923 2.4375 12.292 2.4375C12.2918 2.4375 12.2915 2.4375 12.2913 2.4375C12.291 2.4375 12.2908 2.4375 12.2905 2.4375C12.2903 2.4375 12.29 2.4375 12.2897 2.4375C12.2895 2.4375 12.2892 2.4375 12.289 2.4375C12.2887 2.4375 12.2885 2.4375 12.2882 2.4375C12.288 2.4375 12.2877 2.4375 12.2874 2.4375C12.2872 2.4375 12.2869 2.4375 12.2867 2.4375C12.2864 2.4375 12.2862 2.4375 12.2859 2.4375C12.2857 2.4375 12.2854 2.4375 12.2852 2.4375C12.2849 2.4375 12.2846 2.4375 12.2844 2.4375C12.2841 2.4375 12.2839 2.4375 12.2836 2.4375C12.2834 2.4375 12.2831 2.4375 12.2829 2.4375C12.2826 2.4375 12.2823 2.4375 12.2821 2.4375C12.2818 2.4375 12.2816 2.4375 12.2813 2.4375C12.2811 2.4375 12.2808 2.4375 12.2806 2.4375C12.2803 2.4375 12.2801 2.4375 12.2798 2.4375C12.2795 2.4375 12.2793 2.4375 12.279 2.4375C12.2788 2.4375 12.2785 2.4375 12.2783 2.4375C12.278 2.4375 12.2778 2.4375 12.2775 2.4375C12.2772 2.4375 12.277 2.4375 12.2767 2.4375C12.2765 2.4375 12.2762 2.4375 12.276 2.4375C12.2757 2.4375 12.2755 2.4375 12.2752 2.4375C12.275 2.4375 12.2747 2.4375 12.2744 2.4375C12.2742 2.4375 12.2739 2.4375 12.2737 2.4375C12.2734 2.4375 12.2732 2.4375 12.2729 2.4375C12.2727 2.4375 12.2724 2.4375 12.2721 2.4375C12.2719 2.4375 12.2716 2.4375 12.2714 2.4375C12.2711 2.4375 12.2709 2.4375 12.2706 2.4375C12.2704 2.4375 12.2701 2.4375 12.2699 2.4375C12.2696 2.4375 12.2693 2.4375 12.2691 2.4375C12.2688 2.4375 12.2686 2.4375 12.2683 2.4375C12.2681 2.4375 12.2678 2.4375 12.2676 2.4375C12.2673 2.4375 12.267 2.4375 12.2668 2.4375C12.2665 2.4375 12.2663 2.4375 12.266 2.4375C12.2658 2.4375 12.2655 2.4375 12.2653 2.4375C12.265 2.4375 12.2647 2.4375 12.2645 2.4375C12.2642 2.4375 12.264 2.4375 12.2637 2.4375C12.2635 2.4375 12.2632 2.4375 12.263 2.4375C12.2627 2.4375 12.2625 2.4375 12.2622 2.4375C12.2619 2.4375 12.2617 2.4375 12.2614 2.4375C12.2612 2.4375 12.2609 2.4375 12.2607 2.4375C12.2604 2.4375 12.2602 2.4375 12.2599 2.4375C12.2596 2.4375 12.2594 2.4375 12.2591 2.4375C12.2589 2.4375 12.2586 2.4375 12.2584 2.4375C12.2581 2.4375 12.2579 2.4375 12.2576 2.4375C12.2573 2.4375 12.2571 2.4375 12.2568 2.4375C12.2566 2.4375 12.2563 2.4375 12.2561 2.4375C12.2558 2.4375 12.2556 2.4375 12.2553 2.4375C12.255 2.4375 12.2548 2.4375 12.2545 2.4375C12.2543 2.4375 12.254 2.4375 12.2538 2.4375C12.2535 2.4375 12.2533 2.4375 12.253 2.4375C12.2528 2.4375 12.2525 2.4375 12.2522 2.4375C12.252 2.4375 12.2517 2.4375 12.2515 2.4375C12.2512 2.4375 12.251 2.4375 12.2507 2.4375C12.2505 2.4375 12.2502 2.4375 12.2499 2.4375C12.2497 2.4375 12.2494 2.4375 12.2492 2.4375C12.2489 2.4375 12.2487 2.4375 12.2484 2.4375C12.2482 2.4375 12.2479 2.4375 12.2476 2.4375C12.2474 2.4375 12.2471 2.4375 12.2469 2.4375C12.2466 2.4375 12.2464 2.4375 12.2461 2.4375C12.2459 2.4375 12.2456 2.4375 12.2453 2.4375C12.2451 2.4375 12.2448 2.4375 12.2446 2.4375C12.2443 2.4375 12.2441 2.4375 12.2438 2.4375C12.2436 2.4375 12.2433 2.4375 12.243 2.4375C12.2428 2.4375 12.2425 2.4375 12.2423 2.4375C12.242 2.4375 12.2418 2.4375 12.2415 2.4375C12.2413 2.4375 12.241 2.4375 12.2407 2.4375C12.2405 2.4375 12.2402 2.4375 12.24 2.4375C12.2397 2.4375 12.2395 2.4375 12.2392 2.4375C12.239 2.4375 12.2387 2.4375 12.2385 2.4375C12.2382 2.4375 12.2379 2.4375 12.2377 2.4375C12.2374 2.4375 12.2372 2.4375 12.2369 2.4375C12.2367 2.4375 12.2364 2.4375 12.2362 2.4375C12.2359 2.4375 12.2356 2.4375 12.2354 2.4375C12.2351 2.4375 12.2349 2.4375 12.2346 2.4375C12.2344 2.4375 12.2341 2.4375 12.2339 2.4375C12.2336 2.4375 12.2333 2.4375 12.2331 2.4375C12.2328 2.4375 12.2326 2.4375 12.2323 2.4375C12.2321 2.4375 12.2318 2.4375 12.2316 2.4375C12.2313 2.4375 12.231 2.4375 12.2308 2.4375C12.2305 2.4375 12.2303 2.4375 12.23 2.4375C12.2298 2.4375 12.2295 2.4375 12.2293 2.4375C12.229 2.4375 12.2287 2.4375 12.2285 2.4375C12.2282 2.4375 12.228 2.4375 12.2277 2.4375C12.2275 2.4375 12.2272 2.4375 12.227 2.4375C12.2267 2.4375 12.2264 2.4375 12.2262 2.4375C12.2259 2.4375 12.2257 2.4375 12.2254 2.4375C12.2252 2.4375 12.2249 2.4375 12.2247 2.4375C12.2244 2.4375 12.2241 2.4375 12.2239 2.4375C12.2236 2.4375 12.2234 2.4375 12.2231 2.4375C12.2229 2.4375 12.2226 2.4375 12.2224 2.4375C12.2221 2.4375 12.2218 2.4375 12.2216 2.4375C12.2213 2.4375 12.2211 2.4375 12.2208 2.4375C12.2206 2.4375 12.2203 2.4375 12.2201 2.4375C12.2198 2.4375 12.2195 2.4375 12.2193 2.4375C12.219 2.4375 12.2188 2.4375 12.2185 2.4375C12.2183 2.4375 12.218 2.4375 12.2178 2.4375C12.2175 2.4375 12.2172 2.4375 12.217 2.4375C12.2167 2.4375 12.2165 2.4375 12.2162 2.4375C12.216 2.4375 12.2157 2.4375 12.2154 2.4375C12.2152 2.4375 12.2149 2.4375 12.2147 2.4375C12.2144 2.4375 12.2142 2.4375 12.2139 2.4375C12.2137 2.4375 12.2134 2.4375 12.2131 2.4375C12.2129 2.4375 12.2126 2.4375 12.2124 2.4375C12.2121 2.4375 12.2119 2.4375 12.2116 2.4375C12.2114 2.4375 12.2111 2.4375 12.2108 2.4375C12.2106 2.4375 12.2103 2.4375 12.2101 2.4375C12.2098 2.4375 12.2096 2.4375 12.2093 2.4375C12.2091 2.4375 12.2088 2.4375 12.2085 2.4375C12.2083 2.4375 12.208 2.4375 12.2078 2.4375C12.2075 2.4375 12.2073 2.4375 12.207 2.4375C12.2068 2.4375 12.2065 2.4375 12.2062 2.4375C12.206 2.4375 12.2057 2.4375 12.2055 2.4375C12.2052 2.4375 12.205 2.4375 12.2047 2.4375C12.2045 2.4375 12.2042 2.4375 12.2039 2.4375C12.2037 2.4375 12.2034 2.4375 12.2032 2.4375C12.2029 2.4375 12.2027 2.4375 12.2024 2.4375C12.2022 2.4375 12.2019 2.4375 12.2016 2.4375C12.2014 2.4375 12.2011 2.4375 12.2009 2.4375C12.2006 2.4375 12.2004 2.4375 12.2001 2.4375C12.1998 2.4375 12.1996 2.4375 12.1993 2.4375C12.1991 2.4375 12.1988 2.4375 12.1986 2.4375C12.1983 2.4375 12.1981 2.4375 12.1978 2.4375C12.1975 2.4375 12.1973 2.4375 12.197 2.4375C12.1968 2.4375 12.1965 2.4375 12.1963 2.4375C12.196 2.4375 12.1958 2.4375 12.1955 2.4375C12.1952 2.4375 12.195 2.4375 12.1947 2.4375C12.1945 2.4375 12.1942 2.4375 12.194 2.4375C12.1937 2.4375 12.1935 2.4375 12.1932 2.4375C12.1929 2.4375 12.1927 2.4375 12.1924 2.4375C12.1922 2.4375 12.1919 2.4375 12.1917 2.4375C12.1914 2.4375 12.1911 2.4375 12.1909 2.4375C12.1906 2.4375 12.1904 2.4375 12.1901 2.4375C12.1899 2.4375 12.1896 2.4375 12.1894 2.4375C12.1891 2.4375 12.1888 2.4375 12.1886 2.4375C12.1883 2.4375 12.1881 2.4375 12.1878 2.4375C12.1876 2.4375 12.1873 2.4375 12.1871 2.4375C12.1868 2.4375 12.1865 2.4375 12.1863 2.4375C12.186 2.4375 12.1858 2.4375 12.1855 2.4375C12.1853 2.4375 12.185 2.4375 12.1848 2.4375C12.1845 2.4375 12.1842 2.4375 12.184 2.4375C12.1837 2.4375 12.1835 2.4375 12.1832 2.4375C12.183 2.4375 12.1827 2.4375 12.1824 2.4375C12.1822 2.4375 12.1819 2.4375 12.1817 2.4375C12.1814 2.4375 12.1812 2.4375 12.1809 2.4375C12.1807 2.4375 12.1804 2.4375 12.1801 2.4375C12.1799 2.4375 12.1796 2.4375 12.1794 2.4375C12.1791 2.4375 12.1789 2.4375 12.1786 2.4375C12.1783 2.4375 12.1781 2.4375 12.1778 2.4375C12.1776 2.4375 12.1773 2.4375 12.1771 2.4375C12.1768 2.4375 12.1766 2.4375 12.1763 2.4375C12.176 2.4375 12.1758 2.4375 12.1755 2.4375C12.1753 2.4375 12.175 2.4375 12.1748 2.4375C12.1745 2.4375 12.1743 2.4375 12.174 2.4375C12.1737 2.4375 12.1735 2.4375 12.1732 2.4375C12.173 2.4375 12.1727 2.4375 12.1725 2.4375C12.1722 2.4375 12.1719 2.4375 12.1717 2.4375C12.1714 2.4375 12.1712 2.4375 12.1709 2.4375C12.1707 2.4375 12.1704 2.4375 12.1702 2.4375C12.1699 2.4375 12.1696 2.4375 12.1694 2.4375C12.1691 2.4375 12.1689 2.4375 12.1686 2.4375C12.1684 2.4375 12.1681 2.4375 12.1678 2.4375C12.1676 2.4375 12.1673 2.4375 12.1671 2.4375C12.1668 2.4375 12.1666 2.4375 12.1663 2.4375C12.1661 2.4375 12.1658 2.4375 12.1655 2.4375C12.1653 2.4375 12.165 2.4375 12.1648 2.4375C12.1645 2.4375 12.1643 2.4375 12.164 2.4375C12.1638 2.4375 12.1635 2.4375 12.1632 2.4375C12.163 2.4375 12.1627 2.4375 12.1625 2.4375C12.1622 2.4375 12.162 2.4375 12.1617 2.4375C12.1614 2.4375 12.1612 2.4375 12.1609 2.4375C12.1607 2.4375 12.1604 2.4375 12.1602 2.4375C12.1599 2.4375 12.1597 2.4375 12.1594 2.4375C12.1591 2.4375 12.1589 2.4375 12.1586 2.4375C12.1584 2.4375 12.1581 2.4375 12.1579 2.4375C12.1576 2.4375 12.1573 2.4375 12.1571 2.4375C12.1568 2.4375 12.1566 2.4375 12.1563 2.4375C12.1561 2.4375 12.1558 2.4375 12.1556 2.4375C12.1553 2.4375 12.155 2.4375 12.1548 2.4375C12.1545 2.4375 12.1543 2.4375 12.154 2.4375C12.1538 2.4375 12.1535 2.4375 12.1532 2.4375C12.153 2.4375 12.1527 2.4375 12.1525 2.4375C12.1522 2.4375 12.152 2.4375 12.1517 2.4375C12.1515 2.4375 12.1512 2.4375 12.1509 2.4375C12.1507 2.4375 12.1504 2.4375 12.1502 2.4375C12.1499 2.4375 12.1497 2.4375 12.1494 2.4375C12.1491 2.4375 12.1489 2.4375 12.1486 2.4375C12.1484 2.4375 12.1481 2.4375 12.1479 2.4375C12.1476 2.4375 12.1473 2.4375 12.1471 2.4375C12.1468 2.4375 12.1466 2.4375 12.1463 2.4375C12.1461 2.4375 12.1458 2.4375 12.1456 2.4375C12.1453 2.4375 12.145 2.4375 12.1448 2.4375C12.1445 2.4375 12.1443 2.4375 12.144 2.4375C12.1438 2.4375 12.1435 2.4375 12.1432 2.4375C12.143 2.4375 12.1427 2.4375 12.1425 2.4375C12.1422 2.4375 12.142 2.4375 12.1417 2.4375C12.1415 2.4375 12.1412 2.4375 12.1409 2.4375C12.1407 2.4375 12.1404 2.4375 12.1402 2.4375C12.1399 2.4375 12.1397 2.4375 12.1394 2.4375C12.1391 2.4375 12.1389 2.4375 12.1386 2.4375C12.1384 2.4375 12.1381 2.4375 12.1379 2.4375C12.1376 2.4375 12.1374 2.4375 12.1371 2.4375C12.1368 2.4375 12.1366 2.4375 12.1363 2.4375C12.1361 2.4375 12.1358 2.4375 12.1356 2.4375C12.1353 2.4375 12.135 2.4375 12.1348 2.4375C12.1345 2.4375 12.1343 2.4375 12.134 2.4375C12.1338 2.4375 12.1335 2.4375 12.1332 2.4375C12.133 2.4375 12.1327 2.4375 12.1325 2.4375C12.1322 2.4375 12.132 2.4375 12.1317 2.4375C12.1315 2.4375 12.1312 2.4375 12.1309 2.4375C12.1307 2.4375 12.1304 2.4375 12.1302 2.4375C12.1299 2.4375 12.1297 2.4375 12.1294 2.4375C12.1291 2.4375 12.1289 2.4375 12.1286 2.4375C12.1284 2.4375 12.1281 2.4375 12.1279 2.4375C12.1276 2.4375 12.1273 2.4375 12.1271 2.4375C12.1268 2.4375 12.1266 2.4375 12.1263 2.4375C12.1261 2.4375 12.1258 2.4375 12.1256 2.4375C12.1253 2.4375 12.125 2.4375 12.1248 2.4375C12.1245 2.4375 12.1243 2.4375 12.124 2.4375C12.1238 2.4375 12.1235 2.4375 12.1232 2.4375C12.123 2.4375 12.1227 2.4375 12.1225 2.4375C12.1222 2.4375 12.122 2.4375 12.1217 2.4375C12.1214 2.4375 12.1212 2.4375 12.1209 2.4375C12.1207 2.4375 12.1204 2.4375 12.1202 2.4375C12.1199 2.4375 12.1196 2.4375 12.1194 2.4375C12.1191 2.4375 12.1189 2.4375 12.1186 2.4375C12.1184 2.4375 12.1181 2.4375 12.1179 2.4375C12.1176 2.4375 12.1173 2.4375 12.1171 2.4375C12.1168 2.4375 12.1166 2.4375 12.1163 2.4375C12.1161 2.4375 12.1158 2.4375 12.1155 2.4375C12.1153 2.4375 12.115 2.4375 12.1148 2.4375C12.1145 2.4375 12.1143 2.4375 12.114 2.4375C12.1137 2.4375 12.1135 2.4375 12.1132 2.4375C12.113 2.4375 12.1127 2.4375 12.1125 2.4375C12.1122 2.4375 12.1119 2.4375 12.1117 2.4375C12.1114 2.4375 12.1112 2.4375 12.1109 2.4375C12.1107 2.4375 12.1104 2.4375 12.1102 2.4375C12.1099 2.4375 12.1096 2.4375 12.1094 2.4375C12.1091 2.4375 12.1089 2.4375 12.1086 2.4375C12.1084 2.4375 12.1081 2.4375 12.1078 2.4375C12.1076 2.4375 12.1073 2.4375 12.1071 2.4375C12.1068 2.4375 12.1066 2.4375 12.1063 2.4375C12.106 2.4375 12.1058 2.4375 12.1055 2.4375C12.1053 2.4375 12.105 2.4375 12.1048 2.4375C12.1045 2.4375 12.1042 2.4375 12.104 2.4375C12.1037 2.4375 12.1035 2.4375 12.1032 2.4375C12.103 2.4375 12.1027 2.4375 12.1024 2.4375C12.1022 2.4375 12.1019 2.4375 12.1017 2.4375C12.1014 2.4375 12.1012 2.4375 12.1009 2.4375C12.1007 2.4375 12.1004 2.4375 12.1001 2.4375C12.0999 2.4375 12.0996 2.4375 12.0994 2.4375C12.0991 2.4375 12.0989 2.4375 12.0986 2.4375C12.0983 2.4375 12.0981 2.4375 12.0978 2.4375C12.0976 2.4375 12.0973 2.4375 12.0971 2.4375C12.0968 2.4375 12.0965 2.4375 12.0963 2.4375C12.096 2.4375 12.0958 2.4375 12.0955 2.4375C12.0953 2.4375 12.095 2.4375 12.0947 2.4375C12.0945 2.4375 12.0942 2.4375 12.094 2.4375C12.0937 2.4375 12.0935 2.4375 12.0932 2.4375C12.0929 2.4375 12.0927 2.4375 12.0924 2.4375C12.0922 2.4375 12.0919 2.4375 12.0917 2.4375C12.0914 2.4375 12.0911 2.4375 12.0909 2.4375C12.0906 2.4375 12.0904 2.4375 12.0901 2.4375C12.0899 2.4375 12.0896 2.4375 12.0893 2.4375C12.0891 2.4375 12.0888 2.4375 12.0886 2.4375C12.0883 2.4375 12.0881 2.4375 12.0878 2.4375C12.0876 2.4375 12.0873 2.4375 12.087 2.4375C12.0868 2.4375 12.0865 2.4375 12.0863 2.4375C12.086 2.4375 12.0858 2.4375 12.0855 2.4375C12.0852 2.4375 12.085 2.4375 12.0847 2.4375C12.0845 2.4375 12.0842 2.4375 12.084 2.4375C12.0837 2.4375 12.0834 2.4375 12.0832 2.4375C12.0829 2.4375 12.0827 2.4375 12.0824 2.4375C12.0822 2.4375 12.0819 2.4375 12.0816 2.4375C12.0814 2.4375 12.0811 2.4375 12.0809 2.4375C12.0806 2.4375 12.0804 2.4375 12.0801 2.4375C12.0798 2.4375 12.0796 2.4375 12.0793 2.4375C12.0791 2.4375 12.0788 2.4375 12.0786 2.4375C12.0783 2.4375 12.078 2.4375 12.0778 2.4375C12.0775 2.4375 12.0773 2.4375 12.077 2.4375C12.0768 2.4375 12.0765 2.4375 12.0762 2.4375C12.076 2.4375 12.0757 2.4375 12.0755 2.4375C12.0752 2.4375 12.075 2.4375 12.0747 2.4375C12.0744 2.4375 12.0742 2.4375 12.0739 2.4375C12.0737 2.4375 12.0734 2.4375 12.0732 2.4375C12.0729 2.4375 12.0726 2.4375 12.0724 2.4375C12.0721 2.4375 12.0719 2.4375 12.0716 2.4375C12.0714 2.4375 12.0711 2.4375 12.0708 2.4375C12.0706 2.4375 12.0703 2.4375 12.0701 2.4375C12.0698 2.4375 12.0696 2.4375 12.0693 2.4375C12.069 2.4375 12.0688 2.4375 12.0685 2.4375C12.0683 2.4375 12.068 2.4375 12.0678 2.4375C12.0675 2.4375 12.0672 2.4375 12.067 2.4375C12.0667 2.4375 12.0665 2.4375 12.0662 2.4375C12.066 2.4375 12.0657 2.4375 12.0654 2.4375C12.0652 2.4375 12.0649 2.4375 12.0647 2.4375C12.0644 2.4375 12.0642 2.4375 12.0639 2.4375C12.0636 2.4375 12.0634 2.4375 12.0631 2.4375C12.0629 2.4375 12.0626 2.4375 12.0624 2.4375C12.0621 2.4375 12.0618 2.4375 12.0616 2.4375C12.0613 2.4375 12.0611 2.4375 12.0608 2.4375C12.0606 2.4375 12.0603 2.4375 12.06 2.4375C12.0598 2.4375 12.0595 2.4375 12.0593 2.4375C12.059 2.4375 12.0588 2.4375 12.0585 2.4375C12.0582 2.4375 12.058 2.4375 12.0577 2.4375C12.0575 2.4375 12.0572 2.4375 12.057 2.4375C12.0567 2.4375 12.0564 2.4375 12.0562 2.4375C12.0559 2.4375 12.0557 2.4375 12.0554 2.4375C12.0552 2.4375 12.0549 2.4375 12.0546 2.4375C12.0544 2.4375 12.0541 2.4375 12.0539 2.4375C12.0536 2.4375 12.0534 2.4375 12.0531 2.4375C12.0528 2.4375 12.0526 2.4375 12.0523 2.4375C12.0521 2.4375 12.0518 2.4375 12.0516 2.4375C12.0513 2.4375 12.051 2.4375 12.0508 2.4375C12.0505 2.4375 12.0503 2.4375 12.05 2.4375C12.0498 2.4375 12.0495 2.4375 12.0492 2.4375C12.049 2.4375 12.0487 2.4375 12.0485 2.4375C12.0482 2.4375 12.048 2.4375 12.0477 2.4375C12.0474 2.4375 12.0472 2.4375 12.0469 2.4375C12.0467 2.4375 12.0464 2.4375 12.0461 2.4375C12.0459 2.4375 12.0456 2.4375 12.0454 2.4375C12.0451 2.4375 12.0449 2.4375 12.0446 2.4375C12.0443 2.4375 12.0441 2.4375 12.0438 2.4375C12.0436 2.4375 12.0433 2.4375 12.0431 2.4375C12.0428 2.4375 12.0425 2.4375 12.0423 2.4375C12.042 2.4375 12.0418 2.4375 12.0415 2.4375C12.0413 2.4375 12.041 2.4375 12.0407 2.4375C12.0405 2.4375 12.0402 2.4375 12.04 2.4375C12.0397 2.4375 12.0395 2.4375 12.0392 2.4375C12.0389 2.4375 12.0387 2.4375 12.0384 2.4375C12.0382 2.4375 12.0379 2.4375 12.0377 2.4375C12.0374 2.4375 12.0371 2.4375 12.0369 2.4375C12.0366 2.4375 12.0364 2.4375 12.0361 2.4375C12.0359 2.4375 12.0356 2.4375 12.0353 2.4375C12.0351 2.4375 12.0348 2.4375 12.0346 2.4375C12.0343 2.4375 12.0341 2.4375 12.0338 2.4375C12.0335 2.4375 12.0333 2.4375 12.033 2.4375C12.0328 2.4375 12.0325 2.4375 12.0322 2.4375C12.032 2.4375 12.0317 2.4375 12.0315 2.4375C12.0312 2.4375 12.031 2.4375 12.0307 2.4375C12.0304 2.4375 12.0302 2.4375 12.0299 2.4375C12.0297 2.4375 12.0294 2.4375 12.0292 2.4375C12.0289 2.4375 12.0286 2.4375 12.0284 2.4375C12.0281 2.4375 12.0279 2.4375 12.0276 2.4375C12.0274 2.4375 12.0271 2.4375 12.0268 2.4375C12.0266 2.4375 12.0263 2.4375 12.0261 2.4375C12.0258 2.4375 12.0256 2.4375 12.0253 2.4375C12.025 2.4375 12.0248 2.4375 12.0245 2.4375C12.0243 2.4375 12.024 2.4375 12.0238 2.4375C12.0235 2.4375 12.0232 2.4375 12.023 2.4375C12.0227 2.4375 12.0225 2.4375 12.0222 2.4375C12.0219 2.4375 12.0217 2.4375 12.0214 2.4375C12.0212 2.4375 12.0209 2.4375 12.0207 2.4375C12.0204 2.4375 12.0201 2.4375 12.0199 2.4375C12.0196 2.4375 12.0194 2.4375 12.0191 2.4375C12.0189 2.4375 12.0186 2.4375 12.0183 2.4375C12.0181 2.4375 12.0178 2.4375 12.0176 2.4375C12.0173 2.4375 12.0171 2.4375 12.0168 2.4375C12.0165 2.4375 12.0163 2.4375 12.016 2.4375C12.0158 2.4375 12.0155 2.4375 12.0152 2.4375C12.015 2.4375 12.0147 2.4375 12.0145 2.4375C12.0142 2.4375 12.014 2.4375 12.0137 2.4375C12.0134 2.4375 12.0132 2.4375 12.0129 2.4375C12.0127 2.4375 12.0124 2.4375 12.0122 2.4375C12.0119 2.4375 12.0116 2.4375 12.0114 2.4375C12.0111 2.4375 12.0109 2.4375 12.0106 2.4375C12.0104 2.4375 12.0101 2.4375 12.0098 2.4375C12.0096 2.4375 12.0093 2.4375 12.0091 2.4375C12.0088 2.4375 12.0085 2.4375 12.0083 2.4375C12.008 2.4375 12.0078 2.4375 12.0075 2.4375C12.0073 2.4375 12.007 2.4375 12.0067 2.4375C12.0065 2.4375 12.0062 2.4375 12.006 2.4375C12.0057 2.4375 12.0055 2.4375 12.0052 2.4375C12.0049 2.4375 12.0047 2.4375 12.0044 2.4375C12.0042 2.4375 12.0039 2.4375 12.0037 2.4375C12.0034 2.4375 12.0031 2.4375 12.0029 2.4375C12.0026 2.4375 12.0024 2.4375 12.0021 2.4375C12.0018 2.4375 12.0016 2.4375 12.0013 2.4375C12.0011 2.4375 12.0008 2.4375 12.0006 2.4375C12.0003 2.4375 12 2.4375 11.9998 2.4375V4.4375ZM11.7121 2.70494C10.2561 4.05781 9.32029 5.8781 9.06721 7.84939L11.0509 8.10406C11.2445 6.5966 11.9601 5.20461 13.0735 4.17007L11.7121 2.70494ZM9.06721 7.84939C8.81414 9.82069 9.25984 11.8183 10.3269 13.4951L12.0142 12.4214C11.1982 11.1391 10.8574 9.61152 11.0509 8.10406L9.06721 7.84939ZM10.3269 13.4951C11.3939 15.1719 13.0147 16.4217 14.9076 17.0274L15.5171 15.1225C14.0696 14.6594 12.8301 13.7036 12.0142 12.4214L10.3269 13.4951ZM14.9076 17.0274C16.8006 17.6331 18.8459 17.5563 20.6881 16.8104L19.9375 14.9566C18.5287 15.527 16.9647 15.5857 15.5171 15.1225L14.9076 17.0274ZM19.3894 15.4997C18.8336 16.8371 17.9252 17.9984 16.7611 18.86L17.9509 20.4676C19.406 19.3907 20.5415 17.9389 21.2362 16.2673L19.3894 15.4997ZM16.7611 18.86C15.597 19.7215 14.2209 20.2509 12.7795 20.3916L12.9739 22.3822C14.7756 22.2062 16.4957 21.5445 17.9509 20.4676L16.7611 18.86ZM12.7795 20.3916C11.3381 20.5324 9.88559 20.2792 8.57681 19.6592L7.72053 21.4666C9.3565 22.2417 11.1722 22.5581 12.9739 22.3822L12.7795 20.3916ZM8.57681 19.6592C7.26804 19.0391 6.15212 18.0755 5.3481 16.8709L3.68464 17.9813C4.68966 19.4869 6.08456 20.6916 7.72053 21.4666L8.57681 19.6592ZM5.3481 16.8709C4.54408 15.6664 4.08211 14.2662 4.01148 12.8197L2.01386 12.9172C2.10215 14.7254 2.67961 16.4756 3.68464 17.9813L5.3481 16.8709ZM4.01148 12.8197C3.94084 11.3732 4.26419 9.93466 4.94702 8.65752L3.18329 7.71452C2.32974 9.31094 1.92556 11.1091 2.01386 12.9172L4.01148 12.8197ZM4.94702 8.65752C5.62985 7.38038 6.64657 6.31255 7.8887 5.56793L6.86039 3.85254C5.30772 4.78331 4.03683 6.11809 3.18329 7.71452L4.94702 8.65752ZM7.8887 5.56793C9.13084 4.82332 10.5518 4.42985 12 4.4295L11.9995 2.4295C10.1893 2.42994 8.41306 2.92177 6.86039 3.85254L7.8887 5.56793ZM10.9998 3.4295V3.4375H12.9998V3.4295H10.9998ZM15.9998 4.4375C15.9998 5.23315 16.3159 5.99622 16.8785 6.55882L18.2927 5.14461C18.1051 4.95707 17.9998 4.70272 17.9998 4.4375H15.9998ZM16.8785 6.55882C17.4411 7.12143 18.2041 7.4375 18.9998 7.4375V5.4375C18.7346 5.4375 18.4802 5.33215 18.2927 5.14461L16.8785 6.55882ZM18.9998 5.4375C18.2041 5.4375 17.4411 5.75357 16.8785 6.31618L18.2927 7.7304C18.4802 7.54286 18.7346 7.4375 18.9998 7.4375V5.4375ZM16.8785 6.31618C16.3159 6.87879 15.9998 7.64185 15.9998 8.4375H17.9998C17.9998 8.17229 18.1051 7.91793 18.2927 7.7304L16.8785 6.31618ZM17.9998 8.4375C17.9998 7.64185 17.6837 6.87879 17.1211 6.31618L15.7069 7.7304C15.8944 7.91793 15.9998 8.17229 15.9998 8.4375H17.9998ZM17.1211 6.31618C16.5585 5.75357 15.7954 5.4375 14.9998 5.4375V7.4375C15.265 7.4375 15.5194 7.54286 15.7069 7.7304L17.1211 6.31618ZM14.9998 7.4375C15.7954 7.4375 16.5585 7.12143 17.1211 6.55882L15.7069 5.14461C15.5194 5.33215 15.265 5.4375 14.9998 5.4375V7.4375ZM17.1211 6.55882C17.6837 5.99622 17.9998 5.23315 17.9998 4.4375H15.9998C15.9998 4.70272 15.8944 4.95707 15.7069 5.14461L17.1211 6.55882ZM18.9998 12.4375H20.9998V10.4375H18.9998V12.4375ZM18.9998 10.4375V12.4375H20.9998V10.4375H18.9998Z" fill="#D5DEEB"/>
</svg>
