<svg xmlns="http://www.w3.org/2000/svg" width="1294" height="202"><path d="M213.276 52.136 167.448 199h-25.192L106.88 82.42 71.504 199H46.312L.216 52.136H25.14l33.768 123.28 36.448-123.28h24.924l35.644 123.548 33.232-123.548h24.12Zm15.092 72.896c0-15.008 3.037-28.14 9.112-39.396 6.074-11.435 14.382-20.279 24.924-26.532 10.72-6.253 22.601-9.38 35.644-9.38 12.864 0 24.03 2.77 33.5 8.308 9.469 5.539 16.526 12.507 21.172 20.904v-26.8h24.656V199H352.72v-27.336c-4.824 8.576-12.06 15.723-21.708 21.44-9.47 5.539-20.547 8.308-33.232 8.308-13.043 0-24.835-3.216-35.376-9.648-10.542-6.432-18.85-15.455-24.924-27.068-6.075-11.613-9.112-24.835-9.112-39.664Zm124.352.268c0-11.077-2.234-20.725-6.7-28.944-4.467-8.219-10.542-14.472-18.224-18.76-7.504-4.467-15.812-6.7-24.924-6.7s-17.42 2.144-24.924 6.432c-7.504 4.288-13.49 10.541-17.956 18.76-4.467 8.219-6.7 17.867-6.7 28.944 0 11.256 2.233 21.083 6.7 29.48 4.466 8.219 10.452 14.561 17.956 19.028 7.504 4.288 15.812 6.432 24.924 6.432s17.42-2.144 24.924-6.432c7.682-4.467 13.757-10.809 18.224-19.028 4.466-8.397 6.7-18.135 6.7-29.212m120.541 51.188 45.56-124.352h25.996L487.197 199h-28.408l-57.62-146.864h26.264zm229.555-56.548c0 4.645-.268 9.559-.804 14.74H584.628c.893 14.472 5.806 25.817 14.74 34.036 9.112 8.04 20.1 12.06 32.964 12.06 10.541 0 19.296-2.412 26.264-7.236 7.146-5.003 12.149-11.613 15.008-19.832h26.264c-3.931 14.115-11.792 25.639-23.584 34.572-11.792 8.755-26.443 13.132-43.952 13.132-13.936 0-26.443-3.127-37.52-9.38-10.899-6.253-19.475-15.097-25.728-26.532-6.254-11.613-9.38-25.013-9.38-40.2 0-15.187 3.037-28.497 9.112-39.932 6.074-11.435 14.561-20.19 25.46-26.264 11.077-6.253 23.762-9.38 38.056-9.38 13.936 0 26.264 3.037 36.984 9.112 10.72 6.075 18.938 14.472 24.656 25.192 5.896 10.541 8.844 22.512 8.844 35.912m-25.192-5.092c0-9.291-2.055-17.241-6.164-23.852-4.11-6.79-9.738-11.881-16.884-15.276-6.968-3.573-14.74-5.36-23.316-5.36-12.328 0-22.87 3.93-31.624 11.792-8.576 7.861-13.49 18.76-14.74 32.696zM759.395.68V199h-24.388V.68h24.388m32.453 124.352c0-15.008 3.038-28.14 9.112-39.396 6.075-11.435 14.383-20.279 24.924-26.532 10.72-6.253 22.602-9.38 35.644-9.38 12.864 0 24.031 2.77 33.5 8.308 9.47 5.539 16.527 12.507 21.172 20.904v-26.8h24.656V199H916.2v-27.336c-4.824 8.576-12.06 15.723-21.708 21.44-9.469 5.539-20.546 8.308-33.232 8.308-13.042 0-24.834-3.216-35.376-9.648-10.541-6.432-18.849-15.455-24.924-27.068-6.074-11.613-9.112-24.835-9.112-39.664m124.352.268c0-11.077-2.233-20.725-6.7-28.944-4.466-8.219-10.541-14.472-18.224-18.76-7.504-4.467-15.812-6.7-24.924-6.7s-17.42 2.144-24.924 6.432c-7.504 4.288-13.489 10.541-17.956 18.76-4.466 8.219-6.7 17.867-6.7 28.944 0 11.256 2.234 21.083 6.7 29.48 4.467 8.219 10.452 14.561 17.956 19.028 7.504 4.288 15.812 6.432 24.924 6.432s17.42-2.144 24.924-6.432c7.683-4.467 13.758-10.809 18.224-19.028 4.467-8.397 6.7-18.135 6.7-29.212m137.43-75.844c17.86 0 32.33 5.45 43.41 16.348 11.08 10.72 16.62 26.264 16.62 46.632V199h-24.12v-83.08c0-14.651-3.67-25.817-10.99-33.5-7.33-7.861-17.33-11.792-30.02-11.792-12.86 0-23.13 4.02-30.82 12.06-7.5 8.04-11.25 19.743-11.25 35.108V199h-24.39V52.136h24.39V73.04c4.82-7.504 11.34-13.31 19.56-17.42 8.4-4.11 17.6-6.164 27.61-6.164m90.75 75.576c0-15.008 3.04-28.14 9.12-39.396 6.07-11.435 14.38-20.279 24.92-26.532 10.72-6.253 22.69-9.38 35.91-9.38 11.44 0 22.07 2.68 31.89 8.04 9.83 5.181 17.33 12.06 22.52 20.636V.68h24.65V199h-24.65v-27.604c-4.83 8.755-11.98 15.991-21.44 21.708-9.47 5.539-20.55 8.308-33.24 8.308-13.04 0-24.92-3.216-35.64-9.648-10.54-6.432-18.85-15.455-24.92-27.068-6.08-11.613-9.12-24.835-9.12-39.664m124.36.268c0-11.077-2.24-20.725-6.7-28.944-4.47-8.219-10.55-14.472-18.23-18.76-7.5-4.467-15.81-6.7-24.92-6.7-9.11 0-17.42 2.144-24.93 6.432-7.5 4.288-13.49 10.541-17.95 18.76-4.47 8.219-6.7 17.867-6.7 28.944 0 11.256 2.23 21.083 6.7 29.48 4.46 8.219 10.45 14.561 17.95 19.028 7.51 4.288 15.82 6.432 24.93 6.432s17.42-2.144 24.92-6.432c7.68-4.467 13.76-10.809 18.23-19.028 4.46-8.397 6.7-18.135 6.7-29.212"/></svg>