<svg xmlns="http://www.w3.org/2000/svg" width="300" height="337" fill="none"><mask id="a" width="300" height="337" x="0" y="0" maskUnits="userSpaceOnUse" style="mask-type:luminance"><path fill="#fff" d="M0 0h299.665v336.667H0z"/></mask><g mask="url(#a)"><mask id="b" width="300" height="337" x="0" y="0" maskUnits="userSpaceOnUse" style="mask-type:luminance"><path fill="#fff" d="M299.208.457H.456v336.101h298.752V.457Z"/></mask><g mask="url(#b)"><path fill="#D5DEEB" fill-opacity=".5" d="M93.268 336.546c3.288 0 6.577-.067 9.8-.202 13.761-.537 20.474-11.815 27.524-23.831 5.235-8.793 10.607-17.924 19.198-23.227 8.592-5.304 18.059-8.794 27.255-12.218 18.797-6.981 36.586-13.56 41.286-34.236 1.677-7.384 3.155-14.903 4.565-22.287 4.43-22.958 9.063-46.655 20.34-67.331 6.242-11.479 14.566-21.951 22.555-32.089a512.007 512.007 0 0 0 8.861-11.411c9.399-12.285 20.474-28.934 23.495-47.865 2.888-18.325-3.22-36.517-15.506-46.453-11.948-9.532-32.692-10.54-44.441-2.08-4.43 3.22-13.559 4.027-22.421 4.832-10.876 1.008-22.085 2.082-26.113 7.385-4.029 5.303-6.311 11.747-8.258 17.386-3.624 10.338-6.511 18.527-18.124 15.574-13.36-3.357-21.415 5.84-28.599 13.963-5.167 5.908-10.135 11.479-16.177 11.277-5.036-.134-10.606-4.229-17.118-12.417-2.082-2.62-4.229-5.44-6.445-8.325-22.489-29-53.302-68.808-78.542-61.29-14.097 4.163-6.915 44.105-1.14 76.126 2.416 13.358 4.496 24.905 4.43 31.081-.068 8.793-4.834 18.998-9.466 28.798-6.176 13.09-12.553 26.652-8.123 37.66 3.49 8.727 12.42 17.253 21.818 26.248 10.942 10.473 22.22 21.281 24.033 32.291 1.677 10.405-.873 20.943-3.425 31.081-2.685 10.808-5.437 22.017-3.02 33.027 2.753 12.823 7.854 22.355 15.104 28.463 9.666 8.324 22.958 10.07 36.654 10.07M258.339 8.212c8.66 0 17.521 2.62 23.899 7.721 12.084 9.734 18.058 27.657 15.171 45.783-2.954 18.729-14.029 35.31-23.294 47.663-2.885 3.825-5.906 7.651-8.861 11.411-8.055 10.137-16.313 20.676-22.623 32.223-11.277 20.743-15.91 44.574-20.406 67.532-1.41 7.318-2.888 14.903-4.567 22.219-4.63 20.341-22.219 26.854-40.882 33.769-9.197 3.422-18.729 6.912-27.389 12.283-8.66 5.304-14.164 14.568-19.4 23.43-6.982 11.814-13.56 22.958-26.985 23.427-16.784.671-34.17.471-46.254-9.6-7.116-5.974-12.15-15.439-14.835-28.06-2.35-10.874.403-22.018 3.02-32.692 2.55-10.271 5.17-20.81 3.423-31.35-1.811-11.21-13.224-22.086-24.234-32.624-9.397-8.929-18.192-17.387-21.614-25.981-4.297-10.74 2.012-24.166 8.122-37.123 4.699-9.868 9.465-20.071 9.533-29.066 0-6.244-2.081-17.79-4.431-31.149-5.437-30.142-12.889-71.36.67-75.387 24.84-7.384 55.517 32.155 77.872 61.09 2.215 2.884 4.363 5.638 6.444 8.323 6.579 8.39 12.353 12.554 17.588 12.753 6.378.136 11.413-5.503 16.717-11.479 7.114-8.054 15.103-17.05 27.992-13.829 12.285 3.09 15.44-5.772 18.998-16.11 1.947-5.64 4.161-11.95 8.191-17.253 3.825-5.033 14.901-6.108 25.643-7.048 9.397-.873 18.192-1.68 22.757-4.968 5.303-4.027 12.419-5.908 19.735-5.908Z"/></g><path fill="#D5DEEB" fill-opacity=".5" d="M95.55 331.242c3.155 0 6.378-.066 9.533-.201 13.224-.538 19.669-11.344 26.448-22.757 4.968-8.392 10.205-17.118 18.394-22.085 8.19-5.036 17.253-8.458 26.047-11.681 17.99-6.713 35.042-13.023 39.54-32.826 1.61-7.184 3.087-14.568 4.497-21.684 4.297-21.818 8.727-44.441 19.334-64.176 5.974-11.01 13.829-21.011 21.414-30.745 2.82-3.558 5.705-7.25 8.459-10.942 9.799-13.091 15.775-23.563 19.334-34.104 1.341-3.825 2.282-7.787 2.953-11.814 2.617-17.587-3.223-35.042-14.97-44.507-11.345-9.13-31.216-10.07-42.493-2.014-4.229 3.02-12.957 3.827-21.415 4.632-10.405.94-21.213 1.947-25.041 7.048-3.825 5.036-6.04 11.212-7.921 16.58-3.422 9.87-6.175 17.658-17.319 14.904-12.755-3.155-20.474 5.639-27.321 13.426-4.902 5.437-9.534 10.742-15.239 10.742h-.269c-4.766-.135-10.137-4.029-16.245-11.816-2.015-2.55-4.096-5.235-6.244-7.989C75.611 41.643 46.276 3.917 22.244 11.1c-13.494 4.028-6.58 42.158-1.075 72.702 2.283 12.755 4.297 23.697 4.23 29.605-.067 8.39-4.565 18.058-8.996 27.457-5.906 12.485-11.948 25.442-7.72 35.98 3.357 8.392 11.815 16.581 20.677 25.175 9.935 9.6 20.206 19.533 22.555 29.671.135.469.201.94.269 1.409 1.544 9.868-.94 19.937-3.356 29.605l-.068.336c-2.55 10.271-5.236 20.877-2.886 31.55 2.684 12.218 7.586 21.348 14.5 27.189 9.397 7.787 22.152 9.464 35.176 9.464m157.622-314.37c8.324 0 16.848 2.483 22.89 7.385 11.615 9.33 17.387 26.516 14.702 43.768-.605 3.962-1.611 7.923-2.887 11.68-3.624 10.473-9.532 20.946-19.266 33.969-2.752 3.692-5.639 7.384-8.458 10.942-7.654 9.734-15.507 19.737-21.481 30.813-10.742 19.803-15.105 42.493-19.402 64.377-1.41 7.117-2.819 14.5-4.497 21.684-4.43 19.4-21.28 25.71-39.137 32.357-8.793 3.289-17.856 6.645-26.113 11.747-8.258 5.101-13.561 13.897-18.595 22.355-6.713 11.277-13.024 21.884-25.913 22.421-16.112.671-32.692.471-44.24-9.129-6.846-5.707-11.612-14.77-14.297-26.786-2.35-10.473.335-21.079 2.887-31.282l.066-.336c2.418-9.734 4.968-19.871 3.356-29.873-.066-.471-.134-.94-.267-1.477-2.35-10.271-12.755-20.273-22.691-29.94-8.458-8.189-17.252-16.715-20.542-24.971-4.093-10.271 1.88-23.094 7.721-35.446 4.43-9.398 8.995-19.198 9.061-27.724 0-5.976-1.947-16.984-4.229-29.739-5.167-28.732-12.284-68.07.605-71.963C46.075 4.656 75.276 42.18 96.557 69.57c2.148 2.752 4.229 5.438 6.243 7.987 6.31 7.99 11.747 11.95 16.783 12.084 6.175.134 10.942-5.235 15.977-11.01 6.713-7.585 14.299-16.245 26.65-13.156 11.681 2.953 14.702-5.505 18.124-15.306 1.881-5.37 4.03-11.412 7.788-16.447 3.691-4.832 14.3-5.84 24.569-6.78 8.929-.806 17.387-1.61 21.75-4.7 5.036-3.623 11.816-5.37 18.731-5.37"/><path fill="#D5DEEB" fill-opacity=".5" d="M97.832 325.939a205.3 205.3 0 0 0 9.197-.202c12.619-.537 18.797-10.808 25.308-21.682 4.766-7.989 9.734-16.245 17.587-21.079 7.787-4.834 16.447-8.055 24.771-11.144 17.253-6.443 33.499-12.553 37.861-31.484 1.612-6.98 3.021-14.164 4.365-21.079 4.093-20.742 8.322-42.224 18.326-61.021 5.639-10.473 13.09-20.071 20.34-29.336a698.587 698.587 0 0 0 8.055-10.472c9.265-12.486 14.903-22.555 18.328-32.558a66.126 66.126 0 0 0 2.819-11.278c2.55-16.782-3.021-33.363-14.232-42.358-10.875-8.728-29.805-9.668-40.546-2.082-4.029 2.887-12.353 3.625-20.408 4.364-10.003.939-20.272 1.88-24.032 6.713-3.692 4.832-5.774 10.673-7.586 15.842-3.29 9.398-5.908 16.782-16.446 14.165-12.084-3.021-19.468 5.37-26.047 12.755-4.7 5.37-9.197 10.404-14.77 10.27-4.564-.133-9.598-3.76-15.439-11.21-1.946-2.417-3.893-4.969-5.975-7.652-20.34-26.115-48.267-61.828-71.091-54.913-12.821 3.893-6.242 40.211-1.006 69.345 2.214 12.084 4.095 22.555 4.027 28.127 0 8.055-4.363 17.252-8.526 26.113-5.57 11.883-11.343 24.234-7.316 34.238 3.223 8.054 11.547 16.245 19.602 24.1 9.398 9.263 19.198 18.795 21.28 28.463.134.469.202.938.268 1.342 1.41 9.398-1.006 18.93-3.356 28.127l-.134.47c-2.35 9.398-5.036 19.938-2.753 30.209 2.619 11.613 7.25 20.341 13.964 25.912 9.061 7.384 21.145 8.995 33.565 8.995M248.068 25.533c7.922 0 16.111 2.416 21.951 7.115 11.078 8.86 16.515 25.242 14.031 41.755-.605 3.827-1.543 7.519-2.751 11.21-3.357 10.002-8.997 19.938-18.194 32.357a614.16 614.16 0 0 1-8.055 10.473c-7.25 9.263-14.702 18.863-20.34 29.469-10.07 18.863-14.299 40.414-18.394 61.223-1.342 6.915-2.751 14.097-4.363 21.079-4.229 18.596-20.34 24.638-37.392 31.015-8.392 3.155-17.052 6.376-24.905 11.21-7.855 4.834-12.956 13.224-17.79 21.281-6.444 10.74-12.486 20.877-24.771 21.346-15.305.605-31.215.47-42.225-8.659-6.579-5.437-11.143-14.031-13.761-25.51-2.282-10.136.403-20.676 2.686-29.939l.133-.471c2.35-9.263 4.767-18.863 3.357-28.329-.068-.469-.134-.939-.268-1.41C54.801 220.88 45 211.214 35.535 201.95c-8.055-7.853-16.313-15.978-19.4-23.899-3.894-9.8 1.81-21.951 7.316-33.766 4.229-8.995 8.593-18.26 8.593-26.448 0-5.707-1.88-16.18-4.095-28.264-4.968-27.388-11.68-64.846.537-68.538 22.421-6.781 50.146 28.798 70.352 54.711 2.081 2.684 4.095 5.236 5.974 7.652 5.976 7.585 11.212 11.345 15.978 11.479 5.84.135 10.405-5.034 15.239-10.471 6.377-7.25 13.627-15.44 25.374-12.553 11.144 2.751 13.963-5.238 17.253-14.568 1.813-5.102 3.826-10.876 7.452-15.642 3.558-4.63 13.693-5.571 23.563-6.444 8.458-.806 16.513-1.543 20.742-4.498 4.632-3.49 11.077-5.168 17.655-5.168Z"/><path fill="#D5DEEB" fill-opacity=".5" d="M100.114 320.636c2.953 0 5.974-.066 8.927-.202 12.084-.537 17.992-10.271 24.234-20.676 4.566-7.585 9.332-15.438 16.784-20.005 7.45-4.564 15.64-7.651 23.561-10.672 16.447-6.176 31.955-12.084 36.117-30.075 1.611-6.78 2.953-13.763 4.296-20.542 3.894-19.669 7.921-40.077 17.32-57.866 5.371-10.002 12.351-19.132 19.198-27.994 2.484-3.288 5.104-6.645 7.587-10.001 8.794-11.883 14.097-21.483 17.32-31.083a59.766 59.766 0 0 0 2.618-10.74c2.416-15.976-2.955-31.752-13.628-40.345-10.339-8.257-28.397-9.263-38.668-2.081-3.826 2.686-11.411 3.357-19.4 4.095-9.532.873-19.4 1.745-22.958 6.444-3.558 4.632-5.505 10.137-7.25 15.037-3.155 8.861-5.639 15.844-15.642 13.428-11.479-2.822-18.528 5.101-24.703 12.15-4.499 5.101-8.728 9.867-13.963 9.733-4.297-.133-9.129-3.558-14.634-10.54a399.059 399.059 0 0 1-5.775-7.384C82.189 56.68 55.741 22.914 34.125 29.561c-12.15 3.76-5.974 38.196-.94 65.92 2.08 11.48 3.893 21.347 3.827 26.719 0 7.585-4.095 16.379-8.057 24.838-5.235 11.278-10.74 23.025-6.914 32.559 3.02 7.651 10.876 15.506 18.461 23.092 8.927 8.861 18.124 18.058 20.071 27.322.068.47.136.873.202 1.274 1.276 8.929-1.075 17.925-3.289 26.584l-.202.671c-2.282 8.862-4.834 18.999-2.551 28.934 2.551 11.076 7.05 19.333 13.427 24.57 8.66 7.048 20.14 8.592 31.954 8.592M242.966 34.193c7.585 0 15.44 2.282 21.011 6.779 10.473 8.458 15.776 24.032 13.428 39.742a58.852 58.852 0 0 1-2.62 10.673c-3.155 9.466-8.524 18.998-17.251 30.88-2.484 3.357-5.102 6.713-7.586 10.002-6.781 8.861-13.897 17.99-19.2 28.06-9.465 17.924-13.492 38.332-17.386 58.068-1.343 6.78-2.685 13.761-4.296 20.542-4.096 17.722-19.4 23.495-35.713 29.605-7.921 3.021-16.18 6.108-23.631 10.74-7.518 4.632-12.352 12.553-16.984 20.207-6.176 10.203-12.016 19.803-23.697 20.34-14.566.603-29.737.469-40.277-8.19-6.244-5.17-10.675-13.292-13.159-24.234-2.214-9.802.338-19.804 2.552-28.597l.202-.671c2.214-8.796 4.564-17.858 3.288-26.854-.066-.401-.134-.872-.267-1.342-2.015-9.466-11.278-18.729-20.275-27.658-7.517-7.517-15.305-15.305-18.326-22.824-3.692-9.263 1.68-20.878 6.915-32.021 3.961-8.524 8.123-17.386 8.123-25.107 0-5.369-1.813-15.304-3.894-26.851-4.698-25.98-11.144-61.559.47-65.117 21.146-6.511 47.393 27.054 66.593 51.49a827.528 827.528 0 0 1 5.773 7.383c5.638 7.184 10.606 10.742 15.173 10.808 5.503.134 9.933-4.766 14.5-9.935 6.04-6.847 12.954-14.634 24.032-11.949 10.539 2.618 13.292-5.035 16.379-13.829 1.679-4.834 3.626-10.337 7.116-14.835 3.424-4.431 13.09-5.304 22.489-6.176 8.055-.739 15.708-1.41 19.669-4.23 4.497-3.356 10.607-4.9 16.849-4.9Z"/><path fill="#D5DEEB" fill-opacity=".5" d="M102.397 315.332c2.887 0 5.706-.066 8.591-.201 11.48-.469 17.12-9.8 23.16-19.602 4.365-7.182 8.929-14.568 15.978-18.931 7.048-4.362 14.769-7.25 22.287-10.137 15.642-5.906 30.41-11.545 34.371-28.664 1.544-6.645 2.887-13.426 4.229-20.071 3.692-18.596 7.452-37.794 16.313-54.644 4.968-9.532 11.613-18.126 17.99-26.516 2.417-3.089 4.834-6.378 7.183-9.6 8.258-11.346 13.292-20.409 16.313-29.538 1.142-3.356 1.946-6.78 2.484-10.203 2.282-15.17-2.888-30.208-13.023-38.398-9.802-7.855-26.987-8.862-36.787-2.08-3.692 2.549-10.808 3.154-18.328 3.825-9.061.805-18.459 1.677-21.884 6.108-3.424 4.43-5.235 9.6-6.914 14.232-2.953 8.392-5.371 14.97-14.768 12.687-10.876-2.685-17.521 4.834-23.429 11.48-4.229 4.833-8.257 9.398-13.224 9.196-4.096-.134-8.594-3.356-13.83-9.934-1.812-2.216-3.625-4.632-5.57-7.05-18.26-23.16-43.233-54.911-63.573-48.534-11.547 3.558-5.639 36.25-.873 62.497 1.947 10.876 3.624 20.207 3.624 25.242 0 7.183-3.893 15.507-7.585 23.563-4.968 10.741-10.07 21.75-6.511 30.812 2.887 7.317 10.27 14.769 17.387 22.019 8.39 8.526 17.117 17.32 18.93 26.181.066.403.134.805.202 1.208 1.14 8.392-1.074 16.916-3.223 25.106l-.201.873c-2.552 9.868-4.499 18.729-2.416 27.59 2.416 10.473 6.779 18.328 12.82 23.294 8.257 6.715 19.133 8.19 30.277 8.19m135.4-272.48c7.252 0 14.769 2.215 20.073 6.444 10.001 8.057 14.969 22.824 12.755 37.728-.537 3.424-1.276 6.846-2.416 10.137-3.021 8.995-8.057 18.056-16.247 29.335-2.349 3.223-4.833 6.444-7.183 9.533-6.445 8.39-13.09 17.05-18.058 26.65-8.861 16.918-12.755 36.184-16.379 54.845-1.343 6.579-2.685 13.426-4.229 20.005-3.893 16.85-18.529 22.355-33.968 28.261-7.519 2.888-15.306 5.841-22.423 10.205-7.114 4.363-11.746 11.881-16.177 19.131-5.908 9.668-11.479 18.797-22.623 19.268-13.897.603-28.26.469-38.332-7.721-5.974-4.9-10.203-12.621-12.62-22.958-2.014-8.728-.067-17.521 2.417-27.255l.201-.873c2.149-8.256 4.363-16.85 3.223-25.376-.068-.401-.134-.872-.202-1.274-1.879-9.063-10.606-17.924-19.064-26.516-7.049-7.184-14.366-14.568-17.254-21.752-3.49-8.794 1.612-19.735 6.512-30.342 3.76-8.123 7.653-16.447 7.653-23.831 0-5.101-1.677-14.5-3.692-25.376-4.43-24.637-10.539-58.268.403-61.692 19.937-6.243 44.776 25.308 62.834 48.334 1.947 2.484 3.758 4.832 5.571 7.049 5.371 6.78 10.07 10.069 14.299 10.203 5.303.134 9.398-4.497 13.761-9.465 5.774-6.51 12.218-13.897 22.758-11.279 10.002 2.484 12.554-4.766 15.575-13.09 1.611-4.565 3.49-9.734 6.779-14.097 3.29-4.297 12.487-5.034 21.414-5.84 7.653-.671 14.836-1.342 18.663-3.96 4.363-2.955 10.137-4.43 15.976-4.43Z"/><path fill="#D5DEEB" fill-opacity=".5" d="M104.679 309.963c2.753 0 5.505-.068 8.256-.201 10.876-.472 16.313-9.265 22.02-18.53 4.161-6.779 8.458-13.761 15.171-17.856 6.713-4.094 13.963-6.915 21.011-9.599 14.836-5.638 28.866-11.009 32.694-27.322 1.543-6.444 2.885-13.091 4.161-19.534 3.49-17.521 7.116-35.579 15.305-51.489 4.7-8.997 10.876-17.186 16.918-25.174a323.86 323.86 0 0 0 6.779-9.129c7.721-10.742 12.487-19.402 15.306-27.994 1.075-3.155 1.813-6.378 2.283-9.668 2.08-14.364-2.752-28.597-12.42-36.316-9.263-7.452-25.51-8.392-34.84-2.08-3.491 2.348-10.204 2.953-17.32 3.623-8.659.805-17.521 1.544-20.809 5.773-3.223 4.095-4.968 9.063-6.512 13.428-2.819 7.853-5.035 14.096-13.897 11.948-10.271-2.484-16.58 4.564-22.085 10.874-3.962 4.499-7.653 8.728-12.286 8.728h-.2c-3.827-.066-8.122-3.155-13.024-9.263-1.611-2.015-3.289-4.163-5.034-6.312-17.253-21.884-40.882-51.89-60.148-45.782-10.876 3.49-5.238 34.303-.74 59.074 1.88 10.204 3.425 19.065 3.491 23.831 0 6.849-3.624 14.636-7.116 22.221-4.698 10.136-9.465 20.542-6.108 29.134 2.752 6.982 9.6 14.097 16.245 20.945 7.921 8.189 16.111 16.581 17.723 25.039.068.403.134.739.201 1.142 1.007 7.853-1.142 15.91-3.154 23.629l-.27 1.007c-2.484 9.332-4.297 17.79-2.282 26.248 2.35 9.936 6.511 17.32 12.286 22.018 7.585 6.244 17.856 7.587 28.395 7.587M251.762 57.688c9.464 7.585 14.23 21.616 12.15 35.713-.47 3.223-1.276 6.444-2.283 9.6-2.819 8.524-7.519 17.118-15.171 27.858-2.216 3.089-4.566 6.11-6.78 9.129-6.042 7.989-12.286 16.179-16.984 25.242-8.257 15.976-11.883 34.102-15.441 51.623-1.276 6.444-2.617 13.023-4.095 19.468-3.758 15.977-17.587 21.281-32.289 26.852-7.116 2.685-14.434 5.504-21.147 9.666-6.846 4.163-11.143 11.279-15.372 18.058-5.639 9.131-10.942 17.79-21.481 18.26-13.158.605-26.785.469-36.318-7.25-5.639-4.565-9.734-11.883-12.084-21.683-2.013-8.324-.134-16.716 2.282-25.913l.27-1.006c2.08-7.787 4.161-15.844 3.155-23.899-.066-.403-.134-.804-.202-1.208-1.677-8.659-9.935-17.185-17.856-25.376-6.58-6.846-13.426-13.895-16.112-20.742-3.288-8.324 1.478-18.595 6.11-28.598 3.49-7.653 7.182-15.574 7.182-22.489 0-4.832-1.611-13.693-3.49-23.965-4.23-23.227-10.003-55.047.335-58.27 18.863-5.973 42.293 23.833 59.41 45.583 1.745 2.215 3.425 4.296 5.036 6.31 5.034 6.31 9.464 9.465 13.56 9.532 4.967.134 8.861-4.297 13.022-8.929 5.439-6.108 11.547-13.09 21.415-10.672 9.466 2.282 11.882-4.499 14.701-12.352 1.544-4.297 3.291-9.197 6.446-13.226 3.155-4.027 11.882-4.766 20.34-5.57 7.182-.672 14.029-1.277 17.655-3.693 9.129-6.311 25.039-5.37 34.036 1.947Z"/><path fill="#D5DEEB" fill-opacity=".5" d="M106.962 304.66c2.685 0 5.371-.068 7.988-.202 10.339-.471 15.507-8.727 20.946-17.521 3.959-6.377 8.054-12.888 14.364-16.782 6.312-3.894 13.158-6.513 19.803-9.063 14.099-5.437 27.323-10.54 30.947-25.979 1.478-6.244 2.821-12.755 4.029-18.931 3.289-16.447 6.713-33.365 14.299-48.266 4.363-8.526 10.137-16.247 15.776-23.765 2.08-2.819 4.295-5.772 6.377-8.659 7.25-10.204 11.613-18.328 14.299-26.517 1.006-3.021 1.677-6.042 2.148-9.196 1.544-10.809-.739-25.442-11.748-34.372-8.728-7.048-24.101-7.988-32.962-2.08-3.289 2.214-9.598 2.751-16.311 3.356-8.191.739-16.649 1.478-19.803 5.505-3.021 3.894-4.701 8.526-6.178 12.62-2.684 7.385-4.766 13.225-13.023 11.21-9.666-2.35-15.574 4.364-20.743 10.272-3.692 4.229-7.25 8.19-11.545 8.19h-.136c-3.624-.068-7.585-2.955-12.218-8.66-1.543-1.88-3.087-3.893-4.698-5.908-16.177-20.474-38.399-48.535-56.457-42.695-10.203 3.29-4.968 32.29-.739 55.652 1.747 9.6 3.223 17.856 3.223 22.353 0 6.445-3.356 13.829-6.645 20.945-4.365 9.533-8.861 19.334-5.706 27.457 2.617 6.645 8.995 13.358 15.17 19.869 7.384 7.787 15.038 15.844 16.515 23.899.066.335.134.739.134 1.074.873 7.386-1.074 14.568-3.087 22.086l-.337 1.209c-2.283 8.524-4.162 16.783-2.147 24.971 2.282 9.399 6.242 16.313 11.68 20.744 7.25 5.908 16.849 7.184 26.785 7.184M227.594 60.172c6.579 0 13.426 2.013 18.126 5.84 8.928 7.183 13.426 20.407 11.545 33.699-.469 3.088-1.14 6.109-2.146 9.063-2.62 8.054-6.983 16.177-14.165 26.314-2.082 2.887-4.229 5.841-6.377 8.66-5.639 7.519-11.413 15.307-15.844 23.831-7.652 14.971-11.076 32.021-14.366 48.468-1.274 6.243-2.55 12.688-4.028 18.93-3.558 15.105-16.714 20.141-30.543 25.444-6.713 2.55-13.56 5.235-19.937 9.129-6.446 3.961-10.541 10.607-14.568 16.984-5.371 8.592-10.405 16.782-20.408 17.186-12.418.537-25.24.537-34.37-6.781-5.37-4.297-9.264-11.144-11.479-20.407-1.947-7.988-.068-16.179 2.147-24.637l.337-1.208c1.947-7.318 3.96-14.835 3.155-22.355-.068-.403-.068-.739-.202-1.142-1.477-8.256-9.197-16.379-16.648-24.234-6.108-6.443-12.486-13.156-15.037-19.668-3.09-7.787 1.41-17.521 5.706-26.919 3.289-7.116 6.645-14.568 6.645-21.213 0-4.564-1.543-12.889-3.288-22.489-3.962-21.818-9.399-51.756.267-54.913 17.655-5.705 39.675 22.153 55.786 42.494 1.611 2.08 3.223 4.027 4.698 5.908 4.766 5.906 8.929 8.861 12.755 8.927h.202c4.632 0 8.256-4.095 12.084-8.39 5.101-5.774 10.808-12.286 20.071-10.07 8.861 2.147 11.143-4.228 13.829-11.614 1.477-4.027 3.155-8.66 6.11-12.42 2.953-3.757 11.277-4.496 19.332-5.235 6.781-.603 13.158-1.14 16.582-3.49 3.758-2.418 8.794-3.692 14.029-3.692Z"/><path fill="#D5DEEB" fill-opacity=".5" d="M109.243 299.357c2.552 0 5.102-.068 7.654-.202 9.733-.471 14.633-8.258 19.871-16.447 3.758-5.908 7.585-12.084 13.559-15.71 5.908-3.692 12.286-6.108 18.528-8.524 13.224-5.169 25.711-10.069 29.269-24.569 1.476-5.976 2.686-12.152 3.894-18.126 3.087-15.441 6.309-31.35 13.426-45.379 4.027-7.989 9.398-15.307 14.634-22.355 1.946-2.686 4.027-5.437 5.974-8.191 6.713-9.6 10.808-17.251 13.292-24.972a47.7 47.7 0 0 0 2.014-8.66c1.41-10.135-.806-23.965-11.143-32.357-8.324-6.713-22.557-7.651-31.015-2.08-3.087 2.014-8.995 2.551-15.305 3.089-7.721.67-15.708 1.41-18.729 5.167-2.887 3.626-4.431 7.989-5.84 11.817-2.484 6.912-4.431 12.283-12.218 10.47-9.063-2.146-14.568 4.096-19.468 9.6-3.558 4.028-6.848 7.788-11.01 7.654-3.356-.068-7.048-2.686-11.413-8.057-1.409-1.745-2.885-3.624-4.428-5.505-15.173-19.064-35.915-45.11-52.765-39.606-9.532 3.156-4.633 30.276-.671 52.094 1.611 8.995 3.087 16.782 3.087 21.011 0 6.042-3.155 12.956-6.176 19.669-4.027 8.928-8.256 18.058-5.303 25.712 2.416 6.242 8.324 12.619 14.096 18.795 6.915 7.452 14.031 15.173 15.307 22.758.066.336.134.671.134 1.007.67 6.914-1.14 13.559-3.021 20.608l-.403 1.409c-2.08 7.654-3.96 15.844-2.013 23.631 2.214 8.794 5.974 15.305 11.143 19.4 6.713 5.639 15.776 6.849 25.039 6.849m113.181-230.46c6.244 0 12.755 1.881 17.186 5.505 10.137 8.19 12.285 21.75 10.876 31.686-.403 2.887-1.074 5.707-1.947 8.526-2.418 7.585-6.511 15.239-13.158 24.771a365.936 365.936 0 0 1-5.974 8.19c-5.236 7.049-10.675 14.433-14.702 22.421-7.116 14.097-10.339 30.075-13.426 45.581-1.208 5.974-2.416 12.15-3.893 18.058-3.425 14.233-15.776 18.999-28.867 24.1-6.243 2.417-12.755 4.968-18.661 8.592-6.042 3.76-10.003 9.936-13.763 15.978-5.102 8.055-9.934 15.708-19.332 16.177-11.681.537-23.765.537-32.425-6.309-5.101-4.028-8.727-10.473-10.874-19.065-1.88-7.653-.135-15.373 2.013-23.293l.403-1.41c1.88-6.781 3.76-13.829 3.087-20.878 0-.337-.066-.738-.133-1.074-1.342-7.855-8.526-15.642-15.441-23.16-5.639-6.109-11.545-12.487-13.895-18.595-2.82-7.318 1.276-16.381 5.303-25.174 3.089-6.781 6.244-13.762 6.244-19.937 0-4.297-1.41-12.084-3.09-21.147-3.691-20.407-8.793-48.4.203-51.354 16.446-5.438 37.056 20.475 52.093 39.338 1.544 1.946 3.02 3.759 4.429 5.572 4.431 5.505 8.325 8.189 11.883 8.257 4.43.067 7.855-3.76 11.479-7.921 4.766-5.371 10.137-11.479 18.797-9.399 8.324 2.015 10.472-3.961 12.956-10.876 1.41-3.758 2.953-8.122 5.707-11.613 2.819-3.558 10.672-4.229 18.258-4.9 6.377-.537 12.353-1.074 15.574-3.222 3.558-2.35 8.258-3.424 13.09-3.424Z"/><path fill="#D5DEEB" fill-opacity=".5" d="M111.526 294.052c2.418 0 4.902-.066 7.386-.2 9.197-.471 13.827-7.721 18.729-15.441 3.558-5.504 7.182-11.277 12.755-14.633 5.571-3.425 11.479-5.707 17.319-8.057 12.418-4.9 24.166-9.532 27.523-23.226 1.41-5.774 2.618-11.748 3.826-17.589 2.887-14.366 5.908-29.201 12.419-42.224 3.692-7.519 8.728-14.366 13.494-20.945 1.813-2.552 3.692-5.17 5.505-7.72 4.161-6.109 9.398-14.232 12.283-23.429.807-2.618 1.478-5.369 1.813-8.122 1.276-9.533-.804-22.49-10.538-30.342-7.787-6.312-21.147-7.25-29.136-2.083-2.885 1.881-8.39 2.35-14.231 2.887-7.317.671-14.835 1.276-17.654 4.9-2.686 3.357-4.163 7.452-5.505 11.01-2.35 6.378-4.163 11.413-11.346 9.734-8.458-2.015-13.627 3.826-18.192 8.995-3.29 3.692-6.445 7.25-10.271 7.184-3.088-.068-6.579-2.484-10.54-7.385-1.342-1.612-2.684-3.357-4.161-5.168-14.097-17.589-33.431-41.755-49.14-36.452-8.928 3.021-4.296 28.328-.536 48.67 1.543 8.39 2.887 15.64 2.887 19.601 0 5.639-2.887 12.083-5.707 18.326-3.76 8.324-7.653 16.916-4.901 23.967 2.284 5.906 7.72 11.88 12.956 17.72 6.378 7.117 13.025 14.434 14.099 21.684.066.336.066.671.134 1.007.537 6.377-1.142 12.553-3.021 19.132l-.404 1.544c-2.012 7.184-3.76 14.903-1.879 22.287 2.081 8.19 5.64 14.298 10.539 18.192 6.445 5.035 14.836 6.176 23.495 6.176M217.391 77.423c5.841 0 11.883 1.814 16.178 5.304 9.466 7.653 11.547 20.34 10.271 29.739a54.882 54.882 0 0 1-1.812 7.988c-2.887 9.129-8.056 17.252-12.151 23.294a377.382 377.382 0 0 1-5.505 7.721c-4.832 6.645-9.8 13.492-13.56 21.077-6.511 13.159-9.532 27.994-12.419 42.36-1.141 5.773-2.349 11.749-3.826 17.521-3.289 13.358-14.903 17.925-27.121 22.757-5.841 2.282-11.882 4.7-17.386 8.056-5.706 3.491-9.398 9.263-12.956 14.902-4.834 7.519-9.399 14.702-18.192 15.105-10.944.537-22.287.537-30.41-5.84-4.768-3.76-8.258-9.734-10.339-17.789-1.879-7.25-.067-14.837 1.88-21.952l.47-1.545c1.745-6.31 3.558-12.889 3.021-19.4 0-.336-.068-.671-.135-1.007-1.14-7.451-7.787-14.835-14.23-22.019-5.17-5.773-10.541-11.747-12.824-17.521-2.617-6.847 1.209-15.305 4.902-23.428 2.82-6.311 5.773-12.822 5.773-18.595 0-4.027-1.342-11.277-2.888-19.735-3.49-19.067-8.256-45.112.136-47.933 15.237-5.102 34.37 18.731 48.4 36.252 1.41 1.811 2.82 3.49 4.161 5.168 4.164 5.101 7.788 7.585 11.078 7.653 4.161.068 7.384-3.558 10.74-7.384 4.633-5.237 9.467-10.74 17.521-8.793 7.72 1.811 9.802-3.694 12.15-10.138 1.276-3.558 2.754-7.52 5.371-10.808 2.618-3.288 10.07-4.027 17.186-4.632 5.906-.537 11.479-1.006 14.566-2.953 3.157-2.35 7.452-3.424 11.95-3.424Z"/><path fill="#D5DEEB" fill-opacity=".5" d="M113.809 288.748c2.35 0 4.7-.066 7.05-.199 8.592-.404 12.954-7.184 17.655-14.367 3.356-5.101 6.779-10.404 11.948-13.627 5.169-3.155 10.674-5.371 16.045-7.52 11.613-4.63 22.623-8.995 25.844-21.816 1.409-5.572 2.619-11.413 3.693-16.984 2.684-13.292 5.504-26.987 11.412-39.069 3.424-6.982 7.988-13.428 12.351-19.604a333.82 333.82 0 0 0 5.102-7.316c3.828-5.706 8.594-13.292 11.279-21.951.737-2.484 1.342-4.968 1.678-7.586 1.142-8.861-.805-21.011-9.936-28.261-7.25-5.84-19.736-6.849-27.255-2.083-2.684 1.68-7.787 2.149-13.224 2.62-6.847.603-13.895 1.208-16.649 4.564-2.484 3.155-3.893 6.915-5.101 10.204-2.149 5.908-3.894 10.538-10.473 8.995-7.853-1.813-12.619 3.558-16.848 8.392-3.089 3.49-5.976 6.713-9.467 6.645-2.887-.066-6.041-2.282-9.733-6.781-1.208-1.475-2.484-3.087-3.826-4.698-13.091-16.179-31.015-38.399-45.447-33.363-8.258 2.82-3.962 26.382-.471 45.245 1.41 7.787 2.685 14.5 2.685 18.192.068 5.236-2.617 11.212-5.235 17.052-3.424 7.719-6.982 15.708-4.499 22.287 2.149 5.505 7.049 11.144 11.815 16.649 5.908 6.713 11.95 13.693 12.889 20.54.068.335.068.605.068.94.469 5.908-1.209 11.613-2.954 17.655l-.47 1.745c-1.812 6.446-3.625 13.897-1.746 20.946 2.015 7.653 5.371 13.292 10.003 16.85 5.975 4.632 13.83 5.704 21.817 5.704m98.413-202.665c5.505 0 11.211 1.68 15.239 4.968 8.861 7.116 10.808 18.998 9.666 27.658-.336 2.55-.873 5.034-1.678 7.452-2.617 8.524-7.383 16.111-11.143 21.75-1.679 2.484-3.424 4.9-5.102 7.25-4.43 6.176-8.997 12.619-12.419 19.668-5.908 12.151-8.728 25.913-11.413 39.205-1.14 5.571-2.349 11.411-3.692 16.984-3.087 12.485-13.963 16.782-25.442 21.346-5.437 2.149-11.01 4.363-16.112 7.52-5.303 3.289-8.793 8.592-12.15 13.827-4.564 7.05-8.861 13.628-17.117 14.099-10.205.537-20.812.537-28.463-5.371-4.499-3.49-7.787-9.063-9.802-16.515-1.813-6.913-.068-14.23 1.745-20.608l.47-1.745c1.746-6.11 3.424-11.882 2.954-17.857 0-.335-.067-.604-.067-.94-.94-7.048-7.117-14.097-13.09-20.877-4.7-5.438-9.6-11.01-11.681-16.447-2.417-6.31 1.074-14.165 4.43-21.75 2.618-5.841 5.371-11.949 5.303-17.32 0-3.759-1.275-10.472-2.685-18.26-3.223-17.654-7.652-41.82.068-44.506 14.03-4.834 31.751 17.118 44.708 33.161 1.344 1.679 2.618 3.223 3.827 4.766 3.826 4.7 7.183 6.983 10.27 7.051h.135c3.826 0 6.779-3.357 9.868-6.915 4.297-4.834 8.728-9.87 16.177-8.19 7.184 1.677 9.063-3.491 11.28-9.399 1.208-3.289 2.55-6.98 5.033-10.07 2.418-3.088 9.467-3.759 16.18-4.296 5.504-.47 10.672-.939 13.491-2.686 3.425-1.945 7.318-3.019 11.212-2.953"/><path fill="#D5DEEB" fill-opacity=".5" d="M116.092 283.445c2.214 0 4.496-.066 6.713-.2 8.054-.403 12.15-6.713 16.513-13.292 3.088-4.7 6.311-9.6 11.143-12.553 4.7-2.887 9.802-4.968 14.77-6.982 10.874-4.363 21.079-8.526 24.1-20.474 1.342-5.438 2.55-11.01 3.624-16.447 2.484-12.15 5.101-24.771 10.405-35.847 3.089-6.513 7.25-12.42 11.277-18.194 1.545-2.214 3.157-4.497 4.7-6.847 3.491-5.303 7.853-12.419 10.271-20.408.739-2.282 1.208-4.63 1.544-7.048 1.006-8.257-.873-19.534-9.265-26.315-6.713-5.437-18.326-6.377-25.306-2.148-2.552 1.545-7.184 1.947-12.218 2.35-6.377.537-13.024 1.074-15.574 4.229-2.35 2.887-3.626 6.377-4.766 9.398-2.015 5.371-3.558 9.666-9.668 8.257-7.25-1.678-11.681 3.356-15.575 7.721-2.819 3.155-5.437 6.176-8.659 6.176h-.066c-2.62-.068-5.573-2.083-8.929-6.176-1.141-1.41-2.35-2.82-3.559-4.365-12.016-14.768-28.528-34.974-41.754-30.276-7.586 2.686-3.625 24.37-.402 41.823 1.342 7.116 2.416 13.358 2.482 16.782.068 4.834-2.416 10.339-4.766 15.708-3.155 7.117-6.377 14.434-4.093 20.542 1.946 5.17 6.377 10.405 10.74 15.509 5.37 6.375 10.942 13.022 11.68 19.4 0 .267.067.537.067.872.337 5.371-1.209 10.607-2.886 16.178l-.537 1.946c-1.88 6.446-3.356 13.292-1.611 19.67 1.947 7.048 5.101 12.286 9.464 15.574 5.573 4.431 12.755 5.437 20.141 5.437m90.96-188.702c5.169 0 10.54 1.611 14.298 4.632 8.19 6.645 10.071 17.589 9.063 25.712-.268 2.348-.805 4.632-1.476 6.914-2.418 7.921-6.713 14.97-10.205 20.205-1.543 2.282-3.154 4.566-4.698 6.849-4.027 5.772-8.19 11.746-11.277 18.258-5.371 11.211-7.923 23.832-10.407 36.05-1.14 5.437-2.282 11.008-3.624 16.447-2.953 11.613-13.023 15.708-23.697 20.005-4.968 2.012-10.137 4.093-14.903 6.98-4.9 3.021-8.191 7.989-11.346 12.755-4.295 6.511-8.324 12.621-16.043 13.023-9.466.471-19.334.537-26.448-4.9-4.231-3.223-7.318-8.325-9.197-15.239-1.612-5.906-.537-11.948 1.61-19.266l.536-1.947c1.68-5.571 3.223-10.874 2.888-16.379 0-.27-.068-.605-.068-.873-.737-6.647-6.444-13.359-11.88-19.803-4.232-5.036-8.66-10.271-10.541-15.307-2.215-5.84.94-13.09 4.027-20.07 2.418-5.439 4.902-11.01 4.834-15.978-.068-3.49-1.208-9.666-2.484-16.85-3.02-16.313-7.048-38.533 0-41.084 12.823-4.565 29.134 15.44 41.016 30.074 1.208 1.478 2.418 2.955 3.558 4.365 3.491 4.229 6.58 6.377 9.467 6.377h.066c3.558 0 6.243-3.089 9.197-6.377 3.961-4.499 8.056-9.131 14.903-7.52 6.645 1.546 8.392-3.221 10.405-8.725 1.142-3.021 2.416-6.446 4.7-9.197 2.348-2.955 8.859-3.492 15.103-4.03 5.036-.4 9.802-.804 12.487-2.483 3.087-1.746 6.578-2.684 10.136-2.618"/><path fill="#D5DEEB" fill-opacity=".5" d="M118.374 278.142c2.148 0 4.295-.066 6.443-.2 7.452-.403 11.346-6.177 15.441-12.285 2.887-4.297 5.908-8.728 10.337-11.48 4.297-2.685 8.997-4.564 13.493-6.445 10.07-4.095 19.536-8.055 22.421-19.064 1.344-5.236 2.484-10.675 3.559-15.91 2.282-11.076 4.7-22.555 9.398-32.692 2.753-5.974 6.511-11.479 10.137-16.782 1.41-2.081 2.887-4.229 4.297-6.378 3.155-4.9 7.048-11.479 9.263-18.865.605-2.146 1.074-4.295 1.344-6.511.872-7.651-.873-17.99-8.66-24.3-6.176-4.968-16.918-5.976-23.429-2.148-2.35 1.342-6.646 1.745-11.144 2.08-5.974.47-12.084 1.007-14.5 3.962-2.148 2.617-3.356 5.84-4.431 8.592-1.813 4.9-3.288 8.727-8.793 7.519-6.647-1.477-10.675 3.087-14.233 7.115-2.55 2.887-4.967 5.638-7.921 5.638h-.067c-2.416 0-5.034-1.811-8.123-5.503-1.074-1.276-2.148-2.552-3.221-3.961-11.01-13.36-26.047-31.618-38.13-27.187-6.915 2.55-3.29 22.421-.336 38.398 1.208 6.511 2.214 12.15 2.282 15.305.068 4.431-2.148 9.532-4.297 14.432-2.82 6.513-5.772 13.226-3.624 18.865 1.813 4.766 5.773 9.666 9.6 14.366 4.9 6.04 9.934 12.284 10.539 18.394 0 .267.068.537.068.805.201 4.9-1.276 9.666-2.82 14.633-.201.673-.403 1.41-.605 2.083-1.745 5.974-3.154 12.284-1.477 18.326 1.88 6.445 4.834 11.277 8.861 14.298 4.968 4.027 11.547 4.9 18.328 4.9m83.576-174.739c4.834 0 9.868 1.477 13.426 4.364 7.585 6.108 9.332 16.245 8.392 23.697a41.544 41.544 0 0 1-1.344 6.378c-2.147 7.316-6.04 13.827-9.197 18.729a523.09 523.09 0 0 1-4.229 6.377c-3.624 5.369-7.384 10.808-10.203 16.916-4.766 10.203-7.116 21.683-9.398 32.826-1.075 5.237-2.215 10.674-3.558 15.912-2.82 10.74-12.15 14.566-22.018 18.661-4.565 1.879-9.265 3.826-13.628 6.511-4.564 2.82-7.585 7.318-10.54 11.681-4.028 5.974-7.787 11.613-14.902 11.95-8.727.469-17.856.537-24.503-4.431-3.894-2.955-6.847-7.653-8.66-13.963-1.677-5.84-.267-12.084 1.478-17.992.201-.671.401-1.409.603-2.08 1.545-5.102 3.02-9.868 2.82-14.904 0-.267 0-.537-.067-.804-.605-6.244-5.706-12.621-10.674-18.729-3.76-4.701-7.72-9.533-9.465-14.233-2.014-5.369.873-11.948 3.624-18.326 2.149-4.967 4.431-10.137 4.363-14.701-.066-3.223-1.072-8.862-2.282-15.441-2.751-14.903-6.511-35.31-.066-37.66 11.613-4.296 26.516 13.762 37.324 26.988 1.141 1.342 2.215 2.683 3.289 3.959 3.223 3.828 6.042 5.707 8.66 5.775h.068c3.288 0 5.772-2.822 8.458-5.841 3.624-4.095 7.383-8.324 13.627-6.914 6.042 1.342 7.719-2.955 9.6-7.923 1.007-2.752 2.215-5.906 4.295-8.39 2.216-2.754 8.258-3.223 14.099-3.692 4.63-.404 8.995-.739 11.411-2.216 2.753-1.746 5.974-2.55 9.197-2.484Z"/><path fill="#D5DEEB" fill-opacity=".5" d="M120.858 272.839c2.013 0 3.96-.066 5.906-.2 6.847-.403 10.473-5.641 14.367-11.212 2.685-3.893 5.437-7.921 9.532-10.404 3.894-2.283 7.989-4.229 12.218-5.909 9.264-3.893 17.99-7.517 20.743-17.722 1.342-5.034 2.417-10.337 3.491-15.439 2.08-10.003 4.229-20.274 8.324-29.471 2.484-5.505 5.773-10.539 8.995-15.439 1.276-1.946 2.618-3.893 3.826-5.908 2.821-4.498 6.311-10.606 8.258-17.387.537-1.947.939-3.96 1.208-5.974 1.007-8.929-2.08-17.387-8.056-22.22-5.773-4.632-15.439-5.572-21.481-2.148-2.148 1.208-6.042 1.543-10.137 1.879-5.505.469-11.21.872-13.492 3.626-2.015 2.348-3.089 5.235-4.029 7.787-1.678 4.363-3.021 7.853-7.921 6.779-6.042-1.342-9.666 2.819-12.957 6.511-2.348 2.62-4.496 5.104-7.182 5.104h-.068c-2.148 0-4.564-1.612-7.316-4.902-.94-1.14-1.947-2.282-2.955-3.558-9.934-11.949-23.561-28.262-34.437-24.099-6.31 2.416-2.953 20.475-.268 34.975 1.075 5.908 2.013 11.009 2.081 13.895.066 4.029-1.88 8.659-3.828 13.09-2.55 5.908-5.167 12.084-3.288 17.12 1.611 4.43 5.101 8.927 8.458 13.224 4.43 5.706 8.929 11.613 9.33 17.319v.739c.068 4.431-1.274 8.66-2.683 13.156-.202.739-.471 1.478-.673 2.283-1.61 5.237-3.02 11.345-1.342 17.051 1.745 5.909 4.565 10.271 8.324 13.023 4.767 3.626 11.01 4.431 17.052 4.431m75.923-160.777c4.498 0 9.197 1.41 12.487 4.029 6.915 5.571 8.592 14.836 7.787 21.683a33.25 33.25 0 0 1-1.142 5.84c-1.879 6.713-5.369 12.755-8.188 17.186-1.21 2.012-2.552 3.959-3.828 5.906-3.223 4.902-6.579 9.936-9.063 15.508-4.161 9.197-6.31 19.602-8.39 29.604-1.074 5.103-2.149 10.338-3.49 15.44-2.62 9.868-11.212 13.494-20.341 17.253-4.297 1.678-8.392 3.692-12.353 5.974-4.162 2.55-6.981 6.646-9.666 10.607-3.76 5.437-7.318 10.539-13.83 10.942-7.653.403-16.379.537-22.554-3.961-3.626-2.684-6.378-6.915-8.057-12.688-1.677-5.504-.268-11.479 1.344-16.648.201-.739.469-1.476.739-2.282 1.41-4.565 2.819-8.862 2.751-13.426v-.739c-.403-5.906-5.036-11.882-9.466-17.655-3.289-4.297-6.713-8.793-8.323-13.09-1.813-4.834.737-10.876 3.221-16.649 1.947-4.564 3.962-9.196 3.894-13.425-.066-2.888-1.007-8.055-2.08-13.963-2.485-13.494-5.909-32.021-.135-34.236 10.405-4.029 23.899 12.15 33.699 23.897 1.008 1.21 2.014 2.418 2.955 3.558 2.885 3.424 5.437 5.102 7.787 5.102 3.019 0 5.303-2.55 7.787-5.37 3.289-3.692 6.645-7.519 12.284-6.311 5.505 1.21 6.982-2.684 8.727-7.182.939-2.484 2.013-5.371 3.96-7.586 2.082-2.484 7.653-2.953 13.024-3.424 4.161-.336 8.123-.671 10.405-1.947 2.35-1.274 5.169-1.947 8.055-1.947Z"/><path fill="#D5DEEB" fill-opacity=".5" d="M123.14 267.535c1.879 0 3.758-.066 5.571-.199 6.311-.404 9.668-5.17 13.224-10.205 2.484-3.491 5.036-7.049 8.728-9.331 3.558-2.081 7.182-3.826 11.009-5.371 8.459-3.624 16.447-7.049 18.997-16.311 1.344-4.902 2.418-10.004 3.492-14.971 1.879-8.862 3.758-18.059 7.316-26.181 2.149-4.968 5.036-9.6 7.855-13.963 1.141-1.813 2.283-3.624 3.425-5.505 2.483-4.161 5.57-9.666 7.25-15.842a38.918 38.918 0 0 0 1.006-5.437c.805-8.124-2.015-15.844-7.452-20.274-5.235-4.229-13.963-5.17-19.601-2.149-1.947 1.074-5.437 1.344-9.131 1.611-5.034.404-10.337.807-12.418 3.357-1.813 2.148-2.819 4.7-3.692 6.982-1.545 3.894-2.753 6.981-7.116 6.042-5.437-1.142-8.727 2.618-11.615 5.907-2.08 2.35-4.093 4.632-6.511 4.564-1.879 0-4.027-1.41-6.511-4.295l-2.686-3.089c-8.927-10.538-21.079-24.905-30.745-21.011-5.639 2.282-2.618 18.527-.201 31.552 1.008 5.303 1.812 9.868 1.88 12.417.066 3.626-1.679 7.788-3.356 11.817-2.217 5.303-4.567 10.806-2.821 15.438 1.477 4.03 4.43 8.123 7.317 12.084 3.894 5.371 7.921 11.01 8.123 16.313v.671c-.066 3.894-1.276 7.72-2.618 11.749-.267.805-.537 1.609-.804 2.416-1.41 4.497-2.888 10.337-1.142 15.708 1.679 5.371 4.296 9.265 7.787 11.748 4.43 3.021 9.935 3.758 15.44 3.758m68.539-146.813c4.095 0 8.458 1.276 11.479 3.76 5.237 4.229 7.989 11.748 7.184 19.669a36.046 36.046 0 0 1-1.008 5.371c-1.677 6.108-4.698 11.545-7.182 15.64-1.075 1.813-2.283 3.692-3.425 5.438-2.819 4.43-5.772 9.063-7.921 14.098-3.558 8.257-5.504 17.386-7.383 26.315-1.007 4.9-2.081 10.069-3.425 14.903-2.484 8.995-10.337 12.352-18.595 15.91-3.826 1.543-7.518 3.288-11.076 5.369-3.759 2.35-6.377 5.976-8.861 9.534-3.49 4.9-6.781 9.532-12.755 9.868-6.981.401-14.835.537-20.542-3.492-3.356-2.349-5.906-6.242-7.518-11.412-1.611-5.169-.201-10.875 1.141-15.304l.806-2.418c1.342-4.028 2.618-7.921 2.686-11.949v-.67c-.202-5.505-4.297-11.144-8.259-16.649-2.819-3.894-5.772-7.989-7.25-11.882-1.61-4.365.673-9.734 2.82-14.904 1.747-4.095 3.492-8.324 3.424-12.084-.068-2.617-.94-7.25-1.879-12.553-2.282-12.15-5.371-28.73-.202-30.811 9.263-3.694 21.213 10.471 30.007 20.81.94 1.074 1.813 2.148 2.685 3.154 2.618 3.021 4.9 4.499 6.983 4.499 2.751 0 4.832-2.35 7.048-4.834 2.953-3.289 5.974-6.713 11.008-5.639 5.036 1.074 6.312-2.418 7.855-6.511.873-2.216 1.879-4.766 3.558-6.849 1.947-2.282 7.049-2.683 12.016-3.087 3.76-.269 7.318-.537 9.399-1.679a15.267 15.267 0 0 1 7.182-1.611Z"/><path fill="#D5DEEB" fill-opacity=".5" d="M125.423 262.232c1.813 0 3.558-.066 5.303-.2 5.706-.337 8.861-4.632 12.15-9.13 2.282-3.087 4.564-6.244 7.855-8.257a87.427 87.427 0 0 1 9.734-4.834c7.651-3.356 14.901-6.511 17.319-14.969 1.342-4.766 2.416-9.734 3.423-14.5 1.611-7.721 3.356-15.776 6.311-22.892 1.813-4.497 4.363-8.592 6.779-12.621 1.008-1.61 2.015-3.357 3.021-5.034 2.148-3.76 4.766-8.728 6.244-14.299.403-1.611.738-3.222.872-4.901.671-7.45-1.879-14.231-6.781-18.258-4.63-3.76-12.619-4.7-17.654-2.149-1.746.873-4.833 1.14-8.055 1.342-4.632.336-9.399.671-11.413 3.021-1.612 1.881-2.55 4.163-3.357 6.176-1.409 3.558-2.416 6.11-6.242 5.371-4.833-1.006-7.721 2.35-10.338 5.235-1.879 2.083-3.624 4.096-5.773 4.096-1.679 0-3.558-1.208-5.706-3.625-.739-.872-1.544-1.745-2.35-2.685-7.854-9.063-18.596-21.549-27.12-17.924-4.968 2.148-2.284 16.514-.068 28.127.873 4.7 1.612 8.728 1.678 11.01.068 3.223-1.41 6.914-2.886 10.473-1.946 4.698-3.893 9.598-2.418 13.693 1.276 3.626 3.76 7.25 6.176 10.808 3.425 5.102 6.983 10.339 6.983 15.307v.603c-.134 3.424-1.276 6.713-2.552 10.271-.268.873-.603 1.679-.873 2.552-1.208 3.759-2.683 9.398-1.006 14.366 1.544 4.698 4.027 8.256 7.182 10.405 3.76 2.751 8.728 3.422 13.562 3.422m61.087-132.85c3.827-.066 7.519 1.142 10.54 3.492 4.766 3.825 7.25 10.471 6.579 17.655-.135 1.611-.471 3.222-.872 4.766-1.41 5.505-4.029 10.472-6.176 14.164-.94 1.678-2.015 3.357-2.955 5.034-2.416 4.029-4.968 8.191-6.847 12.689-2.953 7.25-4.7 15.239-6.309 23.024-1.008 4.834-2.083 9.734-3.425 14.502-2.282 8.123-9.398 11.277-16.916 14.566a88.396 88.396 0 0 0-9.801 4.834c-3.357 2.081-5.773 5.303-8.055 8.458-3.223 4.363-6.244 8.526-11.681 8.861-6.244.404-13.428.538-18.595-3.021-3.089-2.08-5.439-5.504-6.983-10.069-1.611-4.834-.201-10.271 1.007-13.963.269-.872.605-1.745.874-2.552 1.208-3.558 2.416-6.914 2.55-10.47v-.538c0-5.237-3.624-10.54-7.048-15.775-2.35-3.559-4.834-7.184-6.11-10.743-1.41-3.893.537-8.659 2.418-13.224 1.476-3.624 3.021-7.384 2.953-10.74-.066-2.35-.805-6.378-1.677-11.076-2.015-10.742-4.766-25.444-.27-27.39 8.057-3.423 18.595 8.795 26.315 17.722.806.941 1.611 1.881 2.35 2.686 2.282 2.617 4.297 3.893 6.176 3.893 2.484 0 4.297-2.08 6.243-4.297 2.618-2.953 5.236-5.906 9.666-5.033 4.431.872 5.573-2.217 6.983-5.775.805-1.946 1.677-4.229 3.222-5.974 1.812-2.08 6.444-2.416 10.942-2.751 3.289-.27 6.444-.471 8.325-1.41a12.983 12.983 0 0 1 6.577-1.545"/><path fill="#D5DEEB" fill-opacity=".5" d="M127.705 256.863c1.678 0 3.357-.068 4.968-.202 5.169-.335 8.055-4.095 11.076-8.056 2.014-2.684 4.163-5.437 7.048-7.182a62 62 0 0 1 8.46-4.229c6.913-3.089 13.426-6.042 15.64-13.628 1.344-4.632 2.416-9.466 3.357-14.164 1.409-6.58 2.819-13.426 5.237-19.536 1.61-3.894 3.49-7.586 5.639-11.21a100.487 100.487 0 0 0 2.55-4.564 54.873 54.873 0 0 0 5.237-12.823c.335-1.41.603-2.887.737-4.363.537-6.579-1.811-12.687-6.176-16.179-4.161-3.422-11.076-4.363-15.774-2.148-1.545.738-4.231.94-6.983 1.074-4.161.269-8.525.605-10.404 2.685a20.126 20.126 0 0 0-3.021 5.371c-1.208 3.021-2.149 5.236-5.437 4.633-4.163-.807-6.781 2.08-8.996 4.63-1.611 1.813-3.156 3.558-5.035 3.558-1.41 0-3.021-1.006-4.834-3.021a66.652 66.652 0 0 1-2.013-2.282c-6.848-7.651-16.179-18.192-23.429-14.835-4.297 2.014-1.947 14.567 0 24.705.739 4.027 1.41 7.517 1.477 9.532.066 2.819-1.208 6.04-2.417 9.197-1.61 4.093-3.289 8.39-2.013 12.016 1.14 3.155 3.087 6.377 5.033 9.532 2.955 4.832 6.042 9.8 5.775 14.366v.537c-.27 2.954-1.276 5.773-2.418 8.794-.336.873-.671 1.813-1.006 2.685-1.813 5.304-2.149 9.599-.873 13.091 1.477 4.161 3.692 7.25 6.645 9.129 3.424 2.35 7.721 2.887 11.95 2.887m53.638-118.822c3.49-.066 6.846 1.075 9.666 3.157 4.229 3.423 6.445 9.263 5.908 15.64-.136 1.41-.336 2.888-.673 4.229-1.208 4.431-2.885 8.66-5.168 12.621a101.514 101.514 0 0 1-2.551 4.565c-2.149 3.626-4.095 7.384-5.707 11.277-2.416 6.176-3.825 13.025-5.235 19.67-1.007 4.7-2.015 9.532-3.357 14.097-2.148 7.317-8.525 10.205-15.238 13.226a77.87 77.87 0 0 0-8.526 4.295c-3.021 1.813-5.17 4.632-7.25 7.385-2.953 3.826-5.773 7.518-10.607 7.787-5.571.402-11.882.538-16.648-2.551-2.82-1.813-4.968-4.834-6.378-8.794-1.208-3.356-.872-7.451.873-12.621.337-.94.673-1.813 1.008-2.685 1.14-3.021 2.214-5.907 2.484-8.996v-.603c.202-4.834-2.887-9.869-5.908-14.769-1.879-3.087-3.894-6.31-4.968-9.399-1.208-3.356.403-7.517 2.015-11.546 1.275-3.221 2.549-6.512 2.483-9.465-.067-2.081-.738-5.573-1.545-9.666-1.745-9.398-4.229-22.221-.335-23.966 6.848-3.155 15.977 7.116 22.69 14.634l2.081 2.282c1.947 2.148 3.692 3.222 5.371 3.222 2.148 0 3.826-1.879 5.505-3.825 2.214-2.552 4.564-5.17 8.39-4.431 3.828.739 4.968-2.081 6.178-5.036.671-1.879 1.609-3.624 2.885-5.167 1.679-1.881 6.042-2.216 9.935-2.484 2.888-.202 5.573-.403 7.251-1.142a15.877 15.877 0 0 1 5.371-.941"/><path fill="#D5DEEB" fill-opacity=".5" d="M130.121 251.56c1.477 0 3.021-.068 4.498-.202 4.565-.335 7.183-3.558 10.002-7.048 1.813-2.283 3.692-4.565 6.244-6.11 2.282-1.342 4.698-2.618 7.116-3.692 6.108-2.887 11.882-5.571 13.963-12.284 1.409-4.498 2.416-9.264 3.356-13.897 1.14-5.437 2.35-11.01 4.161-16.111a76.422 76.422 0 0 1 4.565-9.8c.739-1.344 1.411-2.753 2.148-4.163 1.813-3.558 3.223-7.384 4.229-11.277.27-1.276.471-2.552.537-3.826.336-5.775-1.677-11.078-5.57-14.165-3.626-2.955-9.734-3.893-13.83-2.148-1.341.537-3.558.738-5.974.872-3.759.268-7.585.47-9.398 2.416a14.696 14.696 0 0 0-2.618 4.565c-1.074 2.552-1.881 4.365-4.564 3.893-3.559-.603-5.775 1.813-7.722 4.03-1.409 1.543-2.685 3.019-4.295 3.087-1.209 0-2.483-.739-4.029-2.416-.537-.605-1.14-1.208-1.745-1.881-5.772-6.242-13.693-14.836-19.803-11.747-3.624 1.879-1.612 12.619.068 21.279.603 2.686 1.006 5.371 1.341 8.057.134 2.416-.94 5.169-1.946 7.855-1.342 3.49-2.686 7.182-1.612 10.269a53.118 53.118 0 0 0 3.894 8.124c2.484 4.565 5.102 9.331 4.632 13.628v.066c0 .134 0 .269-.068.335-.335 2.484-1.274 4.834-2.282 7.386-.335.938-.737 1.879-1.074 2.819-1.677 4.699-1.947 8.592-.737 11.747 1.342 3.558 3.423 6.176 6.108 7.855 2.887 1.947 6.645 2.484 10.405 2.484m46.052-104.925c3.155 0 6.176 1.007 8.727 2.887 3.692 2.953 5.705 8.055 5.303 13.628-.067 1.274-.269 2.482-.537 3.758a51.89 51.89 0 0 1-4.163 11.143c-.671 1.41-1.409 2.754-2.148 4.095a73.377 73.377 0 0 0-4.565 9.868c-1.812 5.104-3.021 10.742-4.161 16.179-.94 4.565-1.947 9.331-3.356 13.83-2.015 6.443-7.654 9.061-13.628 11.882-2.484 1.072-4.901 2.348-7.184 3.692-2.617 1.611-4.496 3.959-6.377 6.242-2.686 3.356-5.236 6.445-9.532 6.78-5.236.404-10.607.404-14.634-2.148-2.552-1.544-4.499-4.095-5.841-7.518-1.142-2.955-.872-6.78.739-11.279.336-.939.739-1.879 1.074-2.819 1.007-2.55 2.013-4.968 2.349-7.518 0-.134 0-.269.067-.403v-.134c.47-4.499-2.148-9.331-4.698-13.963a58.351 58.351 0 0 1-3.828-7.989c-1.006-2.887.336-6.445 1.612-9.802 1.006-2.751 2.08-5.57 2.014-8.122a67.07 67.07 0 0 0-1.343-8.189c-1.544-7.989-3.624-18.93-.402-20.542 5.639-2.819 13.358 5.505 18.997 11.613.605.671 1.208 1.276 1.745 1.879 1.679 1.747 3.155 2.686 4.566 2.62 1.879 0 3.289-1.612 4.767-3.291 1.879-2.148 3.893-4.363 7.114-3.758 3.223.603 4.229-1.813 5.303-4.297.605-1.611 1.41-3.088 2.484-4.363 1.545-1.679 5.505-1.946 8.929-2.148 2.416-.136 4.699-.335 6.176-.94 1.41-.671 2.887-.941 4.431-.873"/><path fill="#D5DEEB" fill-opacity=".5" d="M132.403 246.256a44.68 44.68 0 0 0 4.229-.201c4.029-.336 6.377-3.089 8.929-5.974 1.611-1.813 3.222-3.76 5.371-5.036 1.879-1.14 3.893-2.148 5.84-3.087 5.369-2.619 10.405-5.103 12.284-11.01a122.129 122.129 0 0 0 3.424-13.829c.873-4.163 1.745-8.526 3.021-12.485.939-2.887 2.081-5.641 3.423-8.392.537-1.208 1.142-2.484 1.679-3.692a50.185 50.185 0 0 0 3.223-9.734 27.75 27.75 0 0 0 .401-3.291c.202-5.033-1.611-9.464-4.968-12.15-3.155-2.55-8.256-3.49-11.948-2.148a19.989 19.989 0 0 1-4.9.605c-3.155.202-6.713.403-8.392 2.081a12.51 12.51 0 0 0-2.282 3.759c-.941 2.081-1.544 3.558-3.76 3.223-2.953-.471-4.766 1.611-6.378 3.356-1.14 1.274-2.214 2.484-3.558 2.55-.938 0-2.012-.537-3.221-1.745l-1.409-1.41c-4.766-4.834-11.279-11.479-16.179-8.659-3.021 1.745-1.276 10.674.133 17.856.472 2.216.873 4.431 1.075 6.713.135 2.015-.671 4.363-1.476 6.579-1.008 2.953-2.082 5.974-1.21 8.592.807 2.216 1.679 4.365 2.753 6.445 2.081 4.431 4.162 8.928 3.491 13.023v.136c0 .066 0 .199-.066.267-.471 2.081-1.21 4.028-2.149 5.974-.403.941-.872 1.947-1.276 2.955-1.074 2.82-2.08 6.913-.604 10.471 1.074 2.754 3.021 5.036 5.504 6.579 2.754 1.276 5.841 1.679 8.996 1.679m38.6-91.029c2.819 0 5.572.873 7.855 2.619 3.221 2.618 4.9 6.847 4.698 11.613a26.253 26.253 0 0 1-.403 3.223c-.671 3.289-1.745 6.511-3.155 9.598-.537 1.276-1.14 2.484-1.677 3.692-1.344 2.754-2.484 5.573-3.492 8.46-1.275 4.027-2.147 8.324-3.02 12.553a125.04 125.04 0 0 1-3.424 13.762c-1.813 5.638-6.781 8.054-11.95 10.606-1.947.941-3.96 1.947-5.906 3.155-2.217 1.344-3.894 3.29-5.505 5.169-2.416 2.82-4.766 5.437-8.458 5.773-4.431.335-9.063.403-12.687-1.677-2.418-1.41-4.231-3.626-5.238-6.244-1.409-3.289-.403-7.25.605-9.936a56.416 56.416 0 0 1 1.274-2.953 31.467 31.467 0 0 0 2.216-6.11c0-.066 0-.199.068-.267v-.134c.737-4.297-1.409-8.929-3.558-13.426-1.008-2.082-1.881-4.229-2.685-6.377-.807-2.418.201-5.304 1.208-8.123.806-2.282 1.611-4.7 1.543-6.848-.267-2.283-.603-4.565-1.14-6.779-1.276-6.58-3.089-15.643-.471-17.12 4.431-2.55 10.742 3.894 15.307 8.594l1.409 1.409c1.342 1.342 2.552 2.013 3.692 1.947 1.611-.068 2.752-1.344 4.028-2.753 1.545-1.745 3.154-3.556 5.774-3.155 2.618.403 3.558-1.544 4.497-3.558.471-1.274 1.208-2.484 2.148-3.558 1.477-1.476 4.9-1.678 7.921-1.879 1.745 0 3.424-.268 5.102-.671a9.668 9.668 0 0 1 3.424-.605"/><path fill="#D5DEEB" fill-opacity=".5" d="M134.753 240.953c1.276 0 2.618-.068 3.826-.201 3.424-.336 5.64-2.552 7.922-4.968 1.342-1.478 2.82-2.82 4.497-3.962 1.478-.872 2.955-1.677 4.431-2.483 4.564-2.417 8.929-4.699 10.74-9.734 1.611-4.565 2.552-9.399 3.492-14.097.603-2.953 1.14-5.773 1.879-8.526.671-2.348 1.41-4.632 2.35-6.915.403-1.074.873-2.214 1.208-3.356.941-2.684 1.678-5.437 2.149-8.189.133-.94.201-1.813.201-2.753.066-4.161-1.545-7.853-4.297-10.137-2.819-2.215-6.511-3.019-10.001-2.215a17.939 17.939 0 0 1-3.76.404c-2.753.134-5.908.267-7.384 1.745a9.64 9.64 0 0 0-1.881 2.953c-.804 1.745-1.341 2.686-2.953 2.484-2.35-.268-3.827 1.344-5.101 2.753-.941 1.007-1.813 2.013-2.82 2.081-.738.066-1.477-.336-2.418-1.142l-1.074-.939c-3.758-3.424-8.861-8.124-12.553-5.64-2.348 1.611-.873 8.727.269 14.434.404 2.148.805 4.027.873 5.235.134 1.612-.469 3.492-1.006 5.303-.739 2.351-1.478 4.701-.807 6.849a82.02 82.02 0 0 0 1.544 4.363c1.679 4.431 3.356 8.927 2.35 12.889v.133l-.068.202c-.536 1.611-1.14 3.089-1.947 4.565-.469.94-1.006 1.946-1.41 3.021-.872 2.014-2.012 5.84-.469 9.13 1.006 2.283 2.753 4.094 4.968 5.236 2.282 1.074 4.766 1.611 7.25 1.477m31.015-77.066c2.549 0 4.967.806 6.98 2.35 2.618 2.148 4.095 5.638 4.095 9.6 0 .872-.067 1.813-.201 2.685a48.158 48.158 0 0 1-2.149 8.123c-.401 1.14-.804 2.214-1.208 3.356-.938 2.283-1.677 4.633-2.35 6.981-.737 2.753-1.274 5.707-1.879 8.526-.94 4.698-1.879 9.466-3.49 13.963-1.679 4.766-5.908 6.982-10.405 9.398-1.477.739-3.021 1.544-4.498 2.484a24.529 24.529 0 0 0-4.633 4.095c-2.214 2.283-4.295 4.497-7.451 4.767-3.491.335-7.518.469-10.741-1.209-2.08-1.074-3.759-2.819-4.698-4.967-1.478-3.021-.335-6.713.469-8.594.404-1.006.941-2.013 1.41-2.953.806-1.478 1.477-3.087 2.015-4.699l.066-.201.067-.134c1.075-4.163-.671-8.795-2.35-13.292a82.348 82.348 0 0 1-1.543-4.365c-.605-1.946.134-4.229.805-6.443.604-1.881 1.209-3.76 1.008-5.505-.068-1.208-.471-3.089-.941-5.303-1.074-5.237-2.484-12.42-.537-13.762 3.223-2.216 8.123 2.283 11.681 5.571l1.074.941c1.074.94 2.015 1.409 2.887 1.342 1.342-.066 2.283-1.141 3.289-2.283 1.208-1.342 2.484-2.819 4.498-2.55 2.147.268 2.886-1.275 3.625-2.887a9.146 9.146 0 0 1 1.745-2.753c1.343-1.342 4.364-1.41 6.982-1.544 1.342 0 2.618-.133 3.96-.403a9.606 9.606 0 0 1 2.418-.335"/><path fill="#D5DEEB" fill-opacity=".5" d="M137.103 235.65c1.14 0 2.348-.068 3.49-.202 2.887-.335 4.834-2.08 6.915-3.961a20.536 20.536 0 0 1 3.558-2.819c.94-.603 1.947-1.141 2.887-1.678 3.894-2.216 7.586-4.297 9.263-8.593 1.881-4.833 2.753-10.136 3.626-15.239.201-1.208.401-2.484.603-3.692.335-1.879.806-3.624 1.276-5.369.267-1.009.537-2.015.805-3.089.537-2.215.94-4.431 1.142-6.713.067-.739.067-1.478.067-2.215a10.146 10.146 0 0 0-9.935-10.406c-.605 0-1.208 0-1.881.135-.873.134-1.745.134-2.618.134-2.348.066-5.101.134-6.511 1.41-.605.603-1.142 1.276-1.477 2.081-.671 1.208-1.075 1.879-2.147 1.813-1.747-.134-2.821 1.074-3.76 2.148-1.142 1.274-2.014 2.214-3.692 1.006l-.672-.469c-2.752-2.015-6.512-4.834-8.996-2.552-1.677 1.478-.537 6.781.404 11.01.335 1.544.605 2.819.671 3.76.067 1.342-.134 2.684-.538 3.959-.401 1.746-.872 3.491-.401 5.102l.268 1.008c1.477 4.832 2.953 9.868 1.275 14.097l-.133.268c-.537 1.142-1.075 2.216-1.747 3.29-.537.94-1.141 1.947-1.678 3.021-.671 1.342-1.946 4.9-.335 7.853a9.403 9.403 0 0 0 4.431 3.962c2.012.671 3.893 1.006 5.84.94m23.294-63.237c2.282 0 4.498.806 6.243 2.148 2.215 1.947 3.49 4.698 3.423 7.653 0 .739 0 1.41-.066 2.149-.202 2.214-.605 4.43-1.142 6.577-.268 1.008-.538 2.015-.805 3.021-.471 1.745-.941 3.492-1.276 5.371a424.214 424.214 0 0 0-.605 3.692c-.873 5.102-1.745 10.339-3.624 15.105-1.544 4.027-5.169 6.108-8.995 8.189-.941.537-1.947 1.142-2.955 1.679-1.274.872-2.55 1.813-3.624 2.953-2.015 1.813-3.894 3.49-6.579 3.827-2.686.268-5.975.47-8.794-.738-1.745-.739-3.155-2.015-4.095-3.692-1.007-1.881-.873-4.567.335-7.25.47-1.008 1.075-2.015 1.612-2.955a32.52 32.52 0 0 0 1.813-3.357l.133-.335c1.746-4.363.202-9.532-1.275-14.5l-.268-1.007c-.403-1.409 0-3.154.401-4.766.404-1.343.605-2.819.537-4.229-.066-.94-.401-2.282-.736-3.827-.807-3.624-1.947-9.129-.605-10.405 2.08-1.879 5.572.671 8.122 2.618l.671.471c2.149 1.611 3.424.201 4.566-1.075.873-1.008 1.812-2.014 3.221-1.946 1.546.066 2.149-1.009 2.754-2.149.335-.739.804-1.342 1.341-1.879 1.276-1.142 3.828-1.21 6.11-1.21.873 0 1.811-.066 2.684-.133.605.067 1.074 0 1.478 0"/><path fill="#D5DEEB" fill-opacity=".5" d="M139.385 230.347a24.15 24.15 0 0 0 3.155-.202c2.484-.335 4.297-1.679 6.244-3.089.738-.537 1.543-1.074 2.348-1.611l.806-.469c3.491-2.149 6.781-4.162 8.391-7.855 2.284-5.102 2.887-10.808 3.222-15.237.068-1.008.134-2.015.202-2.955.068-1.208.202-2.416.269-3.558.134-1.947.134-3.558.134-5.168 0-.537 0-1.142-.068-1.679-.201-2.35-1.275-4.565-3.087-6.108-1.745-1.344-3.893-2.148-6.109-2.216h-.404c-2.012-.134-4.966-.268-6.713 1.006-.401.337-.804.739-1.074 1.21-.401.603-.737 1.074-1.409 1.14-1.141.068-1.812.873-2.484 1.544-.805.806-1.274 1.276-2.147 1.008-1.813-.605-4.297-1.478-5.639.603-.94 1.41-.135 4.834.536 7.585.201.873.403 1.68.471 2.217.066.872.066 1.813-.068 2.751a9.372 9.372 0 0 0 0 3.357c1.41 5.371 1.142 9.668-.671 12.822l-.134.202c-.471.739-.94 1.41-1.477 2.148-.739.939-1.342 1.879-1.947 2.886-1.007 1.813-1.544 4.564-.134 6.579a6.676 6.676 0 0 0 3.894 2.685c1.275.268 2.55.47 3.893.404m13.023-49.542c.738 0 1.477.066 2.08.066h.404c2.08.067 4.027.806 5.706 2.082a7.939 7.939 0 0 1 2.82 5.639c.067.537.067 1.074.067 1.611 0 1.544-.067 3.155-.135 5.102-.066 1.208-.134 2.348-.268 3.558l-.202 3.021c-.267 4.363-.872 10.001-3.154 14.969-1.612 3.49-4.767 5.505-8.191 7.586l-.805.469a71.42 71.42 0 0 0-2.35 1.611c-1.879 1.344-3.624 2.686-5.974 2.955-2.282.402-4.564.336-6.847-.269-1.411-.404-2.619-1.208-3.492-2.416-1.208-1.745-.671-4.297.202-5.841.537-1.008 1.208-1.946 1.879-2.819a25.511 25.511 0 0 0 1.545-2.148l.134-.27c1.947-3.289 2.215-7.787.739-13.292a7.938 7.938 0 0 1 0-3.087c.134-.94.201-1.947.066-2.887-.066-.603-.268-1.41-.469-2.282-.604-2.484-1.41-5.907-.604-7.117 1.007-1.609 3.155-.872 4.833-.335 1.275.471 2.148-.401 2.887-1.208.603-.603 1.208-1.276 2.08-1.342.941-.068 1.41-.739 1.879-1.41.27-.403.605-.806.941-1.074 1.074-.739 2.685-.872 4.229-.872"/><path fill="#D5DEEB" fill-opacity=".5" d="M141.333 225.11c6.645-.066 12.755-3.559 16.111-9.263a18.862 18.862 0 0 0 2.148-11.615c-.269-1.611-.604-3.155-1.074-4.698-.335-1.208-.672-2.416-.872-3.692-.336-1.813-.873-3.626-2.686-5.17-2.953-2.483-6.311-3.154-9.131-1.813a8.239 8.239 0 0 0-4.832 7.184 15.893 15.893 0 0 0 1.007 4.966c.335.941.605 1.881.804 2.888a12.581 12.581 0 0 1-2.953 10.54c-.403.469-.872.873-1.342 1.342-.872.739-1.611 1.611-2.282 2.552-.94 1.543-1.41 3.825 0 5.303a5.534 5.534 0 0 0 3.357 1.342c.537.134 1.14.134 1.745.134m15.506-9.599c-3.558 6.04-10.271 9.533-17.319 8.86a4.239 4.239 0 0 1-2.887-1.14c-1.075-1.142-.737-3.155.067-4.499.605-.872 1.342-1.745 2.149-2.416.469-.469.94-.873 1.342-1.342 2.685-3.021 3.827-7.116 3.154-11.143a20.96 20.96 0 0 0-.804-2.955c-.537-1.544-.873-3.087-.941-4.699a7.643 7.643 0 0 1 4.431-6.579c2.618-1.208 5.707-.537 8.458 1.745 1.679 1.344 2.149 3.089 2.484 4.766.202 1.276.537 2.484.874 3.692.402 1.478.805 3.021 1.007 4.567.603 3.825-.134 7.785-2.015 11.143"/></g></svg>