<svg xmlns="http://www.w3.org/2000/svg" width="338" height="347" fill="none"><mask id="a" width="338" height="347" x="0" y="0" maskUnits="userSpaceOnUse" style="mask-type:luminance"><path fill="#fff" d="M337.428.5H0v346.32h337.428z"/></mask><g mask="url(#a)"><mask id="b" width="337" height="347" x="0" y="0" maskUnits="userSpaceOnUse" style="mask-type:luminance"><path fill="#fff" d="M0 .65h336.96v346.17H0V.65Z"/></mask><g mask="url(#b)"><path fill="snow" fill-opacity=".5" d="M321.8 151.22c-10.448-14.876-25.74-27.952-43.038-36.74-22.071-11.208-46.356-17.09-69.95-22.694-1.453-2.56-2.906-5.05-4.29-7.61-9.894-17.436-20.133-35.426-33.212-51.27C149.17 5.991 127.168-4.18 105.927 2.808c-4.29 1.451-8.442 3.39-12.316 5.673-5.605.484-11.001 2.144-15.913 4.775-4.013 2.144-7.75 4.773-11.141 7.747-5.397 1.454-10.448 4.015-14.876 7.474-3.528 2.837-6.78 6.02-9.617 9.548a40.964 40.964 0 0 0-13.353 9.963 63.048 63.048 0 0 0-7.819 11.139c-4.566 3.183-8.51 7.334-11.416 12.11C2.21 83-2.702 101.957 1.796 115.657c4.566 13.768 17.436 20.342 29.89 26.707a252.219 252.219 0 0 1 7.542 3.944c7.817 4.29 14.598 10.171 19.996 17.228-1.592 2.077-3.182 4.152-4.775 6.159-2.283 2.835-4.773 5.949-7.956 9.755-22.487 26.985-44.282 58.949-34.665 91.123 4.221 14.115 13.907 26.222 28.921 36.048 6.505 6.988 15.015 12.731 25.532 17.229 7.61 5.742 17.02 9.893 28.09 12.522 8.441 4.291 18.405 6.781 29.752 7.404a68.013 68.013 0 0 0 20.065 2.836c12.316 0 26.155-2.766 41.376-8.302 6.92-.208 13.77-.554 20.687-1.177 18.96-1.73 46.358-5.951 65.178-23.247a62.959 62.959 0 0 0 7.126-7.749c6.158-4.221 11.554-9.342 16.121-15.223 2.146-2.768 4.013-5.742 5.674-8.855 5.327-5.19 9.755-11.209 13.216-17.782 1.59-3.114 2.974-6.366 4.013-9.755a72.89 72.89 0 0 0 9.963-19.79 65.171 65.171 0 0 0 2.283-10.309 73.19 73.19 0 0 0 6.366-21.241c2.283-17.297-2.699-35.286-14.391-51.962M106.412 4.054c4.082-1.315 8.301-2.007 12.592-2.007 16.744 0 33.903 10.656 51.339 31.758C183.35 49.58 193.52 67.5 203.416 84.868c1.245 2.144 2.42 4.289 3.667 6.503l-.278-.07-6.711-1.59c-3.806-4.428-7.473-8.925-11.14-13.355-12.799-15.43-25.945-31.41-41.583-44.765-18.473-15.775-35.425-23.524-50.646-23.316a55.189 55.189 0 0 1 9.687-4.221ZM328.58 224.078c-2.215 4.773-4.844 9.34-7.819 13.698.485-9.201-.484-18.404-2.906-27.259-4.704-17.506-14.6-35.011-27.883-49.264-17.367-18.613-38.886-32.728-59.712-46.426-4.219-2.767-8.51-5.605-12.799-8.442-1.038-1.66-2.007-3.389-3.045-5.051l4.636 2.007c22.833 9.825 46.427 19.927 66.629 35.148 25.739 19.374 47.534 52.377 42.899 85.589m-29.338 57.151c-3.734 3.667-7.749 7.126-12.038 10.17a78.966 78.966 0 0 0 3.529-9.825c4.566-3.459 8.857-7.195 13.007-11.14-1.176 3.736-2.629 7.404-4.498 10.795m-174.841 61.233a59.2 59.2 0 0 1-7.819-3.046c3.044.139 6.157.278 9.34.278a172.1 172.1 0 0 0 10.241-.278 328.36 328.36 0 0 0 19.996-1.66c3.183.209 6.296.346 9.479.485-15.36 3.528-29.13 4.912-41.237 4.221Zm-82.752-36.879c-3.598-3.876-6.642-8.164-8.995-12.87-14.736-29.475.97-64.346 18.267-94.512 2.422-4.291 4.428-7.75 6.157-11.002a236.428 236.428 0 0 0 7.612-15.084 66.479 66.479 0 0 1 2.699 5.397 226.883 226.883 0 0 1-7.059 25.462 729.965 729.965 0 0 1-4.151 11.901c-11.9 33.073-21.448 70.504-1.384 97.489.278.345.484.691.762.968-4.845-2.283-9.479-4.842-13.908-7.749m175.604-196.915a76.698 76.698 0 0 0-2.353-2.42l1.523 1.036c.276.485.554.9.83 1.384m-.139 1.869 3.322 3.321c1.937 3.044 3.875 6.019 5.95 8.925 5.397 7.75 11.139 15.499 16.744 22.971 14.875 19.926 30.235 40.476 40.131 63.794 7.748 18.265 11.693 40.268 8.716 60.61-19.996 18.681-42.273 34.802-66.214 48.087-8.856 3.873-17.781 7.404-26.914 10.586-9.342 2.351-18.82 4.22-28.369 5.742-9.617.691-19.303.9-28.921.761a331.328 331.328 0 0 1-40.337-6.85c-19.373-19.927-22.349-52.999-22.486-83.58 0-4.912-.07-8.927-.14-12.592-.414-16.122-1.937-33.075-7.195-48.226-.138-4.775-.553-9.479-1.314-14.185.691-4.705 1.106-9.409 1.175-14.184a106.112 106.112 0 0 0 3.668-13.768c10.308-19.096 15.498-40.2 6.78-62.962-.969-2.63-2.075-5.19-3.252-7.958-2.56-6.088-5.12-12.108-6.572-18.334 2.214.345 4.428.69 6.71 1.106 20.066 3.736 39.439 10.932 58.19 17.921 13.629 5.05 27.676 10.309 41.998 14.183 1.522.415 3.043.762 4.497 1.177a247.105 247.105 0 0 0 9.618 4.773c1.383.693 2.837 1.314 4.219 1.938 2.837 2.214 5.744 4.289 8.649 6.365 1.247.9 2.561 1.799 3.875 2.699 2.49 2.49 4.982 5.12 7.472 7.68m89.808 144.537a223.232 223.232 0 0 1-6.711 6.989 318.589 318.589 0 0 1-6.85 6.641c.139-1.314.278-2.629.415-3.943 1.593-18.058-1.729-37.915-9.34-55.836-9.963-23.455-25.392-44.075-40.268-64.071-5.605-7.471-11.347-15.151-16.676-22.901-.899-1.245-1.729-2.559-2.629-3.806 4.222 4.082 8.512 8.095 12.662 12.04 18.06 17.02 36.809 34.594 50.579 55.837 12.8 19.648 21.171 45.18 18.818 69.05m-13.837 15.776a291.664 291.664 0 0 0 8.095-7.818c1.73-1.799 3.598-3.668 5.466-5.675a68.961 68.961 0 0 1-2.075 10.517 150.522 150.522 0 0 1-13.215 11.556c.691-2.768 1.314-5.605 1.729-8.58m-3.391 9.825a201.244 201.244 0 0 1-7.817 5.742c-13.493 9.479-27.608 17.852-42.345 25.186a335.897 335.897 0 0 0 52.03-39.37 58.984 58.984 0 0 1-1.868 8.442m-183.836 51.891c-.969-.76-1.868-1.59-2.768-2.42a327.876 327.876 0 0 0 23.248 4.358c-6.435-.415-12.87-1.038-19.235-1.799zm-27.607-10.448c-19.859-22.97-17.021-58.741-11.416-91.122.83-4.843 1.453-8.786 2.005-12.454 1.593-9.893 2.492-19.926 2.63-29.959 4.15 13.907 5.398 29.129 5.743 43.659.07 3.668.139 7.68.139 12.592.068 30.099 2.974 62.687 21.447 83.028-6.572-1.592-13.076-3.321-19.442-5.327l-1.106-.417m-8.303-142.253c-.345-.83-.693-1.73-1.038-2.56a45.04 45.04 0 0 0 .554-2.976c.208 1.799.345 3.667.484 5.536m-.554-14.391c-.206-.9-.415-1.799-.621-2.699.345-.969.76-1.937 1.106-2.837-.14 1.799-.276 3.667-.485 5.536m1.938-14.254c0-.9-.07-1.869-.139-2.768.554-.899 1.038-1.729 1.592-2.629a77.608 77.608 0 0 1-1.453 5.397M49.744 51.518c6.92-.346 13.908-.07 20.827.899 1.452 6.435 4.15 12.8 6.781 19.027 1.175 2.698 2.214 5.327 3.25 7.888 7.958 20.826 4.015 40.338-4.773 58.19 2.145-15.015.276-30.307-8.649-45.113-1.453-2.422-2.974-4.773-4.566-7.265-6.92-10.517-13.907-21.38-12.87-33.627m22.072-15.984c8.51.97 17.92 3.391 28.16 7.198 19.097 7.195 36.947 17.643 54.175 27.743 7.819 4.567 15.775 9.272 23.94 13.7-13.837-3.804-27.468-8.925-40.683-13.837-18.751-6.989-38.193-14.184-58.396-17.921-2.492-.415-4.912-.83-7.265-1.175-1.176-5.26-1.384-10.448.07-15.708m120.668 54.453c-1.039-.485-2.077-.97-3.046-1.521.623.137 1.177.276 1.799.415l1.247 1.106M205.7 98.22c-.899-.691-1.868-1.315-2.768-2.006l1.66.76zm-7.749-5.743c-1.247-.899-2.423-1.868-3.598-2.837 1.66.415 3.389.83 4.982 1.178 1.036 1.245 2.075 2.42 3.113 3.665a36.817 36.817 0 0 1-4.497-2.005m-6.159-4.775c-6.711-5.396-13.216-10.932-19.649-16.396-15.292-12.94-31.067-26.362-48.71-36.81-15.638-9.202-29.614-14.184-41.93-14.875 3.737-3.806 7.958-7.058 12.524-9.826 1.106-.07 2.214-.139 3.39-.139 14.738 0 31.136 7.682 49.056 22.972 15.498 13.285 28.714 29.197 41.445 44.56a1296.11 1296.11 0 0 0 9.963 11.968c-2.077-.485-4.082-.97-6.089-1.454m-69.05-52.03c17.573 10.378 33.348 23.733 48.569 36.74 5.675 4.843 11.417 9.757 17.367 14.53-1.59-.415-3.182-.83-4.842-1.245-9.964-5.12-19.651-10.863-29.06-16.398-17.298-10.102-35.149-20.62-54.383-27.815-10.241-3.805-19.72-6.227-28.23-7.265.208-.691.415-1.315.693-1.936 1.73-4.221 4.289-8.027 7.402-11.347 12.385.415 26.57 5.327 42.484 14.736M71.608 31.8c-.276.76-.554 1.521-.83 2.284a70.053 70.053 0 0 0-14.252 0c3.044-4.36 6.572-8.373 10.654-11.832 3.667-.969 7.404-1.384 11.208-1.384h.14c-2.907 3.183-5.258 6.92-6.92 10.932m-8.095 3.25c2.214 0 4.497.14 6.92.348a34.808 34.808 0 0 0-.209 15.567 111.05 111.05 0 0 0-20.341-.83c.069-.691.208-1.315.345-2.006a36.112 36.112 0 0 1 5.33-12.455 50.723 50.723 0 0 1 7.955-.623m-14.6 12.801c-.136.83-.275 1.593-.414 2.423a68.688 68.688 0 0 0-14.046 2.49c2.214-4.843 5.051-9.34 8.373-13.492 3.459-1.59 7.126-2.698 10.932-3.39a37.578 37.578 0 0 0-4.844 11.97m-.551 3.737c-.97 12.592 6.157 23.594 13.076 34.25 1.59 2.49 3.113 4.843 4.567 7.195 9.479 15.845 10.793 32.311 7.75 48.294-.9 1.592-1.801 3.183-2.7 4.775-1.246-13.354-5.95-26.224-15.982-37.848-1.8-2.144-3.737-4.151-5.812-6.365-9.342-10.033-18.96-20.342-18.545-34.318a37.62 37.62 0 0 1 3.046-13.215c4.773-1.454 9.618-2.353 14.6-2.768M29.332 67.57c-.414 14.53 9.412 25.047 18.96 35.287 2.005 2.214 3.943 4.221 5.742 6.296 10.309 11.901 14.876 25.186 15.845 38.954-1.245 1.937-2.49 3.943-3.807 5.811a65.104 65.104 0 0 0-20.202-27.952c-2.145-1.729-4.428-3.459-6.78-5.258-10.933-8.233-22.21-16.743-24.218-30.582-1.384-9.549 1.938-20.757 7.128-30.03 3.113-2.143 6.572-3.942 10.17-5.187-1.73 4.082-2.629 8.301-2.837 12.661m40.616 82.889c.07 1.66.07 3.253.07 4.912a64.857 64.857 0 0 1-1.869 5.121c-.484-1.66-.969-3.391-1.592-4.982a127.687 127.687 0 0 0 3.391-5.051m-2.629 12.247c-.83 2.144-1.73 4.291-2.698 6.435a79.156 79.156 0 0 0-3.737-5.605 541.27 541.27 0 0 0 4.773-6.572c.624 1.799 1.178 3.804 1.662 5.742m.552 2.283c.348 1.591.693 3.252.902 4.843-.278 1.799-.554 3.598-.902 5.397-.76-1.591-1.52-3.114-2.42-4.635.83-1.868 1.66-3.736 2.42-5.605M55.833 311.534c-19.58-26.501-10.172-63.517 1.66-96.244 1.662-4.636 2.976-8.371 4.152-11.901 2.629-7.817 4.912-15.705 6.71-23.731.624 1.521 1.248 3.044 1.732 4.634.276 11.348-.9 22.973-2.561 34.111a616.303 616.303 0 0 1-2.006 12.455c-5.535 31.965-8.372 67.184 10.31 90.639a179.132 179.132 0 0 1-17.505-6.711c-.832-1.177-1.662-2.214-2.492-3.252m21.656 11.762c1.108 1.314 2.353 2.559 3.598 3.736.278.276.623.553.969.83a117.476 117.476 0 0 1-15.084-5.19 53.419 53.419 0 0 1-6.364-5.603c5.188 2.283 10.793 4.289 16.881 6.227m4.497 2.768c-.69-.624-1.314-1.315-2.005-2.008 6.78 2.077 13.63 3.876 20.548 5.536.899.899 1.868 1.799 2.837 2.698-6.226-.899-12.383-2.075-18.404-3.598-1.038-.83-2.007-1.729-2.976-2.628m23.318 7.818a64.218 64.218 0 0 0 4.152 3.044l1.038.691a119.675 119.675 0 0 1-15.707-2.49 68.321 68.321 0 0 1-7.196-4.36c5.536 1.247 11.486 2.284 17.713 3.115m4.912 1.936c-.76-.484-1.523-1.036-2.283-1.59 11.14 1.384 22.418 2.144 33.626 2.353 2.284.206 4.567.484 6.85.691a368.91 368.91 0 0 1-12.316.83c-7.471.415-15.014.345-22.486-.207a146.242 146.242 0 0 1-3.391-2.077m53.553.969c2.284-.345 4.636-.691 6.92-1.038 2.283-.137 4.566-.346 6.919-.552-2.283.621-4.566 1.175-6.919 1.799-2.353 0-4.636-.07-6.92-.209m21.45-2.352c3.182-.346 6.296-.761 9.478-1.176-3.182 1.314-6.296 2.559-9.409 3.667-3.115.07-6.298.139-9.411.07 3.113-.763 6.228-1.593 9.342-2.561m7.402-2.214c2.215-.691 4.36-1.454 6.574-2.214 2.214-.554 4.497-1.106 6.711-1.73a129.82 129.82 0 0 1-6.435 2.905c-2.284.348-4.567.693-6.85 1.039m20.758-6.088c16.051-4.706 31.689-10.656 46.84-17.713 8.234-3.736 16.123-8.095 23.733-13.009-1.799 3.461-3.943 6.713-6.296 9.757-14.046 9.824-30.72 15.29-43.52 18.751-9.688 2.629-19.512 4.773-29.475 6.503 2.905-1.384 5.811-2.768 8.718-4.289m46.288-18.89c-12.8 6.02-25.946 11.141-39.37 15.429 2.076-1.106 4.082-2.144 6.089-3.32 19.788-8.787 38.678-19.443 56.321-31.827 2.006-1.454 4.152-2.976 6.366-4.636a76.962 76.962 0 0 1-3.876 10.032c-8.095 5.467-16.674 10.24-25.53 14.322m48.433-51.476a153.494 153.494 0 0 0 10.862-13.216c-.553 3.874-1.383 7.68-2.561 11.347a99.761 99.761 0 0 1-10.1 12.108 72.059 72.059 0 0 0 1.799-10.239m.206-2.214c.348-4.982.348-9.896-.137-14.878-1.592-18.058-8.303-37.015-18.89-53.344-13.906-21.38-32.657-39.023-50.785-56.113-5.603-5.327-11.417-10.793-17.02-16.259-.83-1.314-1.662-2.561-2.422-3.876 3.459 2.284 6.989 4.636 10.378 6.85 20.757 13.631 42.206 27.676 59.504 46.219 18.82 20.204 33.072 49.679 30.374 77.701a148.82 148.82 0 0 1-11.002 13.7m-93.612-149.036c-1.384-.9-2.768-1.869-4.083-2.768a134.82 134.82 0 0 1-3.045-3.39c1.592.692 3.115 1.385 4.705 2.075.83 1.315 1.593 2.699 2.423 4.083m-9.273-8.65c-1.314-1.45-2.559-2.974-3.874-4.427l4.913 1.177 1.522.346 3.114 5.397c-1.938-.83-3.806-1.593-5.675-2.492M78.319 14.503c3.945-2.145 8.165-3.529 12.594-4.291a65.845 65.845 0 0 0-11.21 9.342 50.666 50.666 0 0 0-10.24.83c2.768-2.214 5.743-4.221 8.856-5.881M52.511 29.585c3.53-2.767 7.474-4.913 11.695-6.434a63.515 63.515 0 0 0-9.411 11.208c-3.39.484-6.711 1.384-9.964 2.56 2.284-2.63 4.913-5.12 7.68-7.333M29.75 48.959c2.975-3.322 6.503-6.159 10.379-8.303-2.907 3.943-5.397 8.164-7.335 12.661-3.252 1.108-6.365 2.492-9.341 4.291 1.798-3.113 3.945-5.95 6.297-8.649m10.17 96.174c-2.422-1.314-4.981-2.629-7.61-4.013-12.177-6.228-24.77-12.661-29.199-25.946-4.428-13.285.484-31.758 7.543-43.175a41.75 41.75 0 0 1 8.716-10.033c-4.497 8.995-7.265 19.373-5.948 28.37 2.144 14.39 13.63 23.039 24.769 31.479 2.353 1.799 4.636 3.461 6.71 5.19 9.204 7.403 16.123 17.159 20.136 28.229-1.662 2.352-3.322 4.705-5.051 6.988a65.478 65.478 0 0 0-20.066-17.089M13.073 270.158c-9.41-31.62 12.11-63.171 34.457-89.878 3.182-3.805 5.674-6.918 7.958-9.755 1.52-1.938 3.043-3.876 4.566-5.881 1.384 1.936 2.699 3.943 3.874 6.018a227.135 227.135 0 0 1-8.025 15.914c-1.73 3.252-3.737 6.713-6.16 11.001-17.504 30.514-33.348 65.731-18.334 95.829 1.66 3.252 3.598 6.365 5.881 9.27-12.385-9.201-20.48-20.063-24.217-32.518m33.005 39.714c3.528 2.077 7.333 4.014 11.415 5.813 1.453 1.66 2.976 3.251 4.636 4.704a73.803 73.803 0 0 1-16.05-10.517Zm26.015 16.261a135.967 135.967 0 0 0 12.316 3.735c1.729 1.384 3.528 2.698 5.396 3.875a71.744 71.744 0 0 1-17.713-7.61m28.368 11.484c4.013.693 8.302 1.247 12.731 1.593a67.754 67.754 0 0 0 5.949 2.837c-6.365-.693-12.662-2.146-18.68-4.43m30.027 6.366c10.656 0 22.488-1.454 35.426-4.428 1.661-.345 3.252-.76 4.912-1.175 2.077.067 4.151.067 6.228.067h4.152c-19.375 6.505-36.394 8.373-50.718 5.536m139.903-31.066c-18.473 17.02-45.597 21.172-64.346 22.901-5.536.485-11.071.83-16.607 1.039 1.868-.761 3.806-1.523 5.744-2.353 1.59-.691 3.113-1.314 4.636-2.005 11.623-1.799 23.177-4.291 34.594-7.335 11.762-3.183 26.776-8.027 40.061-16.329-1.245 1.384-2.559 2.768-4.082 4.082m23.109-22.763a68.03 68.03 0 0 1-12.455 12.385 71.555 71.555 0 0 0 4.982-8.649 126.49 126.49 0 0 0 10.795-8.511 49.93 49.93 0 0 1-3.322 4.775m18.819-26.431a71.82 71.82 0 0 1-10.1 14.392c1.384-3.045 2.49-6.228 3.389-9.411a116.301 116.301 0 0 0 9.133-10.239 59.289 59.289 0 0 1-2.422 5.258m13.908-29.267a69.007 69.007 0 0 1-7.403 15.845c.829-3.253 1.383-6.505 1.729-9.827 2.629-3.734 5.051-7.61 7.195-11.692-.415 1.868-.899 3.806-1.521 5.674m8.649-31.274a64.978 64.978 0 0 1-4.566 16.883c.899-12.594-1.73-25.877-7.889-39.023-7.68-16.468-20.48-31.967-36.047-43.659-20.341-15.291-44.005-25.462-66.907-35.356l-6.296-2.698c-1.176-1.938-2.284-3.946-3.459-5.882 23.109 5.466 46.84 11.348 68.359 22.28 31.828 16.12 61.717 49.471 56.805 87.455"/></g></g></svg>