<svg xmlns="http://www.w3.org/2000/svg" width="426" height="381" fill="none"><mask id="a" width="426" height="381" x="0" y="0" maskUnits="userSpaceOnUse" style="mask-type:luminance"><path fill="#fff" d="M425.333 0H0v380.16h425.333z"/></mask><g mask="url(#a)"><mask id="b" width="425" height="380" x="0" y="0" maskUnits="userSpaceOnUse" style="mask-type:luminance"><path fill="#fff" d="M.305.587H424.16v378.986H.305V.587Z"/></mask><g mask="url(#b)"><path fill="snow" fill-opacity=".5" d="M418.671 112.161c-3.73-11.016-8.644-21.526-14.746-31.354a162.3 162.3 0 0 0-48.646-50.087c-7.626-5.085-16.864-10.762-26.865-15.084a81.763 81.763 0 0 0-20.338-5.763c-5.001-.848-10.169-1.442-15.084-2.035-3.222-.34-6.527-.761-9.747-1.185-3.898-.509-7.881-1.187-11.779-1.78-8.305-1.273-16.864-2.627-25.424-3.22-26.017-1.781-52.119.678-77.291 7.456-12.542 3.39-24.83 7.797-36.609 13.306-2.881 1.357-5.764 2.796-8.644 4.237-55.255 28.813-98.306 81.865-115 142.035-16.698 60.17-7.29 127.8 25.338 181.019 7.373 12.034 14.915 17.628 23.135 17.288 9.407-.424 15.086-8.389 20.595-16.101 3.05-4.237 6.1-8.559 9.829-11.779 10.34-8.899 25.763-8.135 36.696-4.407 9.323 3.135 17.797 8.475 26.018 13.56 2.796 1.693 5.591 3.474 8.474 5.168 29.322 17.288 63.475 26.017 97.543 26.017 25.678.085 51.186-4.998 74.832-15.084 19.575-8.39 32.202-18.56 38.814-31.272 9.407-18.221 5.679-39.577 2.033-60.255-3.729-21.186-7.542-43.051 3.306-60.763 5.083-8.39 13.051-14.745 20.763-20.932 7.711-6.188 15.847-12.627 21.102-21.356 11.27-18.221 7.118-41.441 1.695-57.629m-3.222 56.95c-5.167 8.39-13.051 14.747-20.762 20.848-7.796 6.272-15.847 12.711-21.187 21.356-11.185 18.221-7.287 40.425-3.474 61.95 3.559 20.424 7.288 41.44-1.865 59.153-6.355 12.288-18.813 22.289-37.966 30.424-54.407 23.306-119.832 19.154-170.849-10.847-2.798-1.695-5.678-3.474-8.474-5.17-8.307-5.17-16.867-10.509-26.357-13.729-5.17-1.778-10.679-2.626-16.103-2.626-7.881 0-15.847 2.033-22.202 7.457-3.9 3.305-7.035 7.796-10.17 12.118-5.51 7.712-10.68 15.002-19.239 15.341-7.542.339-14.575-5.086-21.61-16.443-32.287-52.88-41.695-120.086-25.085-179.832 16.61-59.746 59.322-112.374 114.325-140.933a259.457 259.457 0 0 1 8.559-4.237 228.99 228.99 0 0 1 36.27-13.22c25.002-6.697 50.935-9.153 76.698-7.375 8.474.593 17.034 1.95 25.339 3.222 3.898.593 7.881 1.185 11.779 1.778 3.22.424 6.524.848 9.746 1.187 4.916.594 10.084 1.187 15.084 1.95 6.866 1.1 13.56 2.966 19.917 5.677 9.914 4.237 18.982 9.916 26.524 14.917 19.493 12.796 35.848 29.745 48.136 49.575 6.018 9.747 10.934 20.171 14.577 31.018 5.34 15.932 9.408 38.559-1.611 56.441m-27.88-85.254c-5.679-9.238-12.373-17.882-19.917-25.594-2.372-2.459-4.913-4.83-7.457-7.12-5.679-4.998-11.694-9.574-18.052-13.642-6.693-4.322-15.592-9.747-25.254-13.73-6.1-2.543-12.542-4.237-19.066-5.17-3.901-.593-7.629-1.017-10.849-1.356l-3.983-.424c-2.711-.255-5.594-.594-8.39-.93-3.389-.425-6.779-.848-10.17-1.357-8.051-1.103-16.271-2.205-24.576-2.629-12.118-.591-24.152-.17-36.188 1.187-11.864 1.272-23.558 3.475-35 6.697a197.963 197.963 0 0 0-33.39 12.457c-2.626 1.27-5.255 2.541-7.881 3.983-22.034 11.864-41.864 27.372-58.559 45.932-22.458 24.66-38.644 54.409-47.288 86.611a212.518 212.518 0 0 0-4.662 83.985c3.983 28.05 13.642 54.915 28.474 79.067 6.694 10.764 13.475 15.849 20.932 15.595 8.56-.339 13.645-7.375 18.645-14.238 2.711-3.729 5.51-7.627 8.899-10.34 7.881-6.609 20.254-7.966 32.965-3.813 9.323 3.052 17.882 8.052 26.272 12.881 2.205 1.272 4.407 2.544 6.696 3.816 29.831 16.694 63.051 25.423 95.086 25.423 11.779 0 23.474-1.187 34.999-3.646a154.23 154.23 0 0 0 30.424-10.083c17.797-8.051 29.324-17.797 35.17-29.915 7.966-16.526 4.576-35.679 1.272-54.155-1.272-7.033-2.542-14.32-3.22-21.356-1.441-15.508.594-26.611 6.524-36.1 4.746-7.629 12.119-13.475 19.154-19.239 7.203-5.848 14.745-11.779 19.66-19.83 10.595-17.119 7.036-38.644 2.12-53.645-3.307-10.34-7.798-20.085-13.39-29.322m9.914 81.865c-4.744 7.711-12.119 13.644-19.237 19.406-7.117 5.763-14.577 11.781-19.577 19.662-6.186 9.831-8.221 21.271-6.779 37.118.678 7.121 1.95 14.323 3.22 21.441 3.307 18.221 6.611 37.121-1.1 53.137-5.679 11.694-16.867 21.271-34.325 29.152-9.659 4.322-19.745 7.712-30.085 9.916-11.355 2.457-23.049 3.644-34.661 3.644-31.694 0-64.662-8.644-94.238-25.169a456.694 456.694 0 0 0-6.694-3.814c-8.475-4.83-17.119-9.831-26.526-12.966-4.746-1.611-9.662-2.459-14.662-2.459-7.712 0-14.745 2.205-19.915 6.612-3.474 2.965-6.357 6.863-9.153 10.677-5 6.781-9.662 13.22-17.373 13.475-6.779.254-13.051-4.577-19.406-14.83-29.07-46.949-37.968-107.458-23.645-161.698 8.56-31.95 24.576-61.441 46.864-85.932 16.61-18.391 36.273-33.73 58.053-45.508 2.541-1.357 5.17-2.629 7.796-3.9 10.679-5.084 21.695-9.151 33.051-12.373 11.357-3.136 23.051-5.338 34.746-6.61 11.951-1.356 23.984-1.695 36.018-1.102 8.22.424 16.44 1.526 24.406 2.626 3.307.424 6.781.933 10.171 1.357 2.795.34 5.678.593 8.474.933l3.983.424c3.22.339 6.948.763 10.764 1.356a78.875 78.875 0 0 1 18.643 5.083c9.492 3.898 18.306 9.323 24.915 13.56a153.087 153.087 0 0 1 17.797 13.475c2.544 2.205 5 4.577 7.374 7.033 7.458 7.714 14.067 16.188 19.661 25.426 5.509 9.066 10 18.728 13.305 28.813 4.916 14.578 8.475 35.51-1.865 52.035m-26.27-78.815a127.402 127.402 0 0 0-18.39-23.643 100.688 100.688 0 0 0-6.951-6.527c-5.252-4.661-10.931-8.814-16.864-12.542-9.153-5.764-16.441-9.577-23.643-12.373-5.679-2.204-11.695-3.728-17.713-4.576-3.728-.51-7.287-.848-10.085-1.187l-4.577-.424c-2.287-.17-4.661-.424-6.948-.679-2.796-.254-5.594-.591-8.39-.93-7.796-.848-15.847-1.78-23.815-2.035a222.037 222.037 0 0 0-33.559 1.78c-10.677 1.27-21.271 3.475-31.696 6.44-10.338 2.968-20.424 6.866-30.17 11.612a179.769 179.769 0 0 0-7.118 3.644 206.606 206.606 0 0 0-53.643 42.797c-20.68 22.795-35.34 50.423-42.715 80.254-6.015 24.493-7.117 49.832-3.474 74.747 3.644 24.915 12.373 48.73 25.678 70.171 5.934 9.405 11.867 13.981 18.306 13.981h.424c7.627-.254 12.288-6.354 16.78-12.288 2.456-3.219 5-6.524 7.966-8.983 6.95-5.676 17.966-6.863 29.321-3.135 9.832 3.135 18.561 7.796 27.714 12.627l3.643 1.95c23.137 12.204 55.848 25 91.442 25a144.44 144.44 0 0 0 28.983-2.965c9.747-2.12 19.239-5.34 28.222-9.662 15.932-7.627 26.526-17.288 31.524-28.646 6.527-14.829 3.392-31.694.424-48.134-1.269-6.951-2.626-14.153-3.22-21.104-1.102-13.812.933-24.237 6.527-32.881 4.407-6.948 11.101-12.288 17.543-17.542 6.694-5.34 13.557-10.932 18.218-18.306 9.917-15.847 6.781-35.592 2.459-49.406a124.96 124.96 0 0 0-12.203-27.035m8.305 75.51c-4.407 7.118-11.272 12.543-17.797 17.88-6.611 5.255-13.39 10.764-17.966 17.882-5.764 8.983-7.966 19.832-6.781 33.983.593 7.035 1.95 14.238 3.222 21.273 3.135 16.865 6.015 32.797-.255 47.119-4.831 10.932-15.171 20.339-30.678 27.796-8.814 4.237-18.221 7.457-27.798 9.577-45.932 9.746-90.255-6.527-119.323-21.865l-3.559-1.948c-8.898-4.746-18.051-9.577-28.052-12.799-4.237-1.439-8.729-2.117-13.221-2.202-6.863 0-13.051 1.95-17.627 5.679-3.135 2.541-5.761 5.931-8.22 9.322-4.492 5.931-8.644 11.44-15.508 11.61-6.018.169-11.61-4.153-17.288-13.136-26.272-41.864-34.238-94.153-22.035-143.646A184.14 184.14 0 0 1 78.92 89.451a204.832 204.832 0 0 1 53.222-42.46 133.496 133.496 0 0 1 7.033-3.644c9.662-4.661 19.663-8.56 29.916-11.525a197.042 197.042 0 0 1 31.441-6.357 219.016 219.016 0 0 1 33.305-1.778c7.966.254 15.934 1.1 23.73 2.032 2.796.34 5.594.594 8.39.933 2.287.255 4.661.424 6.948.678l4.492.424c2.713.255 6.357.594 10.001 1.188 5.933.845 11.779 2.287 17.373 4.489 7.033 2.798 14.238 6.527 23.306 12.205 5.846 3.729 11.44 7.796 16.61 12.373 2.372 2.033 4.662 4.237 6.864 6.524 6.948 7.036 13.051 14.917 18.136 23.307 5.085 8.39 9.153 17.288 12.118 26.61 4.322 13.475 7.288 32.712-2.287 47.967m-24.663-72.375c-4.746-7.881-10.337-15.169-16.779-21.695a85.787 85.787 0 0 0-6.44-6.016 121.733 121.733 0 0 0-15.679-11.442c-6.949-4.407-14.321-8.05-21.95-11.016a74.523 74.523 0 0 0-16.525-3.983c-2.711-.34-5.592-.678-9.323-.933l-5.252-.424c-1.781-.17-3.561-.254-5.34-.424l-6.442-.509c-7.626-.676-15.507-1.354-23.388-1.354h-.085c-10.255.085-20.593.848-30.764 2.372-9.576 1.357-19.068 3.39-28.391 6.187-9.32 2.796-18.304 6.44-26.948 10.762-2.459 1.272-4.491 2.29-6.357 3.39-17.542 10-33.983 23.306-48.815 39.661-18.897 20.932-32.117 46.358-38.305 73.9-10.083 44.323-2.541 90.594 20.68 126.866 5.338 8.39 10.762 12.288 16.526 12.288 6.778-.084 10.846-5.339 14.914-10.424 2.119-2.712 4.406-5.507 7.035-7.627 6.1-4.746 15.677-5.679 25.678-2.542 10.847 3.39 20.678 8.051 29.831 12.543 22.628 11.101 54.406 24.491 87.796 24.491 7.714 0 15.425-.763 23.052-2.287 9.068-1.866 17.797-4.916 26.017-9.153 14.238-7.288 23.645-16.525 27.883-27.374 5.167-13.136 2.287-27.881-.424-42.119-1.357-6.863-2.714-13.983-3.138-20.847-.845-12.373 1.188-21.865 6.527-29.831 4.068-6.187 10.171-11.103 16.017-15.764 6.102-4.916 12.457-10.083 16.779-16.78 9.238-14.49 6.612-32.626 2.798-45.168-2.883-8.645-6.526-16.95-11.188-24.748m6.781 69.068c-4.152 6.527-10.34 11.528-16.355 16.358-6.018 4.829-12.121 9.745-16.358 16.186-5.507 8.305-7.627 18.137-6.779 30.849.509 6.948 1.863 14.151 3.22 21.016 2.798 14.66 5.509 28.559.509 41.186-4.068 10.425-13.221 19.324-27.12 26.442a100.559 100.559 0 0 1-25.508 9.068c-40.932 8.474-82.29-8.56-109.831-22.12-9.153-4.491-19.069-9.152-30-12.627-3.816-1.187-7.799-1.863-11.782-1.863-6.015 0-11.44 1.609-15.422 4.659-2.796 2.205-5.086 5.085-7.288 7.884-3.983 5-7.629 9.659-13.56 9.744h-.254c-5.085 0-10.001-3.729-14.917-11.525-22.964-35.933-30.424-81.696-20.423-125.595 6.103-27.204 19.154-52.374 37.796-73.136 14.663-16.186 31.018-29.492 48.391-39.323 1.866-1.017 3.814-2.117 6.273-3.39 8.559-4.321 17.54-7.88 26.693-10.678a179.343 179.343 0 0 1 28.137-6.1c10.086-1.527 20.254-2.29 30.509-2.375h.085c7.796 0 15.592.678 23.219 1.357l6.357.508 5.34.424c1.778.085 3.474.255 5.252.424 3.731.34 6.527.594 9.323.933 5.509.676 10.848 2.033 16.018 3.898 7.542 2.966 14.83 6.61 21.696 10.931 5.506 3.305 10.677 7.118 15.507 11.273 2.203 1.863 4.322 3.898 6.357 5.931 6.355 6.442 11.949 13.56 16.61 21.356 4.577 7.627 8.221 15.849 10.847 24.409 3.728 12.372 6.272 29.915-2.542 43.896M338.5 93.18c-4.238-7.206-9.323-13.815-15.254-19.663a93.23 93.23 0 0 0-6.018-5.51c-4.576-3.813-9.407-7.287-14.577-10.337-6.439-3.898-13.305-7.118-20.423-9.662-4.916-1.696-10.001-2.796-15.169-3.39a361.606 361.606 0 0 0-8.559-.762c-2.035-.085-4.153-.255-6.188-.34l-3.559-.17-3.982-.253c-7.627-.424-15.51-.933-23.307-.679-9.407.34-18.812 1.357-28.134 2.968-8.475 1.354-16.865 3.305-25.085 5.93a149.274 149.274 0 0 0-23.73 9.917c-2.203 1.187-3.983 2.12-5.594 3.05-15.508 9.153-30.34 21.526-43.9 36.612a141.662 141.662 0 0 0-33.643 67.542c-7.797 38.644-.848 78.306 19.069 108.815 4.66 7.118 9.322 10.595 14.322 10.595 5.847 0 9.49-4.323 12.967-8.475 1.778-2.289 3.813-4.322 6.015-6.188 7.457-5.509 17.882-3.135 22.035-1.95 9.661 2.798 19.069 6.273 28.304 10.34 25.511 11.525 53.815 24.237 83.052 24.237 6.103 0 12.204-.591 18.221-1.778 8.305-1.696 16.271-4.662 23.731-8.729 8.644-4.831 19.914-13.221 24.236-26.102 3.814-11.44 1.272-24.07-1.187-36.188-1.354-6.779-2.796-13.73-3.135-20.508-.593-10.932 1.442-19.321 6.44-26.611 3.731-5.425 9.153-9.831 14.408-14.069 5.594-4.491 11.355-9.15 15.255-15.253 8.56-13.221 6.44-29.576 3.22-41.019-2.374-7.711-5.679-15.338-9.831-22.37m5.085 62.626c-3.813 5.848-9.407 10.425-14.917 14.916-5.337 4.322-10.846 8.729-14.744 14.406-5.255 7.629-7.372 16.442-6.781 27.713.339 6.863 1.78 13.899 3.222 20.762 2.541 12.543 4.998 24.324 1.27 35.34-4.153 12.288-15.084 20.423-23.474 25.085a81.722 81.722 0 0 1-23.221 8.644c-35.001 6.951-69.663-8.644-100.172-22.458-9.237-4.153-18.727-7.627-28.389-10.508-3.389-1.102-6.948-1.611-10.509-1.696-5.083 0-9.575 1.272-13.051 3.814-2.372 1.865-4.492 4.068-6.355 6.442-3.389 4.067-6.611 7.881-11.695 7.881-4.406 0-8.644-3.22-12.966-9.832-19.747-30.169-26.61-69.322-18.9-107.543a140.97 140.97 0 0 1 33.306-66.694c13.475-14.917 28.137-27.12 43.56-36.273 1.526-.933 3.304-1.865 5.509-3.05 7.542-3.983 15.423-7.205 23.473-9.831a176.549 176.549 0 0 1 24.833-5.849c9.238-1.608 18.558-2.626 27.965-2.965 7.712-.254 15.51.254 23.137.678l3.983.255 3.559.17c2.035.084 4.152.169 6.187.338 3.305.17 6.016.424 8.475.761 5.085.51 9.998 1.696 14.829 3.307a117.719 117.719 0 0 1 20.087 9.577c5.082 2.965 9.829 6.355 14.32 10.168 2.035 1.696 3.983 3.56 5.933 5.425a97.575 97.575 0 0 1 14.999 19.32 91.97 91.97 0 0 1 9.577 22.205c3.137 10.933 5.17 26.78-3.05 39.492m-21.441-59.577c-3.728-6.526-8.39-12.457-13.729-17.712-1.779-1.696-3.644-3.39-5.509-4.915-4.153-3.475-8.729-6.525-13.391-9.153a100.085 100.085 0 0 0-18.727-8.305 64.288 64.288 0 0 0-13.899-2.796 97.666 97.666 0 0 0-7.796-.509c-2.375-.085-4.831-.17-7.205-.254l-2.542-.085c-7.796-.255-15.931-.424-23.897.085-8.56.678-17.034 1.865-25.426 3.643-7.373 1.357-14.66 3.22-21.778 5.68a131.346 131.346 0 0 0-20.595 9.152c-1.439.763-3.135 1.778-4.831 2.796-13.473 8.475-26.609 19.662-39.068 33.474-14.915 16.528-25.255 38.223-29.153 61.103-5.591 32.798.763 65.849 17.543 90.679 2.544 3.728 6.527 8.814 12.118 8.898h.255c4.746 0 7.881-3.304 10.848-6.524 1.524-1.781 3.22-3.392 5.086-4.746 4.322-2.968 11.016-3.389 18.388-1.272l5.255 1.442c7.287 1.863 14.407 4.237 21.441 6.948 4.83 1.95 9.831 4.152 14.662 6.187 20.423 8.814 41.44 17.882 63.22 17.882 4.661 0 9.238-.424 13.814-1.272 7.627-1.526 14.832-4.322 21.441-8.389 7.627-4.577 17.373-12.627 20.593-24.831 2.628-9.746.339-19.747-1.948-30.424-1.442-6.526-2.968-13.305-3.222-20.001-.339-9.323 1.78-17.034 6.442-23.474 3.389-4.746 8.135-8.644 12.796-12.373 5.086-4.07 10.256-8.307 13.899-13.814 7.881-11.951 6.27-26.526 3.559-36.781-2.035-7.033-4.915-13.899-8.644-20.339m3.474 56.187c-3.474 5.255-8.559 9.408-13.475 13.391-4.661 3.813-9.577 7.711-13.051 12.627-4.915 6.779-7.118 14.829-6.779 24.491.255 6.781 1.779 13.644 3.22 20.341 2.29 10.422 4.492 20.253 2.035 29.576-3.137 11.61-12.542 19.321-19.832 23.813-6.439 3.983-13.56 6.696-20.932 8.135-26.187 5-51.526-5.931-76.017-16.44-4.831-2.033-9.831-4.238-14.662-6.186-7.033-2.713-14.238-5.085-21.61-6.95l-5.17-1.526c-7.797-2.203-14.999-1.694-19.745 1.526a33.606 33.606 0 0 0-5.425 5c-2.88 3.135-5.678 6.103-9.831 6.018-3.644-.085-7.033-2.713-10.761-8.138-16.61-24.406-22.883-57.032-17.374-89.407 3.898-22.628 14.069-43.984 28.729-60.339 12.372-13.73 25.339-24.83 38.729-33.135 1.696-1.018 3.389-1.95 4.746-2.714 6.527-3.559 13.305-6.609 20.254-8.98a155.181 155.181 0 0 1 21.61-5.595 210.105 210.105 0 0 1 25.256-3.559c7.882-.509 15.593-.339 23.813-.085l2.542.085c2.374.085 4.746.085 7.205.255 2.965.084 5.424.254 7.711.506a65.458 65.458 0 0 1 13.475 2.713c6.44 2.118 12.627 4.831 18.476 8.22 4.661 2.627 9.068 5.595 13.135 8.984 1.864 1.524 3.729 3.22 5.422 4.83a80.539 80.539 0 0 1 13.391 17.374 81.083 81.083 0 0 1 8.305 19.999c2.628 9.662 4.152 23.815-3.39 35.17m-19.83-53.052c-3.306-5.76-7.374-11.1-12.118-15.677-1.611-1.526-3.307-3.05-5.085-4.407-3.813-3.05-7.881-5.763-12.203-8.05-5.425-2.968-11.188-5.255-17.121-7.036-4.153-1.1-8.39-1.863-12.627-2.117-2.203-.17-4.492-.255-7.033-.34-2.542-.084-5.34 0-8.051 0-7.457 0-14.917.34-22.289 1.103-7.626 1.015-15.253 2.372-22.797 4.237-6.27 1.355-12.458 3.135-18.473 5.422-6.018 2.29-11.782 5.085-17.374 8.308-1.271.76-2.713 1.608-4.067 2.541-11.612 7.711-22.798 17.627-34.24 30.424-13.218 14.745-21.947 34.153-24.66 54.746-3.56 27.289 2.12 53.052 16.016 72.627 2.12 2.968 5.424 6.951 9.916 7.205 3.983.255 6.611-2.204 9.153-4.661a26.685 26.685 0 0 1 4.152-3.389c4.746-2.799 11.271-1.611 14.747-.679 3.389.933 6.779 1.694 9.999 2.372 5.085 1.018 10.085 2.29 15.086 3.983 7.457 2.629 14.999 6.018 22.288 9.323 15.932 7.202 32.373 14.577 49.576 14.577 3.389 0 6.781-.339 10.17-.933 6.864-1.272 13.475-3.983 19.237-7.966 9.322-6.272 15.255-14.577 16.951-23.56 1.524-8.051-.509-16.186-2.713-24.746-1.609-6.357-3.22-12.881-3.305-19.323-.085-7.881 2.033-14.575 6.44-20.339 3.052-3.983 7.12-7.372 11.103-10.592 4.492-3.646 9.238-7.459 12.457-12.29 7.203-10.677 6.103-23.558 3.983-32.542-1.526-6.441-3.898-12.542-7.118-18.22m1.864 49.748c-3.135 4.661-7.712 8.39-12.119 11.949-4.067 3.304-8.22 6.778-11.44 10.846-4.661 6.103-6.866 13.136-6.781 21.356.085 6.696 1.781 13.306 3.392 19.747 2.117 8.475 4.068 16.356 2.626 24.068-1.611 8.474-7.287 16.442-16.186 22.458a49.676 49.676 0 0 1-18.56 7.711c-20.423 3.729-39.916-5.083-58.729-13.557-7.289-3.307-14.916-6.781-22.373-9.323-5.001-1.611-10.086-2.967-15.256-3.983-3.22-.678-6.609-1.441-9.914-2.374-3.73-1.017-10.764-2.202-16.018.848-1.609 1.018-3.135 2.202-4.407 3.559-2.372 2.289-4.661 4.407-7.966 4.153-3.729-.255-6.779-3.814-8.644-6.525-13.645-19.238-19.152-44.577-15.677-71.442 2.626-20.254 11.27-39.408 24.236-53.898 11.358-12.627 22.374-22.458 33.899-30.085 1.356-.933 2.713-1.696 3.982-2.46 5.425-3.219 11.188-5.93 17.119-8.22a136.347 136.347 0 0 1 18.221-5.339c7.457-1.863 15.001-3.22 22.543-4.237 7.373-.763 14.747-1.1 22.12-1.1h7.965c2.627 0 4.831.17 6.949.337 4.152.254 8.222 1.017 12.29 2.12a86.716 86.716 0 0 1 16.695 6.863c4.237 2.205 8.305 4.83 12.033 7.883 1.696 1.355 3.39 2.796 4.916 4.322 9.238 9.066 15.847 20.509 18.897 33.051 2.035 8.729 3.052 21.186-3.813 31.272m-18.221-46.695a57.344 57.344 0 0 0-10.508-13.73c-1.441-1.356-2.965-2.628-4.576-3.898a60.325 60.325 0 0 0-11.101-6.865c-4.916-2.457-10.17-4.323-15.51-5.68a63.41 63.41 0 0 0-11.27-1.523c-1.951-.085-4.068-.085-6.273-.085-2.117 0-4.407.085-7.202.254-6.697.34-13.306 1.018-19.833 2.118-6.778 1.187-13.387 2.968-20.084 4.916-5.17 1.356-10.17 3.135-15.168 5.17-4.916 2.117-9.662 4.576-14.154 7.457-1.102.678-2.204 1.441-3.304 2.204-9.492 6.864-19.069 15.762-29.324 27.202-11.61 12.967-18.813 30.255-20.084 48.476-1.527 21.017 3.643 40.34 14.407 54.578 1.694 2.203 4.322 5.168 7.712 5.507 3.135.339 5.254-1.185 7.287-2.626 1.018-.763 2.035-1.442 3.137-1.95 3.39-1.524 7.966-.931 11.186-.085 3.644.848 7.372 1.526 11.101 1.95 4.152.424 8.307 1.272 12.375 2.287 8.644 2.544 17.119 6.781 25.254 10.849 12.797 6.44 25.933 13.051 39.914 13.051 2.459 0 4.831-.17 7.205-.594 6.185-1.102 12.034-3.728 17.034-7.541 7.796-5.934 12.627-14.069 13.305-22.289.509-6.442-1.441-13.051-3.304-19.408-1.781-6.016-3.646-12.203-3.477-18.389.085-6.272 2.29-12.372 6.357-17.203 2.627-3.222 6.101-6.103 9.408-8.814 3.983-3.307 8.135-6.611 11.101-10.933 5.085-7.288 6.696-17.374 4.322-28.305-1.103-5.679-3.135-11.103-5.933-16.101m.254 43.388c-2.796 4.07-6.864 7.375-10.762 10.594-3.389 2.796-6.948 5.679-9.661 8.984-4.322 5.085-6.694 11.525-6.779 18.221-.085 6.439 1.778 12.796 3.559 18.897 1.948 6.527 3.728 12.627 3.22 18.814-.679 7.797-5.255 15.423-12.627 21.017a36.2 36.2 0 0 1-16.271 7.203c-16.271 2.713-30.764-4.574-46.102-12.288-8.222-4.152-16.782-8.474-25.595-10.931-4.153-1.102-8.39-1.866-12.627-2.374-3.729-.424-7.373-1.1-10.932-1.948-3.474-.848-8.474-1.526-12.288.169-1.187.594-2.374 1.272-3.474 2.118-1.95 1.441-3.646 2.628-6.103 2.374-2.711-.339-5.085-2.968-6.526-4.916-10.592-13.814-15.593-32.798-14.066-53.391 1.269-17.797 8.305-34.661 19.66-47.458 10.17-11.355 19.662-20.254 29.067-27.035 1.103-.76 2.205-1.524 3.222-2.202a94.302 94.302 0 0 1 13.897-7.288 114.48 114.48 0 0 1 14.916-5.085c6.694-1.865 13.221-3.644 19.915-4.83 6.527-1.103 13.051-1.781 19.663-2.12 2.795-.168 5.085-.252 7.117-.252 2.205 0 4.238 0 6.188.084 3.729.168 7.372.676 10.931 1.524a73.766 73.766 0 0 1 15.171 5.51 62.761 62.761 0 0 1 10.847 6.778c1.526 1.187 3.052 2.46 4.406 3.813a55.957 55.957 0 0 1 10.256 13.306c2.711 4.831 4.661 10.086 5.846 15.51 2.289 10.677.848 20.254-4.068 27.202m-16.61-40.253a43.405 43.405 0 0 0-8.983-11.78c-1.27-1.186-2.627-2.289-4.068-3.39-3.135-2.288-6.44-4.238-9.999-5.762a67.49 67.49 0 0 0-13.899-4.322c-3.304-.594-6.611-.933-10-.933-1.779 0-3.644 0-5.51.085a93.052 93.052 0 0 0-6.27.509c-5.848.593-11.609 1.693-17.373 3.135-5.763 1.441-11.525 3.474-17.373 5.509a83.916 83.916 0 0 0-11.779 4.915 89.225 89.225 0 0 0-10.934 6.61c-.763.593-1.693 1.187-2.541 1.95-9.577 7.796-18.051 16.949-24.409 24.152-10.252 11.609-15.762 26.695-15.592 42.203.254 14.323 4.831 27.289 12.881 36.442 1.357 1.524 3.135 3.305 5.34 3.813 1.863.34 3.729.17 5.424-.593.676-.255 1.44-.509 2.118-.679 1.865-.423 4.407-.254 7.711.509a62.348 62.348 0 0 0 11.188 1.018c3.644.085 7.203.424 10.762 1.017 8.898 1.948 17.373 6.864 25.424 11.695 10.255 6.018 20.847 12.203 32.459 12.203 1.609 0 3.22-.085 4.831-.339 5.507-.933 10.677-3.39 14.829-7.118 6.357-5.679 10.001-13.475 9.577-21.017-.254-4.916-2.033-9.747-3.813-14.493-2.035-5.509-4.153-11.185-3.814-16.949.339-5.085 2.372-9.662 6.355-14.068a73.416 73.416 0 0 1 7.629-6.864c3.559-2.883 7.203-5.933 9.914-9.577 4.661-6.272 6.272-14.832 4.746-24.067-.933-4.916-2.542-9.577-4.831-13.814m-1.354 36.864c-2.544 3.474-6.103 6.442-9.577 9.322-2.798 2.205-5.425 4.492-7.797 7.033-4.237 4.662-6.441 9.577-6.781 15.086-.424 6.188 1.781 12.034 3.899 17.628 1.78 4.831 3.474 9.322 3.728 13.984.339 7.033-3.05 14.32-8.983 19.66-3.898 3.559-8.727 5.933-13.982 6.781-12.966 2.033-24.239-4.661-36.187-11.697-8.221-4.831-16.78-9.829-25.933-11.779-3.644-.678-7.372-1.018-11.016-1.102-3.646-.085-7.29-.424-10.934-1.185a32.484 32.484 0 0 0-5.761-.763c-.848 0-1.78.085-2.628.254-.763.17-1.611.424-2.287.676-1.527.509-2.798.933-4.492.594-1.696-.339-3.307-1.948-4.492-3.305-7.796-8.814-12.203-21.356-12.457-35.34-.17-15.083 5.252-29.661 15.168-41.016 6.273-7.12 14.747-16.186 24.237-23.9.848-.678 1.696-1.354 2.459-1.863 3.389-2.459 6.948-4.661 10.677-6.526a93.532 93.532 0 0 1 11.612-4.831c5.846-2.033 11.524-3.983 17.203-5.422a116.708 116.708 0 0 1 17.119-3.053 86.556 86.556 0 0 1 6.185-.509c1.95-.084 3.731-.17 5.425-.084 3.219 0 6.526.339 9.746.932a58.664 58.664 0 0 1 13.56 4.238c3.389 1.526 6.694 3.389 9.661 5.594 1.355 1.017 2.712 2.117 3.899 3.22 3.474 3.22 6.439 7.12 8.644 11.272 2.202 4.153 3.813 8.644 4.576 13.305 1.439 8.812-.085 16.865-4.491 22.796m-22.459-43.56c-1.102-1.015-2.374-1.948-3.559-2.796-9.153-6.357-21.441-9.068-34.661-7.627-12.882 1.354-25.509 6.61-35.001 11.101-6.611 2.965-12.712 7.035-17.966 12.118-7.034 6.781-13.645 14.323-19.493 21.017-9.321 10.595-13.473 23.985-11.016 35.934 2.456 12.118 12.033 21.78 23.221 23.56 3.559.424 7.118.424 10.677.085a46.826 46.826 0 0 1 9.746 0c8.729 1.1 16.356 6.694 23.813 12.033 8.135 5.934 16.528 11.949 26.272 11.949 1.017 0 2.035-.085 3.052-.169 12.458-2.203 20.763-13.984 18.558-26.442v-.169c-.763-3.559-2.541-6.949-4.152-10.253-2.457-5.001-4.831-9.662-4.238-14.747.848-6.609 6.188-10.931 11.78-15.592 3.222-2.629 6.526-5.34 9.068-8.56 9.661-12.881 4.746-31.865-6.101-41.442m4.577 40.255c-2.374 3.05-5.594 5.679-8.729 8.305-5.679 4.577-11.443 9.407-12.373 16.695-.678 5.594 1.863 10.764 4.407 15.764 1.609 3.22 3.304 6.525 4.068 9.914 2.032 11.527-5.594 22.458-17.119 24.578-10.34 1.354-18.984-4.831-28.052-11.442-7.627-5.507-15.423-11.186-24.576-12.288a36.887 36.887 0 0 0-4.322-.254c-1.951 0-3.898.084-5.764.254-3.389.339-6.863.339-10.338-.085-10.34-1.611-19.493-10.931-21.864-22.204-2.375-11.27 1.693-24.237 10.677-34.407 5.848-6.609 12.457-14.153 19.408-20.847a62.432 62.432 0 0 1 17.542-11.779c9.405-4.407 21.863-9.577 34.492-10.934 12.882-1.354 24.746 1.187 33.559 7.29 1.187.845 2.372 1.693 3.39 2.711 10.17 8.814 14.916 26.696 5.594 38.729"/></g></g></svg>