<svg xmlns="http://www.w3.org/2000/svg" fill="none" viewBox="1039 0 1466 1513"><path fill="#99a1af" d="M1280 742c-144.3 87.6-212.9 256.7-152 486-90.7-132.6-99.9-357.5-82-439l.2-.8c7.2-33 37.6-171.7 129.3-250.2 107.1-91.7 186-107 252-149.5 66-42.6 72.1-53.5 110-99S1604 152.5 1546 0c109.5 126.2 146.5 189.3 142 299.5s-73 188.5-142 252-121.7 103-266 190.5"/><path fill="#99a1af" d="M1245 887c-44.5 56.5-67.5 133.5-67.5 206.5s8.8 162.4 57.5 237.5 163.2 141 268.3 181.5c-55-241.9-17-338.2 0-380.5 17-42.2 55.7-119 113.2-161.5s153-104 327-181 238-209.2 253-301.5-.8-269.4-121-375.5c74.4 233-.4 339.4-54 383.5-53.6 44-119.5 90.1-209 120.5-131 28.5-214 48-269.5 69s-98.2 34.3-149 65c-79 47.8-104.5 80-149 136.5"/><path fill="#99a1af" d="M1619 1210c-23.9 85.3-2.9 212.7 0 200 16.4-18.5 33.5-77.1 135.5-136s154.8-58.9 197.5-64c0 0 44.5-8 182-12 66.6-2 115.8-17.8 161.5-48 53.3-31 104.7-92 134-143.5 20.3-35.6 75.5-136 75.5-262.5-46.3 69.7-162.7 147.7-311.5 171s-166.6 2.6-257.5 19.5c-91 17-116.8 37-171.5 72s-121.6 118.3-145.5 203.6"/></svg>