<svg xmlns="http://www.w3.org/2000/svg" xmlns:xlink="http://www.w3.org/1999/xlink" width="819" zoomAndPan="magnify" viewBox="0 0 614.25 578.249966" height="771" preserveAspectRatio="xMidYMid meet" version="1.2"><g id="6f211f9257"><path style=" stroke:none;fill-rule:nonzero;fill:currentColor;fill-opacity:1;" d="M 108.410156 301.628906 C 108.472656 301.628906 108.535156 301.628906 108.601562 301.628906 C 129.890625 301.667969 152.777344 313.414062 154.238281 332.996094 C 155.285156 347.078125 145.507812 358.464844 136.054688 369.476562 C 134.539062 371.246094 133.035156 372.996094 131.597656 374.734375 C 104.46875 407.566406 94.957031 455.105469 107.347656 495.84375 C 117.261719 528.445312 140.015625 554.472656 168.207031 565.460938 C 199.125 577.507812 235.832031 569.265625 255.492188 545.871094 C 267.347656 531.757812 273.222656 513.097656 278.902344 495.046875 C 286.476562 470.988281 293.632812 448.265625 313.695312 435.03125 C 331.53125 423.257812 354.011719 423.375 375.640625 425.265625 C 386.246094 426.191406 397 427.453125 407.40625 428.675781 C 431.613281 431.515625 456.648438 434.453125 481.335938 433.3125 C 522.050781 431.429688 555.828125 417.542969 576.457031 394.21875 C 598.429688 369.363281 605.527344 324.914062 581.070312 298.363281 C 569.636719 285.949219 553.546875 279.222656 537.980469 272.714844 C 531.230469 269.898438 524.253906 266.976562 517.714844 263.628906 C 494.734375 251.859375 475.40625 228.113281 482.929688 205.503906 C 486.160156 195.789062 493.753906 188.25 500.445312 181.59375 L 561.871094 120.578125 C 583.730469 98.863281 611.433594 66.308594 599.675781 34.476562 C 595.542969 23.289062 586.894531 14.449219 574.671875 8.929688 C 558.890625 1.800781 538.917969 1.300781 522.53125 7.621094 C 493.882812 18.671875 473.859375 43.746094 455.8125 68.480469 C 451.136719 74.890625 446.867188 82.28125 442.351562 90.109375 C 429.601562 112.207031 416.417969 135.0625 393.339844 135.0625 C 392.066406 135.121094 380.570312 135.519531 378.402344 132.9375 C 368.207031 120.828125 366.089844 104.601562 364.042969 88.910156 C 361.628906 70.429688 359.347656 52.980469 344.726562 42.574219 C 330.242188 32.269531 310.628906 28.515625 292.261719 32.535156 C 276.464844 35.996094 263.835938 44.746094 256.695312 57.191406 C 251.941406 65.472656 249.582031 74.992188 247.308594 84.199219 C 245.289062 92.339844 243.207031 100.757812 239.46875 108.398438 C 222.839844 142.421875 179.707031 151.621094 155.484375 154.070312 C 146.417969 154.988281 137.09375 155.476562 128.082031 155.953125 C 104.367188 157.203125 79.839844 158.496094 57.792969 167.691406 C 28.285156 180 7.15625 206.269531 3.957031 234.613281 C 0.488281 265.304688 21.105469 296.757812 48.976562 303.292969 C 61.167969 306.152344 73.964844 304.699219 86.335938 303.296875 C 93.574219 302.472656 101.054688 301.628906 108.410156 301.628906 Z M 197.832031 572.269531 C 187.691406 572.269531 177.433594 570.457031 167.734375 566.675781 C 139.175781 555.542969 116.132812 529.207031 106.09375 496.222656 C 93.578125 455.082031 103.195312 407.0625 130.589844 373.902344 C 132.03125 372.160156 133.542969 370.402344 135.0625 368.625 C 144.34375 357.816406 153.9375 346.636719 152.933594 333.09375 C 151.535156 314.269531 129.292969 302.972656 108.59375 302.929688 C 101.296875 302.96875 93.75 303.769531 86.484375 304.59375 C 74 306.007812 61.089844 307.472656 48.671875 304.566406 C 34.492188 301.242188 21.890625 291.902344 13.191406 278.269531 C 4.832031 265.167969 0.992188 249.203125 2.65625 234.464844 C 5.90625 205.65625 27.355469 178.976562 57.292969 166.484375 C 79.546875 157.203125 104.1875 155.902344 128.011719 154.648438 C 137.011719 154.175781 146.316406 153.683594 155.351562 152.769531 C 179.308594 150.347656 221.9375 141.28125 238.296875 107.824219 C 241.96875 100.308594 244.039062 91.960938 246.039062 83.882812 C 248.339844 74.585938 250.71875 64.980469 255.5625 56.539062 C 262.882812 43.777344 275.820312 34.800781 291.976562 31.257812 C 310.703125 27.160156 330.703125 30.992188 345.484375 41.507812 C 360.570312 52.238281 362.886719 69.972656 365.335938 88.738281 C 367.359375 104.25 369.453125 120.28125 379.398438 132.097656 C 380.722656 133.675781 388.640625 133.953125 393.316406 133.761719 C 415.664062 133.753906 428.65625 111.238281 441.222656 89.453125 C 445.757812 81.597656 450.039062 74.175781 454.753906 67.710938 C 472.921875 42.816406 493.074219 17.578125 522.058594 6.398438 C 538.757812 -0.0429688 559.121094 0.472656 575.207031 7.738281 C 587.757812 13.40625 596.640625 22.496094 600.898438 34.023438 C 612.917969 66.566406 584.90625 99.535156 562.789062 121.503906 L 501.371094 182.523438 C 494.773438 189.070312 487.304688 196.496094 484.171875 205.917969 C 476.882812 227.832031 495.824219 250.949219 518.308594 262.46875 C 524.804688 265.789062 531.761719 268.699219 538.484375 271.511719 C 554.179688 278.074219 570.410156 284.855469 582.03125 297.472656 C 593.441406 309.859375 598.992188 327.144531 597.679688 346.148438 C 596.441406 364.101562 589.058594 381.9375 577.433594 395.082031 C 556.570312 418.675781 522.464844 432.71875 481.398438 434.617188 C 456.605469 435.765625 431.515625 432.820312 407.253906 429.96875 C 396.859375 428.753906 386.105469 427.488281 375.527344 426.566406 C 354.132812 424.699219 331.917969 424.566406 314.414062 436.121094 C 294.738281 449.101562 287.652344 471.609375 280.152344 495.4375 C 274.433594 513.605469 268.515625 532.398438 256.492188 546.710938 C 242.660156 563.167969 220.546875 572.265625 197.832031 572.269531 "/><path style=" stroke:none;fill-rule:nonzero;fill:currentColor;fill-opacity:1;" d="M 115.851562 299.003906 C 116.054688 299.003906 116.261719 299.003906 116.464844 299.003906 C 136.898438 299.140625 158.820312 310.519531 160.125 329.328125 C 161.070312 342.84375 151.636719 353.726562 142.511719 364.253906 C 141.054688 365.941406 139.605469 367.613281 138.21875 369.277344 C 112.058594 400.644531 102.71875 446.1875 114.417969 485.3125 C 123.78125 516.625 145.488281 541.679688 172.46875 552.339844 C 202.0625 564.03125 237.292969 556.300781 256.253906 533.949219 C 267.683594 520.472656 273.402344 502.597656 278.933594 485.316406 C 286.304688 462.269531 293.269531 440.5 312.578125 427.886719 C 329.753906 416.667969 351.320312 416.886719 372.066406 418.789062 C 382.226562 419.726562 392.550781 420.988281 402.527344 422.207031 C 425.726562 425.039062 449.722656 427.972656 473.410156 426.984375 C 512.464844 425.359375 544.917969 412.195312 564.804688 389.921875 C 585.984375 366.1875 592.992188 323.59375 569.660156 298.027344 C 558.757812 286.078125 543.351562 279.550781 528.453125 273.246094 C 521.992188 270.507812 515.308594 267.671875 509.050781 264.433594 C 487.046875 253.039062 468.609375 230.160156 475.929688 208.496094 C 479.074219 199.1875 486.390625 191.980469 492.847656 185.628906 L 552.042969 127.371094 C 573.101562 106.644531 599.816406 75.558594 588.683594 44.984375 C 584.769531 34.234375 576.523438 25.726562 564.828125 20.382812 C 549.730469 13.472656 530.574219 12.90625 514.84375 18.886719 C 487.308594 29.363281 468 53.316406 450.582031 76.960938 C 446.066406 83.085938 441.941406 90.15625 437.574219 97.644531 C 425.269531 118.746094 412.550781 140.558594 390.496094 140.5625 C 390.4375 140.5625 390.390625 140.558594 390.335938 140.558594 C 388.320312 140.636719 378.03125 140.890625 375.996094 138.441406 C 366.265625 126.777344 364.308594 111.203125 362.414062 96.136719 C 360.179688 78.402344 358.070312 61.65625 344.109375 51.617188 C 330.261719 41.671875 311.476562 37.988281 293.84375 41.765625 C 278.683594 45.003906 266.539062 53.34375 259.636719 65.238281 C 255.042969 73.15625 252.738281 82.273438 250.511719 91.097656 C 248.546875 98.898438 246.507812 106.964844 242.890625 114.28125 C 226.773438 146.855469 185.355469 155.480469 162.097656 157.726562 C 153.398438 158.566406 144.457031 158.992188 135.804688 159.410156 C 113.054688 160.503906 89.523438 161.632812 68.34375 170.359375 C 39.996094 182.023438 19.609375 207.121094 16.414062 234.285156 C 12.957031 263.699219 32.578125 293.949219 59.269531 300.332031 C 70.949219 303.132812 83.226562 301.796875 95.097656 300.503906 C 101.90625 299.761719 108.933594 299.003906 115.851562 299.003906 Z M 201.230469 559.054688 C 191.371094 559.054688 181.402344 557.273438 171.992188 553.558594 C 144.636719 542.746094 122.648438 517.375 113.167969 485.6875 C 101.339844 446.15625 110.777344 400.132812 137.210938 368.441406 C 138.609375 366.765625 140.0625 365.09375 141.527344 363.398438 C 150.476562 353.070312 159.730469 342.394531 158.824219 329.414062 C 157.566406 311.363281 136.296875 300.441406 116.457031 300.308594 C 109.390625 300.261719 102.210938 301.046875 95.242188 301.800781 C 83.257812 303.105469 70.859375 304.453125 58.960938 301.605469 C 45.367188 298.351562 33.316406 289.332031 25.03125 276.214844 C 17.066406 263.601562 13.453125 248.269531 15.113281 234.132812 C 18.367188 206.503906 39.066406 180.996094 67.84375 169.144531 C 89.238281 160.339844 112.878906 159.203125 135.742188 158.105469 C 144.375 157.695312 153.308594 157.261719 161.972656 156.425781 C 184.960938 154.207031 225.882812 145.710938 241.71875 113.703125 C 245.273438 106.507812 247.292969 98.511719 249.246094 90.777344 C 251.496094 81.871094 253.820312 72.660156 258.507812 64.585938 C 265.59375 52.367188 278.046875 43.808594 293.570312 40.484375 C 311.550781 36.632812 330.734375 40.398438 344.867188 50.558594 C 359.300781 60.929688 361.441406 77.953125 363.707031 95.96875 C 365.582031 110.847656 367.519531 126.238281 377 137.609375 C 378.257812 139.121094 385.839844 139.425781 390.316406 139.253906 C 390.367188 139.253906 390.417969 139.253906 390.464844 139.253906 C 411.792969 139.253906 424.328125 117.769531 436.449219 96.988281 C 440.832031 89.46875 444.972656 82.367188 449.53125 76.183594 C 467.0625 52.386719 486.515625 28.269531 514.375 17.671875 C 530.429688 11.5625 549.96875 12.148438 565.375 19.191406 C 577.390625 24.691406 585.878906 33.449219 589.910156 44.535156 C 601.296875 75.816406 574.277344 107.324219 552.957031 128.304688 L 493.769531 186.558594 C 487.414062 192.808594 480.214844 199.894531 477.167969 208.914062 C 470.085938 229.882812 488.148438 252.136719 509.652344 263.273438 C 515.863281 266.492188 522.523438 269.3125 528.960938 272.039062 C 543.988281 278.40625 559.527344 284.984375 570.625 297.144531 C 581.515625 309.082031 586.773438 325.695312 585.425781 343.925781 C 584.15625 361.144531 576.996094 378.226562 565.78125 390.789062 C 545.65625 413.332031 512.871094 426.652344 473.464844 428.289062 C 449.671875 429.277344 425.625 426.34375 402.367188 423.5 C 392.394531 422.289062 382.09375 421.023438 371.949219 420.09375 C 351.433594 418.210938 330.132812 417.980469 313.292969 428.980469 C 294.371094 441.339844 287.476562 462.890625 280.175781 485.710938 C 274.609375 503.121094 268.847656 521.117188 257.25 534.792969 C 243.980469 550.441406 222.890625 559.054688 201.230469 559.054688 "/><path style=" stroke:none;fill-rule:nonzero;fill:currentColor;fill-opacity:1;" d="M 123.277344 296.375 C 123.628906 296.375 123.984375 296.375 124.332031 296.378906 C 143.90625 296.609375 164.851562 307.621094 166.015625 325.648438 C 166.855469 338.609375 157.765625 348.992188 148.976562 359.027344 C 147.570312 360.640625 146.175781 362.230469 144.835938 363.820312 C 119.640625 393.714844 110.476562 437.273438 121.492188 474.777344 C 130.300781 504.796875 150.953125 528.886719 176.734375 539.230469 C 205 550.5625 238.757812 543.332031 257.011719 522.03125 C 268.023438 509.183594 273.582031 492.105469 278.960938 475.578125 C 285.816406 454.515625 292.90625 432.738281 311.46875 420.746094 C 327.972656 410.082031 348.625 410.398438 368.492188 412.320312 C 378.210938 413.265625 388.078125 414.523438 397.625 415.734375 C 419.835938 418.566406 442.789062 421.496094 465.480469 420.660156 C 502.871094 419.292969 534.011719 406.851562 553.152344 385.621094 C 573.542969 363.007812 580.457031 322.28125 558.25 297.695312 C 547.871094 286.207031 533.152344 279.886719 518.921875 273.769531 C 512.746094 271.121094 506.367188 268.378906 500.386719 265.238281 C 479.367188 254.214844 461.816406 232.210938 468.933594 211.484375 C 471.992188 202.574219 479.039062 195.714844 485.25 189.660156 L 542.214844 134.171875 C 562.472656 114.429688 588.195312 84.800781 577.6875 55.488281 C 574 45.183594 566.144531 37.003906 554.980469 31.832031 C 540.566406 25.148438 522.234375 24.511719 507.144531 30.160156 C 480.746094 40.050781 462.140625 62.894531 445.347656 85.445312 C 441 91.289062 437.015625 98.035156 432.796875 105.183594 C 420.9375 125.28125 408.675781 146.058594 387.644531 146.058594 C 387.539062 146.058594 387.4375 146.058594 387.335938 146.058594 C 385.410156 146.113281 375.539062 146.308594 373.59375 143.953125 C 364.328125 132.726562 362.527344 117.792969 360.785156 103.355469 C 358.734375 86.378906 356.796875 70.335938 343.488281 60.667969 C 330.289062 51.078125 312.324219 47.457031 295.429688 50.988281 C 280.90625 54.023438 269.238281 61.941406 262.582031 73.285156 C 258.144531 80.84375 255.890625 89.5625 253.71875 97.992188 C 251.792969 105.453125 249.804688 113.171875 246.300781 120.160156 C 230.714844 151.285156 191 159.347656 168.714844 161.386719 C 160.382812 162.148438 151.816406 162.511719 143.53125 162.871094 C 121.742188 163.804688 99.214844 164.769531 78.890625 173.019531 C 51.699219 184.054688 32.0625 207.972656 28.871094 233.957031 C 25.417969 262.09375 44.054688 291.136719 69.566406 297.378906 C 80.730469 300.105469 92.488281 298.890625 103.863281 297.714844 C 110.230469 297.058594 116.804688 296.375 123.277344 296.375 Z M 204.621094 545.855469 C 195.054688 545.855469 185.371094 544.097656 176.246094 540.4375 C 150.101562 529.957031 129.160156 505.546875 120.238281 475.148438 C 109.105469 437.230469 118.367188 393.203125 143.839844 362.976562 C 145.179688 361.386719 146.582031 359.789062 147.996094 358.171875 C 156.605469 348.332031 165.515625 338.160156 164.710938 325.730469 C 163.597656 308.460938 143.292969 297.910156 124.316406 297.683594 C 117.570312 297.621094 110.675781 298.320312 103.996094 299.011719 C 92.515625 300.199219 80.636719 301.433594 69.253906 298.648438 C 56.246094 295.464844 44.742188 286.765625 36.867188 274.15625 C 29.304688 262.039062 25.914062 247.328125 27.578125 233.796875 C 30.824219 207.351562 50.773438 183.015625 78.398438 171.804688 C 98.933594 163.476562 121.578125 162.507812 143.472656 161.566406 C 151.746094 161.210938 160.292969 160.84375 168.597656 160.082031 C 190.609375 158.074219 229.824219 150.136719 245.132812 119.578125 C 248.570312 112.710938 250.542969 105.066406 252.457031 97.671875 C 254.65625 89.152344 256.925781 80.339844 261.453125 72.625 C 268.300781 60.953125 280.269531 52.820312 295.164062 49.707031 C 312.410156 46.109375 330.761719 49.8125 344.253906 59.609375 C 358.03125 69.617188 360 85.929688 362.085938 103.199219 C 363.800781 117.457031 365.582031 132.195312 374.597656 143.121094 C 375.792969 144.570312 383.035156 144.886719 387.320312 144.753906 C 387.417969 144.753906 387.519531 144.753906 387.617188 144.753906 C 407.9375 144.753906 420 124.300781 431.675781 104.519531 C 435.910156 97.339844 439.90625 90.5625 444.300781 84.664062 C 461.210938 61.960938 479.953125 38.957031 506.6875 28.9375 C 522.097656 23.164062 540.808594 23.820312 555.53125 30.644531 C 567.019531 35.964844 575.105469 44.410156 578.921875 55.046875 C 589.675781 85.070312 563.644531 115.113281 543.125 135.105469 L 486.164062 190.59375 C 480.054688 196.546875 473.125 203.292969 470.171875 211.90625 C 463.292969 231.9375 480.46875 253.316406 500.996094 264.085938 C 506.929688 267.195312 513.285156 269.929688 519.441406 272.574219 C 533.800781 278.738281 548.648438 285.117188 559.21875 296.820312 C 569.597656 308.308594 574.550781 324.246094 573.171875 341.703125 C 571.867188 358.191406 564.925781 374.515625 554.125 386.496094 C 534.738281 407.984375 503.277344 420.582031 465.53125 421.964844 C 442.734375 422.800781 419.722656 419.867188 397.460938 417.035156 C 387.925781 415.816406 378.066406 414.5625 368.363281 413.625 C 348.730469 411.714844 328.347656 411.394531 312.179688 421.839844 C 294.007812 433.578125 287.304688 454.175781 280.203125 475.984375 C 274.789062 492.628906 269.183594 509.835938 258.003906 522.882812 C 245.300781 537.710938 225.230469 545.855469 204.621094 545.855469 "/><path style=" stroke:none;fill-rule:nonzero;fill:currentColor;fill-opacity:1;" d="M 130.691406 293.746094 C 131.195312 293.746094 131.695312 293.75 132.199219 293.753906 C 150.917969 294.078125 170.886719 304.722656 171.90625 321.976562 C 172.640625 334.378906 163.890625 344.257812 155.433594 353.808594 C 154.082031 355.339844 152.742188 356.851562 151.457031 358.359375 C 127.230469 386.789062 118.238281 428.355469 128.566406 464.25 C 136.824219 492.976562 156.425781 516.101562 181 526.113281 C 207.933594 537.089844 240.222656 530.363281 257.773438 510.113281 C 268.355469 497.898438 273.761719 481.601562 278.992188 465.847656 C 285.652344 445.75 292.546875 424.96875 310.359375 413.597656 C 326.195312 403.496094 345.9375 403.902344 364.910156 405.851562 C 374.203125 406.804688 383.628906 408.058594 392.746094 409.269531 C 413.945312 412.089844 435.867188 415 457.554688 414.332031 C 493.285156 413.222656 523.097656 401.5 541.5 381.324219 C 561.101562 359.828125 567.921875 320.964844 546.839844 297.359375 C 536.984375 286.328125 522.960938 280.214844 509.390625 274.296875 C 503.507812 271.730469 497.421875 269.074219 491.722656 266.046875 C 471.683594 255.394531 455.015625 234.257812 461.9375 214.472656 C 464.910156 205.96875 471.683594 199.449219 477.65625 193.691406 L 532.382812 140.964844 C 551.84375 122.214844 576.574219 94.042969 566.699219 65.992188 C 563.226562 56.132812 555.773438 48.28125 545.136719 43.277344 C 531.40625 36.820312 513.898438 36.109375 499.457031 41.429688 C 474.179688 50.738281 456.285156 72.46875 440.117188 93.925781 C 435.929688 99.484375 432.085938 105.910156 428.019531 112.722656 C 416.519531 131.960938 404.664062 151.890625 384.328125 151.554688 C 382.492188 151.605469 373.042969 151.738281 371.1875 149.457031 C 362.390625 138.675781 360.75 124.394531 359.15625 110.578125 C 357.289062 94.351562 355.523438 79.019531 342.863281 69.714844 C 330.308594 60.488281 313.171875 56.933594 297.011719 60.214844 C 283.125 63.035156 271.941406 70.535156 265.519531 81.335938 C 261.246094 88.53125 259.050781 96.847656 256.925781 104.890625 C 255.050781 112.019531 253.101562 119.382812 249.71875 126.042969 C 234.648438 155.71875 196.640625 163.214844 175.332031 165.042969 C 167.359375 165.726562 159.175781 166.035156 151.253906 166.328125 C 130.429688 167.105469 108.898438 167.914062 89.433594 175.683594 C 63.402344 186.078125 44.519531 208.824219 41.335938 233.628906 C 37.882812 260.484375 55.527344 288.320312 79.863281 294.421875 C 90.511719 297.09375 101.757812 295.988281 112.628906 294.925781 C 118.550781 294.339844 124.664062 293.746094 130.691406 293.746094 Z M 208.015625 532.652344 C 198.734375 532.652344 189.335938 530.921875 180.503906 527.320312 C 155.5625 517.160156 135.675781 493.71875 127.304688 464.609375 C 116.867188 428.304688 125.957031 386.269531 150.460938 357.511719 C 151.753906 356 153.097656 354.476562 154.457031 352.941406 C 162.738281 343.589844 171.304688 333.917969 170.605469 322.054688 C 169.628906 305.554688 150.296875 295.378906 132.171875 295.066406 C 125.734375 294.9375 119.136719 295.597656 112.75 296.226562 C 101.773438 297.296875 90.414062 298.414062 79.542969 295.6875 C 54.601562 289.4375 36.507812 260.941406 40.035156 233.464844 C 43.28125 208.195312 62.480469 185.039062 88.949219 174.472656 C 108.621094 166.613281 130.269531 165.804688 151.207031 165.023438 C 159.105469 164.730469 167.28125 164.421875 175.21875 163.742188 C 196.261719 161.9375 233.769531 154.5625 248.554688 125.453125 C 251.875 118.914062 253.800781 111.617188 255.667969 104.5625 C 257.808594 96.425781 260.027344 88.019531 264.398438 80.667969 C 271.011719 69.546875 282.5 61.828125 296.75 58.929688 C 313.261719 55.582031 330.792969 59.21875 343.636719 68.660156 C 356.761719 78.304688 358.554688 93.910156 360.457031 110.429688 C 362.023438 124.058594 363.644531 138.152344 372.199219 148.636719 C 373.324219 150.011719 380.230469 150.351562 384.324219 150.25 C 384.472656 150.25 384.617188 150.253906 384.765625 150.253906 C 404.074219 150.253906 415.679688 130.832031 426.898438 112.046875 C 430.984375 105.214844 434.847656 98.753906 439.074219 93.140625 C 455.355469 71.527344 473.394531 49.636719 499.003906 40.207031 C 513.761719 34.769531 531.652344 35.5 545.691406 42.097656 C 556.652344 47.25 564.339844 55.363281 567.929688 65.558594 C 578.054688 94.316406 553.007812 122.902344 533.289062 141.902344 L 478.5625 194.632812 C 472.695312 200.285156 466.042969 206.695312 463.167969 214.90625 C 456.496094 233.992188 472.785156 254.503906 492.335938 264.894531 C 497.992188 267.898438 504.054688 270.542969 509.914062 273.101562 C 523.613281 279.074219 537.769531 285.246094 547.816406 296.492188 C 557.671875 307.53125 562.328125 322.800781 560.914062 339.476562 C 559.585938 355.238281 552.859375 370.808594 542.464844 382.203125 C 523.824219 402.644531 493.6875 414.519531 457.59375 415.636719 C 435.800781 416.308594 413.828125 413.394531 392.574219 410.5625 C 383.464844 409.351562 374.050781 408.097656 364.777344 407.148438 C 346.039062 405.230469 326.558594 404.8125 311.0625 414.703125 C 293.644531 425.816406 287.128906 445.460938 280.230469 466.257812 C 274.960938 482.136719 269.515625 498.558594 258.757812 510.964844 C 246.621094 524.980469 227.574219 532.648438 208.015625 532.652344 "/><path style=" stroke:none;fill-rule:nonzero;fill:currentColor;fill-opacity:1;" d="M 138.089844 291.109375 C 138.746094 291.109375 139.40625 291.117188 140.0625 291.132812 C 157.925781 291.550781 176.925781 301.828125 177.796875 318.304688 C 178.425781 330.148438 170.023438 339.519531 161.902344 348.582031 C 160.601562 350.035156 159.3125 351.46875 158.074219 352.902344 C 134.8125 379.867188 126.007812 419.4375 135.632812 453.71875 C 143.339844 481.152344 161.890625 503.308594 185.257812 512.996094 C 210.878906 523.617188 241.691406 517.390625 258.53125 498.195312 C 268.695312 486.609375 273.941406 471.105469 279.015625 456.117188 C 285.496094 436.984375 292.1875 417.199219 309.25 406.460938 C 324.417969 396.90625 343.246094 397.414062 361.335938 399.378906 C 370.191406 400.34375 379.171875 401.59375 387.859375 402.800781 C 408.066406 405.613281 428.972656 408.519531 449.625 408.007812 C 483.699219 407.152344 512.191406 396.15625 529.847656 377.027344 C 548.65625 356.648438 555.386719 319.644531 535.429688 297.027344 C 526.101562 286.457031 512.761719 280.542969 499.859375 274.828125 C 494.265625 272.339844 488.476562 269.773438 483.054688 266.851562 C 464 256.570312 448.222656 236.304688 454.9375 217.460938 C 457.828125 209.363281 464.324219 203.183594 470.058594 197.722656 L 522.554688 147.757812 C 541.21875 130 564.953125 103.289062 555.699219 76.496094 C 552.453125 67.082031 545.394531 59.558594 535.292969 54.730469 C 522.234375 48.496094 505.558594 47.714844 491.765625 52.703125 C 467.613281 61.429688 450.421875 82.042969 434.886719 102.40625 C 430.863281 107.683594 427.160156 113.789062 423.246094 120.257812 C 412.160156 138.550781 400.742188 157.46875 381.328125 157.054688 C 379.5625 157.089844 370.550781 157.160156 368.777344 154.96875 C 360.449219 144.625 358.964844 130.992188 357.53125 117.804688 C 355.84375 102.324219 354.25 87.699219 342.242188 78.757812 C 330.328125 69.890625 314.019531 66.40625 298.59375 69.4375 C 285.34375 72.046875 274.644531 79.128906 268.464844 89.386719 C 264.34375 96.21875 262.207031 104.136719 260.132812 111.792969 C 258.300781 118.574219 256.402344 125.589844 253.132812 131.925781 C 238.585938 160.148438 202.289062 167.082031 181.949219 168.699219 C 174.339844 169.304688 166.53125 169.550781 158.972656 169.789062 C 139.117188 170.410156 118.578125 171.050781 99.980469 178.34375 C 75.105469 188.105469 56.972656 209.675781 53.792969 233.300781 C 50.351562 258.878906 67.003906 285.511719 90.15625 291.464844 C 100.292969 294.070312 111.015625 293.082031 121.386719 292.132812 C 126.871094 291.628906 132.515625 291.109375 138.089844 291.109375 Z M 211.414062 519.445312 C 202.410156 519.449219 193.300781 517.746094 184.757812 514.203125 C 161.027344 504.363281 142.191406 481.886719 134.375 454.074219 C 124.628906 419.382812 133.542969 379.335938 157.089844 352.050781 C 158.328125 350.609375 159.621094 349.167969 160.925781 347.714844 C 168.875 338.847656 177.089844 329.675781 176.492188 318.371094 C 175.660156 302.65625 157.304688 292.839844 140.03125 292.441406 C 133.898438 292.292969 127.597656 292.871094 121.511719 293.433594 C 111.027344 294.390625 100.191406 295.386719 89.832031 292.726562 C 66.066406 286.621094 48.96875 259.328125 52.5 233.125 C 55.742188 209.039062 74.191406 187.058594 99.503906 177.132812 C 118.3125 169.753906 138.964844 169.105469 158.9375 168.484375 C 166.472656 168.246094 174.269531 168 181.839844 167.398438 C 201.914062 165.796875 237.710938 158.988281 251.972656 131.324219 C 255.179688 125.113281 257.058594 118.167969 258.871094 111.453125 C 260.96875 103.710938 263.132812 95.703125 267.34375 88.710938 C 273.71875 78.136719 284.730469 70.839844 298.34375 68.160156 C 314.117188 65.058594 330.816406 68.625 343.023438 77.710938 C 355.488281 86.996094 357.109375 101.890625 358.828125 117.667969 C 360.246094 130.664062 361.710938 144.101562 369.800781 154.144531 C 370.800781 155.390625 377.136719 155.832031 381.328125 155.75 C 399.976562 156.195312 411.234375 137.554688 422.125 119.582031 C 426.0625 113.082031 429.78125 106.945312 433.851562 101.613281 C 449.503906 81.097656 466.832031 60.328125 491.316406 51.472656 C 505.429688 46.375 522.496094 47.171875 535.855469 53.550781 C 546.285156 58.53125 553.574219 66.320312 556.9375 76.070312 C 566.433594 103.570312 542.378906 130.699219 523.453125 148.707031 L 470.957031 198.671875 C 465.332031 204.023438 458.953125 210.09375 456.171875 217.898438 C 449.699219 236.050781 465.109375 255.6875 483.679688 265.703125 C 489.050781 268.601562 494.816406 271.160156 500.394531 273.628906 C 513.417969 279.40625 526.890625 285.378906 536.410156 296.164062 C 556.832031 319.3125 550.003906 357.117188 530.808594 377.910156 C 512.910156 397.300781 484.089844 408.453125 449.664062 409.3125 C 428.886719 409.835938 407.9375 406.914062 387.679688 404.097656 C 379.003906 402.886719 370.03125 401.640625 361.195312 400.679688 C 343.34375 398.738281 324.777344 398.222656 309.945312 407.566406 C 293.277344 418.054688 286.953125 436.746094 280.253906 456.535156 C 275.136719 471.644531 269.851562 487.277344 259.515625 499.058594 C 247.945312 512.246094 229.917969 519.445312 211.414062 519.445312 "/><path style=" stroke:none;fill-rule:nonzero;fill:currentColor;fill-opacity:1;" d="M 145.46875 288.476562 C 146.289062 288.476562 147.113281 288.488281 147.929688 288.511719 C 164.9375 289.019531 182.960938 298.929688 183.683594 314.628906 C 184.210938 325.917969 176.152344 334.785156 168.359375 343.359375 C 167.117188 344.730469 165.878906 346.09375 164.695312 347.449219 C 142.394531 372.9375 133.765625 410.523438 142.707031 443.191406 C 149.863281 469.332031 167.363281 490.523438 189.527344 499.882812 C 213.816406 510.144531 243.15625 504.417969 259.292969 486.277344 C 269.035156 475.324219 274.125 460.609375 279.046875 446.386719 C 285.332031 428.21875 291.828125 409.429688 308.136719 399.316406 C 322.636719 390.320312 340.558594 390.921875 357.757812 392.910156 C 366.179688 393.878906 374.722656 395.128906 382.976562 396.335938 C 402.183594 399.136719 422.035156 402.039062 441.699219 401.679688 C 474.117188 401.089844 501.285156 390.804688 518.203125 372.722656 C 536.214844 353.472656 542.847656 318.328125 524.019531 296.699219 C 515.21875 286.585938 502.570312 280.875 490.335938 275.351562 C 485.023438 272.953125 479.53125 270.472656 474.394531 267.660156 C 456.316406 257.746094 441.425781 238.351562 447.945312 220.449219 C 450.746094 212.757812 456.96875 206.914062 462.460938 201.757812 L 512.726562 154.558594 C 530.582031 137.785156 553.332031 112.53125 544.710938 87 C 541.679688 78.027344 535.023438 70.828125 525.445312 66.179688 C 513.074219 60.167969 497.21875 59.324219 484.074219 63.972656 C 461.046875 72.121094 444.566406 91.617188 429.65625 110.886719 C 425.792969 115.878906 422.234375 121.667969 418.46875 127.792969 C 407.796875 145.132812 396.742188 163.0625 378.324219 162.546875 C 376.628906 162.5625 368.054688 162.582031 366.375 160.472656 C 358.515625 150.574219 357.183594 137.585938 355.902344 125.03125 C 354.398438 110.296875 352.980469 96.382812 341.617188 87.804688 C 330.351562 79.296875 314.859375 75.882812 300.183594 78.664062 C 287.566406 81.058594 277.347656 87.722656 271.40625 97.433594 C 267.445312 103.902344 265.359375 111.421875 263.34375 118.6875 C 261.554688 125.132812 259.703125 131.796875 256.550781 137.804688 C 242.519531 164.582031 207.929688 170.949219 188.5625 172.359375 C 181.320312 172.890625 173.886719 173.070312 166.699219 173.242188 C 147.804688 173.710938 128.261719 174.1875 110.527344 181.007812 C 86.808594 190.132812 69.425781 210.53125 66.253906 232.976562 C 62.816406 257.269531 78.480469 282.699219 100.453125 288.507812 C 110.074219 291.050781 120.285156 290.179688 130.152344 289.34375 C 135.175781 288.914062 140.351562 288.476562 145.46875 288.476562 Z M 214.808594 506.246094 C 206.09375 506.246094 197.269531 504.574219 189.011719 501.085938 C 166.488281 491.570312 148.710938 470.054688 141.449219 443.535156 C 132.390625 410.457031 141.132812 372.40625 163.710938 346.585938 C 164.902344 345.222656 166.140625 343.859375 167.394531 342.480469 C 175.007812 334.101562 182.878906 325.4375 182.378906 314.691406 C 181.691406 299.746094 164.300781 290.308594 147.886719 289.816406 C 142.054688 289.640625 136.0625 290.148438 130.265625 290.644531 C 120.285156 291.492188 109.960938 292.367188 100.117188 289.769531 C 77.535156 283.804688 61.433594 257.710938 64.957031 232.789062 C 68.199219 209.882812 85.902344 189.082031 110.058594 179.792969 C 128.003906 172.890625 147.660156 172.40625 166.664062 171.941406 C 173.839844 171.765625 181.253906 171.582031 188.46875 171.054688 C 207.5625 169.664062 241.65625 163.414062 255.394531 137.199219 C 258.480469 131.316406 260.3125 124.71875 262.082031 118.339844 C 264.121094 110.984375 266.234375 103.378906 270.292969 96.757812 C 276.425781 86.726562 286.953125 79.847656 299.9375 77.382812 C 314.972656 74.53125 330.847656 78.039062 342.40625 86.761719 C 354.21875 95.679688 355.667969 109.871094 357.203125 124.898438 C 358.46875 137.265625 359.773438 150.058594 367.402344 159.660156 C 368.339844 160.84375 374.359375 161.300781 378.335938 161.242188 C 378.582031 161.25 378.820312 161.253906 379.0625 161.253906 C 396.351562 161.253906 407.027344 143.902344 417.351562 127.109375 C 421.140625 120.953125 424.714844 115.140625 428.621094 110.09375 C 443.648438 90.664062 460.277344 71.007812 483.636719 62.746094 C 497.101562 57.976562 513.34375 58.84375 526.015625 65.003906 C 535.917969 69.8125 542.804688 77.273438 545.949219 86.582031 C 554.8125 112.828125 531.746094 138.488281 513.621094 155.507812 L 463.355469 202.710938 C 457.96875 207.765625 451.867188 213.5 449.167969 220.898438 C 442.90625 238.105469 457.4375 256.871094 475.023438 266.511719 C 480.113281 269.308594 485.585938 271.773438 490.871094 274.164062 C 503.230469 279.742188 516.011719 285.511719 525.003906 295.839844 C 544.300781 318.003906 537.554688 353.949219 519.152344 373.617188 C 501.992188 391.960938 474.496094 402.390625 441.726562 402.984375 C 421.957031 403.339844 402.042969 400.4375 382.792969 397.628906 C 374.542969 396.421875 366.007812 395.179688 357.609375 394.207031 C 340.644531 392.242188 322.988281 391.640625 308.828125 400.425781 C 292.914062 410.296875 286.777344 428.035156 280.28125 446.8125 C 275.316406 461.160156 270.183594 476 260.269531 487.144531 C 249.265625 499.515625 232.265625 506.246094 214.808594 506.246094 "/><path style=" stroke:none;fill-rule:nonzero;fill:currentColor;fill-opacity:1;" d="M 152.8125 285.832031 C 153.8125 285.832031 154.800781 285.851562 155.792969 285.886719 C 171.945312 286.492188 188.996094 296.035156 189.578125 310.957031 C 189.988281 321.683594 182.277344 330.050781 174.824219 338.136719 C 173.632812 339.425781 172.449219 340.710938 171.3125 341.984375 C 149.984375 366.015625 141.527344 401.609375 149.78125 432.660156 C 156.382812 457.503906 172.835938 477.730469 193.789062 486.769531 C 216.753906 496.667969 244.621094 491.453125 260.054688 474.359375 C 269.367188 464.035156 274.304688 450.113281 279.074219 436.652344 C 285.164062 419.449219 291.46875 401.660156 307.027344 392.171875 C 320.859375 383.734375 337.867188 384.425781 354.1875 386.4375 C 362.167969 387.421875 370.257812 388.664062 378.085938 389.863281 C 396.289062 392.65625 415.125 395.523438 433.773438 395.347656 C 464.53125 395.019531 490.378906 385.457031 506.550781 368.425781 C 523.769531 350.292969 530.316406 317.011719 512.605469 296.363281 C 504.332031 286.710938 492.371094 281.203125 480.804688 275.878906 C 475.78125 273.570312 470.585938 271.175781 465.726562 268.464844 C 448.628906 258.929688 434.628906 240.394531 440.949219 223.441406 C 443.664062 216.148438 449.613281 210.644531 454.863281 205.785156 L 502.890625 161.351562 C 519.960938 145.566406 541.714844 121.773438 533.71875 97.503906 C 530.914062 88.980469 524.644531 82.105469 515.601562 77.628906 C 503.910156 71.839844 488.878906 70.925781 476.378906 75.246094 C 454.476562 82.8125 438.703125 101.191406 424.421875 119.371094 C 420.722656 124.082031 417.308594 129.542969 413.691406 135.332031 C 403.625 151.425781 393.21875 168.058594 376.253906 168.0625 C 375.945312 168.0625 375.632812 168.058594 375.320312 168.042969 C 373.710938 168.050781 365.558594 168 363.96875 165.976562 C 356.570312 156.523438 355.40625 144.183594 354.273438 132.253906 C 352.953125 118.265625 351.703125 105.058594 340.996094 96.855469 C 330.367188 88.703125 315.699219 85.355469 301.765625 87.894531 C 289.785156 90.074219 280.050781 96.320312 274.347656 105.484375 C 270.542969 111.597656 268.515625 118.707031 266.546875 125.589844 C 264.804688 131.695312 263.003906 138.007812 259.964844 143.691406 C 246.453125 169.011719 213.574219 174.816406 195.175781 176.015625 C 188.296875 176.464844 181.246094 176.585938 174.421875 176.703125 C 156.488281 177.011719 137.945312 177.328125 121.074219 183.671875 C 98.511719 192.15625 81.878906 211.382812 78.710938 232.648438 C 75.277344 255.664062 89.953125 279.890625 110.753906 285.550781 C 119.863281 288.03125 129.550781 287.28125 138.917969 286.550781 C 143.480469 286.195312 148.164062 285.832031 152.8125 285.832031 Z M 218.199219 493.054688 C 209.773438 493.054688 201.234375 491.402344 193.273438 487.964844 C 171.949219 478.773438 155.222656 458.222656 148.519531 432.996094 C 140.15625 401.53125 148.71875 365.472656 170.339844 341.121094 C 171.476562 339.835938 172.664062 338.550781 173.855469 337.253906 C 181.136719 329.355469 188.664062 321.199219 188.273438 311.007812 C 187.722656 296.847656 171.304688 287.777344 155.746094 287.191406 C 150.214844 286.988281 144.523438 287.429688 139.019531 287.855469 C 129.535156 288.589844 119.734375 289.347656 110.410156 286.8125 C 88.632812 280.886719 73.835938 256.5 77.421875 232.453125 C 80.65625 210.730469 97.613281 191.097656 120.613281 182.453125 C 137.699219 176.027344 156.355469 175.707031 174.398438 175.402344 C 181.203125 175.28125 188.246094 175.160156 195.089844 174.710938 C 213.214844 173.527344 245.597656 167.839844 258.816406 143.074219 C 261.785156 137.511719 263.566406 131.269531 265.292969 125.234375 C 267.28125 118.265625 269.335938 111.058594 273.238281 104.796875 C 279.132812 95.3125 289.183594 88.851562 301.527344 86.609375 C 315.820312 84.003906 330.875 87.445312 341.792969 95.816406 C 352.949219 104.371094 354.222656 117.851562 355.574219 132.132812 C 356.691406 143.875 357.835938 156.019531 365.003906 165.171875 C 365.875 166.289062 371.605469 166.757812 375.339844 166.738281 C 392.128906 167.347656 402.527344 150.714844 412.582031 134.636719 C 416.21875 128.824219 419.65625 123.332031 423.394531 118.566406 C 437.796875 100.234375 453.714844 81.695312 475.953125 74.011719 C 488.773438 69.582031 504.1875 70.519531 516.183594 76.457031 C 525.546875 81.09375 532.039062 88.230469 534.957031 97.09375 C 543.191406 122.078125 521.109375 146.28125 503.785156 162.3125 L 455.75 206.746094 C 450.609375 211.503906 444.78125 216.898438 442.171875 223.890625 C 436.109375 240.164062 449.753906 258.0625 466.371094 267.324219 C 471.179688 270.011719 476.351562 272.386719 481.351562 274.695312 C 493.042969 280.074219 505.136719 285.640625 513.597656 295.511719 C 531.765625 316.695312 525.113281 350.78125 507.496094 369.324219 C 491.074219 386.617188 464.902344 396.324219 433.789062 396.65625 C 414.964844 396.84375 396.140625 393.960938 377.886719 391.160156 C 370.066406 389.957031 361.988281 388.714844 354.023438 387.734375 C 337.941406 385.75 321.195312 385.058594 307.710938 393.289062 C 292.546875 402.53125 286.597656 419.320312 280.304688 437.085938 C 275.492188 450.667969 270.515625 464.71875 261.023438 475.230469 C 250.589844 486.789062 234.609375 493.054688 218.199219 493.054688 "/><path style=" stroke:none;fill-rule:nonzero;fill:currentColor;fill-opacity:1;" d="M 160.125 283.1875 C 161.304688 283.1875 162.488281 283.210938 163.664062 283.265625 C 178.957031 283.960938 195.039062 293.144531 195.464844 307.285156 C 195.773438 317.453125 188.40625 325.316406 181.28125 332.914062 C 180.144531 334.128906 179.015625 335.335938 177.929688 336.53125 C 157.566406 359.09375 149.289062 392.695312 156.851562 422.132812 C 162.902344 445.683594 178.304688 464.945312 198.054688 473.652344 C 219.695312 483.195312 246.089844 478.480469 260.820312 462.433594 C 269.707031 452.75 274.484375 439.613281 279.105469 426.914062 C 285.007812 410.683594 291.109375 393.894531 305.917969 385.027344 C 319.082031 377.144531 335.175781 377.933594 350.605469 379.964844 C 358.152344 380.960938 365.808594 382.199219 373.207031 383.398438 C 390.40625 386.1875 408.238281 389.058594 425.851562 389.027344 C 454.945312 388.949219 479.46875 380.109375 494.902344 364.128906 C 511.328125 347.113281 517.777344 315.691406 501.195312 296.03125 C 493.445312 286.839844 482.171875 281.535156 471.269531 276.402344 C 466.539062 274.175781 461.636719 271.875 457.066406 269.269531 C 440.949219 260.105469 427.832031 242.445312 433.953125 226.421875 C 436.578125 219.542969 442.261719 214.375 447.265625 209.820312 L 493.0625 168.144531 C 509.328125 153.351562 530.09375 131.019531 522.722656 108.007812 C 520.132812 99.925781 514.265625 93.382812 505.753906 89.078125 C 494.746094 83.511719 480.535156 82.53125 468.683594 86.515625 C 447.910156 93.503906 432.84375 110.769531 419.191406 127.855469 C 415.652344 132.28125 412.378906 137.421875 408.90625 142.871094 C 399.078125 158.304688 388.933594 174.261719 372.316406 173.542969 C 370.808594 173.542969 363.058594 173.421875 361.566406 171.484375 C 354.628906 162.46875 353.621094 150.777344 352.648438 139.476562 C 351.507812 126.242188 350.425781 113.738281 340.375 105.898438 C 330.386719 98.113281 316.546875 94.832031 303.347656 97.121094 C 292.003906 99.085938 282.75 104.914062 277.285156 113.539062 C 273.648438 119.285156 271.667969 126 269.753906 132.492188 C 268.058594 138.257812 266.300781 144.214844 263.382812 149.574219 C 250.390625 173.445312 219.214844 178.675781 201.789062 179.671875 C 195.28125 180.046875 188.601562 180.105469 182.144531 180.160156 C 165.175781 180.308594 147.628906 180.46875 131.617188 186.339844 C 110.207031 194.183594 94.335938 212.234375 91.167969 232.320312 C 87.746094 254.054688 101.429688 277.078125 121.050781 282.589844 C 129.644531 285.011719 138.820312 284.375 147.6875 283.761719 C 151.769531 283.480469 155.964844 283.1875 160.125 283.1875 Z M 221.59375 479.863281 C 213.453125 479.863281 205.195312 478.230469 197.527344 474.851562 C 177.417969 465.976562 161.738281 446.390625 155.589844 422.457031 C 147.917969 392.605469 156.3125 358.535156 176.964844 335.652344 C 178.054688 334.449219 179.183594 333.246094 180.324219 332.023438 C 187.269531 324.617188 194.453125 316.957031 194.160156 307.328125 C 193.753906 293.941406 178.304688 285.242188 163.601562 284.570312 C 158.371094 284.328125 152.984375 284.703125 147.773438 285.0625 C 138.792969 285.683594 129.511719 286.328125 120.699219 283.847656 C 100.117188 278.066406 86.300781 254.863281 89.878906 232.117188 C 93.117188 211.574219 109.320312 193.121094 131.164062 185.109375 C 147.394531 179.164062 165.050781 179.003906 182.132812 178.855469 C 188.574219 178.800781 195.234375 178.738281 201.710938 178.367188 C 218.867188 177.386719 249.542969 172.261719 262.230469 148.949219 C 265.082031 143.710938 266.820312 137.820312 268.5 132.121094 C 270.4375 125.542969 272.445312 118.738281 276.183594 112.839844 C 281.847656 103.898438 291.414062 97.859375 303.121094 95.832031 C 316.683594 93.480469 330.90625 96.859375 341.175781 104.863281 C 351.679688 113.058594 352.832031 126.433594 353.953125 139.363281 C 354.90625 150.480469 355.898438 161.976562 362.601562 170.6875 C 363.414062 171.746094 368.789062 172.226562 372.34375 172.238281 C 388.214844 172.941406 398.175781 157.292969 407.808594 142.171875 C 411.296875 136.691406 414.589844 131.519531 418.171875 127.039062 C 431.945312 109.800781 447.160156 92.375 468.265625 85.277344 C 480.441406 81.1875 495.03125 82.191406 506.34375 87.914062 C 515.175781 92.375 521.273438 99.191406 523.972656 107.605469 C 531.570312 131.335938 510.476562 154.074219 493.949219 169.109375 L 448.148438 210.785156 C 443.246094 215.246094 437.691406 220.296875 435.171875 226.890625 C 429.3125 242.222656 442.074219 259.242188 457.714844 268.136719 C 462.246094 270.714844 467.113281 273.003906 471.832031 275.222656 C 482.855469 280.410156 494.257812 285.773438 502.195312 295.1875 C 519.230469 315.390625 512.664062 347.613281 495.84375 365.035156 C 480.164062 381.273438 455.308594 390.253906 425.851562 390.332031 C 425.722656 390.332031 425.589844 390.332031 425.449219 390.332031 C 407.816406 390.332031 390.121094 387.460938 372.996094 384.6875 C 365.609375 383.492188 357.964844 382.25 350.4375 381.261719 C 335.242188 379.261719 319.40625 378.46875 306.589844 386.144531 C 292.183594 394.777344 286.425781 410.605469 280.332031 427.359375 C 275.667969 440.183594 270.847656 453.441406 261.78125 463.316406 C 251.917969 474.066406 236.957031 479.863281 221.59375 479.863281 "/><path style=" stroke:none;fill-rule:nonzero;fill:currentColor;fill-opacity:1;" d="M 167.378906 280.53125 C 168.765625 280.53125 170.152344 280.5625 171.535156 280.640625 C 185.972656 281.4375 201.074219 290.246094 201.359375 303.613281 C 201.558594 313.226562 194.53125 320.582031 187.738281 327.699219 C 186.65625 328.832031 185.582031 329.953125 184.554688 331.078125 C 165.148438 352.171875 157.050781 383.777344 163.925781 411.601562 C 169.421875 433.863281 183.777344 452.152344 202.320312 460.539062 C 222.632812 469.726562 247.558594 465.511719 261.578125 450.515625 C 270.046875 441.460938 274.664062 429.117188 279.128906 417.183594 C 284.847656 401.910156 290.753906 386.125 304.804688 377.882812 C 317.304688 370.554688 332.488281 371.449219 347.03125 373.492188 C 354.148438 374.5 361.34375 375.730469 368.316406 376.929688 C 384.515625 379.710938 401.269531 382.582031 417.921875 382.695312 C 418.230469 382.699219 418.539062 382.699219 418.847656 382.699219 C 445.882812 382.699219 468.726562 374.59375 483.25 359.828125 C 498.886719 343.9375 505.238281 314.371094 489.78125 295.695312 C 482.558594 286.960938 471.976562 281.863281 461.746094 276.933594 C 457.296875 274.785156 452.695312 272.574219 448.402344 270.078125 C 433.265625 261.28125 421.035156 244.488281 426.957031 229.410156 C 429.5 222.9375 434.902344 218.109375 439.671875 213.851562 L 483.242188 174.9375 C 498.699219 161.128906 518.472656 140.253906 511.734375 118.507812 C 509.367188 110.871094 503.894531 104.652344 495.90625 100.523438 C 485.578125 95.183594 472.195312 94.132812 460.992188 97.789062 C 441.339844 104.195312 426.980469 120.347656 413.957031 136.335938 C 410.585938 140.480469 407.449219 145.304688 404.128906 150.40625 C 394.710938 164.894531 385.007812 179.859375 369.308594 179.035156 C 367.882812 179.019531 360.5625 178.847656 359.160156 176.988281 C 352.691406 168.417969 351.84375 157.375 351.023438 146.699219 C 350.0625 134.210938 349.152344 122.417969 339.746094 114.941406 C 330.40625 107.515625 317.382812 104.300781 304.929688 106.34375 C 294.222656 108.101562 285.449219 113.511719 280.230469 121.585938 C 276.746094 126.972656 274.820312 133.289062 272.960938 139.394531 C 271.304688 144.816406 269.597656 150.421875 266.800781 155.460938 C 254.320312 177.875 224.855469 182.542969 208.402344 183.335938 C 202.257812 183.628906 195.957031 183.621094 189.867188 183.621094 C 173.871094 183.621094 157.308594 183.605469 142.164062 189.003906 C 121.910156 196.214844 106.789062 213.085938 103.632812 231.996094 C 100.210938 252.453125 112.90625 274.265625 131.347656 279.640625 C 139.425781 281.992188 148.082031 281.472656 156.453125 280.96875 C 160.042969 280.753906 163.714844 280.53125 167.378906 280.53125 Z M 224.992188 466.671875 C 217.128906 466.671875 209.15625 465.0625 201.78125 461.730469 C 182.878906 453.179688 168.253906 434.558594 162.65625 411.917969 C 155.679688 383.679688 163.902344 351.601562 183.59375 330.1875 C 184.625 329.0625 185.703125 327.933594 186.792969 326.792969 C 193.40625 319.871094 200.242188 312.714844 200.046875 303.644531 C 199.78125 291.035156 185.304688 282.710938 171.464844 281.945312 C 166.53125 281.675781 161.445312 281.980469 156.527344 282.273438 C 148.050781 282.78125 139.28125 283.304688 130.984375 280.890625 C 111.605469 275.253906 98.757812 253.21875 102.34375 231.777344 C 105.574219 212.414062 121.035156 195.140625 141.722656 187.769531 C 157.082031 182.300781 173.742188 182.316406 189.867188 182.3125 C 195.941406 182.316406 202.226562 182.324219 208.339844 182.03125 C 224.523438 181.253906 253.488281 176.691406 265.652344 154.824219 C 268.386719 149.910156 270.078125 144.367188 271.710938 139.011719 C 273.597656 132.820312 275.546875 126.417969 279.128906 120.875 C 284.554688 112.488281 293.644531 106.871094 304.714844 105.054688 C 317.542969 102.953125 330.9375 106.265625 340.5625 113.917969 C 350.417969 121.75 351.386719 134.382812 352.324219 146.597656 C 353.128906 157.089844 353.96875 167.933594 360.203125 176.203125 C 360.953125 177.191406 366.003906 177.695312 369.347656 177.730469 C 384.3125 178.511719 393.824219 163.871094 403.035156 149.699219 C 406.375 144.5625 409.527344 139.710938 412.945312 135.515625 C 426.09375 119.371094 440.601562 103.0625 460.585938 96.546875 C 472.117188 92.792969 485.878906 93.871094 496.507812 99.363281 C 504.808594 103.664062 510.507812 110.144531 512.976562 118.125 C 519.949219 140.589844 499.839844 161.863281 484.109375 175.914062 L 440.542969 214.824219 C 435.882812 218.984375 430.601562 223.703125 428.171875 229.890625 C 422.523438 244.277344 434.398438 260.429688 449.058594 268.949219 C 453.308594 271.417969 457.882812 273.621094 462.3125 275.757812 C 472.671875 280.746094 483.378906 285.910156 490.792969 294.859375 C 506.699219 314.085938 500.214844 344.445312 484.1875 360.742188 C 469.410156 375.761719 446.230469 384.003906 418.847656 384.003906 C 418.535156 384.003906 418.226562 384.003906 417.917969 384.003906 C 401.148438 383.890625 384.34375 381.007812 368.09375 378.21875 C 361.132812 377.019531 353.941406 375.789062 346.851562 374.789062 C 332.539062 372.769531 317.621094 371.886719 305.46875 379.015625 C 291.8125 387.015625 286.25 401.890625 280.355469 417.640625 C 275.839844 429.691406 271.175781 442.164062 262.535156 451.410156 C 253.242188 461.339844 239.304688 466.671875 224.992188 466.671875 "/><path style=" stroke:none;fill-rule:nonzero;fill:currentColor;fill-opacity:1;" d="M 174.554688 277.871094 C 176.175781 277.871094 177.796875 277.914062 179.402344 278.015625 C 192.984375 278.910156 207.113281 287.355469 207.246094 299.949219 C 207.34375 309 200.660156 315.851562 194.195312 322.476562 C 193.167969 323.527344 192.152344 324.578125 191.171875 325.617188 C 172.730469 345.25 164.816406 374.871094 171 401.074219 C 175.949219 422.039062 189.25 439.367188 206.582031 447.425781 C 225.574219 456.25 249.023438 452.539062 262.34375 438.589844 C 270.386719 430.175781 274.84375 418.617188 279.160156 407.445312 C 284.683594 393.144531 290.394531 378.355469 303.695312 370.742188 C 315.535156 363.96875 329.804688 364.953125 343.460938 367.023438 C 350.132812 368.039062 356.894531 369.273438 363.429688 370.464844 C 378.632812 373.238281 394.347656 376.101562 410 376.375 C 435.78125 376.804688 457.65625 369.410156 471.605469 355.527344 C 486.441406 340.75 492.703125 313.054688 478.371094 295.355469 C 471.671875 287.085938 461.777344 282.191406 452.210938 277.457031 C 448.050781 275.398438 443.746094 273.265625 439.730469 270.882812 C 425.578125 262.457031 414.238281 246.53125 419.957031 232.402344 C 422.417969 226.324219 427.550781 221.835938 432.078125 217.878906 L 473.414062 181.730469 C 488.074219 168.910156 506.859375 149.5 500.734375 129.011719 C 498.59375 121.820312 493.515625 115.929688 486.058594 111.976562 C 476.414062 106.855469 463.859375 105.738281 453.296875 109.066406 C 434.773438 114.882812 421.117188 129.917969 408.726562 144.820312 C 405.511719 148.683594 402.519531 153.179688 399.351562 157.953125 C 390.351562 171.484375 381.058594 185.476562 366.300781 184.535156 C 364.960938 184.503906 358.066406 184.269531 356.757812 182.492188 C 350.75 174.363281 350.0625 163.96875 349.394531 153.921875 C 348.613281 142.179688 347.878906 131.09375 339.125 123.988281 C 330.421875 116.921875 318.230469 113.777344 306.507812 115.570312 C 296.4375 117.117188 288.152344 122.113281 283.167969 129.640625 C 279.84375 134.664062 277.972656 140.574219 276.164062 146.292969 C 274.558594 151.378906 272.898438 156.636719 270.210938 161.347656 C 258.253906 182.308594 230.496094 186.410156 215.011719 186.992188 C 209.234375 187.207031 203.316406 187.140625 197.582031 187.078125 C 182.542969 186.914062 166.992188 186.746094 152.707031 191.667969 C 133.613281 198.242188 119.242188 213.945312 116.089844 231.671875 C 112.679688 250.847656 124.382812 271.457031 141.648438 276.679688 C 149.210938 278.972656 157.351562 278.566406 165.214844 278.175781 C 168.289062 278.027344 171.425781 277.871094 174.554688 277.871094 Z M 228.386719 453.492188 C 220.808594 453.492188 213.117188 451.902344 206.03125 448.609375 C 188.339844 440.382812 174.765625 422.722656 169.726562 401.378906 C 163.445312 374.75 171.488281 344.664062 190.214844 324.726562 C 191.203125 323.675781 192.230469 322.625 193.261719 321.5625 C 199.539062 315.128906 206.027344 308.472656 205.941406 299.964844 C 205.8125 288.128906 192.304688 280.171875 179.316406 279.320312 C 174.683594 279.015625 169.902344 279.253906 165.28125 279.484375 C 157.304688 279.875 149.046875 280.285156 141.269531 277.933594 C 123.09375 272.433594 111.222656 251.582031 114.800781 231.441406 C 118.039062 213.257812 132.746094 197.15625 152.28125 190.429688 C 166.777344 185.441406 182.445312 185.609375 197.597656 185.773438 C 203.308594 185.835938 209.21875 185.902344 214.96875 185.6875 C 230.179688 185.117188 257.433594 181.109375 269.074219 160.699219 C 271.691406 156.109375 273.335938 150.921875 274.921875 145.90625 C 276.753906 140.097656 278.652344 134.09375 282.078125 128.917969 C 287.265625 121.082031 295.871094 115.878906 306.304688 114.28125 C 318.390625 112.429688 330.964844 115.679688 339.953125 122.972656 C 349.144531 130.4375 349.933594 142.332031 350.695312 153.832031 C 351.351562 163.691406 352.03125 173.890625 357.804688 181.71875 C 358.421875 182.546875 362.726562 183.148438 366.359375 183.230469 C 380.351562 184.125 389.46875 170.449219 398.261719 157.226562 C 401.453125 152.429688 404.464844 147.898438 407.71875 143.988281 C 420.242188 128.9375 434.046875 113.742188 452.898438 107.816406 C 463.785156 104.390625 476.726562 105.542969 486.667969 110.820312 C 494.441406 114.945312 499.738281 121.101562 501.988281 128.636719 C 508.324219 149.84375 489.207031 169.660156 474.269531 182.71875 L 432.941406 218.863281 C 428.523438 222.726562 423.511719 227.105469 421.171875 232.886719 C 415.726562 246.335938 426.722656 261.621094 440.398438 269.757812 C 444.371094 272.121094 448.652344 274.238281 452.792969 276.285156 C 462.480469 281.082031 472.503906 286.042969 479.386719 294.535156 C 494.160156 312.777344 487.769531 341.277344 472.523438 356.449219 C 458.324219 370.585938 436.144531 378.125 409.980469 377.679688 C 394.214844 377.40625 378.445312 374.53125 363.195312 371.746094 C 356.667969 370.554688 349.917969 369.324219 343.265625 368.316406 C 329.835938 366.277344 315.832031 365.304688 304.347656 371.871094 C 291.449219 379.253906 286.070312 393.175781 280.382812 407.914062 C 276.019531 419.210938 271.511719 430.882812 263.289062 439.496094 C 254.578125 448.621094 241.652344 453.492188 228.386719 453.492188 "/><path style=" stroke:none;fill-rule:nonzero;fill:currentColor;fill-opacity:1;" d="M 181.605469 275.195312 C 183.5 275.195312 185.394531 275.25 187.269531 275.398438 C 199.996094 276.382812 213.148438 284.464844 213.136719 296.277344 C 213.128906 304.769531 206.789062 311.117188 200.660156 317.253906 C 199.683594 318.230469 198.71875 319.199219 197.789062 320.164062 C 180.316406 338.328125 172.578125 365.957031 178.074219 390.546875 C 182.46875 410.21875 194.71875 426.582031 210.851562 434.3125 C 228.515625 442.78125 250.492188 439.574219 263.105469 426.667969 C 270.722656 418.882812 275.03125 408.121094 279.191406 397.710938 C 284.523438 384.375 290.035156 370.582031 302.59375 363.597656 C 313.757812 357.378906 327.113281 358.464844 339.890625 360.554688 C 346.128906 361.574219 352.441406 362.808594 358.550781 364 C 372.75 366.761719 387.425781 369.617188 402.078125 370.042969 C 426.195312 370.765625 446.75 364.058594 459.957031 351.226562 C 474 337.566406 480.164062 311.726562 466.960938 295.023438 C 460.78125 287.207031 451.578125 282.519531 442.675781 277.984375 C 438.800781 276.007812 434.800781 273.964844 431.066406 271.683594 C 417.894531 263.628906 407.441406 248.578125 412.964844 235.382812 C 415.339844 229.714844 420.195312 225.570312 424.484375 221.910156 L 463.585938 188.527344 C 477.445312 176.695312 495.238281 158.738281 489.746094 139.511719 C 487.8125 132.761719 483.140625 127.203125 476.207031 123.421875 C 467.242188 118.527344 455.519531 117.347656 445.597656 120.332031 C 428.203125 125.578125 415.257812 139.496094 403.488281 153.304688 C 400.445312 156.882812 397.589844 161.0625 394.570312 165.488281 C 385.988281 178.066406 377.152344 191.082031 363.296875 190.03125 C 361.519531 189.972656 355.535156 189.644531 354.347656 187.996094 C 348.808594 180.304688 348.28125 170.5625 347.765625 161.140625 C 347.171875 150.152344 346.601562 139.769531 338.496094 133.03125 C 330.441406 126.324219 319.078125 123.25 308.089844 124.800781 C 298.65625 126.128906 290.847656 130.710938 286.105469 137.695312 C 282.945312 142.351562 281.128906 147.867188 279.371094 153.195312 C 277.808594 157.941406 276.195312 162.84375 273.628906 167.230469 C 262.191406 186.746094 236.140625 190.277344 221.625 190.648438 C 216.210938 190.785156 210.660156 190.65625 205.304688 190.539062 C 191.226562 190.214844 176.671875 189.886719 163.25 194.328125 C 145.3125 200.269531 131.695312 214.796875 128.550781 231.347656 C 125.144531 249.242188 135.859375 268.648438 151.949219 273.726562 C 159 275.953125 166.617188 275.664062 173.984375 275.386719 C 176.492188 275.292969 179.050781 275.195312 181.605469 275.195312 Z M 231.777344 440.316406 C 224.480469 440.316406 217.074219 438.746094 210.285156 435.488281 C 193.800781 427.585938 181.28125 410.894531 176.800781 390.835938 C 171.210938 365.828125 179.078125 337.734375 196.847656 319.257812 C 197.78125 318.285156 198.753906 317.308594 199.734375 316.328125 C 205.671875 310.382812 211.816406 304.230469 211.828125 296.277344 C 211.84375 285.21875 199.304688 277.636719 187.171875 276.695312 C 182.835938 276.363281 178.363281 276.53125 174.03125 276.691406 C 166.550781 276.972656 158.820312 277.261719 151.554688 274.972656 C 134.582031 269.613281 123.683594 249.9375 127.265625 231.101562 C 130.496094 214.09375 144.460938 199.175781 162.835938 193.089844 C 176.476562 188.570312 191.144531 188.910156 205.335938 189.230469 C 210.683594 189.351562 216.210938 189.480469 221.59375 189.34375 C 235.832031 188.976562 261.378906 185.539062 272.496094 166.566406 C 275 162.304688 276.589844 157.46875 278.132812 152.789062 C 279.914062 147.375 281.757812 141.769531 285.027344 136.960938 C 289.980469 129.667969 298.101562 124.886719 307.90625 123.503906 C 319.246094 121.90625 331.003906 125.089844 339.339844 132.023438 C 347.875 139.132812 348.484375 150.285156 349.070312 161.070312 C 349.574219 170.304688 350.09375 179.851562 355.40625 187.230469 C 355.964844 188.007812 359.972656 188.613281 363.363281 188.726562 C 376.453125 189.726562 385.117188 177.027344 393.488281 164.753906 C 396.53125 160.296875 399.402344 156.085938 402.496094 152.460938 C 414.390625 138.503906 427.484375 124.429688 445.21875 119.082031 C 455.464844 115.996094 467.578125 117.21875 476.835938 122.277344 C 484.078125 126.226562 488.976562 132.066406 491 139.152344 C 496.703125 159.101562 478.566406 177.449219 464.4375 189.515625 L 425.332031 222.90625 C 421.15625 226.46875 416.421875 230.503906 414.167969 235.886719 C 408.933594 248.398438 419.046875 262.804688 431.75 270.570312 C 435.4375 272.824219 439.417969 274.859375 443.273438 276.820312 C 452.296875 281.421875 461.628906 286.175781 467.984375 294.210938 C 481.628906 311.472656 475.320312 338.105469 460.867188 352.164062 C 447.40625 365.25 426.511719 372.050781 402.039062 371.347656 C 387.285156 370.921875 372.550781 368.054688 358.304688 365.277344 C 352.203125 364.089844 345.894531 362.863281 339.675781 361.84375 C 327.140625 359.789062 314.042969 358.71875 303.230469 364.734375 C 291.078125 371.496094 285.894531 384.46875 280.402344 398.195312 C 276.191406 408.71875 271.839844 419.605469 264.039062 427.585938 C 255.90625 435.90625 244 440.316406 231.777344 440.316406 "/><path style=" stroke:none;fill-rule:nonzero;fill:currentColor;fill-opacity:1;" d="M 188.417969 272.507812 C 190.660156 272.507812 192.917969 272.574219 195.140625 272.773438 C 207.007812 273.855469 219.191406 281.570312 219.027344 292.609375 C 218.90625 300.542969 212.914062 306.382812 207.117188 312.03125 C 206.191406 312.929688 205.28125 313.816406 204.40625 314.707031 C 187.898438 331.410156 180.339844 357.046875 185.144531 380.019531 C 188.992188 398.402344 200.195312 413.792969 215.117188 421.199219 C 231.464844 429.3125 251.960938 426.601562 263.871094 414.75 C 271.0625 407.597656 275.210938 397.617188 279.222656 387.972656 C 284.363281 375.605469 289.683594 362.8125 301.488281 356.449219 C 311.984375 350.796875 324.425781 351.972656 336.316406 354.082031 C 342.113281 355.113281 347.988281 356.34375 353.664062 357.527344 C 366.863281 360.285156 380.507812 363.136719 394.152344 363.714844 C 416.625 364.679688 435.847656 358.710938 448.3125 346.925781 C 461.5625 334.382812 467.628906 310.402344 455.546875 294.683594 C 449.894531 287.332031 441.382812 282.847656 433.144531 278.507812 C 429.558594 276.621094 425.851562 274.664062 422.398438 272.492188 C 410.207031 264.804688 400.644531 250.613281 405.96875 238.367188 C 408.261719 233.105469 412.84375 229.300781 416.890625 225.941406 L 453.761719 195.320312 C 466.816406 184.472656 483.621094 167.976562 478.75 150.007812 C 477.039062 143.710938 472.757812 138.472656 466.359375 134.867188 C 458.078125 130.203125 447.171875 128.953125 437.898438 131.609375 C 421.632812 136.269531 409.394531 149.074219 398.257812 161.792969 C 395.371094 165.085938 392.664062 168.945312 389.789062 173.027344 C 381.621094 184.652344 373.1875 196.671875 360.285156 195.53125 C 358.625 195.449219 353.039062 195.066406 351.941406 193.496094 C 346.871094 186.25 346.496094 177.15625 346.144531 168.359375 C 345.722656 158.117188 345.324219 148.445312 337.875 142.074219 C 330.457031 135.726562 319.914062 132.722656 309.667969 134.023438 C 300.871094 135.144531 293.546875 139.304688 289.042969 145.746094 C 286.042969 150.042969 284.28125 155.15625 282.578125 160.101562 C 281.0625 164.503906 279.488281 169.058594 277.039062 173.117188 C 266.121094 191.179688 241.773438 194.144531 228.238281 194.304688 C 223.191406 194.371094 218.019531 194.175781 213.023438 193.996094 C 199.910156 193.515625 186.351562 193.023438 173.789062 196.992188 C 157.011719 202.296875 144.148438 215.65625 141.007812 231.023438 C 137.613281 247.640625 147.335938 265.839844 162.25 270.769531 C 168.785156 272.933594 175.882812 272.757812 182.75 272.597656 C 184.621094 272.550781 186.515625 272.507812 188.417969 272.507812 Z M 235.171875 427.152344 C 228.15625 427.152344 221.023438 425.589844 214.535156 422.371094 C 199.261719 414.785156 187.796875 399.054688 183.863281 380.292969 C 178.972656 356.898438 186.671875 330.792969 203.476562 313.789062 C 204.359375 312.898438 205.277344 312 206.203125 311.097656 C 211.8125 305.632812 217.609375 299.984375 217.722656 292.589844 C 217.871094 282.308594 206.300781 275.105469 195.023438 274.070312 C 190.996094 273.703125 186.820312 273.804688 182.785156 273.902344 C 175.804688 274.066406 168.589844 274.242188 161.839844 272.007812 C 146.0625 266.796875 136.144531 248.292969 139.722656 230.761719 C 142.960938 214.9375 156.175781 201.195312 173.394531 195.75 C 186.171875 191.710938 199.847656 192.207031 213.070312 192.691406 C 218.054688 192.871094 223.207031 193.058594 228.222656 193 C 241.488281 192.839844 265.328125 189.964844 275.921875 172.4375 C 278.300781 168.503906 279.84375 164.015625 281.339844 159.675781 C 283.074219 154.648438 284.867188 149.449219 287.976562 144.996094 C 292.691406 138.253906 300.335938 133.894531 309.503906 132.726562 C 320.105469 131.378906 331.035156 134.5 338.722656 141.078125 C 346.609375 147.820312 347.035156 158.234375 347.449219 168.304688 C 347.796875 176.914062 348.160156 185.816406 353.011719 192.746094 C 353.515625 193.472656 357.222656 194.078125 360.375 194.226562 C 372.527344 195.308594 380.769531 183.601562 388.722656 172.277344 C 391.609375 168.164062 394.34375 164.277344 397.269531 160.929688 C 408.542969 148.070312 420.933594 135.109375 437.539062 130.351562 C 447.136719 127.601562 458.421875 128.898438 467 133.734375 C 473.710938 137.511719 478.210938 143.023438 480.011719 149.667969 C 485.074219 168.359375 467.933594 185.25 454.59375 196.328125 L 417.722656 226.941406 C 413.789062 230.207031 409.332031 233.910156 407.171875 238.886719 C 402.136719 250.460938 411.375 263.996094 423.097656 271.382812 C 426.503906 273.53125 430.191406 275.472656 433.757812 277.355469 C 442.109375 281.753906 450.757812 286.308594 456.578125 293.886719 C 469.09375 310.167969 462.871094 334.945312 449.210938 347.871094 C 436.484375 359.90625 416.90625 365.996094 394.097656 365.027344 C 380.34375 364.433594 366.644531 361.574219 353.398438 358.808594 C 347.730469 357.621094 341.867188 356.398438 336.082031 355.371094 C 324.429688 353.296875 312.25 352.132812 302.105469 357.601562 C 290.710938 363.742188 285.714844 375.757812 280.429688 388.476562 C 276.367188 398.238281 272.167969 408.335938 264.789062 415.671875 C 257.242188 423.191406 246.351562 427.152344 235.171875 427.152344 "/><path style=" stroke:none;fill-rule:nonzero;fill:currentColor;fill-opacity:1;" d="M 194.582031 269.789062 C 197.386719 269.789062 200.226562 269.851562 203.015625 270.148438 C 214.027344 271.328125 225.226562 278.683594 224.914062 288.945312 C 224.6875 296.316406 219.035156 301.652344 213.574219 306.8125 C 212.707031 307.628906 211.84375 308.441406 211.015625 309.253906 C 195.480469 324.488281 188.097656 348.136719 192.21875 369.5 C 195.511719 386.582031 205.667969 401.011719 219.386719 408.089844 C 234.40625 415.835938 253.4375 413.625 264.636719 402.824219 C 271.402344 396.304688 275.394531 387.117188 279.253906 378.234375 C 284.207031 366.832031 289.328125 355.039062 300.382812 349.308594 C 310.210938 344.207031 321.746094 345.480469 332.742188 347.613281 C 338.113281 348.65625 343.539062 349.878906 348.789062 351.0625 C 360.984375 353.808594 373.59375 356.648438 386.234375 357.390625 C 407.015625 358.597656 424.945312 353.363281 436.664062 342.621094 C 449.117188 331.199219 455.089844 309.082031 444.128906 294.351562 C 439.003906 287.453125 431.179688 283.171875 423.609375 279.03125 C 420.308594 277.226562 416.902344 275.359375 413.730469 273.292969 C 402.515625 265.972656 393.847656 252.652344 398.976562 241.351562 C 401.179688 236.492188 405.492188 233.027344 409.296875 229.964844 L 443.933594 202.109375 C 456.191406 192.253906 472 177.214844 467.757812 160.507812 C 466.265625 154.65625 462.378906 149.746094 456.511719 146.316406 C 448.90625 141.875 438.828125 140.554688 430.203125 142.878906 C 415.0625 146.960938 403.527344 158.65625 393.015625 170.28125 C 390.300781 173.285156 387.730469 176.828125 385.007812 180.570312 C 377.253906 191.246094 369.257812 202.28125 357.277344 201.023438 C 355.734375 200.925781 350.539062 200.492188 349.535156 199 C 344.929688 192.191406 344.714844 183.746094 344.507812 175.582031 C 344.277344 166.085938 344.050781 157.121094 337.25 151.113281 C 330.472656 145.128906 320.742188 142.191406 311.242188 143.25 C 303.085938 144.160156 296.242188 147.90625 291.984375 153.796875 C 289.140625 157.734375 287.429688 162.449219 285.78125 167.003906 C 284.308594 171.070312 282.789062 175.273438 280.449219 179 C 270.046875 195.613281 247.414062 198.027344 234.84375 197.964844 C 230.160156 197.945312 225.371094 197.699219 220.738281 197.449219 C 208.585938 196.820312 196.023438 196.160156 184.328125 199.660156 C 168.710938 204.332031 156.59375 216.511719 153.464844 230.699219 C 150.082031 246.039062 158.820312 263.035156 172.550781 267.816406 C 178.574219 269.914062 185.148438 269.855469 191.523438 269.804688 C 192.535156 269.800781 193.554688 269.789062 194.582031 269.789062 Z M 238.5625 413.996094 C 231.828125 413.996094 224.976562 412.445312 218.789062 409.25 C 204.71875 401.988281 194.304688 387.21875 190.933594 369.75 C 186.738281 347.964844 194.257812 323.855469 210.101562 308.324219 C 210.933594 307.507812 211.800781 306.691406 212.675781 305.863281 C 217.945312 300.886719 223.398438 295.738281 223.609375 288.902344 C 223.902344 279.398438 213.296875 272.566406 202.878906 271.449219 C 199.148438 271.046875 195.273438 271.082031 191.535156 271.113281 C 185.050781 271.160156 178.359375 271.21875 172.121094 269.050781 C 157.550781 263.976562 148.605469 246.644531 152.1875 230.417969 C 155.425781 215.777344 167.890625 203.210938 183.953125 198.410156 C 195.871094 194.847656 208.546875 195.511719 220.808594 196.148438 C 225.421875 196.386719 230.195312 196.640625 234.847656 196.65625 C 247.121094 196.710938 269.277344 194.386719 279.34375 178.3125 C 281.605469 174.695312 283.105469 170.5625 284.554688 166.5625 C 286.234375 161.921875 287.972656 157.121094 290.925781 153.03125 C 295.40625 146.839844 302.570312 142.902344 311.101562 141.949219 C 320.96875 140.855469 331.070312 143.910156 338.113281 150.136719 C 345.339844 156.519531 345.582031 166.1875 345.820312 175.542969 C 346.019531 183.523438 346.226562 191.777344 350.617188 198.265625 C 351.050781 198.910156 354.46875 199.535156 357.382812 199.726562 C 368.640625 200.902344 376.417969 190.179688 383.949219 179.804688 C 386.691406 176.03125 389.28125 172.464844 392.050781 169.402344 C 402.691406 157.632812 414.375 145.796875 429.863281 141.617188 C 438.808594 139.203125 449.273438 140.574219 457.167969 145.191406 C 463.347656 148.800781 467.445312 153.988281 469.019531 160.183594 C 473.453125 177.617188 457.296875 193.046875 444.757812 203.128906 L 410.113281 230.984375 C 406.425781 233.953125 402.242188 237.316406 400.167969 241.890625 C 395.34375 252.523438 403.699219 265.183594 414.445312 272.199219 C 417.570312 274.238281 420.960938 276.089844 424.238281 277.886719 C 431.929688 282.09375 439.882812 286.449219 445.179688 293.570312 C 456.933594 309.367188 450.367188 331.832031 437.546875 343.582031 C 425.5625 354.566406 407.316406 359.9375 386.160156 358.695312 C 373.40625 357.949219 360.742188 355.09375 348.5 352.335938 C 343.261719 351.15625 337.839844 349.933594 332.496094 348.894531 C 321.730469 346.804688 310.460938 345.546875 300.984375 350.460938 C 290.339844 355.988281 285.535156 367.042969 280.449219 378.757812 C 276.539062 387.753906 272.496094 397.058594 265.546875 403.765625 C 258.578125 410.476562 248.707031 413.996094 238.5625 413.996094 "/><path style=" stroke:none;fill-rule:nonzero;fill:currentColor;fill-opacity:1;" d="M 212.917969 200.175781 C 206.804688 200.175781 200.730469 200.691406 194.863281 202.324219 C 180.40625 206.359375 169.042969 217.375 165.917969 230.382812 C 162.542969 244.441406 170.300781 260.234375 182.859375 264.863281 C 188.367188 266.894531 194.425781 266.953125 200.292969 267.015625 C 203.78125 267.050781 207.382812 267.089844 210.886719 267.53125 C 221.042969 268.808594 231.269531 275.792969 230.804688 285.277344 C 230.46875 292.089844 225.160156 296.921875 220.027344 301.597656 C 219.214844 302.335938 218.410156 303.070312 217.632812 303.804688 C 203.058594 317.570312 195.859375 339.230469 199.292969 358.976562 C 202.035156 374.765625 211.144531 388.226562 223.660156 394.980469 C 237.355469 402.367188 254.910156 400.652344 265.40625 390.902344 C 271.746094 385.007812 275.578125 376.609375 279.285156 368.496094 C 284.046875 358.058594 288.972656 347.261719 299.277344 342.160156 C 308.445312 337.621094 319.0625 338.984375 329.171875 341.148438 C 334.105469 342.195312 339.089844 343.417969 343.902344 344.597656 C 355.101562 347.335938 366.675781 350.167969 378.3125 351.066406 C 397.460938 352.535156 414.042969 348.011719 425.019531 338.316406 C 436.679688 328.015625 442.550781 307.753906 432.71875 294.007812 C 428.109375 287.578125 420.976562 283.5 414.074219 279.554688 C 411.066406 277.835938 407.953125 276.054688 405.058594 274.09375 C 394.824219 267.144531 387.050781 254.691406 391.984375 244.335938 C 394.101562 239.882812 398.144531 236.753906 401.703125 233.992188 L 434.113281 208.902344 C 445.574219 200.027344 460.386719 186.445312 456.761719 171 C 455.488281 165.59375 451.996094 161.015625 446.65625 157.761719 C 439.730469 153.539062 430.480469 152.160156 422.5 154.152344 C 408.484375 157.660156 397.667969 168.230469 387.78125 178.765625 C 385.222656 181.492188 382.796875 184.710938 380.226562 188.117188 C 372.886719 197.835938 365.324219 207.894531 354.265625 206.519531 C 352.84375 206.40625 348.042969 205.910156 347.125 204.5 C 342.984375 198.132812 342.933594 190.332031 342.886719 182.796875 C 342.824219 174.050781 342.773438 165.792969 336.617188 160.15625 C 330.484375 154.535156 321.585938 151.671875 312.820312 152.476562 C 305.300781 153.175781 298.9375 156.503906 294.921875 161.855469 C 292.234375 165.433594 290.582031 169.742188 288.984375 173.917969 C 287.558594 177.640625 286.082031 181.492188 283.859375 184.890625 C 273.976562 200.050781 253.050781 201.882812 241.449219 201.621094 C 237.128906 201.523438 232.722656 201.210938 228.453125 200.910156 C 223.320312 200.546875 218.101562 200.175781 212.917969 200.175781 Z M 241.953125 400.847656 C 235.496094 400.847656 228.921875 399.300781 223.039062 396.128906 C 210.175781 389.1875 200.820312 375.382812 198.003906 359.203125 C 194.5 339.03125 201.851562 316.914062 216.734375 302.855469 C 217.515625 302.113281 218.328125 301.375 219.148438 300.632812 C 224.085938 296.136719 229.191406 291.492188 229.496094 285.214844 C 229.925781 276.484375 220.289062 270.027344 210.730469 268.824219 C 207.296875 268.394531 203.730469 268.355469 200.277344 268.320312 C 194.304688 268.257812 188.125 268.199219 182.40625 266.085938 C 169.03125 261.152344 161.070312 245.003906 164.652344 230.078125 C 167.882812 216.613281 179.605469 205.226562 194.515625 201.066406 C 205.570312 197.984375 217.25 198.8125 228.546875 199.609375 C 232.800781 199.90625 237.191406 200.21875 241.480469 200.316406 C 252.792969 200.574219 273.226562 198.804688 282.765625 184.175781 C 284.914062 180.890625 286.363281 177.105469 287.765625 173.449219 C 289.394531 169.191406 291.078125 164.792969 293.878906 161.070312 C 298.117188 155.425781 304.804688 151.90625 312.703125 151.179688 C 321.832031 150.332031 331.101562 153.328125 337.5 159.195312 C 344.078125 165.210938 344.132812 174.148438 344.191406 182.785156 C 344.242188 190.136719 344.289062 197.742188 348.21875 203.789062 C 348.601562 204.375 351.722656 205 354.398438 205.21875 C 364.714844 206.503906 372.070312 196.753906 379.183594 187.328125 C 381.777344 183.894531 384.226562 180.648438 386.832031 177.875 C 396.84375 167.199219 407.828125 156.476562 422.1875 152.886719 C 430.488281 150.808594 440.128906 152.25 447.335938 156.648438 C 452.980469 160.085938 456.679688 164.949219 458.03125 170.703125 C 461.828125 186.882812 446.65625 200.839844 434.914062 209.933594 L 402.507812 235.03125 C 399.058594 237.695312 395.148438 240.726562 393.164062 244.894531 C 388.546875 254.589844 396.023438 266.378906 405.792969 273.015625 C 408.640625 274.945312 411.734375 276.710938 414.722656 278.421875 C 421.746094 282.433594 429.011719 286.585938 433.777344 293.246094 C 444.359375 308.035156 437.921875 328.664062 425.886719 339.292969 C 414.640625 349.226562 397.707031 353.878906 378.214844 352.367188 C 366.472656 351.464844 354.839844 348.613281 343.59375 345.867188 C 338.785156 344.683594 333.8125 343.46875 328.902344 342.421875 C 319.015625 340.316406 308.664062 338.964844 299.859375 343.328125 C 289.96875 348.230469 285.355469 358.339844 280.46875 369.035156 C 276.714844 377.273438 272.824219 385.785156 266.296875 391.855469 C 259.925781 397.777344 251.058594 400.847656 241.953125 400.847656 "/><path style=" stroke:none;fill-rule:nonzero;fill:currentColor;fill-opacity:1;" d="M 219.925781 203.367188 C 215.019531 203.367188 210.144531 203.78125 205.40625 204.996094 C 192.101562 208.394531 181.492188 218.234375 178.378906 230.0625 C 175.011719 242.84375 181.785156 257.429688 193.164062 261.90625 C 198.15625 263.875 203.707031 264.054688 209.070312 264.222656 C 212.265625 264.324219 215.5625 264.433594 218.769531 264.90625 C 228.0625 266.28125 237.308594 272.910156 236.695312 281.617188 C 236.246094 287.871094 231.285156 292.199219 226.480469 296.378906 C 225.71875 297.042969 224.96875 297.695312 224.246094 298.351562 C 210.636719 310.65625 203.625 330.324219 206.367188 348.453125 C 208.5625 362.957031 216.621094 375.445312 227.929688 381.867188 C 240.300781 388.894531 256.386719 387.675781 266.171875 378.976562 C 272.089844 373.714844 275.765625 366.109375 279.3125 358.75 C 283.890625 349.28125 288.625 339.488281 298.179688 335.011719 C 306.691406 331.019531 316.824219 332.601562 325.609375 334.675781 C 330.101562 335.738281 334.644531 336.957031 339.039062 338.132812 C 349.230469 340.863281 359.765625 343.6875 370.398438 344.738281 C 387.875 346.476562 403.144531 342.664062 413.375 334.007812 C 424.242188 324.828125 430.015625 306.429688 421.300781 293.667969 C 417.21875 287.695312 410.773438 283.824219 404.539062 280.074219 C 401.8125 278.441406 398.996094 276.746094 396.386719 274.894531 C 387.140625 268.316406 380.253906 256.726562 384.992188 247.3125 C 387.027344 243.265625 390.796875 240.476562 394.117188 238.023438 L 424.289062 215.691406 C 434.949219 207.804688 448.769531 195.679688 445.769531 181.496094 C 444.714844 176.535156 441.613281 172.285156 436.804688 169.207031 C 430.5625 165.207031 422.132812 163.757812 414.800781 165.429688 C 401.910156 168.351562 391.792969 177.8125 382.542969 187.257812 C 380.148438 189.695312 377.863281 192.59375 375.441406 195.660156 C 368.515625 204.429688 361.363281 213.5 351.25 212.015625 C 349.574219 211.839844 345.515625 211.289062 344.714844 209.996094 C 341.046875 204.070312 341.152344 196.921875 341.261719 190.003906 C 341.378906 182.015625 341.492188 174.460938 335.992188 169.191406 C 330.5 163.933594 322.429688 161.140625 314.398438 161.707031 C 307.507812 162.191406 301.632812 165.105469 297.855469 169.910156 C 295.332031 173.125 293.734375 177.039062 292.1875 180.824219 C 290.808594 184.207031 289.378906 187.703125 287.273438 190.785156 C 277.902344 204.484375 258.683594 205.753906 248.058594 205.277344 C 244.101562 205.101562 240.0625 204.726562 236.164062 204.367188 C 230.800781 203.871094 225.34375 203.367188 219.925781 203.367188 Z M 245.34375 387.722656 C 239.160156 387.722656 232.859375 386.171875 227.28125 383.003906 C 215.628906 376.382812 207.328125 363.542969 205.078125 348.65625 C 202.265625 330.101562 209.445312 309.972656 223.367188 297.386719 C 224.097656 296.722656 224.855469 296.0625 225.621094 295.394531 C 230.226562 291.386719 234.984375 287.242188 235.390625 281.523438 C 235.953125 273.574219 227.28125 267.488281 218.574219 266.199219 C 215.449219 265.738281 212.183594 265.628906 209.027344 265.53125 C 203.550781 265.359375 197.890625 265.171875 192.6875 263.125 C 180.511719 258.332031 173.527344 243.347656 177.113281 229.730469 C 180.351562 217.453125 191.324219 207.242188 205.078125 203.726562 C 215.269531 201.121094 225.957031 202.113281 236.28125 203.070312 C 240.171875 203.429688 244.1875 203.796875 248.113281 203.972656 C 258.472656 204.425781 277.183594 203.226562 286.191406 190.046875 C 288.21875 187.082031 289.621094 183.648438 290.976562 180.332031 C 292.558594 176.464844 294.191406 172.464844 296.828125 169.105469 C 300.835938 164.003906 307.042969 160.914062 314.300781 160.402344 C 322.699219 159.816406 331.140625 162.742188 336.894531 168.246094 C 342.808594 173.910156 342.683594 182.101562 342.566406 190.027344 C 342.464844 196.753906 342.355469 203.710938 345.824219 209.308594 C 346.117188 209.78125 348.726562 210.441406 351.414062 210.71875 C 360.792969 212.097656 367.726562 203.324219 374.414062 194.851562 C 376.859375 191.757812 379.167969 188.835938 381.605469 186.34375 C 391.003906 176.761719 401.273438 167.160156 414.511719 164.148438 C 422.160156 162.414062 430.984375 163.929688 437.507812 168.105469 C 442.625 171.375 445.917969 175.914062 447.042969 181.222656 C 450.203125 196.148438 436.019531 208.640625 425.070312 216.738281 L 394.898438 239.070312 C 391.691406 241.445312 388.054688 244.128906 386.160156 247.898438 C 381.753906 256.660156 388.351562 267.570312 397.148438 273.832031 C 399.710938 275.652344 402.507812 277.332031 405.214844 278.957031 C 411.570312 282.777344 418.140625 286.726562 422.378906 292.929688 C 431.789062 306.707031 425.46875 325.5 414.21875 335.011719 C 403.71875 343.890625 388.101562 347.800781 370.269531 346.042969 C 359.53125 344.976562 348.941406 342.136719 338.699219 339.394531 C 334.316406 338.21875 329.785156 337.003906 325.308594 335.949219 C 316.3125 333.824219 306.867188 332.382812 298.734375 336.191406 C 289.59375 340.472656 285.175781 349.628906 280.496094 359.320312 C 276.882812 366.792969 273.15625 374.515625 267.039062 379.949219 C 261.269531 385.082031 253.410156 387.71875 245.34375 387.722656 "/><path style=" stroke:none;fill-rule:nonzero;fill:currentColor;fill-opacity:1;" d="M 227.214844 206.503906 C 223.414062 206.503906 219.636719 206.816406 215.9375 207.660156 C 203.792969 210.425781 193.941406 219.09375 190.832031 229.75 C 187.480469 241.253906 193.265625 254.625 203.46875 258.960938 C 207.949219 260.859375 212.757812 261.136719 217.84375 261.433594 C 220.746094 261.605469 223.746094 261.777344 226.644531 262.285156 C 235.085938 263.761719 243.351562 270.027344 242.582031 277.953125 C 242.027344 283.65625 237.402344 287.476562 232.929688 291.167969 C 232.222656 291.746094 231.523438 292.324219 230.851562 292.902344 C 218.214844 303.742188 211.382812 321.421875 213.441406 337.9375 C 215.085938 351.140625 222.097656 362.664062 232.203125 368.757812 C 243.253906 375.425781 257.867188 374.707031 266.941406 367.050781 C 272.433594 362.417969 275.949219 355.601562 279.351562 349.007812 C 283.738281 340.503906 288.273438 331.714844 297.078125 327.863281 C 304.929688 324.425781 314.105469 326.113281 322.042969 328.207031 C 326.101562 329.28125 330.199219 330.492188 334.15625 331.667969 C 343.347656 334.390625 352.851562 337.207031 362.484375 338.414062 C 378.308594 340.402344 392.246094 337.304688 401.734375 329.707031 C 411.804688 321.632812 417.480469 305.09375 409.882812 293.324219 C 406.324219 287.8125 400.5625 284.140625 394.996094 280.59375 C 392.558594 279.042969 390.042969 277.441406 387.714844 275.691406 C 379.449219 269.476562 373.457031 258.757812 378 250.292969 C 379.957031 246.652344 383.449219 244.207031 386.535156 242.042969 L 414.476562 222.480469 C 424.328125 215.578125 437.160156 204.90625 434.769531 191.988281 C 433.9375 187.46875 431.230469 183.550781 426.945312 180.648438 C 421.386719 176.878906 413.777344 175.363281 407.09375 176.699219 C 395.335938 179.046875 385.925781 187.394531 377.300781 195.746094 C 375.070312 197.90625 372.925781 200.480469 370.652344 203.207031 C 364.144531 211.019531 357.417969 219.09375 348.234375 217.507812 C 346.707031 217.3125 343.015625 216.707031 342.304688 215.492188 C 339.097656 210.007812 339.371094 203.503906 339.632812 197.21875 C 339.929688 189.972656 340.214844 183.128906 335.359375 178.230469 C 330.507812 173.335938 323.277344 170.613281 315.964844 170.929688 C 309.710938 171.210938 304.324219 173.710938 300.789062 177.972656 C 298.425781 180.824219 296.878906 184.335938 295.390625 187.734375 C 294.054688 190.78125 292.667969 193.929688 290.683594 196.675781 C 281.828125 208.921875 264.3125 209.617188 254.660156 208.933594 C 251.066406 208.679688 247.410156 208.246094 243.875 207.824219 C 238.378906 207.171875 232.773438 206.503906 227.214844 206.503906 Z M 248.734375 374.613281 C 242.824219 374.613281 236.785156 373.046875 231.53125 369.878906 C 221.085938 363.578125 213.835938 351.695312 212.140625 338.101562 C 210.03125 321.160156 217.042969 303.027344 230.003906 291.910156 C 230.683594 291.328125 231.386719 290.746094 232.09375 290.160156 C 236.363281 286.632812 240.777344 282.992188 241.28125 277.832031 C 241.980469 270.652344 234.273438 264.945312 226.417969 263.570312 C 223.59375 263.078125 220.632812 262.902344 217.773438 262.738281 C 212.792969 262.453125 207.652344 262.148438 202.960938 260.160156 C 191.992188 255.503906 185.988281 241.699219 189.578125 229.386719 C 192.8125 218.285156 203.046875 209.257812 215.644531 206.386719 C 224.976562 204.261719 234.664062 205.410156 244.03125 206.53125 C 247.550781 206.945312 251.191406 207.382812 254.75 207.628906 C 264.128906 208.292969 281.136719 207.644531 289.621094 195.910156 C 291.527344 193.269531 292.882812 190.191406 294.191406 187.207031 C 295.722656 183.730469 297.300781 180.128906 299.785156 177.136719 C 303.558594 172.585938 309.28125 169.921875 315.910156 169.625 C 323.554688 169.285156 331.183594 172.160156 336.289062 177.3125 C 341.542969 182.609375 341.234375 190.066406 340.9375 197.269531 C 340.6875 203.371094 340.425781 209.675781 343.429688 214.832031 C 343.710938 215.257812 346.050781 215.90625 348.433594 216.21875 C 356.910156 217.679688 363.382812 209.898438 369.652344 202.371094 C 371.941406 199.617188 374.109375 197.015625 376.390625 194.804688 C 385.15625 186.324219 394.726562 177.835938 406.835938 175.421875 C 413.855469 174.019531 421.839844 175.605469 427.679688 179.566406 C 432.261719 182.667969 435.15625 186.882812 436.058594 191.75 C 438.578125 205.410156 425.371094 216.441406 415.226562 223.546875 L 387.285156 243.117188 C 384.320312 245.191406 380.960938 247.539062 379.152344 250.90625 C 374.957031 258.726562 380.675781 268.769531 388.5 274.648438 C 390.789062 276.363281 393.285156 277.953125 395.699219 279.496094 C 401.386719 283.113281 407.269531 286.863281 410.976562 292.613281 C 419.21875 305.382812 413.023438 322.335938 402.550781 330.722656 C 392.785156 338.550781 378.5 341.738281 362.320312 339.710938 C 352.585938 338.488281 343.03125 335.65625 333.785156 332.921875 C 329.835938 331.75 325.75 330.539062 321.707031 329.476562 C 313.597656 327.332031 305.0625 325.796875 297.605469 329.058594 C 289.21875 332.726562 284.992188 340.925781 280.511719 349.605469 C 277.054688 356.3125 273.476562 363.242188 267.785156 368.046875 C 262.628906 372.398438 255.769531 374.613281 248.734375 374.613281 "/></g></svg>