<svg xmlns="http://www.w3.org/2000/svg" xmlns:xlink="http://www.w3.org/1999/xlink" width="819" zoomAndPan="magnify" viewBox="0 0 614.25 663.74998" height="885" preserveAspectRatio="xMidYMid meet" version="1.2"><g id="ba89199ccc"><path style=" stroke:none;fill-rule:nonzero;fill:currentColor;fill-opacity:1;" d="M 479.78125 662.429688 C 464.519531 662.429688 441.886719 660.324219 408.726562 656.113281 C 168.851562 625.847656 120.691406 626.507812 19.242188 642.296875 C 15.820312 642.824219 12.925781 641.246094 10.6875 637.691406 C 0.160156 621.113281 3.449219 560.976562 18.976562 487.945312 C 36.347656 405.964844 63.320312 333.59375 92.925781 289.117188 C 119.242188 249.769531 116.613281 189.242188 114.507812 135.945312 C 112.664062 93.839844 111.085938 57.125 125.429688 42.652344 C 130.035156 38.046875 135.824219 35.808594 143.324219 35.941406 C 171.21875 36.464844 196.21875 77.128906 220.433594 116.472656 C 244.773438 156.082031 270.039062 197.003906 297.539062 196.082031 C 329.121094 195.160156 355.042969 147.132812 380.042969 100.8125 C 404.253906 55.941406 429.386719 9.492188 460.046875 4.753906 C 490.175781 0.28125 547.152344 42.652344 561.890625 68.96875 C 574.785156 91.996094 569.390625 133.710938 564.128906 173.976562 C 559.390625 210.820312 554.390625 248.980469 564.128906 271.21875 C 567.023438 277.929688 577.15625 284.640625 586.890625 291.222656 C 599.261719 299.511719 612.15625 308.0625 612.550781 317.539062 C 613.339844 338.988281 578.46875 378.992188 544.785156 417.546875 C 513.203125 453.601562 480.703125 490.839844 479.78125 510.710938 C 477.28125 559.792969 491.757812 595.980469 501.363281 619.796875 C 508.335938 637.164062 512.941406 648.613281 507.679688 655.324219 C 503.863281 660.195312 495.835938 662.429688 479.78125 662.429688 Z M 138.980469 630.324219 C 196.746094 630.324219 271.222656 637.5625 408.859375 654.796875 C 476.097656 663.21875 499.652344 663.21875 506.363281 654.667969 C 511.230469 648.484375 506.625 637.296875 499.914062 620.324219 C 490.308594 596.375 475.703125 560.054688 478.335938 510.710938 C 479.386719 490.445312 510.574219 454.652344 543.730469 416.757812 C 577.285156 378.332031 612.023438 338.460938 611.234375 317.539062 C 610.839844 308.722656 598.339844 300.300781 586.234375 292.273438 C 575.839844 285.300781 565.96875 278.71875 562.941406 271.746094 C 553.207031 249.246094 558.074219 210.953125 562.941406 173.84375 C 568.207031 133.710938 573.46875 92.261719 560.839844 69.625 C 546.628906 44.230469 489.386719 1.726562 460.308594 6.203125 C 430.175781 10.808594 405.304688 56.863281 381.226562 101.472656 C 355.960938 148.183594 329.910156 196.347656 297.539062 197.398438 C 269.117188 198.1875 243.722656 157 219.246094 117.128906 C 195.300781 78.179688 170.429688 37.78125 143.191406 37.257812 C 136.085938 37.125 130.558594 39.230469 126.347656 43.574219 C 112.535156 57.652344 113.980469 94.101562 115.691406 136.210938 C 117.929688 189.765625 120.429688 250.429688 93.980469 290.167969 C 64.503906 334.382812 37.664062 406.625 20.160156 488.472656 C 4.898438 560.054688 1.476562 621.242188 11.742188 637.164062 C 13.714844 640.324219 16.214844 641.640625 18.976562 641.113281 C 62.398438 634.402344 96.085938 630.324219 138.980469 630.324219 Z M 138.980469 630.324219 "/><path style=" stroke:none;fill-rule:nonzero;fill:currentColor;fill-opacity:1;" d="M 469.652344 656.902344 C 454.914062 656.902344 433.203125 654.929688 401.359375 650.851562 C 183.195312 623.21875 130.824219 621.113281 28.058594 636.375 C 24.765625 636.902344 21.871094 635.324219 19.765625 631.902344 C 9.636719 615.980469 12.53125 558.34375 27.136719 488.601562 C 43.453125 410.308594 68.980469 340.960938 97.007812 298.457031 C 121.875 260.824219 119.375 203.058594 117.269531 152.132812 C 115.558594 111.472656 114.113281 76.207031 127.796875 62.257812 C 132.007812 57.914062 137.402344 55.808594 144.375 55.808594 L 144.902344 55.808594 C 171.746094 56.074219 195.957031 94.761719 219.511719 132.132812 C 243.0625 169.503906 267.144531 207.925781 293.328125 207.925781 L 293.988281 207.925781 C 324.25 207.136719 348.988281 161.738281 372.9375 117.917969 C 396.09375 75.546875 420.042969 31.597656 449.253906 27.519531 C 478.070312 23.4375 532.414062 64.230469 546.496094 89.363281 C 549.128906 94.367188 550.96875 99.628906 552.023438 105.15625 C 556.757812 127.65625 552.8125 159.105469 548.996094 189.503906 C 544.652344 224.902344 540.046875 261.613281 549.523438 282.929688 C 552.417969 289.378906 562.023438 295.828125 571.363281 302.144531 C 583.207031 310.039062 595.445312 318.328125 595.972656 327.40625 C 597.023438 348.066406 563.734375 386.621094 531.625 423.863281 C 502.019531 458.074219 471.363281 493.601562 470.308594 512.550781 C 467.808594 559.265625 481.363281 593.609375 490.308594 616.242188 C 496.886719 632.957031 501.230469 643.878906 496.097656 650.457031 C 492.679688 654.667969 485.046875 656.902344 469.652344 656.902344 Z M 141.480469 625.585938 C 199.640625 625.585938 270.828125 632.957031 401.492188 649.535156 C 465.964844 657.695312 488.730469 657.695312 495.179688 649.402344 C 499.785156 643.480469 495.574219 632.691406 489.257812 616.507812 C 480.308594 593.609375 466.757812 559.132812 469.257812 512.15625 C 470.308594 492.8125 499.785156 458.734375 530.835938 422.675781 C 562.8125 385.570312 595.972656 347.277344 594.917969 327.144531 C 594.523438 318.722656 582.417969 310.695312 570.839844 302.933594 C 560.839844 296.222656 551.496094 289.90625 548.46875 283.195312 C 538.863281 261.480469 543.46875 224.769531 547.8125 189.109375 C 551.496094 158.84375 555.441406 127.527344 550.835938 105.285156 C 549.785156 99.890625 547.941406 94.628906 545.3125 89.757812 C 531.496094 64.890625 477.808594 24.625 449.519531 28.570312 C 420.832031 32.652344 397.148438 76.207031 374.121094 118.3125 C 350.042969 162.527344 325.039062 208.1875 293.988281 209.109375 L 293.328125 209.109375 C 266.355469 209.109375 242.011719 170.292969 218.328125 132.789062 C 195.035156 95.679688 170.957031 57.390625 144.769531 57.125 C 137.929688 56.996094 132.796875 58.96875 128.71875 63.179688 C 115.429688 76.734375 116.875 111.734375 118.585938 152.132812 C 120.691406 203.320312 123.058594 261.21875 98.058594 299.246094 C 70.03125 341.621094 44.636719 410.835938 28.320312 488.867188 C 13.976562 557.292969 10.949219 615.847656 20.6875 631.246094 C 22.660156 634.269531 24.898438 635.585938 27.792969 635.191406 C 69.109375 629.007812 102.402344 625.585938 141.480469 625.585938 Z M 141.480469 625.585938 "/><path style=" stroke:none;fill-rule:nonzero;fill:currentColor;fill-opacity:1;" d="M 459.78125 651.507812 C 445.835938 651.507812 424.914062 649.535156 393.859375 645.585938 C 184.640625 618.875 134.640625 616.636719 36.609375 630.453125 C 33.453125 630.851562 30.6875 629.402344 28.582031 625.980469 C 8.1875 593.875 42.792969 397.019531 101.085938 307.539062 C 124.507812 271.613281 122.140625 216.609375 120.164062 168.054688 C 118.585938 129.105469 117.140625 95.417969 130.164062 81.863281 C 134.246094 77.523438 139.640625 75.546875 146.351562 75.546875 C 172.007812 75.679688 195.5625 112.261719 218.328125 147.660156 C 241.089844 183.054688 264.644531 219.503906 289.777344 219.503906 L 290.300781 219.503906 C 319.25 218.847656 342.804688 176.082031 365.699219 134.632812 C 387.804688 94.628906 410.570312 53.308594 438.597656 49.757812 C 466.097656 46.203125 517.808594 85.417969 531.101562 109.367188 C 533.601562 114.105469 535.441406 119.234375 536.496094 124.5 C 540.96875 145.949219 537.417969 175.6875 534.125 204.503906 C 530.179688 238.453125 525.96875 273.589844 535.179688 294.117188 C 537.941406 300.300781 547.152344 306.484375 556.234375 312.539062 C 567.546875 320.171875 579.257812 327.933594 579.917969 336.617188 C 581.234375 356.621094 549.652344 393.597656 519.125 429.386719 C 491.363281 461.890625 462.675781 495.578125 461.625 513.738281 C 458.992188 558.082031 471.625 590.714844 479.914062 612.296875 C 485.96875 628.21875 490.046875 638.746094 485.175781 644.929688 C 481.363281 649.402344 474.257812 651.507812 459.78125 651.507812 Z M 141.746094 620.71875 C 197.929688 620.71875 266.355469 627.824219 393.992188 644.140625 C 455.703125 652.035156 477.546875 652.035156 483.730469 644.140625 C 488.203125 638.480469 484.257812 628.21875 478.335938 612.691406 C 470.046875 590.980469 457.414062 558.082031 459.914062 513.472656 C 460.964844 494.917969 488.597656 462.546875 517.808594 428.335938 C 548.207031 392.808594 579.523438 355.960938 578.339844 336.355469 C 577.8125 328.328125 566.363281 320.566406 555.3125 313.195312 C 545.835938 306.75 536.757812 300.828125 533.863281 294.246094 C 524.519531 273.457031 528.601562 238.191406 532.679688 203.976562 C 536.101562 175.292969 539.523438 145.554688 535.046875 124.367188 C 533.996094 119.234375 532.285156 114.234375 529.785156 109.496094 C 516.625 85.8125 465.570312 46.992188 438.597656 50.546875 C 411.359375 54.097656 388.726562 95.15625 366.882812 134.761719 C 343.855469 176.476562 320.039062 219.636719 290.433594 220.296875 L 289.90625 220.296875 C 263.984375 220.296875 240.300781 183.449219 217.273438 147.789062 C 194.640625 112.65625 171.351562 76.335938 146.351562 76.207031 L 146.21875 76.207031 C 139.902344 76.207031 134.902344 78.179688 131.085938 82.128906 C 118.453125 95.285156 119.769531 128.710938 121.480469 167.398438 C 123.585938 216.085938 125.824219 271.351562 102.269531 307.667969 C 76.214844 347.671875 51.609375 415.308594 36.476562 488.734375 C 23.058594 554.003906 20.292969 609.925781 29.765625 624.664062 C 31.609375 627.558594 33.847656 628.875 36.609375 628.480469 C 74.769531 623.742188 105.824219 620.71875 141.746094 620.71875 Z M 141.746094 620.71875 "/><path style=" stroke:none;fill-rule:nonzero;fill:currentColor;fill-opacity:1;" d="M 449.648438 645.980469 C 436.226562 645.980469 416.226562 644.007812 386.488281 640.191406 C 186.089844 614.402344 138.324219 612.164062 45.425781 624.402344 C 42.269531 624.796875 39.636719 623.347656 37.53125 620.058594 C 28.1875 605.320312 30.558594 552.816406 43.320312 489.523438 C 57.398438 419.652344 80.558594 355.042969 105.296875 316.75 C 127.269531 282.535156 125.035156 230.425781 123.058594 184.371094 C 121.480469 147.132812 120.164062 114.894531 132.664062 101.734375 C 136.613281 97.523438 141.613281 95.417969 148.0625 95.285156 L 148.457031 95.285156 C 172.796875 95.285156 195.5625 129.894531 217.535156 163.316406 C 239.511719 196.742188 262.40625 231.347656 286.488281 231.347656 L 286.882812 231.347656 C 314.515625 230.953125 337.015625 190.6875 358.726562 151.738281 C 379.648438 114.234375 401.226562 75.417969 427.808594 72.390625 C 453.859375 69.363281 503.074219 106.996094 515.703125 129.761719 C 518.074219 134.238281 519.914062 139.105469 520.835938 144.238281 C 525.179688 164.5 522.019531 192.792969 518.996094 220.03125 C 515.441406 252.535156 511.625 286.089844 520.703125 305.828125 C 523.335938 311.75 532.285156 317.671875 540.835938 323.328125 C 551.628906 330.566406 562.8125 338.066406 563.46875 346.355469 C 564.917969 365.699219 535.046875 401.230469 506.097656 435.574219 C 480.175781 466.363281 453.335938 498.210938 452.28125 515.445312 C 449.648438 557.421875 461.230469 588.347656 468.859375 608.875 C 474.519531 624.140625 478.335938 634.140625 473.597656 640.0625 C 470.175781 643.875 463.335938 645.980469 449.648438 645.980469 Z M 142.007812 615.847656 C 196.21875 615.847656 261.878906 622.824219 386.621094 638.875 C 445.703125 646.507812 466.492188 646.507812 472.414062 639.007812 C 476.757812 633.613281 473.070312 623.875 467.546875 609.007812 C 459.914062 588.347656 448.203125 557.292969 450.835938 515.050781 C 451.886719 497.417969 477.675781 466.757812 504.914062 434.390625 C 533.601562 400.308594 563.339844 364.910156 561.890625 346.09375 C 561.234375 338.460938 550.441406 331.09375 539.785156 324.117188 C 530.707031 318.066406 522.152344 312.273438 519.257812 306.089844 C 510.046875 286.089844 513.863281 252.269531 517.414062 219.636719 C 520.441406 192.53125 523.601562 164.371094 519.257812 144.238281 C 518.335938 139.367188 516.625 134.5 514.257812 130.15625 C 501.757812 107.65625 453.335938 70.417969 427.675781 73.441406 C 402.015625 76.335938 380.4375 115.023438 359.648438 152.265625 C 337.804688 191.609375 315.039062 232.136719 286.75 232.53125 L 286.355469 232.53125 C 261.484375 232.53125 238.589844 197.660156 216.351562 163.976562 C 194.511719 130.816406 172.007812 96.601562 148.324219 96.601562 L 147.929688 96.601562 C 142.402344 96.472656 137.140625 98.574219 133.457031 102.523438 C 121.347656 115.289062 122.796875 147.265625 124.246094 184.238281 C 126.21875 230.425781 128.453125 282.800781 106.21875 317.40625 C 51.609375 402.28125 19.371094 589.003906 38.714844 619.402344 C 40.558594 622.296875 42.664062 623.480469 45.292969 623.085938 C 80.296875 618.480469 109.113281 615.847656 142.007812 615.847656 Z M 142.007812 615.847656 "/><path style=" stroke:none;fill-rule:nonzero;fill:currentColor;fill-opacity:1;" d="M 439.519531 640.457031 C 426.621094 640.457031 407.542969 638.613281 378.988281 634.929688 C 187.667969 609.925781 142.140625 607.691406 54.109375 618.347656 C 51.082031 618.742188 48.582031 617.296875 46.476562 614.007812 C 37.53125 599.796875 39.503906 549.921875 51.347656 489.789062 C 64.375 423.597656 86.085938 362.277344 109.242188 325.566406 C 129.902344 292.929688 127.664062 243.453125 125.824219 199.765625 C 124.246094 164.105469 122.929688 133.445312 134.769531 120.816406 C 138.585938 116.867188 143.980469 114.628906 149.507812 114.894531 L 149.902344 114.894531 C 173.0625 114.894531 195.167969 147.394531 216.484375 178.714844 C 237.800781 210.03125 260.039062 242.796875 283.066406 242.796875 L 283.328125 242.796875 C 309.644531 242.535156 330.960938 204.769531 351.488281 168.316406 C 371.359375 133.183594 391.886719 96.996094 416.886719 94.496094 C 441.625 91.996094 488.203125 128.183594 500.046875 149.632812 C 502.414062 153.976562 503.992188 158.582031 505.046875 163.449219 C 509.125 182.660156 506.363281 209.242188 503.730469 235.03125 C 500.574219 266.085938 497.152344 298.0625 505.96875 316.878906 C 508.597656 322.40625 517.019531 328.066406 525.046875 333.460938 C 535.3125 340.304688 545.96875 347.539062 546.628906 355.4375 C 548.335938 373.988281 520.046875 408.070312 492.808594 441.101562 C 468.730469 470.179688 443.859375 500.183594 442.808594 516.5 C 440.175781 555.976562 450.835938 585.320312 457.808594 604.664062 C 463.070312 619.136719 466.492188 628.746094 462.019531 634.402344 C 458.992188 638.480469 452.542969 640.457031 439.519531 640.457031 Z M 141.875 610.980469 C 194.246094 610.980469 256.878906 617.691406 378.988281 633.613281 C 435.308594 640.980469 455.175781 640.980469 460.964844 633.875 C 465.046875 628.746094 461.753906 619.402344 456.625 605.320312 C 449.648438 585.847656 438.859375 556.503906 441.625 516.632812 C 442.675781 499.917969 466.625 470.96875 492.019531 440.441406 C 519.125 407.675781 547.152344 373.859375 545.574219 355.832031 C 544.917969 348.59375 534.519531 341.621094 524.519531 334.910156 C 515.835938 329.117188 507.679688 323.589844 504.914062 317.671875 C 495.96875 298.589844 499.257812 266.21875 502.546875 235.164062 C 505.179688 209.503906 507.941406 183.054688 503.863281 163.976562 C 502.941406 159.238281 501.230469 154.765625 498.992188 150.554688 C 487.152344 129.234375 441.359375 93.707031 417.015625 96.074219 C 392.675781 98.445312 372.277344 134.5 352.671875 169.238281 C 331.882812 205.953125 310.433594 244.113281 283.328125 244.375 L 283.066406 244.375 C 259.25 244.375 237.011719 211.480469 215.429688 179.632812 C 194.378906 148.578125 172.402344 116.339844 149.902344 116.339844 L 149.640625 116.339844 C 144.507812 116.207031 139.507812 118.183594 135.957031 122 C 124.507812 134.105469 125.824219 164.632812 127.269531 199.898438 C 129.113281 243.71875 131.351562 293.457031 110.429688 326.488281 C 87.269531 362.9375 65.820312 424.125 52.664062 490.183594 C 40.820312 550.054688 38.847656 599.53125 47.664062 613.480469 C 49.375 616.242188 51.480469 617.429688 53.980469 617.164062 C 85.820312 613.21875 112.269531 610.980469 141.875 610.980469 Z M 141.875 610.980469 "/><path style=" stroke:none;fill-rule:nonzero;fill:currentColor;fill-opacity:1;" d="M 429.386719 634.929688 C 417.148438 634.929688 398.859375 633.085938 371.621094 629.535156 C 189.113281 605.585938 145.824219 603.085938 63.058594 612.296875 C 60.164062 612.558594 57.664062 611.242188 55.6875 608.085938 C 47.136719 594.53125 48.847656 547.160156 59.769531 490.3125 C 71.742188 427.808594 92.007812 369.648438 113.71875 334.910156 C 132.929688 303.984375 130.824219 257.269531 129.113281 215.953125 C 127.664062 182.003906 126.351562 152.789062 137.664062 140.683594 C 141.21875 136.867188 146.351562 134.761719 151.480469 134.761719 C 173.589844 134.238281 195.035156 164.894531 215.695312 194.503906 C 236.351562 224.109375 257.933594 255.035156 280.039062 254.640625 C 305.039062 254.375 325.171875 219.242188 344.644531 185.425781 C 363.460938 152.789062 382.804688 119.105469 406.492188 117.128906 C 429.78125 115.15625 473.730469 149.765625 485.046875 170.160156 C 487.28125 174.238281 488.863281 178.714844 489.78125 183.320312 C 493.730469 201.476562 491.363281 226.480469 488.992188 250.691406 C 486.230469 280.167969 483.203125 310.828125 491.886719 328.722656 C 494.386719 333.988281 502.414062 339.382812 510.046875 344.515625 C 519.785156 351.09375 529.914062 357.804688 530.707031 365.304688 C 532.679688 383.199219 506.097656 415.835938 480.441406 447.285156 C 457.148438 475.839844 435.175781 502.816406 434.125 518.210938 C 431.492188 555.316406 441.097656 582.820312 447.542969 601.109375 C 452.414062 614.925781 455.570312 624.007812 451.097656 629.535156 C 447.675781 633.085938 441.625 634.929688 429.386719 634.929688 Z M 141.746094 606.109375 C 192.140625 606.109375 252.011719 612.558594 371.621094 628.347656 C 425.175781 635.457031 444.253906 635.457031 449.648438 628.746094 C 453.597656 623.875 450.441406 615.058594 445.835938 601.636719 C 439.386719 583.214844 429.78125 555.714844 432.414062 518.210938 C 433.597656 502.289062 455.703125 475.179688 478.992188 446.496094 C 504.519531 415.175781 530.835938 382.804688 528.996094 365.4375 C 528.207031 358.59375 518.46875 352.015625 508.863281 345.566406 C 500.703125 340.039062 492.941406 334.777344 490.175781 329.25 C 481.492188 310.960938 484.386719 280.167969 487.152344 250.429688 C 489.386719 226.347656 491.886719 201.476562 487.941406 183.449219 C 487.019531 178.976562 485.441406 174.632812 483.335938 170.6875 C 472.28125 150.554688 428.992188 116.472656 406.097656 118.3125 C 383.199219 120.15625 363.859375 153.710938 345.304688 185.949219 C 325.566406 220.03125 305.304688 255.5625 279.644531 255.824219 C 256.878906 256.085938 235.167969 225.03125 214.246094 195.03125 C 193.71875 165.6875 172.535156 135.289062 151.085938 135.945312 C 146.21875 135.816406 141.480469 137.789062 138.058594 141.34375 C 127.140625 153.054688 128.453125 182.003906 129.902344 215.691406 C 131.746094 257.140625 133.851562 304.117188 114.375 335.433594 C 92.925781 370.171875 72.796875 428.203125 60.820312 490.578125 C 49.898438 547.160156 48.1875 594.136719 56.609375 607.425781 C 58.320312 610.058594 60.292969 611.242188 62.664062 610.980469 C 91.21875 607.820312 115.164062 606.109375 141.746094 606.109375 Z M 141.746094 606.109375 "/><path style=" stroke:none;fill-rule:nonzero;fill:currentColor;fill-opacity:1;" d="M 419.121094 629.402344 C 407.542969 629.402344 390.042969 627.691406 363.988281 624.140625 C 190.300781 601.109375 149.246094 598.609375 71.480469 606.242188 C 68.714844 606.507812 66.214844 605.191406 64.375 602.164062 C 47.664062 575.449219 71.875 418.335938 117.535156 343.988281 C 135.296875 314.773438 133.324219 270.691406 131.613281 231.875 C 130.164062 199.636719 128.980469 171.871094 139.640625 160.289062 C 143.0625 156.605469 147.796875 154.632812 152.796875 154.632812 L 153.585938 154.632812 C 174.246094 154.632812 194.640625 182.925781 214.378906 210.164062 C 234.378906 237.796875 255.039062 266.484375 275.960938 266.484375 L 276.089844 266.484375 C 299.777344 266.351562 318.722656 233.847656 337.015625 202.398438 C 355.4375 170.949219 372.9375 141.078125 395.304688 139.632812 C 417.28125 138.316406 458.597656 171.210938 469.257812 190.425781 C 471.359375 194.371094 472.808594 198.582031 473.730469 202.925781 C 477.546875 219.898438 475.441406 243.324219 473.597656 265.957031 C 471.230469 293.984375 468.730469 323.066406 477.019531 340.171875 C 479.519531 345.171875 487.019531 350.171875 494.257812 355.171875 C 503.46875 361.359375 513.074219 367.804688 513.996094 374.910156 C 516.230469 392.148438 491.363281 423.203125 467.28125 453.335938 C 445.964844 480.050781 425.832031 505.316406 424.648438 519.789062 C 422.015625 554.527344 430.703125 580.320312 436.359375 597.425781 C 440.703125 610.585938 443.730469 619.269531 439.386719 624.402344 C 436.625 627.691406 430.703125 629.402344 419.121094 629.402344 Z M 141.21875 601.109375 C 189.773438 601.109375 246.617188 607.296875 364.121094 622.953125 C 415.042969 629.664062 433.070312 629.796875 438.332031 623.480469 C 442.148438 618.875 439.253906 610.453125 435.042969 597.820312 C 429.253906 580.582031 420.570312 554.660156 423.203125 519.65625 C 424.386719 504.65625 444.648438 479.261719 466.097656 452.417969 C 489.914062 422.546875 514.652344 391.621094 512.546875 374.910156 C 511.757812 368.464844 502.414062 362.148438 493.46875 356.09375 C 485.703125 350.832031 478.335938 345.960938 475.703125 340.566406 C 467.152344 323.066406 469.652344 293.851562 472.152344 265.691406 C 474.125 243.191406 476.097656 219.769531 472.414062 203.058594 C 471.492188 198.847656 470.046875 194.765625 468.070312 190.949219 C 457.675781 172.003906 417.015625 139.5 395.4375 140.816406 C 373.859375 142.132812 355.699219 173.054688 338.199219 202.925781 C 319.644531 234.636719 300.433594 267.402344 276.089844 267.667969 L 275.960938 267.667969 C 254.378906 267.667969 233.457031 238.71875 213.328125 210.820312 C 193.457031 183.449219 173.0625 155.027344 152.796875 155.816406 C 148.191406 155.816406 143.71875 157.660156 140.5625 161.082031 C 130.296875 172.265625 131.480469 199.898438 132.929688 231.742188 C 134.640625 270.824219 136.613281 315.039062 118.585938 344.644531 C 73.058594 418.730469 48.980469 575.054688 65.558594 601.503906 C 67.136719 604.136719 69.109375 605.320312 71.347656 605.058594 C 94.636719 602.558594 117.929688 601.242188 141.21875 601.109375 Z M 141.21875 601.109375 "/><path style=" stroke:none;fill-rule:nonzero;fill:currentColor;fill-opacity:1;" d="M 408.992188 623.875 C 397.9375 623.875 381.359375 622.164062 356.488281 618.875 C 193.324219 596.898438 152.007812 594.136719 80.164062 600.320312 C 77.402344 600.585938 75.164062 599.136719 73.320312 596.242188 C 65.558594 583.871094 66.609375 541.765625 75.691406 491.234375 C 85.691406 435.96875 102.796875 384.386719 121.613281 353.066406 C 138.058594 325.433594 136.21875 284.246094 134.507812 247.664062 C 132.664062 208.847656 131.21875 175.421875 154.246094 174.238281 L 155.429688 174.238281 C 174.902344 174.238281 193.71875 199.242188 213.589844 225.691406 C 232.800781 251.351562 252.800781 277.800781 272.539062 278.0625 L 272.933594 278.0625 C 295.039062 278.0625 312.804688 248.191406 330.039062 219.242188 C 347.277344 190.292969 363.726562 162.792969 384.515625 161.871094 L 385.304688 161.871094 C 406.097656 161.871094 443.992188 192.660156 453.730469 210.425781 C 455.703125 214.109375 457.148438 218.191406 458.070312 222.269531 C 461.625 238.191406 460.046875 260.035156 458.335938 281.089844 C 456.359375 307.667969 454.253906 335.171875 462.414062 351.488281 C 464.78125 356.226562 471.886719 360.960938 478.730469 365.566406 C 487.414062 371.359375 496.363281 377.410156 497.414062 384.121094 C 499.785156 400.703125 476.625 430.308594 454.253906 458.996094 C 434.78125 483.867188 416.492188 507.289062 415.308594 520.972656 C 412.675781 553.210938 420.308594 577.292969 425.4375 593.347656 C 429.386719 605.847656 432.019531 614.007812 427.9375 618.875 C 425.4375 622.296875 419.914062 623.875 408.992188 623.875 Z M 139.640625 596.109375 C 187.007812 596.109375 241.484375 602.03125 356.753906 617.558594 C 404.910156 624.140625 422.015625 624.269531 427.148438 618.21875 C 430.832031 613.875 428.203125 605.980469 424.386719 593.875 C 419.253906 577.820312 411.492188 553.609375 414.121094 521.105469 C 415.308594 507.023438 433.726562 483.339844 453.335938 458.335938 C 475.570312 429.914062 498.597656 400.4375 496.230469 384.515625 C 495.308594 378.464844 486.625 372.542969 478.070312 366.882812 C 470.703125 361.882812 463.730469 357.277344 461.230469 352.277344 C 452.941406 335.566406 454.914062 307.933594 457.019531 281.21875 C 458.597656 260.167969 460.308594 238.453125 456.753906 222.796875 C 455.964844 218.847656 454.519531 214.898438 452.542969 211.347656 C 441.753906 191.742188 403.464844 162.792969 384.515625 163.449219 C 364.382812 164.238281 347.410156 192.660156 331.09375 220.164062 C 313.722656 249.246094 295.828125 279.507812 272.933594 279.507812 L 272.539062 279.507812 C 252.144531 279.246094 232.011719 252.535156 212.535156 226.609375 C 193.71875 201.609375 174.246094 175.6875 155.296875 175.6875 L 154.246094 175.6875 C 132.535156 176.738281 133.980469 209.636719 135.691406 247.796875 C 137.402344 284.511719 139.246094 325.960938 122.535156 353.855469 C 80.820312 423.730469 58.980469 570.84375 74.503906 595.585938 C 76.085938 598.085938 77.925781 599.269531 80.03125 599.003906 C 101.347656 597.164062 119.902344 596.109375 139.640625 596.109375 Z M 139.640625 596.109375 "/><path style=" stroke:none;fill-rule:nonzero;fill:currentColor;fill-opacity:1;" d="M 398.859375 618.480469 C 388.464844 618.480469 372.671875 616.902344 349.121094 613.613281 C 192.667969 592.164062 156.21875 589.53125 88.980469 594.269531 C 86.347656 594.398438 84.113281 593.085938 82.402344 590.320312 C 67.53125 566.371094 86.347656 429.785156 125.824219 362.277344 C 140.957031 336.488281 139.113281 297.800781 137.535156 263.71875 C 135.824219 227.136719 134.375 195.554688 155.957031 194.109375 C 174.773438 192.925781 193.195312 216.480469 212.800781 241.480469 C 231.351562 265.035156 250.433594 289.378906 269.117188 289.90625 L 269.644531 289.90625 C 290.300781 289.90625 306.882812 262.667969 322.933594 236.347656 C 338.988281 210.03125 354.382812 184.765625 373.859375 184.503906 L 374.121094 184.503906 C 393.859375 184.503906 428.992188 213.714844 438.464844 230.820312 C 440.308594 234.375 441.753906 238.058594 442.542969 242.007812 C 445.964844 256.746094 444.648438 277.007812 443.335938 296.484375 C 441.753906 321.617188 440.042969 347.539062 448.070312 363.066406 C 450.308594 367.542969 457.019531 372.015625 463.464844 376.359375 C 471.625 381.886719 480.046875 387.542969 481.097656 393.859375 C 483.730469 409.78125 462.28125 437.941406 441.492188 465.179688 C 423.992188 488.207031 407.410156 509.921875 406.226562 522.683594 C 403.597656 552.554688 410.308594 574.925781 414.78125 589.664062 C 418.332031 601.503906 420.703125 609.269531 416.753906 613.875 C 414.253906 616.902344 408.992188 618.480469 398.859375 618.480469 Z M 138.191406 590.980469 C 183.851562 590.980469 235.039062 596.636719 349.25 612.296875 C 394.78125 618.480469 410.964844 618.742188 415.832031 612.953125 C 419.253906 608.875 417.015625 601.375 413.597656 590.058594 C 409.121094 575.1875 402.28125 552.554688 405.042969 522.554688 C 406.226562 509.394531 422.9375 487.550781 440.4375 464.390625 C 461.097656 437.414062 482.28125 409.386719 479.78125 394.121094 C 478.863281 388.464844 470.570312 382.9375 462.675781 377.542969 C 455.835938 372.9375 449.253906 368.464844 446.753906 363.726562 C 438.597656 347.933594 440.308594 321.75 441.886719 296.484375 C 443.203125 277.007812 444.386719 256.875 441.097656 242.269531 C 440.308594 238.453125 438.992188 234.902344 437.148438 231.480469 C 427.28125 213.320312 391.753906 185.820312 373.988281 185.820312 L 373.726562 185.820312 C 354.910156 186.082031 339.25 212.003906 323.988281 237.007812 C 307.804688 263.585938 290.960938 291.222656 269.644531 291.222656 L 268.984375 291.222656 C 249.644531 290.828125 230.433594 266.085938 211.746094 242.269531 C 193.0625 218.453125 174.113281 194.242188 155.957031 195.425781 C 135.558594 196.742188 137.007812 227.796875 138.71875 263.585938 C 140.296875 297.800781 142.140625 336.617188 126.875 362.804688 C 109.769531 392.148438 94.113281 440.441406 85.164062 491.894531 C 77.003906 538.871094 76.347656 578.082031 83.453125 589.53125 C 84.902344 591.898438 86.742188 593.085938 88.847656 592.953125 C 106.21875 591.769531 121.875 590.980469 138.191406 590.980469 Z M 138.191406 590.980469 "/><path style=" stroke:none;fill-rule:nonzero;fill:currentColor;fill-opacity:1;" d="M 388.726562 612.953125 C 378.859375 612.953125 363.988281 611.375 341.621094 608.214844 C 202.140625 588.875 162.796875 584.664062 97.664062 588.214844 C 95.164062 588.347656 93.058594 587.03125 91.347656 584.265625 C 84.375 572.949219 84.636719 536.765625 92.007812 492.023438 C 99.902344 444.125 114.113281 398.859375 129.902344 371.226562 C 143.585938 347.015625 141.875 311.222656 140.429688 279.507812 C 138.71875 245.164062 137.269531 215.425781 157.535156 213.714844 L 157.535156 214.375 L 157.535156 213.714844 C 175.167969 212.269531 193.0625 233.980469 212.011719 257.007812 C 229.773438 278.589844 248.0625 300.828125 265.566406 301.484375 L 266.355469 301.484375 C 285.566406 301.484375 300.960938 276.878906 315.828125 253.191406 C 330.699219 229.507812 344.910156 206.875 362.804688 206.875 L 363.066406 206.875 C 380.175781 207.136719 413.464844 233.320312 423.070312 250.953125 C 424.78125 254.246094 426.097656 257.796875 426.886719 261.351562 C 430.042969 275.035156 429.125 293.589844 428.203125 311.617188 C 427.019531 335.304688 425.703125 359.777344 433.597656 374.382812 C 435.832031 378.464844 442.019531 382.804688 448.070312 386.886719 C 455.703125 392.015625 463.597656 397.414062 464.78125 403.203125 C 467.675781 418.464844 447.941406 445.179688 428.859375 470.96875 C 413.203125 492.15625 398.464844 512.027344 397.28125 524 C 394.648438 551.371094 400.175781 571.242188 404.253906 585.714844 C 407.410156 596.898438 409.386719 604.136719 405.570312 608.480469 C 403.070312 611.507812 398.199219 612.953125 388.726562 612.953125 Z M 136.351562 585.847656 C 183.71875 585.847656 231.484375 591.636719 341.882812 607.03125 C 384.648438 612.953125 399.910156 613.21875 404.515625 607.820312 C 407.804688 604.003906 405.832031 596.898438 402.804688 586.242188 C 398.992188 572.425781 393.070312 551.632812 395.699219 524 C 396.886719 511.761719 411.753906 491.628906 427.542969 470.3125 C 446.492188 444.652344 466.097656 418.203125 463.335938 403.464844 C 462.28125 398.203125 454.648438 392.9375 447.148438 387.9375 C 440.703125 383.597656 434.519531 379.386719 432.148438 375.042969 C 424.121094 360.042969 425.4375 335.433594 426.621094 311.617188 C 427.542969 293.722656 428.464844 275.167969 425.308594 261.746094 C 424.519531 258.191406 423.332031 254.769531 421.621094 251.613281 C 412.410156 234.636719 379.253906 208.453125 362.804688 208.1875 L 362.542969 208.1875 C 345.304688 208.1875 331.355469 230.425781 316.75 253.980469 C 301.488281 278.324219 285.695312 303.589844 265.300781 302.933594 C 247.144531 302.273438 228.722656 279.773438 210.828125 258.0625 C 192.929688 236.347656 174.507812 213.847656 157.402344 215.292969 C 138.457031 216.875 139.902344 245.953125 141.480469 279.640625 C 143.0625 311.484375 144.769531 347.539062 130.824219 372.015625 C 95.296875 434.785156 78.714844 561.503906 92.402344 583.609375 C 93.847656 585.976562 95.558594 587.03125 97.53125 586.898438 C 111.21875 586.242188 123.71875 585.847656 136.351562 585.847656 Z M 136.351562 585.847656 "/><path style=" stroke:none;fill-rule:nonzero;fill:currentColor;fill-opacity:1;" d="M 378.726562 607.425781 C 369.515625 607.425781 355.566406 605.980469 334.121094 602.820312 C 202.273438 584.269531 165.429688 580.058594 106.21875 582.164062 C 103.847656 582.292969 101.742188 580.976562 100.164062 578.214844 C 93.585938 567.554688 93.453125 533.871094 100.03125 492.417969 C 107.007812 448.207031 119.640625 406.230469 133.851562 380.304688 C 146.21875 357.804688 144.507812 324.644531 143.0625 295.433594 C 141.480469 263.191406 140.035156 235.425781 158.851562 233.453125 L 158.851562 234.113281 L 158.851562 233.453125 C 175.429688 231.742188 192.667969 251.613281 210.957031 272.667969 C 227.933594 292.140625 245.433594 312.40625 261.75 313.066406 L 262.800781 313.066406 C 280.566406 313.066406 294.777344 291.222656 308.460938 270.035156 C 322.277344 248.585938 335.4375 228.320312 352.148438 229.113281 C 367.9375 229.902344 398.59375 254.769531 407.410156 270.957031 C 408.992188 273.984375 410.304688 277.273438 410.964844 280.695312 C 413.992188 293.328125 413.332031 309.511719 412.808594 326.617188 C 412.015625 348.855469 411.226562 371.753906 418.859375 385.570312 C 420.964844 389.386719 426.886719 393.332031 432.542969 397.148438 C 439.648438 402.019531 447.019531 406.886719 448.203125 412.414062 C 451.492188 427.019531 433.332031 452.285156 415.832031 476.761719 C 402.015625 495.972656 388.988281 514.261719 387.9375 525.183594 C 385.304688 550.1875 390.042969 568.214844 393.464844 581.503906 C 396.09375 592.03125 397.9375 598.875 394.253906 602.953125 C 391.886719 606.109375 387.410156 607.425781 378.726562 607.425781 Z M 132.402344 580.453125 C 179.113281 580.453125 222.667969 585.847656 334.382812 601.636719 C 375.042969 607.425781 388.726562 607.691406 393.332031 602.558594 C 396.492188 599.003906 394.78125 592.425781 392.28125 582.292969 C 388.859375 568.871094 384.121094 550.582031 386.753906 525.449219 C 387.9375 514 401.097656 495.707031 414.910156 476.367188 C 432.28125 452.152344 450.175781 427.152344 447.019531 413.070312 C 445.964844 408.070312 438.730469 403.335938 431.886719 398.597656 C 425.832031 394.519531 420.042969 390.703125 417.808594 386.492188 C 410.042969 372.277344 410.832031 349.25 411.621094 326.882812 C 412.28125 309.773438 412.804688 293.589844 409.910156 281.21875 C 409.121094 277.929688 407.9375 274.773438 406.359375 271.746094 C 397.675781 255.824219 367.671875 231.347656 352.148438 230.558594 C 336.226562 229.769531 323.328125 249.769531 309.644531 270.824219 C 295.566406 292.667969 280.960938 315.300781 261.878906 314.511719 C 244.90625 313.722656 227.273438 293.328125 210.167969 273.589844 C 193.0625 253.851562 175.167969 233.191406 159.113281 234.902344 C 141.480469 236.742188 142.929688 263.980469 144.507812 295.433594 C 145.957031 324.777344 147.667969 358.199219 135.164062 380.964844 C 120.953125 406.753906 108.324219 448.601562 101.480469 492.683594 C 95.03125 533.738281 95.03125 567.160156 101.480469 577.554688 C 102.925781 579.792969 104.507812 580.847656 106.347656 580.847656 C 115.429688 580.582031 123.980469 580.453125 132.402344 580.453125 Z M 132.402344 580.453125 "/><path style=" stroke:none;fill-rule:nonzero;fill:currentColor;fill-opacity:1;" d="M 368.59375 601.898438 C 360.042969 601.898438 346.882812 600.453125 326.75 597.558594 C 207.40625 580.320312 170.5625 575.453125 115.035156 576.242188 C 112.796875 576.242188 110.824219 574.925781 109.242188 572.425781 C 96.085938 550.976562 110.558594 441.757812 138.191406 389.515625 C 149.113281 368.726562 147.535156 338.328125 146.21875 311.484375 C 144.640625 281.484375 143.324219 255.5625 160.691406 253.324219 C 176.21875 251.351562 192.929688 269.378906 210.5625 288.589844 C 226.617188 306.089844 243.328125 323.988281 258.460938 325.039062 C 275.300781 326.09375 288.722656 306.355469 301.488281 287.273438 C 314.25 268.191406 326.226562 250.558594 341.488281 251.875 C 356.09375 253.191406 384.121094 276.613281 392.148438 291.484375 C 393.59375 294.378906 394.78125 297.40625 395.570312 300.5625 C 398.332031 312.011719 398.070312 326.75 397.804688 342.277344 C 397.410156 362.9375 397.015625 384.386719 404.515625 397.414062 C 406.621094 400.964844 412.015625 404.648438 417.28125 408.203125 C 423.859375 412.675781 430.703125 417.28125 432.019531 422.28125 C 435.570312 436.230469 419.253906 460.179688 403.332031 483.207031 C 391.359375 500.578125 380.175781 517.027344 378.988281 527.160156 C 376.488281 549.660156 380.175781 566.109375 382.9375 578.214844 C 385.175781 588.082031 386.621094 594.53125 383.199219 598.347656 C 380.699219 600.714844 376.621094 601.898438 368.59375 601.898438 Z M 125.953125 574.792969 C 175.824219 574.792969 215.429688 580.1875 326.882812 596.242188 C 360.4375 601.109375 377.148438 602.558594 382.015625 597.292969 C 385.042969 594.003906 383.59375 587.820312 381.488281 578.347656 C 378.726562 566.238281 374.910156 549.527344 377.542969 526.894531 C 378.726562 516.367188 390.042969 499.917969 402.148438 482.417969 C 417.808594 459.652344 433.992188 436.097656 430.570312 422.546875 C 429.386719 418.070312 422.808594 413.597656 416.492188 409.253906 C 410.832031 405.4375 405.570312 401.886719 403.332031 398.070312 C 395.699219 384.648438 396.09375 363.066406 396.492188 342.144531 C 396.753906 326.617188 397.015625 312.011719 394.253906 300.695312 C 393.59375 297.667969 392.410156 294.640625 390.964844 291.878906 C 383.070312 277.273438 355.566406 254.246094 341.355469 252.929688 C 326.882812 251.613281 315.039062 269.246094 302.539062 287.800781 C 289.511719 307.144531 275.960938 327.144531 258.460938 326.09375 C 242.667969 325.171875 225.828125 306.878906 209.640625 289.378906 C 192.929688 271.351562 175.824219 252.664062 160.957031 254.507812 C 144.769531 256.613281 146.085938 281.878906 147.535156 311.222656 C 148.851562 338.199219 150.429688 368.726562 139.375 389.910156 C 112.007812 441.757812 97.402344 550.1875 110.429688 571.503906 C 111.742188 573.609375 113.324219 574.792969 115.035156 574.792969 C 118.71875 574.925781 122.402344 574.792969 125.953125 574.792969 Z M 125.953125 574.792969 "/><path style=" stroke:none;fill-rule:nonzero;fill:currentColor;fill-opacity:1;" d="M 358.460938 596.503906 C 350.4375 596.503906 338.199219 595.058594 319.25 592.292969 C 207.40625 575.714844 173.71875 570.714844 123.71875 570.320312 C 121.480469 570.320312 119.640625 569.003906 118.058594 566.503906 C 105.824219 546.371094 117.535156 447.8125 142.140625 398.726562 C 151.746094 379.648438 150.296875 352.015625 148.980469 327.539062 C 147.535156 299.773438 146.21875 275.695312 162.140625 273.195312 C 176.613281 270.957031 192.667969 287.140625 209.773438 304.378906 C 225.039062 319.777344 240.828125 335.699219 254.773438 336.75 C 270.300781 337.933594 282.40625 320.828125 294.117188 304.25 C 305.828125 287.667969 316.75 272.273438 330.566406 274.246094 C 344.121094 276.089844 369.121094 297.800781 376.488281 311.617188 C 377.9375 314.25 378.988281 317.144531 379.648438 320.039062 C 382.277344 330.300781 382.277344 343.59375 382.410156 357.410156 C 382.410156 376.621094 382.542969 396.621094 389.78125 408.859375 C 391.753906 412.148438 396.753906 415.570312 401.621094 418.863281 C 407.675781 422.941406 413.992188 427.152344 415.308594 431.757812 C 419.253906 445.179688 404.515625 467.550781 390.304688 489.261719 C 380.175781 504.65625 370.570312 519.261719 369.515625 528.472656 C 367.015625 548.476562 369.910156 563.214844 372.015625 574.136719 C 373.859375 583.347656 375.042969 589.398438 371.621094 592.953125 C 369.648438 595.320312 365.832031 596.503906 358.460938 596.503906 Z M 162.273438 273.851562 L 162.402344 274.507812 C 147.667969 276.878906 148.851562 300.300781 150.296875 327.539062 C 151.613281 352.144531 153.0625 379.910156 143.324219 399.386719 C 118.847656 447.941406 107.136719 545.84375 119.242188 565.714844 C 120.558594 567.820312 122.007812 568.871094 123.71875 568.871094 C 173.851562 569.398438 207.535156 574.398438 319.382812 590.847656 C 350.566406 595.453125 366.226562 596.898438 370.832031 592.03125 C 373.726562 589.003906 372.671875 583.214844 370.832031 574.398438 C 368.726562 563.476562 365.832031 548.476562 368.332031 528.472656 C 369.515625 519 379.121094 504.261719 389.386719 488.601562 C 402.804688 468.207031 417.9375 445.046875 414.121094 432.152344 C 412.9375 427.941406 406.886719 423.863281 400.964844 419.914062 C 395.832031 416.359375 390.832031 413.070312 388.726562 409.519531 C 381.226562 397.019531 381.226562 376.886719 381.09375 357.410156 C 381.09375 343.59375 380.964844 330.433594 378.464844 320.300781 C 377.804688 317.40625 376.753906 314.773438 375.4375 312.144531 C 368.332031 298.851562 343.460938 277.273438 330.433594 275.429688 C 317.277344 273.589844 306.617188 288.851562 295.171875 304.90625 C 283.195312 321.75 270.960938 339.117188 254.644531 337.933594 C 240.167969 336.882812 224.246094 320.695312 208.722656 305.167969 C 192.667969 288.984375 175.957031 272.140625 162.273438 274.246094 Z M 162.273438 273.851562 "/><path style=" stroke:none;fill-rule:nonzero;fill:currentColor;fill-opacity:1;" d="M 348.332031 590.980469 C 340.832031 590.980469 329.515625 589.664062 311.75 586.898438 L 284.382812 582.6875 C 203.589844 570.320312 173.324219 565.714844 132.269531 564.132812 C 130.164062 564.003906 128.324219 562.820312 126.875 560.320312 C 115.558594 541.632812 124.507812 453.335938 146.21875 407.675781 C 154.375 390.308594 153.0625 365.4375 151.875 343.328125 C 150.429688 317.671875 149.246094 295.5625 163.71875 292.800781 C 177.140625 290.300781 192.800781 304.773438 209.378906 320.039062 C 223.722656 333.328125 238.457031 347.015625 251.355469 348.332031 C 265.566406 349.644531 276.484375 335.171875 287.011719 321.089844 C 297.539062 307.011719 307.410156 294.117188 319.910156 296.617188 C 332.144531 299.117188 354.515625 319.378906 361.226562 331.75 C 362.542969 334.25 363.460938 336.75 364.121094 339.515625 C 366.488281 348.726562 366.882812 360.304688 367.148438 372.675781 C 367.671875 390.4375 368.199219 408.859375 375.304688 420.308594 C 377.148438 423.335938 381.753906 426.492188 386.226562 429.519531 C 391.753906 433.335938 397.542969 437.152344 398.859375 441.363281 C 403.199219 454.257812 390.175781 475.179688 377.675781 495.445312 C 369.382812 509 361.488281 521.761719 360.304688 530.054688 C 357.9375 547.554688 359.910156 560.582031 361.488281 570.1875 C 362.804688 578.742188 363.726562 584.53125 360.4375 587.820312 C 358.460938 589.925781 355.042969 590.980469 348.332031 590.980469 Z M 163.851562 293.589844 L 163.984375 294.246094 C 150.5625 296.746094 151.746094 318.460938 153.191406 343.460938 C 154.375 365.566406 155.824219 390.703125 147.402344 408.335938 C 125.953125 453.730469 117.007812 541.371094 128.191406 559.660156 C 129.507812 561.765625 130.953125 562.820312 132.535156 562.820312 C 173.589844 564.398438 203.851562 569.003906 284.777344 581.371094 L 312.144531 585.582031 C 340.832031 589.925781 355.304688 591.375 359.777344 586.898438 C 362.542969 584.136719 361.753906 578.609375 360.4375 570.449219 C 358.988281 560.84375 356.882812 547.554688 359.253906 529.921875 C 360.4375 521.367188 368.332031 508.472656 376.753906 494.789062 C 388.59375 475.707031 401.886719 454.128906 397.804688 441.757812 C 396.492188 437.941406 390.964844 434.257812 385.699219 430.574219 C 380.964844 427.28125 376.488281 424.257812 374.382812 421.097656 C 367.015625 409.386719 366.488281 390.703125 365.964844 372.804688 C 365.699219 360.566406 365.304688 348.988281 362.9375 339.910156 C 362.277344 337.277344 361.359375 334.777344 360.042969 332.539062 C 353.59375 320.300781 331.621094 300.433594 319.644531 298.0625 C 307.671875 295.695312 298.199219 308.589844 288.066406 322.144531 C 277.277344 336.488281 266.089844 351.226562 251.355469 349.777344 C 238.0625 348.460938 223.0625 334.644531 208.589844 321.222656 C 193.0625 306.75 176.878906 291.878906 164.113281 294.246094 Z M 163.851562 293.589844 "/><path style=" stroke:none;fill-rule:nonzero;fill:currentColor;fill-opacity:1;" d="M 338.066406 585.453125 C 330.699219 585.453125 319.777344 584.003906 304.382812 581.636719 C 283.589844 578.347656 266.089844 575.582031 250.5625 573.082031 C 198.589844 564.792969 172.535156 560.582031 141.085938 558.214844 C 139.113281 558.082031 137.269531 556.765625 135.824219 554.398438 C 124.640625 535.976562 133.058594 456.234375 150.296875 416.886719 C 157.140625 401.230469 155.824219 378.992188 154.773438 359.515625 C 153.457031 336.09375 152.140625 315.828125 165.296875 312.667969 C 177.667969 309.773438 192.929688 322.539062 209.117188 336.09375 C 222.40625 347.277344 236.222656 358.855469 247.800781 360.171875 C 260.566406 361.753906 270.300781 349.777344 279.777344 338.328125 C 289.25 326.882812 298.199219 316.089844 309.382812 319.25 C 319.644531 322.144531 339.644531 339.910156 345.960938 352.277344 C 347.148438 354.515625 348.066406 356.882812 348.726562 359.253906 C 350.960938 367.277344 351.488281 377.410156 352.148438 388.070312 C 353.066406 404.386719 354.121094 421.363281 361.09375 432.019531 C 362.9375 434.785156 367.015625 437.546875 371.09375 440.308594 C 376.09375 443.730469 381.226562 447.152344 382.675781 450.96875 C 387.410156 463.339844 375.699219 483.867188 365.4375 501.894531 C 358.859375 513.472656 352.542969 524.394531 351.488281 531.632812 C 349.777344 543.082031 349.777344 554.792969 351.355469 566.238281 C 352.277344 574.265625 352.804688 579.660156 349.648438 582.6875 C 347.410156 584.664062 343.726562 585.453125 338.066406 585.453125 Z M 165.429688 313.328125 L 165.5625 313.984375 C 153.585938 316.75 154.773438 336.488281 156.085938 359.382812 C 157.273438 379.121094 158.585938 401.359375 151.613281 417.414062 C 133.191406 459.652344 127.007812 536.894531 137.007812 553.738281 C 138.191406 555.714844 139.640625 556.765625 141.21875 556.898438 C 172.796875 559.265625 198.851562 563.476562 250.828125 571.765625 C 266.355469 574.265625 283.855469 577.03125 304.644531 580.320312 C 331.09375 584.53125 344.382812 585.847656 348.59375 581.765625 C 351.355469 579.136719 350.832031 574.136719 349.910156 566.371094 C 348.332031 554.792969 348.332031 542.949219 350.042969 531.371094 C 351.226562 523.867188 357.542969 512.816406 364.121094 501.105469 C 374.253906 483.339844 385.832031 463.074219 381.226562 451.363281 C 379.910156 447.941406 374.910156 444.652344 370.042969 441.363281 C 365.699219 438.46875 361.621094 435.703125 359.648438 432.679688 C 352.410156 421.757812 351.355469 404.648438 350.4375 388.070312 C 349.777344 377.542969 349.25 367.542969 347.015625 359.515625 C 346.355469 357.148438 345.4375 354.910156 344.382812 352.804688 C 338.199219 341.09375 318.460938 323.195312 308.59375 320.433594 C 298.199219 317.539062 289.644531 328.066406 280.566406 339.117188 C 270.960938 350.832031 260.828125 363.066406 247.40625 361.488281 C 235.433594 360.042969 221.484375 348.332031 208.0625 337.144531 C 192.929688 324.382812 177.140625 311.222656 165.429688 313.984375 Z M 165.429688 313.328125 "/><path style=" stroke:none;fill-rule:nonzero;fill:currentColor;fill-opacity:1;" d="M 328.066406 580.058594 C 321.355469 580.058594 311.488281 578.609375 296.882812 576.242188 C 264.90625 570.976562 240.695312 566.765625 221.222656 563.34375 C 191.351562 558.082031 171.613281 554.660156 149.769531 552.160156 C 147.796875 551.898438 146.21875 550.582031 144.769531 548.34375 C 134.769531 531.632812 140.296875 461.890625 154.507812 426.097656 C 160.035156 412.152344 158.851562 392.675781 157.796875 375.570312 C 156.480469 354.25 155.296875 335.828125 166.878906 332.539062 C 178.457031 329.25 193.984375 340.828125 209.117188 352.144531 C 221.351562 361.226562 233.984375 370.570312 244.117188 372.015625 C 255.433594 373.726562 264.117188 364.382812 272.277344 355.4375 C 280.566406 346.488281 288.460938 338.066406 298.199219 341.75 C 307.410156 345.171875 324.515625 361.621094 330.039062 372.542969 C 331.09375 374.515625 331.882812 376.753906 332.539062 378.859375 C 334.515625 385.832031 335.304688 394.253906 336.226562 403.335938 C 337.671875 418.203125 339.121094 433.597656 346.09375 443.46875 C 347.804688 445.96875 351.621094 448.46875 355.171875 450.96875 C 359.648438 453.996094 364.382812 457.152344 365.832031 460.441406 C 371.09375 472.285156 361.226562 491.367188 352.542969 508.210938 C 347.542969 517.816406 342.9375 526.761719 341.882812 533.078125 C 340.304688 542.6875 339.910156 552.421875 340.566406 562.027344 C 340.960938 569.660156 341.226562 574.660156 338.066406 577.425781 C 336.355469 579.265625 333.066406 580.058594 328.066406 580.058594 Z M 167.273438 333.722656 C 156.613281 336.75 157.796875 354.644531 159.113281 375.4375 C 160.167969 392.675781 161.351562 412.152344 155.824219 426.492188 C 141.746094 462.152344 136.085938 531.238281 145.957031 547.6875 C 147.140625 549.660156 148.457031 550.710938 150.035156 550.976562 C 171.878906 553.476562 191.613281 556.898438 221.617188 562.160156 C 241.089844 565.582031 265.300781 569.792969 297.277344 575.054688 C 321.355469 579.003906 333.460938 580.320312 337.671875 576.636719 C 340.304688 574.265625 340.171875 569.398438 339.777344 562.160156 C 339.121094 552.421875 339.515625 542.554688 341.09375 532.949219 C 342.144531 526.5 346.882812 517.421875 351.882812 507.683594 C 360.4375 491.101562 370.171875 472.285156 365.171875 460.96875 C 363.859375 457.941406 359.382812 454.917969 355.042969 452.023438 C 351.09375 449.390625 347.410156 446.890625 345.566406 444.257812 C 338.460938 434.125 336.882812 418.597656 335.4375 403.464844 C 334.644531 394.519531 333.726562 386.097656 331.75 379.253906 C 331.09375 377.148438 330.304688 375.042969 329.382812 373.199219 C 323.988281 362.671875 307.011719 346.355469 298.199219 343.066406 C 289.382812 339.777344 281.617188 347.804688 273.589844 356.488281 C 265.039062 365.699219 256.222656 375.175781 244.25 373.464844 C 233.722656 372.015625 220.957031 362.542969 208.589844 353.332031 C 193.589844 342.015625 178.195312 330.566406 167.273438 333.722656 Z M 167.273438 333.722656 "/><path style=" stroke:none;fill-rule:nonzero;fill:currentColor;fill-opacity:1;" d="M 318.066406 574.660156 C 311.882812 574.660156 302.804688 573.347656 289.511719 570.976562 C 248.855469 564.003906 222.011719 558.609375 200.5625 554.132812 C 184.507812 550.84375 171.878906 548.34375 158.585938 546.105469 C 156.480469 545.582031 154.640625 544.132812 153.71875 542.160156 C 144.640625 527.027344 147.402344 467.945312 158.71875 435.046875 C 162.929688 422.808594 161.746094 406.097656 160.824219 391.492188 C 159.507812 372.277344 158.457031 355.699219 168.589844 352.144531 C 179.246094 348.460938 194.90625 358.332031 210.035156 367.9375 C 220.828125 374.78125 232.144531 382.015625 240.828125 383.464844 C 250.695312 385.175781 258.066406 378.59375 265.171875 372.277344 C 272.277344 365.964844 279.25 359.648438 287.800781 363.988281 C 295.960938 368.199219 310.171875 383.070312 315.039062 392.414062 C 315.960938 394.253906 316.75 396.097656 317.277344 398.070312 C 318.988281 404.648438 320.304688 411.359375 321.09375 418.070312 C 323.066406 431.492188 325.039062 445.441406 332.015625 454.652344 C 333.726562 456.757812 337.015625 459.128906 340.304688 461.234375 C 344.25 463.996094 348.332031 466.757812 349.910156 469.65625 C 355.960938 481.234375 347.9375 499 340.832031 514.65625 C 337.410156 522.15625 334.25 529.132812 333.332031 534.265625 C 331.882812 541.894531 331.226562 549.660156 331.226562 557.554688 C 331.09375 564.792969 330.960938 569.53125 327.804688 572.160156 C 325.433594 573.871094 322.539062 574.660156 318.066406 574.660156 Z M 168.851562 353.460938 C 159.640625 356.75 160.691406 372.804688 162.007812 391.492188 C 163.0625 406.230469 164.113281 423.070312 159.902344 435.574219 C 148.71875 468.207031 145.957031 526.632812 154.773438 541.632812 C 155.5625 543.210938 157.007812 544.527344 158.71875 544.921875 C 172.007812 547.160156 184.640625 549.660156 200.695312 552.949219 C 222.273438 557.292969 248.984375 562.6875 289.644531 569.792969 C 311.882812 573.609375 322.539062 574.792969 326.488281 571.503906 C 329.25 569.265625 329.25 564.792969 329.515625 557.820312 C 329.515625 549.921875 330.304688 542.160156 331.75 534.394531 C 332.804688 529.132812 335.960938 522.027344 339.382812 514.394531 C 346.355469 499 354.253906 481.496094 348.59375 470.445312 C 347.277344 467.8125 343.332031 465.179688 339.382812 462.546875 C 335.960938 460.179688 332.671875 457.941406 330.832031 455.574219 C 323.726562 446.230469 321.621094 432.019531 319.644531 418.464844 C 318.855469 411.753906 317.671875 405.175781 315.960938 398.726562 C 315.433594 396.886719 314.644531 395.042969 313.722656 393.332031 C 309.117188 384.253906 294.90625 369.382812 287.144531 365.4375 C 279.382812 361.488281 273.195312 367.015625 265.960938 373.464844 C 258.984375 379.78125 251.089844 386.886719 240.433594 385.042969 C 231.351562 383.464844 220.035156 376.226562 209.117188 369.253906 C 194.378906 359.777344 178.984375 350.039062 168.851562 353.460938 Z M 168.851562 353.460938 "/><path style=" stroke:none;fill-rule:nonzero;fill:currentColor;fill-opacity:1;" d="M 308.066406 569.136719 C 302.40625 569.136719 294.117188 567.820312 281.882812 565.582031 C 237.273438 557.421875 210.429688 550.710938 188.71875 545.316406 C 181.089844 543.476562 173.984375 541.632812 167.007812 540.054688 C 164.902344 539.394531 163.191406 537.949219 162.273438 535.976562 C 153.457031 521.238281 155.035156 471.761719 162.535156 444.125 C 165.429688 433.730469 164.378906 420.441406 163.457031 407.675781 C 162.140625 390.570312 161.085938 375.699219 169.773438 371.882812 L 170.035156 372.542969 L 169.773438 371.882812 C 179.773438 367.542969 195.824219 375.832031 211.351562 383.992188 C 220.828125 388.992188 229.773438 393.597656 236.878906 395.175781 C 245.300781 397.019531 251.355469 393.070312 257.273438 389.253906 C 263.589844 385.175781 269.511719 381.359375 276.75 386.492188 C 283.195312 391.097656 294.90625 404.125 299.25 412.808594 C 300.039062 414.386719 300.699219 416.097656 301.222656 417.808594 C 302.804688 422.808594 303.988281 427.941406 304.910156 433.074219 C 307.277344 444.652344 310.039062 457.679688 317.015625 466.234375 C 319.25 468.46875 321.75 470.445312 324.382812 472.023438 C 327.804688 474.390625 331.355469 476.761719 332.9375 479.261719 C 339.910156 490.707031 333.460938 508.210938 328.199219 522.15625 C 326.355469 526.632812 324.777344 531.238281 323.59375 535.976562 C 322.410156 541.632812 321.488281 547.292969 320.960938 552.949219 C 320.171875 560.054688 319.644531 564.660156 316.355469 567.160156 C 314.644531 568.609375 312.015625 569.136719 308.066406 569.136719 Z M 176.351562 372.148438 C 174.378906 372.148438 172.402344 372.542969 170.5625 373.199219 C 162.667969 376.621094 163.851562 391.753906 165.035156 407.675781 C 165.957031 420.570312 167.007812 433.992188 164.113281 444.519531 C 156.746094 471.363281 155.167969 521.105469 163.71875 535.316406 C 164.507812 536.894531 165.957031 538.210938 167.667969 538.738281 C 174.640625 540.316406 181.746094 542.160156 189.378906 544 C 210.957031 549.398438 237.800781 556.109375 282.40625 564.265625 C 302.277344 567.949219 311.882812 569.136719 315.960938 566.109375 C 318.855469 564.003906 319.25 559.792969 320.039062 552.816406 C 320.566406 547.027344 321.488281 541.371094 322.671875 535.710938 C 323.988281 530.972656 325.433594 526.238281 327.277344 521.761719 C 332.410156 508.078125 338.855469 490.839844 332.144531 480.050781 C 330.832031 477.8125 327.277344 475.445312 323.988281 473.207031 C 321.226562 471.496094 318.59375 469.523438 316.355469 467.152344 C 309.117188 458.46875 306.355469 445.179688 303.988281 433.46875 C 303.066406 428.335938 301.882812 423.335938 300.304688 418.335938 C 299.777344 416.625 299.117188 415.046875 298.328125 413.464844 C 294.117188 405.175781 282.539062 392.148438 276.222656 387.675781 C 269.644531 383.070312 264.378906 386.492188 258.328125 390.4375 C 252.539062 394.253906 245.828125 398.464844 236.878906 396.492188 C 229.640625 394.914062 220.5625 390.175781 210.957031 385.175781 C 198.589844 378.859375 185.824219 372.148438 176.351562 372.148438 Z M 176.351562 372.148438 "/><path style=" stroke:none;fill-rule:nonzero;fill:currentColor;fill-opacity:1;" d="M 298.328125 563.871094 C 293.199219 563.871094 285.695312 562.554688 274.511719 560.320312 C 243.722656 554.398438 213.457031 546.5 183.71875 536.632812 L 175.824219 534.132812 C 163.851562 530.316406 161.746094 481.234375 166.878906 453.46875 C 168.457031 444.914062 167.535156 434.519531 166.746094 424.386719 C 165.429688 409.125 164.378906 395.964844 171.613281 391.886719 C 181.351562 386.359375 199.773438 393.859375 215.957031 400.570312 C 221.746094 403.070312 227.667969 405.308594 233.722656 407.148438 C 240.300781 408.992188 245.300781 407.542969 249.773438 406.230469 C 255.433594 404.648438 260.300781 403.203125 266.355469 409.253906 C 271.222656 414.125 280.300781 425.441406 284.117188 433.203125 C 284.777344 434.652344 285.433594 435.96875 285.960938 437.546875 C 287.011719 440.574219 288.066406 444.125 289.117188 447.8125 C 292.144531 458.207031 295.566406 470.050781 302.933594 477.945312 C 304.910156 479.785156 307.144531 481.496094 309.382812 482.945312 C 312.277344 484.917969 315.433594 487.023438 316.882812 488.996094 C 325.699219 500.972656 320.433594 518.605469 316.621094 531.5 C 315.960938 533.738281 315.304688 535.84375 314.777344 537.683594 C 313.722656 541.5 313.066406 544.792969 312.410156 547.6875 C 309.777344 559.132812 308.199219 563.871094 298.328125 563.871094 Z M 180.035156 391.226562 C 177.273438 391.097656 174.640625 391.753906 172.140625 392.9375 C 165.5625 396.621094 166.746094 410.046875 167.929688 424.257812 C 168.851562 434.390625 169.640625 445.046875 168.0625 453.730469 C 163.0625 480.972656 165.035156 529.394531 176.21875 532.949219 C 178.851562 533.738281 181.351562 534.527344 184.113281 535.449219 C 213.851562 545.1875 244.117188 553.082031 274.777344 559.132812 C 307.011719 565.582031 307.410156 563.871094 310.960938 547.421875 C 311.617188 544.527344 312.277344 541.238281 313.328125 537.421875 C 313.855469 535.578125 314.515625 533.34375 315.171875 531.105469 C 318.988281 518.472656 324.121094 501.234375 315.699219 489.789062 C 314.25 487.945312 311.355469 485.839844 308.460938 483.996094 C 306.09375 482.550781 303.855469 480.839844 301.75 478.867188 C 294.117188 470.707031 290.695312 458.734375 287.671875 448.207031 C 286.617188 444.519531 285.566406 441.101562 284.511719 438.074219 C 283.988281 436.625 283.460938 435.308594 282.800781 433.992188 C 279.25 426.625 270.171875 415.308594 265.300781 410.308594 C 259.773438 404.78125 255.433594 405.964844 250.039062 407.675781 C 245.433594 408.992188 240.300781 410.570312 233.328125 408.597656 C 227.273438 406.753906 221.351562 404.519531 215.5625 402.019531 C 203.195312 396.753906 189.773438 391.226562 180.035156 391.226562 Z M 180.035156 391.226562 "/><path style=" stroke:none;fill-rule:nonzero;fill:currentColor;fill-opacity:1;" d="M 288.722656 558.476562 C 283.722656 558.476562 276.882812 557.292969 267.011719 555.054688 C 238.589844 548.871094 210.957031 539.921875 184.507812 528.210938 C 174.113281 523.738281 169.507812 486.496094 170.957031 462.8125 C 171.351562 456.496094 170.5625 448.996094 169.773438 441.757812 C 168.324219 428.597656 167.007812 416.230469 173.0625 411.753906 C 184.378906 403.203125 215.167969 413.859375 229.90625 418.863281 L 230.039062 418.863281 C 233.195312 419.914062 236.351562 420.703125 239.511719 421.363281 C 245.828125 422.675781 250.039062 423.46875 255.433594 431.886719 L 256.222656 433.074219 C 259.90625 438.863281 265.566406 447.414062 268.460938 453.46875 C 268.984375 454.523438 269.511719 455.707031 270.039062 457.023438 L 271.484375 460.574219 C 275.171875 469.785156 279.644531 481.234375 288.066406 489.261719 C 289.777344 490.839844 291.75 492.15625 293.59375 493.339844 C 295.960938 494.789062 298.066406 496.367188 300.039062 498.339844 C 311.75 511.234375 308.328125 529.394531 305.171875 539 L 304.910156 539.660156 C 301.09375 552.816406 299.382812 558.476562 288.722656 558.476562 Z M 173.457031 412.152344 L 173.851562 412.675781 C 168.457031 416.757812 169.773438 428.730469 171.089844 441.496094 C 171.878906 448.730469 172.667969 456.230469 172.273438 462.679688 C 170.957031 485.445312 175.296875 522.554688 185.035156 526.894531 C 211.484375 538.605469 239.117188 547.554688 267.40625 553.738281 C 297.277344 560.449219 297.933594 558.476562 304.117188 539.394531 L 304.382812 538.738281 C 307.410156 529.394531 310.828125 511.761719 299.511719 499.394531 C 297.671875 497.550781 295.566406 495.972656 293.328125 494.65625 C 291.355469 493.339844 289.382812 491.894531 287.539062 490.445312 C 278.855469 482.285156 274.25 470.574219 270.566406 461.363281 C 270.039062 460.046875 269.644531 458.863281 269.117188 457.8125 C 268.589844 456.628906 268.066406 455.441406 267.539062 454.257812 C 264.644531 448.335938 259.117188 439.785156 255.433594 433.992188 L 254.644531 432.808594 C 249.511719 424.914062 245.695312 424.125 239.511719 422.941406 C 236.222656 422.28125 233.0625 421.492188 229.90625 420.441406 L 229.773438 420.441406 C 215.167969 415.441406 184.902344 404.914062 174.113281 413.070312 Z M 173.457031 412.152344 "/><path style=" stroke:none;fill-rule:nonzero;fill:currentColor;fill-opacity:1;" d="M 279.90625 553.34375 C 274.777344 553.34375 268.328125 552.027344 259.511719 549.660156 C 236.222656 543.605469 213.851562 534.394531 193.0625 522.027344 C 183.589844 516.238281 177.007812 488.207031 175.035156 471.890625 C 174.640625 468.601562 174.113281 465.179688 173.589844 461.757812 C 171.613281 449.519531 169.640625 437.019531 174.507812 431.492188 C 183.457031 421.757812 214.511719 425.175781 226.617188 430.574219 C 236.878906 435.179688 240.039062 441.363281 244.773438 454.390625 C 246.878906 460.179688 250.300781 467.417969 252.667969 472.8125 L 253.0625 473.601562 C 253.460938 474.523438 253.984375 475.574219 254.378906 476.496094 C 258.984375 485.839844 265.433594 494.128906 273.589844 500.710938 C 274.90625 501.761719 276.617188 502.945312 278.328125 504 C 280.171875 505.183594 282.011719 506.5 283.855469 507.945312 C 295.433594 517.945312 300.433594 530.84375 296.355469 540.84375 C 292.539062 549.660156 288.195312 553.34375 279.90625 553.34375 Z M 175.5625 432.414062 C 170.957031 437.414062 172.929688 449.652344 174.902344 461.496094 C 175.429688 464.917969 176.089844 468.46875 176.484375 471.761719 C 178.984375 491.894531 185.824219 515.972656 193.984375 520.972656 C 214.640625 533.210938 236.878906 542.421875 260.171875 548.476562 C 283.988281 554.792969 289.90625 553.476562 295.300781 540.1875 C 299.117188 530.84375 294.382812 518.605469 283.195312 508.867188 C 281.488281 507.550781 279.777344 506.234375 277.933594 505.050781 C 276.222656 504 274.511719 502.816406 273.195312 501.761719 C 264.90625 495.050781 258.328125 486.628906 253.589844 477.15625 C 253.195312 476.234375 252.667969 475.3125 252.273438 474.261719 L 251.878906 473.46875 C 249.378906 468.074219 245.957031 460.707031 243.855469 454.917969 C 239.25 442.285156 236.222656 436.230469 226.351562 431.886719 C 214.117188 426.363281 183.851562 423.335938 175.5625 432.414062 Z M 175.5625 432.414062 "/><path style=" stroke:none;fill-rule:nonzero;fill:currentColor;fill-opacity:1;" d="M 273.066406 548.605469 C 252.011719 548.605469 214.773438 528.078125 201.746094 515.972656 C 189.640625 504.789062 167.535156 467.023438 176.089844 451.363281 L 176.613281 451.625 L 176.089844 451.363281 C 179.113281 445.96875 187.667969 442.941406 192.535156 441.625 C 202.800781 438.863281 216.617188 438.203125 223.195312 442.285156 C 230.300781 446.625 232.011719 460.046875 233.589844 472.945312 C 234.773438 482.285156 235.828125 490.972656 238.851562 495.839844 C 242.273438 501.367188 252.273438 507.683594 261.878906 513.605469 C 277.011719 523.078125 292.539062 532.816406 287.277344 542.027344 C 285.300781 545.449219 281.882812 547.421875 277.144531 548.210938 C 275.695312 548.476562 274.382812 548.605469 273.066406 548.605469 Z M 208.984375 440.835938 C 203.589844 440.835938 198.195312 441.625 192.929688 442.941406 C 185.035156 445.046875 179.246094 448.335938 177.273438 452.023438 C 169.378906 466.363281 189.246094 502.550781 202.667969 514.921875 C 215.5625 526.894531 252.273438 547.160156 272.933594 547.160156 C 274.25 547.160156 275.433594 547.027344 276.75 546.898438 C 281.089844 546.238281 284.25 544.394531 285.960938 541.371094 C 290.699219 533.34375 275.566406 523.867188 260.960938 514.789062 C 250.695312 508.339844 241.089844 502.289062 237.539062 496.5 C 234.378906 491.367188 233.328125 482.550781 232.144531 473.074219 C 230.5625 460.441406 228.984375 447.414062 222.273438 443.335938 C 219.511719 441.757812 214.640625 440.835938 208.984375 440.835938 Z M 208.984375 440.835938 "/></g></svg>