<svg xmlns="http://www.w3.org/2000/svg" xmlns:xlink="http://www.w3.org/1999/xlink" width="1000" zoomAndPan="magnify" viewBox="0 0 750 663.750002" height="885" preserveAspectRatio="xMidYMid meet" version="1.2"><g id="b1cec760f2"><path style=" stroke:none;fill-rule:nonzero;fill:currentColor;fill-opacity:1;" d="M 733.410156 192.941406 C 727.003906 174.027344 718.558594 155.984375 708.078125 139.105469 C 686.824219 104.765625 658.292969 75.375 624.519531 53.113281 C 611.414062 44.382812 595.546875 34.636719 578.371094 27.214844 C 567.160156 22.414062 555.367188 19.066406 543.433594 17.320312 C 534.84375 15.867188 525.960938 14.847656 517.519531 13.828125 C 511.988281 13.246094 506.308594 12.519531 500.777344 11.792969 C 494.082031 10.917969 487.238281 9.753906 480.542969 8.734375 C 466.277344 6.554688 451.574219 4.226562 436.871094 3.207031 C 392.179688 0.152344 347.339844 4.371094 304.105469 16.011719 C 282.558594 21.832031 261.449219 29.398438 241.214844 38.855469 C 236.265625 41.183594 231.316406 43.65625 226.367188 46.128906 C 131.449219 95.601562 57.5 186.683594 28.820312 289.992188 C 0.140625 393.296875 16.300781 509.40625 72.347656 600.78125 C 85.011719 621.445312 97.96875 631.046875 112.089844 630.464844 C 128.25 629.738281 138 616.058594 147.464844 602.820312 C 152.707031 595.542969 157.945312 588.125 164.351562 582.59375 C 182.113281 567.316406 208.605469 568.625 227.386719 575.027344 C 243.398438 580.414062 257.957031 589.578125 272.078125 598.308594 C 276.882812 601.21875 281.6875 604.273438 286.636719 607.183594 C 337.003906 636.867188 395.671875 651.855469 454.195312 651.855469 C 498.304688 652 542.121094 643.269531 582.738281 625.953125 C 616.367188 611.550781 638.054688 594.089844 649.410156 572.265625 C 665.570312 540.980469 659.164062 504.316406 652.90625 468.8125 C 646.5 432.4375 639.949219 394.898438 658.582031 364.488281 C 667.316406 350.082031 681 339.171875 694.25 328.550781 C 707.496094 317.925781 721.472656 306.871094 730.496094 291.882812 C 749.859375 260.601562 742.726562 220.730469 733.410156 192.941406 Z M 727.875 290.71875 C 718.996094 305.125 705.457031 316.035156 692.210938 326.511719 C 678.816406 337.277344 664.988281 348.335938 655.816406 363.179688 C 636.601562 394.460938 643.296875 432.582031 649.847656 469.539062 C 655.960938 504.605469 662.367188 540.691406 646.644531 571.101562 C 635.726562 592.199219 614.328125 609.367188 581.425781 623.335938 C 487.96875 663.347656 375.582031 656.21875 287.945312 604.710938 C 283.140625 601.800781 278.191406 598.746094 273.386719 595.835938 C 259.121094 586.960938 244.417969 577.792969 228.113281 572.265625 C 219.234375 569.207031 209.769531 567.753906 200.453125 567.753906 C 186.914062 567.753906 173.230469 571.246094 162.3125 580.558594 C 155.617188 586.234375 150.230469 593.945312 144.84375 601.363281 C 135.382812 614.605469 126.5 627.117188 111.796875 627.699219 C 98.84375 628.28125 86.757812 618.96875 74.675781 599.472656 C 19.210938 508.679688 3.050781 393.296875 31.585938 290.71875 C 60.117188 188.140625 133.488281 97.785156 227.96875 48.75 C 232.773438 46.277344 237.722656 43.800781 242.671875 41.472656 C 262.761719 32.160156 283.578125 24.597656 304.976562 18.777344 C 347.921875 7.28125 392.46875 3.0625 436.722656 6.117188 C 451.28125 7.136719 465.984375 9.464844 480.25 11.644531 C 486.949219 12.664062 493.789062 13.683594 500.488281 14.703125 C 506.019531 15.429688 511.695312 16.15625 517.226562 16.738281 C 525.671875 17.757812 534.550781 18.777344 543.140625 20.085938 C 554.933594 21.976562 566.433594 25.179688 577.351562 29.832031 C 594.382812 37.109375 609.960938 46.859375 622.917969 55.441406 C 656.398438 77.414062 684.496094 106.511719 705.605469 140.5625 C 715.9375 157.292969 724.382812 175.191406 730.644531 193.8125 C 739.8125 221.167969 746.800781 260.019531 727.875 290.71875 Z M 679.980469 144.34375 C 670.230469 128.484375 658.726562 113.644531 645.773438 100.402344 C 641.695312 96.183594 637.328125 92.109375 632.960938 88.179688 C 623.207031 79.59375 612.871094 71.738281 601.953125 64.753906 C 590.453125 57.332031 575.167969 48.023438 558.570312 41.183594 C 548.089844 36.816406 537.027344 33.90625 525.816406 32.308594 C 519.121094 31.289062 512.714844 30.5625 507.183594 29.980469 L 500.339844 29.25 C 495.683594 28.816406 490.734375 28.234375 485.929688 27.652344 C 480.105469 26.925781 474.28125 26.195312 468.460938 25.324219 C 454.628906 23.433594 440.507812 21.539062 426.242188 20.8125 C 405.425781 19.792969 384.753906 20.523438 364.082031 22.851562 C 343.699219 25.03125 323.613281 28.816406 303.957031 34.34375 C 284.304688 39.726562 265.089844 46.859375 246.601562 55.734375 C 242.089844 57.914062 237.574219 60.097656 233.0625 62.570312 C 195.214844 82.941406 161.148438 109.570312 132.46875 141.433594 C 93.890625 183.773438 66.085938 234.847656 51.238281 290.136719 C 39.011719 337.132812 36.246094 386.167969 43.230469 434.328125 C 50.074219 482.488281 66.667969 528.613281 92.144531 570.082031 C 103.644531 588.5625 115.292969 597.289062 128.101562 596.855469 C 142.804688 596.273438 151.539062 584.195312 160.128906 572.410156 C 164.789062 566.007812 169.59375 559.316406 175.414062 554.660156 C 188.953125 543.308594 210.207031 540.980469 232.042969 548.109375 C 248.058594 553.347656 262.761719 561.933594 277.171875 570.226562 C 280.957031 572.410156 284.742188 574.59375 288.671875 576.773438 C 339.917969 605.4375 396.980469 620.425781 452.011719 620.425781 C 472.246094 620.425781 492.335938 618.386719 512.132812 614.167969 C 530.039062 610.242188 547.652344 604.421875 564.394531 596.855469 C 594.964844 583.03125 614.765625 566.300781 624.808594 545.492188 C 638.492188 517.121094 632.671875 484.234375 626.992188 452.515625 C 624.808594 440.441406 622.625 427.925781 621.460938 415.851562 C 618.984375 389.222656 622.480469 370.164062 632.671875 353.867188 C 640.824219 340.769531 653.488281 330.730469 665.570312 320.835938 C 677.945312 310.796875 690.902344 300.613281 699.34375 286.789062 C 717.539062 257.398438 711.425781 220.441406 702.984375 194.6875 C 697.304688 176.9375 689.589844 160.203125 679.980469 144.34375 Z M 697.015625 284.898438 C 688.863281 298.140625 676.195312 308.324219 663.96875 318.21875 C 651.742188 328.113281 638.929688 338.441406 630.339844 351.976562 C 619.714844 368.851562 616.21875 388.496094 618.695312 415.703125 C 619.859375 427.925781 622.042969 440.292969 624.226562 452.515625 C 629.902344 483.800781 635.582031 516.246094 622.335938 543.746094 C 612.582031 563.824219 593.363281 580.265625 563.375 593.796875 C 546.78125 601.21875 529.457031 607.039062 511.695312 610.824219 C 492.1875 615.042969 472.097656 617.078125 452.15625 617.078125 C 397.710938 617.078125 341.082031 602.238281 290.273438 573.863281 C 286.488281 571.683594 282.703125 569.5 278.773438 567.316406 C 264.214844 559.023438 249.367188 550.4375 233.207031 545.054688 C 225.054688 542.289062 216.613281 540.835938 208.023438 540.835938 C 194.777344 540.835938 182.695312 544.617188 173.8125 552.183594 C 167.84375 557.277344 162.894531 563.972656 158.089844 570.519531 C 149.503906 582.160156 141.496094 593.214844 128.25 593.652344 C 116.601562 594.089844 105.828125 585.796875 94.910156 568.191406 C 44.980469 487.582031 29.691406 383.695312 54.296875 290.574219 C 69 235.71875 96.511719 185.085938 134.800781 143.035156 C 163.332031 111.460938 197.105469 85.125 234.519531 64.898438 C 238.886719 62.570312 243.398438 60.390625 247.910156 58.207031 C 266.253906 49.476562 285.179688 42.492188 304.6875 36.964844 C 324.195312 31.578125 344.285156 27.796875 364.371094 25.613281 C 384.898438 23.285156 405.570312 22.703125 426.242188 23.722656 C 440.363281 24.449219 454.484375 26.34375 468.167969 28.234375 C 473.847656 28.960938 479.816406 29.832031 485.636719 30.5625 C 490.441406 31.144531 495.390625 31.578125 500.195312 32.160156 L 507.039062 32.890625 C 512.570312 33.472656 518.976562 34.199219 525.527344 35.21875 C 536.589844 36.816406 547.214844 39.726562 557.550781 43.949219 C 573.855469 50.640625 588.996094 59.953125 600.351562 67.226562 C 611.125 74.210938 621.316406 81.921875 630.921875 90.363281 C 635.289062 94.144531 639.511719 98.21875 643.589844 102.4375 C 656.398438 115.679688 667.753906 130.230469 677.363281 146.089844 C 686.824219 161.660156 694.539062 178.246094 700.21875 195.558594 C 708.660156 220.585938 714.773438 256.527344 697.015625 284.898438 Z M 651.886719 149.582031 C 643.003906 134.886719 632.378906 121.210938 620.296875 108.988281 C 616.511719 105.058594 612.433594 101.273438 608.359375 97.785156 C 599.332031 89.78125 589.578125 82.652344 579.390625 76.25 C 563.667969 66.355469 551.148438 59.808594 538.773438 55.003906 C 529.019531 51.222656 518.683594 48.605469 508.347656 47.148438 C 501.941406 46.277344 495.828125 45.695312 491.023438 45.113281 L 483.164062 44.382812 C 479.234375 44.09375 475.15625 43.65625 471.226562 43.21875 C 466.421875 42.785156 461.617188 42.203125 456.8125 41.621094 C 443.421875 40.164062 429.589844 38.5625 415.90625 38.128906 C 396.691406 37.691406 377.328125 38.710938 358.257812 41.183594 C 339.917969 43.367188 321.71875 47.148438 303.8125 52.242188 C 286.054688 57.332031 268.730469 64.027344 251.988281 72.175781 C 247.476562 74.359375 243.542969 76.394531 239.757812 78.429688 C 205.113281 97.636719 173.960938 122.519531 147.609375 151.910156 C 112.089844 191.050781 86.90625 238.484375 74.238281 289.699219 C 63.902344 331.75 62.011719 375.253906 68.269531 418.03125 C 74.53125 460.808594 89.523438 501.695312 112.378906 538.507812 C 122.570312 554.660156 132.761719 562.515625 143.824219 562.515625 L 144.554688 562.515625 C 157.65625 562.078125 165.660156 551.601562 173.375 541.417969 C 177.597656 535.890625 181.964844 530.214844 187.0625 525.996094 C 199 516.246094 217.921875 514.210938 237.429688 520.609375 C 254.316406 525.996094 269.3125 533.996094 285.035156 542.289062 L 291.292969 545.636719 C 331.035156 566.589844 387.226562 588.558594 448.371094 588.558594 C 465.113281 588.558594 481.851562 586.816406 498.15625 583.46875 C 514.898438 579.832031 531.203125 574.300781 546.632812 566.878906 C 574.003906 553.785156 592.199219 537.199219 600.789062 517.703125 C 612 492.238281 606.613281 463.285156 601.515625 435.054688 C 599.332031 423.125 597.003906 410.757812 595.984375 398.828125 C 594.09375 375.109375 597.585938 357.210938 607.195312 342.371094 C 614.765625 330.441406 626.265625 321.273438 637.328125 312.253906 C 648.828125 303.085938 660.621094 293.484375 668.628906 280.824219 C 685.660156 253.617188 680.273438 219.714844 672.847656 195.996094 C 667.753906 179.847656 660.765625 164.277344 651.886719 149.582031 Z M 666.152344 279.222656 C 658.582031 291.445312 646.789062 300.757812 635.582031 309.925781 C 624.226562 318.945312 612.582031 328.402344 604.71875 340.625 C 594.820312 356.050781 591.035156 374.671875 593.074219 398.972656 C 594.09375 411.046875 596.421875 423.417969 598.605469 435.492188 C 603.992188 464.449219 608.941406 491.800781 598.167969 516.390625 C 589.871094 535.160156 572.109375 551.3125 545.46875 564.117188 C 530.328125 571.390625 514.171875 576.921875 497.722656 580.558594 C 418.820312 597.289062 342.683594 569.355469 292.75 543.019531 L 286.636719 539.671875 C 271.351562 531.523438 255.628906 523.230469 238.449219 517.703125 C 231.171875 515.226562 223.457031 514.0625 215.738281 513.917969 C 203.949219 513.917969 193.320312 517.265625 185.460938 523.667969 C 180.074219 528.03125 175.558594 533.851562 171.339844 539.671875 C 163.625 549.855469 156.488281 559.316406 144.699219 559.605469 C 134.363281 559.898438 124.753906 552.476562 115 537.054688 C 69.871094 465.175781 56.1875 375.402344 77.152344 290.425781 C 89.671875 239.648438 114.710938 192.652344 149.792969 153.945312 C 175.996094 124.699219 206.859375 100.113281 241.214844 81.050781 C 244.855469 79.011719 248.785156 76.976562 253.296875 74.792969 C 269.894531 66.792969 287.070312 60.097656 304.6875 55.003906 C 322.300781 49.914062 340.351562 46.277344 358.695312 44.09375 C 377.621094 41.621094 396.835938 40.601562 415.90625 41.039062 C 429.589844 41.472656 443.273438 42.929688 456.667969 44.53125 C 461.472656 45.113281 466.277344 45.546875 471.082031 46.128906 C 475.011719 46.566406 479.085938 46.859375 483.015625 47.292969 L 490.734375 48.023438 C 495.390625 48.457031 501.652344 49.039062 507.910156 50.058594 C 518.101562 51.515625 528.144531 53.988281 537.753906 57.769531 C 549.835938 62.570312 562.210938 68.972656 577.789062 78.722656 C 587.832031 85.125 597.441406 92.109375 606.320312 99.964844 C 610.398438 103.457031 614.328125 107.242188 618.113281 111.167969 C 630.050781 123.246094 640.53125 136.777344 649.265625 151.183594 C 658 165.585938 664.988281 180.863281 670.082031 196.871094 C 677.507812 220.003906 682.601562 253.035156 666.152344 279.222656 Z M 623.789062 154.964844 C 615.636719 141.433594 606.03125 128.921875 594.964844 117.71875 C 591.472656 114.078125 587.6875 110.585938 583.902344 107.386719 C 575.457031 100.109375 566.433594 93.5625 556.96875 87.742188 C 545.03125 80.175781 532.367188 73.921875 519.265625 68.828125 C 510.09375 65.480469 500.488281 63.152344 490.878906 61.988281 C 486.21875 61.40625 481.269531 60.824219 474.867188 60.390625 L 465.839844 59.660156 C 462.78125 59.371094 459.726562 59.226562 456.667969 58.933594 L 445.605469 58.0625 C 432.503906 56.898438 418.964844 55.734375 405.425781 55.734375 L 405.28125 55.734375 C 387.664062 55.878906 369.90625 57.1875 352.4375 59.808594 C 335.984375 62.136719 319.679688 65.628906 303.667969 70.429688 C 287.652344 75.230469 272.222656 81.488281 257.375 88.90625 C 253.152344 91.089844 249.660156 92.835938 246.457031 94.726562 C 216.320312 111.898438 188.078125 134.742188 162.605469 162.824219 C 130.140625 198.761719 107.429688 242.410156 96.804688 289.699219 C 79.480469 365.796875 92.4375 445.242188 132.324219 507.515625 C 141.496094 521.921875 150.8125 528.613281 160.710938 528.613281 C 172.359375 528.46875 179.34375 519.449219 186.332031 510.71875 C 189.972656 506.0625 193.902344 501.257812 198.414062 497.621094 C 208.898438 489.472656 225.347656 487.875 242.527344 493.257812 C 261.160156 499.078125 278.046875 507.078125 293.769531 514.792969 C 332.636719 533.851562 387.226562 556.839844 444.585938 556.839844 C 457.832031 556.839844 471.082031 555.53125 484.183594 552.914062 C 499.757812 549.710938 514.753906 544.472656 528.875 537.199219 C 553.332031 524.683594 569.488281 508.824219 576.769531 490.203125 C 585.648438 467.648438 580.699219 442.332031 576.039062 417.886719 C 573.710938 406.101562 571.382812 393.878906 570.65625 382.09375 C 569.199219 360.851562 572.691406 344.554688 581.863281 330.878906 C 588.851562 320.253906 599.332031 311.816406 609.378906 303.8125 C 619.859375 295.375 630.777344 286.5 638.203125 275.003906 C 654.070312 250.125 649.558594 218.984375 643.003906 197.453125 C 638.054688 182.609375 631.796875 168.351562 623.789062 154.964844 Z M 635.4375 273.550781 C 628.300781 284.753906 617.675781 293.335938 607.339844 301.632812 C 597.003906 309.925781 586.523438 318.363281 579.242188 329.421875 C 569.78125 343.679688 566.140625 360.558594 567.597656 382.382812 C 568.472656 394.316406 570.800781 406.683594 573.128906 418.46875 C 577.933594 443.640625 582.589844 467.503906 574.003906 489.183594 C 567.015625 507.078125 551.292969 522.355469 527.417969 534.578125 C 513.589844 541.710938 498.886719 546.945312 483.601562 550.148438 C 413.285156 564.699219 342.246094 535.453125 294.933594 512.171875 C 279.210938 504.460938 262.179688 496.457031 243.398438 490.492188 C 236.847656 488.457031 230.007812 487.292969 223.164062 487.292969 C 212.828125 487.292969 203.511719 490.054688 196.667969 495.292969 C 191.863281 499.078125 187.933594 504.023438 184.148438 508.824219 C 177.308594 517.410156 171.046875 525.414062 160.855469 525.558594 L 160.421875 525.558594 C 151.6875 525.558594 143.242188 519.15625 134.800781 505.769531 C 95.347656 444.078125 82.539062 365.507812 99.714844 290.136719 C 110.195312 243.429688 132.617188 200.214844 164.640625 164.570312 C 189.828125 136.777344 217.921875 113.933594 247.765625 97.054688 C 250.96875 95.308594 254.316406 93.417969 258.539062 91.234375 C 273.242188 83.816406 288.671875 77.703125 304.394531 72.902344 C 320.261719 68.101562 336.421875 64.609375 352.726562 62.425781 C 370.050781 59.808594 387.519531 58.496094 405.132812 58.351562 L 405.28125 58.351562 C 418.671875 58.351562 432.066406 59.515625 445.167969 60.679688 L 456.085938 61.554688 L 465.257812 62.28125 C 468.3125 62.425781 471.226562 62.71875 474.28125 63.007812 C 480.6875 63.589844 485.492188 64.027344 490.296875 64.609375 C 499.757812 65.773438 508.929688 68.101562 517.808594 71.300781 C 530.765625 76.394531 543.285156 82.652344 555.078125 90.070312 C 564.539062 95.746094 573.421875 102.292969 581.71875 109.421875 C 585.503906 112.625 589.144531 116.117188 592.636719 119.609375 C 603.554688 130.667969 613.164062 142.890625 621.167969 156.273438 C 629.03125 169.371094 635.289062 183.484375 639.804688 198.179688 C 646.207031 219.421875 650.574219 249.542969 635.4375 273.550781 Z M 595.695312 160.347656 C 588.414062 147.980469 579.679688 136.632812 569.488281 126.59375 C 566.140625 123.246094 562.792969 120.191406 559.152344 117.136719 C 551.292969 110.585938 542.996094 104.621094 534.113281 99.382812 C 523.050781 92.691406 511.257812 87.160156 499.03125 82.796875 C 490.585938 79.886719 481.851562 77.996094 472.972656 76.976562 C 468.605469 76.539062 463.945312 76.101562 458.269531 75.667969 C 454.777344 75.523438 451.136719 75.230469 447.640625 75.085938 L 441.527344 74.792969 L 434.6875 74.359375 C 421.585938 73.628906 408.046875 72.757812 394.652344 73.195312 C 378.492188 73.777344 362.335938 75.523438 346.320312 78.285156 C 331.765625 80.613281 317.351562 83.960938 303.230469 88.472656 C 289.109375 92.980469 275.570312 98.65625 262.46875 105.496094 C 258.683594 107.53125 255.628906 109.132812 252.863281 110.734375 C 226.222656 126.445312 200.746094 147.691406 177.453125 173.589844 C 148.046875 206.328125 128.101562 246.339844 119.660156 289.554688 C 106.265625 355.902344 118.203125 424 152.414062 476.378906 C 160.421875 488.601562 168.425781 494.566406 177.015625 494.566406 C 187.0625 494.566406 193.320312 487.144531 199.289062 480.015625 C 202.347656 476.085938 205.839844 472.59375 209.625 469.394531 C 222.4375 459.9375 240.34375 464.011719 247.476562 466.046875 C 264.070312 470.851562 280.230469 476.816406 296.097656 483.800781 C 339.917969 503.585938 388.539062 525.414062 438.761719 525.414062 C 449.242188 525.414062 459.726562 524.394531 470.0625 522.355469 C 484.328125 519.449219 498.011719 514.355469 510.824219 507.371094 C 525.671875 499.078125 545.03125 484.671875 552.457031 462.554688 C 559.007812 442.914062 554.640625 421.234375 550.417969 400.425781 C 548.089844 388.785156 545.617188 376.855469 545.03125 365.214844 C 544.015625 346.445312 547.507812 332.042969 556.097656 319.527344 C 562.503906 310.214844 571.820312 302.648438 580.84375 295.375 C 590.453125 287.664062 600.351562 279.660156 607.046875 269.183594 C 621.75 246.484375 618.113281 218.402344 612.582031 198.761719 C 608.503906 185.519531 602.828125 172.425781 595.695312 160.347656 Z M 604.429688 267.875 C 597.878906 277.914062 588.269531 285.773438 578.808594 293.484375 C 569.636719 300.902344 560.171875 308.46875 553.476562 318.21875 C 544.449219 331.3125 540.8125 346.445312 541.832031 365.796875 C 542.414062 377.582031 544.886719 389.660156 547.363281 401.445312 C 551.730469 422.980469 555.953125 443.203125 549.546875 462.121094 C 542.414062 483.21875 523.632812 497.183594 509.222656 505.1875 C 496.703125 512.171875 483.308594 517.121094 469.332031 520.03125 C 409.210938 531.960938 349.667969 505.1875 297.261719 481.472656 C 281.394531 474.339844 265.089844 468.375 248.496094 463.429688 C 242.671875 461.539062 236.558594 460.664062 230.441406 460.519531 C 221.707031 460.519531 213.992188 462.703125 208.023438 467.066406 C 203.949219 470.269531 200.308594 474.050781 197.105469 478.125 C 191.28125 485.109375 185.75 491.65625 177.015625 491.65625 C 169.445312 491.65625 162.167969 486.128906 154.742188 474.777344 C 120.824219 422.980469 109.03125 355.757812 122.28125 290.136719 C 130.722656 247.503906 150.519531 207.929688 179.492188 175.625 C 202.636719 150.019531 227.824219 129.066406 254.316406 113.351562 C 256.9375 111.75 259.996094 110.152344 263.78125 108.113281 C 276.734375 101.273438 290.273438 95.746094 304.105469 91.234375 C 318.078125 86.871094 332.199219 83.523438 346.757812 81.195312 C 362.625 78.429688 378.640625 76.683594 394.796875 76.101562 C 408.046875 75.667969 421.4375 76.539062 434.539062 77.265625 L 441.382812 77.703125 L 447.496094 77.996094 C 450.992188 78.140625 454.628906 78.285156 458.125 78.578125 C 463.800781 78.867188 468.460938 79.304688 472.679688 79.886719 C 481.417969 80.757812 489.859375 82.796875 498.15625 85.5625 C 510.09375 89.925781 521.742188 95.457031 532.660156 102.003906 C 541.394531 107.09375 549.546875 112.914062 557.261719 119.464844 C 560.753906 122.375 564.105469 125.574219 567.453125 128.773438 C 577.351562 138.667969 586.085938 149.871094 593.21875 161.949219 C 600.351562 173.878906 605.882812 186.683594 609.667969 200.070312 C 615.054688 218.839844 618.550781 246.050781 604.429688 267.875 Z M 567.597656 165.585938 C 561.191406 154.382812 553.183594 144.199219 544.015625 135.175781 C 540.957031 132.265625 537.753906 129.355469 534.550781 126.738281 C 527.417969 120.773438 519.558594 115.535156 511.550781 111.023438 C 501.359375 105.203125 490.585938 100.402344 479.378906 96.765625 C 471.664062 94.292969 463.65625 92.691406 455.503906 91.964844 C 451.425781 91.527344 447.207031 91.234375 442.109375 91.089844 C 438.035156 90.945312 433.8125 90.800781 429.738281 90.652344 L 425.371094 90.507812 C 411.976562 90.070312 398 89.78125 384.316406 90.652344 C 369.613281 91.816406 355.054688 93.855469 340.644531 96.910156 C 327.980469 99.238281 315.460938 102.4375 303.230469 106.660156 C 291.003906 110.878906 279.210938 116.117188 267.855469 122.375 C 265.382812 123.683594 262.46875 125.429688 259.558594 127.175781 C 236.410156 141.726562 213.847656 160.929688 192.449219 184.648438 C 166.824219 213.019531 149.066406 250.269531 142.371094 289.554688 C 132.761719 345.863281 143.679688 402.609375 172.503906 445.242188 C 176.871094 451.644531 183.710938 460.375 193.320312 460.519531 L 193.757812 460.519531 C 201.910156 460.519531 207.296875 454.84375 212.390625 449.316406 C 215.011719 446.261719 217.921875 443.496094 221.125 441.167969 C 228.550781 436.074219 240.050781 435.347656 252.714844 438.984375 L 261.742188 441.457031 C 274.261719 444.660156 286.488281 448.734375 298.574219 453.390625 C 306.871094 456.734375 315.460938 460.519531 323.757812 464.011719 C 358.839844 479.144531 394.945312 494.710938 432.355469 494.710938 C 440.363281 494.710938 448.226562 493.984375 456.085938 492.53125 C 469.1875 489.910156 481.5625 485.109375 492.917969 478.125 C 506.019531 470.269531 522.761719 456.445312 528.292969 435.492188 C 532.804688 418.761719 528.875 401.589844 524.945312 383.257812 C 522.46875 372.054688 519.847656 360.414062 519.410156 348.917969 C 518.828125 332.914062 522.46875 319.671875 530.476562 308.617188 C 536.296875 300.46875 544.449219 293.773438 552.457031 287.371094 C 561.191406 280.386719 570.070312 273.113281 576.332031 263.65625 C 589.871094 243.140625 587.105469 218.113281 582.445312 200.507812 C 578.953125 188.429688 574.003906 176.644531 567.597656 165.585938 Z M 573.566406 262.054688 C 567.597656 271.074219 558.863281 278.207031 550.417969 285.042969 C 542.414062 291.589844 533.96875 298.285156 528 306.722656 C 519.558594 318.363281 515.773438 332.1875 516.355469 348.773438 C 516.792969 360.414062 519.410156 372.199219 521.886719 383.695312 C 525.816406 401.589844 529.601562 418.46875 525.378906 434.472656 C 519.992188 454.40625 503.835938 467.648438 491.316406 475.359375 C 480.25 482.199219 468.023438 486.855469 455.359375 489.328125 C 410.375 497.914062 366.847656 479.144531 324.777344 461.101562 C 316.476562 457.609375 307.890625 453.824219 299.589844 450.480469 C 287.507812 445.824219 275.132812 441.75 262.46875 438.546875 L 253.589844 435.929688 C 240.195312 432.144531 227.824219 433.019531 219.671875 438.546875 C 216.320312 441.023438 213.121094 443.933594 210.351562 447.132812 C 205.402344 452.515625 200.601562 457.609375 193.464844 457.464844 C 187.207031 457.316406 181.382812 452.808594 174.976562 443.496094 C 146.445312 401.589844 135.671875 345.574219 145.136719 289.992188 C 151.832031 251.140625 169.300781 214.476562 194.484375 186.394531 C 215.738281 162.824219 238.011719 143.761719 261.015625 129.503906 C 263.925781 127.757812 266.835938 126.15625 269.167969 124.847656 C 280.375 118.734375 292.023438 113.496094 303.957031 109.421875 C 316.042969 105.347656 328.414062 102.148438 341.082031 99.820312 C 355.347656 96.910156 369.90625 94.875 384.460938 93.710938 C 398 92.835938 411.25 93.128906 425.371094 93.5625 L 429.738281 93.710938 C 433.8125 93.855469 437.890625 93.855469 442.109375 94.144531 C 447.207031 94.292969 451.425781 94.582031 455.359375 95.019531 C 463.21875 95.746094 471.082031 97.347656 478.503906 99.675781 C 489.570312 103.3125 500.195312 107.96875 510.242188 113.789062 C 518.246094 118.300781 525.816406 123.390625 532.804688 129.210938 C 536.007812 131.832031 539.210938 134.742188 542.121094 137.503906 C 551.148438 146.378906 558.863281 156.421875 565.121094 167.332031 C 571.382812 178.101562 576.1875 189.59375 579.390625 201.671875 C 583.902344 218.257812 586.523438 242.558594 573.566406 262.054688 Z M 539.5 170.96875 C 533.824219 161.078125 526.835938 151.910156 518.683594 144.054688 C 515.917969 141.433594 513.007812 138.816406 509.949219 136.488281 C 503.398438 131.25 496.410156 126.59375 488.984375 122.664062 C 479.667969 117.570312 469.769531 113.644531 459.578125 110.585938 C 452.445312 108.695312 445.167969 107.386719 437.890625 106.949219 C 434.105469 106.660156 430.171875 106.511719 425.804688 106.367188 C 421.4375 106.222656 416.636719 106.367188 411.976562 106.367188 C 399.164062 106.367188 386.355469 106.949219 373.691406 108.257812 C 360.589844 110.003906 347.484375 112.332031 334.53125 115.535156 C 323.757812 117.863281 313.128906 120.917969 302.792969 124.847656 C 292.457031 128.773438 282.558594 133.578125 272.949219 139.105469 C 270.765625 140.414062 268.292969 141.871094 265.964844 143.472656 C 246.019531 156.710938 226.804688 173.734375 207.152344 195.707031 C 184.441406 221.023438 169.445312 254.34375 164.789062 289.699219 C 158.671875 336.550781 168.425781 380.785156 192.300781 414.394531 C 195.941406 419.488281 201.617188 426.328125 209.335938 426.761719 C 216.175781 427.199219 220.6875 422.980469 225.054688 418.761719 C 227.238281 416.578125 229.570312 414.6875 232.191406 412.941406 C 240.34375 408.136719 251.550781 410.175781 257.519531 411.777344 C 263.34375 413.375 269.167969 414.6875 274.699219 415.851562 C 283.433594 417.597656 292.023438 419.777344 300.609375 422.6875 C 313.421875 427.199219 326.378906 433.019531 338.898438 438.695312 C 366.265625 451.0625 394.507812 463.71875 424.058594 463.71875 C 429.882812 463.71875 435.707031 463.136719 441.527344 462.121094 C 453.320312 459.9375 464.675781 455.28125 474.574219 448.441406 C 490.585938 437.675781 500.777344 423.417969 503.6875 407.992188 C 506.308594 394.171875 502.816406 380.203125 499.03125 365.507812 C 496.265625 354.59375 493.5 343.390625 493.351562 332.332031 C 493.207031 318.800781 496.847656 307.304688 504.417969 297.410156 C 509.65625 290.574219 516.644531 284.753906 523.488281 279.222656 C 531.203125 272.96875 539.355469 266.417969 544.886719 258.125 C 557.261719 239.792969 555.367188 217.675781 551.730469 202.253906 C 549.109375 191.195312 545.03125 180.71875 539.5 170.96875 Z M 542.703125 256.378906 C 537.316406 264.382812 529.457031 270.785156 521.886719 276.894531 C 514.898438 282.570312 507.765625 288.535156 502.234375 295.519531 C 494.226562 305.996094 490.441406 318.074219 490.585938 332.1875 C 490.734375 343.679688 493.644531 355.03125 496.410156 366.089844 C 500.050781 380.636719 503.398438 394.171875 500.921875 407.410156 C 498.15625 421.960938 488.402344 435.636719 473.117188 445.96875 C 463.511719 452.515625 452.59375 457.027344 441.238281 459.210938 C 406.152344 465.613281 372.671875 450.480469 340.351562 435.929688 C 327.832031 430.253906 314.730469 424.289062 301.921875 419.925781 C 293.332031 417.160156 284.597656 414.832031 275.71875 413.085938 C 270.183594 411.921875 264.363281 410.613281 258.683594 409.011719 C 252.277344 407.265625 240.195312 405.226562 231.171875 410.464844 C 228.40625 412.210938 225.785156 414.25 223.601562 416.578125 C 219.523438 420.507812 215.59375 424.144531 209.917969 423.707031 C 203.511719 423.269531 198.269531 417.160156 195.066406 412.503906 C 171.628906 379.476562 162.167969 335.96875 168.136719 289.84375 C 172.648438 255.070312 187.496094 222.1875 209.769531 197.304688 C 229.277344 175.625 248.203125 158.75 268 145.652344 C 270.332031 144.054688 272.660156 142.742188 274.84375 141.433594 C 284.160156 135.90625 294.058594 131.25 304.25 127.320312 C 314.441406 123.539062 324.921875 120.480469 335.550781 118.152344 C 348.359375 114.953125 361.316406 112.625 374.273438 110.878906 C 386.9375 109.570312 399.601562 108.988281 412.269531 108.988281 C 416.925781 108.988281 421.4375 108.988281 425.953125 108.988281 C 430.464844 108.988281 434.25 109.277344 437.890625 109.570312 C 445.023438 110.003906 452.011719 111.316406 458.996094 113.207031 C 468.898438 116.117188 478.503906 120.046875 487.675781 124.992188 C 494.953125 128.773438 501.941406 133.285156 508.347656 138.523438 C 511.257812 140.851562 514.171875 143.324219 516.792969 145.945312 C 532.660156 161.511719 544.015625 181.15625 549.253906 202.691406 C 552.75 217.675781 554.496094 239.066406 542.703125 256.378906 Z M 511.40625 176.207031 C 506.601562 167.480469 500.488281 159.476562 493.351562 152.636719 C 490.878906 150.308594 488.257812 148.125 485.492188 145.945312 C 479.523438 141.289062 473.117188 137.359375 466.421875 134.160156 C 457.976562 129.9375 448.953125 126.738281 439.78125 124.410156 C 433.375 122.957031 426.972656 122.082031 420.417969 121.792969 C 417.070312 121.644531 413.433594 121.644531 409.648438 121.644531 C 406.007812 121.644531 402.078125 121.792969 397.273438 122.082031 C 385.773438 122.664062 374.417969 123.828125 363.207031 125.71875 C 351.5625 127.757812 340.207031 130.8125 328.707031 134.160156 C 319.828125 136.488281 311.238281 139.542969 302.648438 143.035156 C 294.207031 146.671875 286.054688 150.890625 278.335938 155.839844 C 276.445312 157.003906 274.550781 158.3125 272.660156 159.621094 C 256.355469 171.40625 239.90625 186.683594 222.289062 206.328125 C 202.347656 228.589844 189.972656 258.273438 187.789062 289.554688 C 185.167969 325.640625 194.046875 358.8125 212.535156 383.257812 C 215.449219 387.039062 219.960938 392.132812 225.785156 392.714844 C 231.171875 393.296875 234.808594 390.679688 238.304688 388.203125 C 240.050781 386.894531 241.796875 385.730469 243.691406 384.859375 C 249.511719 382.238281 257.375 383.257812 262.90625 384.710938 C 269.167969 386.167969 275.570312 387.332031 281.976562 388.058594 C 289.109375 388.785156 296.242188 390.242188 303.230469 391.988281 C 318.078125 396.351562 332.636719 403.628906 346.613281 410.613281 C 368.59375 421.671875 391.160156 433.019531 415.179688 433.019531 C 419.402344 433.019531 423.476562 432.726562 427.554688 432 C 438.179688 430.109375 448.226562 425.597656 456.8125 419.050781 C 470.207031 408.867188 478.503906 394.898438 479.667969 380.785156 C 480.542969 369.726562 477.195312 358.375 473.992188 347.464844 C 470.933594 337.132812 467.730469 326.511719 468.023438 315.890625 C 468.167969 305.125 471.953125 294.648438 478.941406 286.355469 C 483.453125 280.824219 489.421875 275.878906 495.101562 271.222656 C 501.941406 265.546875 509.074219 259.871094 514.171875 252.453125 C 522.90625 239.9375 525.671875 222.625 521.59375 203.855469 C 519.703125 194.105469 516.207031 184.792969 511.40625 176.207031 Z M 511.839844 250.707031 C 507.039062 257.691406 500.050781 263.363281 493.351562 268.894531 C 487.53125 273.695312 481.417969 278.640625 476.757812 284.316406 C 469.332031 293.046875 465.257812 304.105469 465.113281 315.597656 C 464.964844 326.65625 468.167969 337.570312 471.226562 348.046875 C 474.574219 359.25 477.632812 369.726562 476.757812 380.347656 C 475.59375 393.734375 467.730469 406.828125 455.066406 416.433594 C 446.914062 422.835938 437.304688 427.054688 427.117188 428.800781 C 399.164062 433.457031 374.273438 420.941406 347.921875 407.703125 C 333.800781 400.574219 319.097656 393.152344 303.957031 388.933594 C 296.824219 387.039062 289.546875 385.730469 282.269531 384.859375 C 275.863281 384.128906 269.601562 382.964844 263.488281 381.511719 C 257.519531 380.058594 248.929688 378.894531 242.378906 381.800781 C 240.34375 382.820312 238.304688 383.984375 236.410156 385.441406 C 233.0625 387.914062 230.152344 389.949219 225.929688 389.515625 C 221.273438 388.933594 217.195312 384.421875 214.71875 381.074219 C 196.523438 357.359375 187.933594 324.765625 190.554688 289.410156 C 192.738281 258.855469 204.820312 229.898438 224.328125 207.929688 C 241.796875 188.429688 258.101562 173.152344 274.261719 161.511719 C 276.152344 160.203125 278.046875 158.894531 279.792969 157.730469 C 287.363281 152.929688 295.371094 148.707031 303.667969 145.21875 C 311.964844 141.726562 320.554688 138.816406 329.289062 136.488281 C 340.789062 133.285156 352 130.230469 363.5 128.191406 C 374.707031 126.300781 385.917969 125.136719 397.273438 124.554688 C 402.078125 124.265625 406.007812 124.121094 409.5 124.121094 C 413.285156 124.121094 416.78125 124.121094 420.128906 124.265625 C 426.535156 124.554688 432.792969 125.429688 438.90625 126.882812 C 447.933594 129.066406 456.667969 132.265625 464.964844 136.339844 C 471.515625 139.542969 477.777344 143.472656 483.601562 147.980469 C 486.21875 150.019531 488.839844 152.199219 491.167969 154.527344 C 498.15625 161.222656 504.125 168.933594 508.785156 177.371094 C 513.441406 185.667969 516.792969 194.6875 518.828125 204 C 522.761719 222.332031 520.285156 238.773438 511.839844 250.707031 Z M 483.308594 181.59375 C 479.378906 174.027344 474.136719 167.1875 467.878906 161.367188 C 465.695312 159.332031 463.363281 157.4375 460.890625 155.546875 C 455.503906 151.617188 449.824219 148.273438 443.710938 145.652344 C 435.996094 142.308594 427.988281 139.832031 419.835938 138.234375 C 414.160156 137.214844 408.484375 136.632812 402.660156 136.632812 C 399.601562 136.632812 396.398438 136.632812 393.195312 136.777344 C 389.996094 136.921875 386.210938 137.214844 382.425781 137.652344 C 372.378906 138.667969 362.480469 140.5625 352.582031 143.035156 C 342.683594 145.507812 332.78125 149 322.738281 152.492188 C 315.75 154.820312 309.054688 157.585938 302.503906 160.929688 C 295.953125 164.277344 289.691406 168.0625 283.722656 172.28125 C 282.414062 173.296875 280.8125 174.316406 279.355469 175.625 C 262.90625 189.011719 248.347656 204.726562 237.429688 217.09375 C 219.816406 237.027344 210.351562 262.929688 210.644531 289.554688 C 211.082031 314.144531 218.941406 336.40625 232.773438 352.121094 C 235.101562 354.738281 238.160156 357.792969 241.945312 358.667969 C 245.144531 359.25 248.347656 358.957031 251.261719 357.648438 C 252.425781 357.210938 253.734375 356.777344 254.898438 356.484375 C 258.101562 355.757812 262.46875 356.050781 268.148438 357.359375 C 274.550781 358.523438 280.957031 359.105469 287.363281 359.105469 C 293.621094 359.25 299.738281 359.832031 305.851562 360.851562 C 321.136719 364.195312 335.695312 372.636719 349.523438 380.929688 C 367.140625 391.261719 385.335938 401.882812 405.28125 401.882812 C 408.046875 401.882812 410.8125 401.738281 413.578125 401.300781 C 423.039062 399.699219 431.921875 395.480469 439.054688 389.078125 C 449.972656 379.328125 456.230469 365.941406 455.503906 352.992188 C 455.066406 344.554688 452.011719 336.261719 448.953125 328.113281 C 445.457031 318.65625 441.820312 308.90625 442.402344 299.011719 C 442.984375 290.28125 446.476562 282.425781 453.320312 274.859375 C 457.394531 270.640625 461.761719 266.710938 466.421875 263.074219 C 472.535156 258.125 478.796875 252.886719 483.453125 246.632812 C 491.460938 235.863281 494.226562 221.167969 491.605469 205.308594 C 490.003906 196.871094 487.238281 188.867188 483.308594 181.59375 Z M 480.980469 244.886719 C 476.613281 250.851562 470.496094 255.945312 464.53125 260.890625 C 459.726562 264.671875 455.210938 268.601562 451.136719 272.96875 C 443.859375 280.96875 440.074219 289.410156 439.492188 298.867188 C 438.761719 309.488281 442.546875 319.527344 446.1875 329.132812 C 449.242188 337.425781 452.15625 345.136719 452.59375 353.140625 C 453.175781 365.214844 447.351562 377.730469 437.160156 386.894531 C 430.464844 393.007812 422.167969 397.082031 413.140625 398.535156 C 390.867188 402.027344 371.507812 390.53125 350.980469 378.457031 C 336.859375 370.164062 322.15625 361.578125 306.433594 358.230469 C 300.171875 357.066406 293.769531 356.484375 287.507812 356.339844 C 281.25 356.195312 274.988281 355.613281 268.730469 354.304688 C 265.527344 353.574219 262.179688 353.140625 258.832031 352.992188 C 257.375 352.992188 255.773438 353.140625 254.316406 353.429688 C 253.007812 353.722656 251.550781 354.15625 250.386719 354.59375 C 247.765625 355.46875 245.582031 356.195312 242.671875 355.613281 C 239.757812 355.03125 236.992188 352.265625 234.957031 349.9375 C 221.5625 334.804688 213.992188 313.269531 213.554688 289.261719 C 213.265625 263.363281 222.582031 238.339844 239.613281 218.839844 C 250.386719 206.617188 264.945312 191.050781 281.25 177.808594 C 282.703125 176.644531 284.160156 175.480469 285.46875 174.609375 C 291.292969 170.390625 297.40625 166.605469 303.8125 163.40625 C 310.21875 160.203125 316.914062 157.4375 323.757812 155.109375 C 333.800781 151.617188 343.554688 148.273438 353.308594 145.800781 C 362.917969 143.324219 372.816406 141.578125 382.714844 140.5625 C 386.5 140.125 389.996094 139.832031 393.34375 139.6875 C 396.691406 139.542969 399.746094 139.398438 402.660156 139.542969 C 408.191406 139.542969 413.867188 140.125 419.402344 141.144531 C 427.40625 142.597656 435.269531 145.070312 442.691406 148.417969 C 448.515625 151.035156 454.195312 154.238281 459.289062 158.019531 C 461.617188 159.765625 463.945312 161.660156 465.984375 163.550781 C 471.953125 169.078125 477.050781 175.773438 480.832031 182.902344 C 484.617188 190.03125 487.386719 197.742188 488.695312 205.746094 C 491.167969 220.878906 488.550781 234.699219 480.980469 244.886719 Z M 442.402344 170.097656 C 440.507812 168.351562 438.324219 166.75 436.289062 165.296875 C 420.566406 154.382812 399.457031 149.726562 376.746094 152.199219 C 354.621094 154.527344 332.929688 163.550781 316.625 171.261719 C 305.269531 176.355469 294.789062 183.339844 285.761719 192.070312 C 273.679688 203.707031 262.324219 216.65625 252.277344 228.152344 C 236.265625 246.339844 229.132812 269.328125 233.355469 289.84375 C 237.574219 310.652344 254.027344 327.238281 273.242188 330.296875 C 279.355469 331.023438 285.46875 331.023438 291.585938 330.441406 C 297.117188 329.859375 302.792969 329.859375 308.324219 330.441406 C 323.320312 332.332031 336.421875 341.933594 349.234375 351.101562 C 363.207031 361.285156 377.621094 371.617188 394.363281 371.617188 C 396.109375 371.617188 397.855469 371.472656 399.601562 371.328125 C 421.003906 367.542969 435.269531 347.320312 431.484375 325.929688 C 431.484375 325.785156 431.484375 325.785156 431.484375 325.640625 C 430.171875 319.527344 427.117188 313.707031 424.351562 308.035156 C 420.128906 299.449219 416.050781 291.445312 417.070312 282.714844 C 418.527344 271.367188 427.699219 263.945312 437.304688 255.945312 C 442.839844 251.433594 448.515625 246.777344 452.882812 241.246094 C 469.480469 219.132812 461.035156 186.539062 442.402344 170.097656 Z M 450.261719 239.210938 C 446.1875 244.449219 440.65625 248.960938 435.269531 253.46875 C 425.515625 261.328125 415.617188 269.621094 414.015625 282.132812 C 412.851562 291.738281 417.21875 300.613281 421.585938 309.199219 C 424.351562 314.726562 427.261719 320.402344 428.570312 326.222656 C 432.066406 346.007812 418.964844 364.777344 399.164062 368.417969 C 381.40625 370.746094 366.554688 360.121094 350.980469 348.773438 C 337.878906 339.316406 324.484375 329.566406 308.761719 327.675781 C 306.289062 327.386719 303.8125 327.238281 301.339844 327.238281 C 297.988281 327.238281 294.640625 327.386719 291.4375 327.675781 C 285.617188 328.257812 279.648438 328.257812 273.679688 327.53125 C 255.917969 324.765625 240.195312 308.761719 236.121094 289.410156 C 232.042969 270.058594 239.03125 247.796875 254.460938 230.335938 C 264.507812 218.984375 275.863281 206.035156 287.800781 194.542969 C 296.679688 186.101562 306.871094 179.265625 317.933594 174.316406 C 334.09375 166.75 355.492188 157.875 377.183594 155.546875 C 399.3125 153.21875 419.691406 157.585938 434.832031 168.0625 C 436.871094 169.515625 438.90625 170.96875 440.65625 172.714844 C 458.125 187.847656 466.277344 218.550781 450.261719 239.210938 Z M 450.261719 239.210938 "/></g></svg>